<?xml version="1.0" encoding="UTF-8" standalone="no"?>
<!-- Created with Inkscape (http://www.inkscape.org/) -->

<svg
   xmlns:dc="http://purl.org/dc/elements/1.1/"
   xmlns:cc="http://creativecommons.org/ns#"
   xmlns:rdf="http://www.w3.org/1999/02/22-rdf-syntax-ns#"
   xmlns:svg="http://www.w3.org/2000/svg"
   xmlns="http://www.w3.org/2000/svg"
   xmlns:sodipodi="http://sodipodi.sourceforge.net/DTD/sodipodi-0.dtd"
   xmlns:inkscape="http://www.inkscape.org/namespaces/inkscape"
   width="800"
   height="714"
   viewBox="0 0 211.66667 188.91294"
   version="1.1"
   id="svg823"
   inkscape:version="0.92.3 (2405546, 2018-03-11)"
   sodipodi:docname="drawing.svg">
  <defs
     id="defs817" />
  <sodipodi:namedview
     id="base"
     pagecolor="#ffffff"
     bordercolor="#666666"
     borderopacity="1.0"
     inkscape:pageopacity="0.0"
     inkscape:pageshadow="2"
     inkscape:zoom="0.7"
     inkscape:cx="780.11822"
     inkscape:cy="595.81158"
     inkscape:document-units="mm"
     inkscape:current-layer="layer1"
     showgrid="false"
     units="px"
     inkscape:window-width="2560"
     inkscape:window-height="1387"
     inkscape:window-x="1080"
     inkscape:window-y="222"
     inkscape:window-maximized="1" />
  <metadata
     id="metadata820">
    <rdf:RDF>
      <cc:Work
         rdf:about="">
        <dc:format>image/svg+xml</dc:format>
        <dc:type
           rdf:resource="http://purl.org/dc/dcmitype/StillImage" />
        <dc:title></dc:title>
      </cc:Work>
    </rdf:RDF>
  </metadata>
  <g
     inkscape:label="Layer 1"
     inkscape:groupmode="layer"
     id="layer1"
     transform="translate(0,-108.08681)">
    <path
       inkscape:connector-curvature="0"
       style="fill:#e5e5e5;stroke-width:0.14069039;fill-opacity:0.26244345"
       d="m 179.72929,248.52406 c 1.51946,2.05407 1.7727,4.82568 1.98373,7.40031 0.19697,2.57463 0.3658,4.9523 -0.46427,7.11893 -0.81601,2.1807 -2.61684,4.15037 -4.85382,4.99451 -2.23697,0.84415 -4.9101,0.56277 -7.3159,-0.35173 -2.40581,-0.91448 -4.5443,-2.47615 -5.85272,-4.5865 -1.32249,-2.11036 -1.81491,-4.78348 -1.05518,-6.89383 0.75973,-2.12442 2.78567,-3.68609 4.74127,-5.66982 1.96966,-1.98375 3.85491,-4.3614 6.19037,-4.89603 2.33547,-0.52056 5.10707,0.83007 6.62652,2.88416 z"
       id="path2" />
    <path
       id="path1383"
       d="m 96.184911,187.26373 c 10.119079,10.3639 17.218749,22.44152 20.727799,36.15122 3.50898,13.62807 3.42741,28.88829 -2.6114,41.86352 -6.12042,13.05686 -18.034759,23.91036 -31.336449,26.84816 -13.30169,2.9378 -27.827438,-2.04013 -41.863589,-7.50767 -13.954489,-5.54919 -27.419405,-11.6696 -33.0501566,-22.03346 -5.712361,-10.28226 -3.672259,-24.88965 -1.958513,-40.39465 1.6321,-15.50502 3.019396,-31.90771 11.9143856,-42.43477 8.894953,-10.52711 25.297657,-15.09702 40.068223,-13.22008 14.77059,1.95853 27.99065,10.44547 38.1097,20.72773 z"
       inkscape:connector-curvature="0"
       style="fill:#e5e5e5;stroke-width:0.81605351;fill-opacity:0.26244345" />
    <path
       id="path1394"
       d="m 115.44084,122.56998 c 2.77808,3.22979 4.31392,7.0694 4.56237,10.79608 0.27103,3.72668 -0.72275,7.34042 -2.46188,10.72831 -1.71652,3.3879 -4.17839,6.54992 -7.29525,7.49854 -3.11686,0.9486 -6.86613,-0.29363 -10.954169,-1.42291 -4.11064,-1.15189 -8.5149,-2.19084 -11.0897,-5.05926 -2.55221,-2.86841 -3.27495,-7.58887 -2.03273,-11.47364 1.24222,-3.90738 4.40426,-7.00165 7.81474,-10.1411 3.38789,-3.11685 6.979049,-6.27888 10.818649,-6.52733 3.81703,-0.27103 7.85991,2.37153 10.63797,5.60131 z"
       inkscape:connector-curvature="0"
       style="fill:#e5e5e5;stroke-width:0.22585933;fill-opacity:0.26244345" />
    <path
       id="path1405"
       d="m 187.12496,154.74984 c 4.30035,3.79443 6.40837,9.99197 9.6547,15.51496 3.24634,5.56515 7.58884,10.4979 9.40173,16.48466 1.8129,5.98675 1.09618,12.98535 -2.23448,18.38187 -3.33066,5.3965 -9.27525,9.19092 -15.34632,10.28709 -6.07107,1.13832 -12.3108,-0.37945 -18.59267,-0.33729 -6.23971,0.0422 -12.52158,1.64426 -16.56896,-0.67455 -4.00524,-2.27666 -5.81812,-8.51637 -7.50454,-13.95505 -1.64424,-5.43866 -3.20417,-10.07629 -4.5533,-15.51497 -1.34912,-5.43866 -2.44529,-11.63623 -0.63239,-16.82192 1.85503,-5.14356 6.6613,-9.2331 12.01565,-12.43728 5.39651,-3.162 11.3411,-5.43866 17.4965,-5.81811 6.19756,-0.42159 12.60591,1.05401 16.86408,4.89059 z"
       inkscape:connector-curvature="0"
       style="fill:#e5e5e5;stroke-width:0.42160228;fill-opacity:0.26244345" />
  </g>
</svg>
