<?xml version="1.0" encoding="UTF-8" standalone="no"?>
<!-- Uploaded to: SVG Repo, www.svgrepo.com, Generator: SVG Repo Mixer Tools -->

<svg
   xmlns:dc="http://purl.org/dc/elements/1.1/"
   xmlns:cc="http://creativecommons.org/ns#"
   xmlns:rdf="http://www.w3.org/1999/02/22-rdf-syntax-ns#"
   xmlns:svg="http://www.w3.org/2000/svg"
   xmlns="http://www.w3.org/2000/svg"
   xmlns:sodipodi="http://sodipodi.sourceforge.net/DTD/sodipodi-0.dtd"
   xmlns:inkscape="http://www.inkscape.org/namespaces/inkscape"
   fill="#000000"
   height="800px"
   width="800px"
   version="1.1"
   id="Capa_1"
   viewBox="0 0 56.592 56.592"
   xml:space="preserve"
   sodipodi:docname="molar-svgrepo-com (copy).svg"
   inkscape:version="0.92.3 (2405546, 2018-03-11)"><metadata
   id="metadata308"><rdf:RDF><cc:Work
       rdf:about=""><dc:format>image/svg+xml</dc:format><dc:type
         rdf:resource="http://purl.org/dc/dcmitype/StillImage" /></cc:Work></rdf:RDF></metadata><defs
   id="defs306" /><sodipodi:namedview
   pagecolor="#ffffff"
   bordercolor="#666666"
   borderopacity="1"
   objecttolerance="10"
   gridtolerance="10"
   guidetolerance="10"
   inkscape:pageopacity="0"
   inkscape:pageshadow="2"
   inkscape:window-width="2560"
   inkscape:window-height="1387"
   id="namedview304"
   showgrid="false"
   inkscape:zoom="0.295"
   inkscape:cx="-854.23728"
   inkscape:cy="400"
   inkscape:window-x="1080"
   inkscape:window-y="222"
   inkscape:window-maximized="1"
   inkscape:current-layer="Capa_1" />
<g
   id="g301"
   style="fill:#ffffff;fill-opacity:1">
	<path
   d="M13.833,5.7c-5.239,1.856-6.765,8.42-5.966,13.733c0.075,0.496,0.501,0.852,0.988,0.852c0.049,0,0.1-0.004,0.149-0.011   c0.547-0.083,0.923-0.592,0.841-1.138C9.164,14.608,10.33,9.062,14.501,7.584c0.521-0.185,0.793-0.756,0.608-1.276   C14.926,5.788,14.357,5.515,13.833,5.7z"
   id="path279"
   style="fill:#ffffff;fill-opacity:1" />
	<path
   d="M24.136,16.582c-0.127-0.294-0.248-0.591-0.365-0.891c-0.201-0.516-0.783-0.77-1.295-0.568   c-0.515,0.2-0.769,0.78-0.568,1.295c0.125,0.321,0.256,0.64,0.393,0.957c0.163,0.378,0.531,0.604,0.918,0.604   c0.133,0,0.267-0.026,0.396-0.082C24.121,17.678,24.355,17.09,24.136,16.582z"
   id="path281"
   style="fill:#ffffff;fill-opacity:1" />
	<path
   d="M22.638,12.02c-0.071-0.313-0.139-0.629-0.2-0.945c-0.104-0.543-0.632-0.906-1.171-0.792   c-0.543,0.104-0.897,0.629-0.792,1.171c0.065,0.34,0.137,0.677,0.214,1.012c0.105,0.464,0.518,0.777,0.974,0.777   c0.074,0,0.149-0.008,0.224-0.025C22.425,13.094,22.761,12.558,22.638,12.02z"
   id="path283"
   style="fill:#ffffff;fill-opacity:1" />
	<path
   d="M21.033,8.304c0.552-0.022,0.98-0.488,0.958-1.04c-0.013-0.32-0.021-0.642-0.024-0.965c-0.005-0.549-0.451-0.991-1-0.991   c-0.003,0-0.006,0-0.009,0c-0.553,0.005-0.996,0.456-0.991,1.009c0.003,0.345,0.012,0.688,0.026,1.029   c0.022,0.538,0.465,0.959,0.998,0.959C21.006,8.305,21.02,8.305,21.033,8.304z"
   id="path285"
   style="fill:#ffffff;fill-opacity:1" />
	<path
   d="M25.903,19.998c-0.288-0.473-0.905-0.622-1.374-0.333c-0.472,0.288-0.621,0.903-0.333,1.374   c0.179,0.293,0.362,0.582,0.551,0.87c0.191,0.292,0.511,0.451,0.837,0.451c0.188,0,0.379-0.053,0.548-0.164   c0.462-0.303,0.59-0.923,0.287-1.385C26.242,20.543,26.07,20.272,25.903,19.998z"
   id="path287"
   style="fill:#ffffff;fill-opacity:1" />
	<path
   d="M36.978,30.507c-0.283-0.157-0.563-0.318-0.839-0.483c-0.474-0.284-1.089-0.127-1.371,0.348s-0.127,1.088,0.348,1.371   c0.294,0.175,0.591,0.346,0.892,0.513c0.153,0.086,0.32,0.126,0.484,0.126c0.352,0,0.692-0.186,0.875-0.515   C37.635,31.384,37.46,30.775,36.978,30.507z"
   id="path289"
   style="fill:#ffffff;fill-opacity:1" />
	<path
   d="M41.371,32.523c-0.303-0.112-0.604-0.229-0.903-0.351c-0.51-0.207-1.094,0.038-1.303,0.551   c-0.208,0.511,0.039,1.095,0.551,1.303c0.316,0.129,0.636,0.252,0.958,0.372c0.115,0.043,0.232,0.063,0.349,0.063   c0.405,0,0.787-0.249,0.938-0.651C42.152,33.291,41.889,32.715,41.371,32.523z"
   id="path291"
   style="fill:#ffffff;fill-opacity:1" />
	<path
   d="M46.016,33.864c-0.316-0.066-0.63-0.138-0.942-0.213c-0.535-0.132-1.077,0.199-1.207,0.736   c-0.13,0.536,0.199,1.077,0.736,1.207c0.332,0.081,0.667,0.156,1.005,0.227c0.068,0.015,0.138,0.021,0.205,0.021   c0.464,0,0.879-0.324,0.978-0.796C46.903,34.506,46.557,33.976,46.016,33.864z"
   id="path293"
   style="fill:#ffffff;fill-opacity:1" />
	<path
   d="M32.199,27.245c-0.428-0.354-1.057-0.294-1.408,0.129c-0.354,0.425-0.296,1.056,0.129,1.408   c0.264,0.219,0.53,0.434,0.8,0.644c0.183,0.143,0.399,0.212,0.614,0.212c0.298,0,0.593-0.132,0.789-0.385   c0.34-0.436,0.263-1.064-0.173-1.403C32.696,27.652,32.445,27.451,32.199,27.245z"
   id="path295"
   style="fill:#ffffff;fill-opacity:1" />
	<path
   d="M28.748,23.879c-0.364-0.417-0.996-0.459-1.411-0.097c-0.416,0.362-0.46,0.994-0.097,1.411   c0.225,0.258,0.454,0.514,0.688,0.765c0.197,0.212,0.464,0.318,0.731,0.318c0.244,0,0.489-0.089,0.682-0.269   c0.404-0.376,0.427-1.009,0.05-1.413C29.173,24.36,28.959,24.121,28.748,23.879z"
   id="path297"
   style="fill:#ffffff;fill-opacity:1" />
	<path
   d="M53.916,20.148c0.001-0.014-0.006-0.027-0.006-0.041c0.066-1.362,0.064-2.714-0.015-4.049c0-0.02,0.009-0.036,0.008-0.056   c-0.009-0.146-0.023-0.292-0.034-0.437c-0.004-0.058-0.009-0.116-0.013-0.175c-0.011-0.142-0.02-0.285-0.033-0.426   c-0.002-0.022-0.015-0.039-0.018-0.06c-0.132-1.369-0.353-2.717-0.688-4.034c-0.002-0.009,0.001-0.018-0.001-0.027l-0.047-0.182   c-0.001-0.003-0.001-0.006-0.002-0.009c-0.002-0.006-0.004-0.011-0.006-0.017c-0.077-0.29-0.165-0.575-0.267-0.856   c-0.008-0.021-0.024-0.034-0.033-0.054c-0.469-1.27-1.198-2.506-2.164-3.671c-0.008-0.01-0.009-0.022-0.017-0.032   C50.35,5.747,50.11,5.48,49.861,5.219c-0.004-0.004-0.01-0.006-0.014-0.01c-0.916-0.957-2-1.85-3.22-2.665   c-0.013-0.01-0.02-0.025-0.034-0.034l-0.27-0.177c-0.213-0.138-0.43-0.269-0.651-0.394c-0.009-0.005-0.02-0.005-0.029-0.01   c-1.221-0.686-2.563-1.192-3.982-1.513c-0.007-0.002-0.012-0.007-0.019-0.008c-0.115-0.026-0.234-0.043-0.35-0.066   C41.086,0.3,40.88,0.258,40.67,0.224c-0.028-0.005-0.055-0.011-0.083-0.016c-0.008-0.001-0.015,0.002-0.022,0.001   c-1.368-0.214-2.79-0.264-4.23-0.15c-0.003,0-0.005-0.001-0.007-0.001c-0.03,0.002-0.059,0.007-0.089,0.01   c-0.314,0.027-0.629,0.06-0.944,0.102c-0.007,0.001-0.015,0.001-0.022,0.002c-0.002,0-0.003,0.001-0.004,0.001   c-1.37,0.186-2.746,0.518-4.095,1.004c-0.005,0.002-0.011,0-0.016,0.002C30.86,1.286,30.569,1.4,30.284,1.517l-0.137,0.058   c-0.001,0-0.001,0.001-0.001,0.001l-0.064,0.027c-0.094,0.041-0.186,0.081-0.278,0.113c-0.466,0.162-0.822,0.3-1.113,0.413   c-0.746,0.289-0.902,0.339-1.728,0.115c-0.001,0-0.001-0.001-0.002-0.001c-0.1-0.027-0.208-0.057-0.332-0.092   c-0.018-0.005-0.038-0.011-0.057-0.016c-0.116-0.034-0.241-0.07-0.395-0.116l-0.161-0.047c-0.002,0-0.004,0-0.006,0   c-1.59-0.464-3.329-0.92-5.101-1.237l-0.435-0.086l-0.002,0.013c-2.88-0.475-5.818-0.557-8.31,0.327   c-5.73,2.03-10.809,8.751-9.238,19.189c0.187,1.235,0.367,2.48,0.55,3.732c1.312,9.016,2.668,18.339,6.154,26.757l0.119,0.289   c0.865,2.108,2.314,5.637,4.837,5.637h0.203l0.187-0.079c2.316-0.98,3.181-3.202,3.813-4.824c0.427-1.095,0.807-2.21,1.175-3.289   c0.483-1.418,0.955-2.793,1.516-4.113c1.27,2.585,3.865,6.799,7.292,6.799c0.401,0,0.815-0.059,1.239-0.184   c2.255-0.668,3.385-2.996,4.21-4.695l0.066-0.137c0.173-0.356,0.394-0.769,0.631-1.215c0.239-0.449,0.5-0.948,0.756-1.46   c0.25,0.806,0.468,1.635,0.682,2.457c0.238,0.914,0.485,1.859,0.771,2.741c1.211,3.729,2.784,7.573,5.268,7.828   c1.312,0.135,2.516-0.751,3.588-2.63c1.96-3.434,2.8-7.26,3.612-10.959l0.286-1.294c0.32-1.43,0.676-2.906,1.039-4.415   c0.146-0.606,0.293-1.219,0.44-1.836l0.015-0.063c0,0,0-0.001,0-0.002c0.308-1.292,0.611-2.606,0.899-3.933   c0.001-0.005,0.005-0.01,0.006-0.015l0.145-0.68c0.001-0.006,0.003-0.012,0.004-0.019l0.063-0.293c0.001-0.005-0.001-0.01,0-0.016   c0.274-1.314,0.523-2.638,0.738-3.966c0.002-0.011,0.009-0.019,0.011-0.03c0.035-0.217,0.068-0.434,0.101-0.651   c0.007-0.045,0.014-0.09,0.021-0.134c0.011-0.075,0.024-0.151,0.035-0.226c0.001-0.007-0.002-0.013-0.001-0.02   c0.197-1.342,0.348-2.685,0.446-4.022c0.002-0.015,0.01-0.027,0.011-0.042c0.017-0.227,0.029-0.453,0.043-0.68   c0.001-0.016,0.002-0.032,0.003-0.048C53.903,20.347,53.911,20.247,53.916,20.148z M33.15,43.914   c-0.25,0.471-0.48,0.904-0.664,1.28l-0.066,0.138c-0.7,1.441-1.57,3.234-2.979,3.651c-3.331,0.989-6.391-6.003-6.729-6.804   l-0.088-0.211c0.106-0.189,0.208-0.36,0.309-0.527c0.134-0.216,0.267-0.433,0.412-0.645c1.197-1.752,4.428-5.561,8.556-3.101   c0.321,0.191,0.611,0.409,0.883,0.643c0.101,0.087,0.193,0.188,0.29,0.282c0.156,0.152,0.311,0.305,0.452,0.47   c0.131,0.155,0.256,0.324,0.378,0.496c0.081,0.112,0.162,0.223,0.237,0.339c0.161,0.25,0.315,0.515,0.462,0.8   c0.015,0.029,0.031,0.057,0.045,0.085C34.256,41.835,33.672,42.933,33.15,43.914z M47.928,41.1l-0.288,1.303   c-0.78,3.553-1.587,7.228-3.396,10.396c-0.608,1.065-1.235,1.672-1.647,1.633c-0.458-0.047-1.723-0.771-3.569-6.456   c-0.269-0.826-0.497-1.702-0.738-2.629c-0.789-3.023-1.673-6.398-4.246-8.567c-0.006-0.005-0.013-0.01-0.018-0.015   c-0.338-0.283-0.702-0.548-1.102-0.787c-3.817-2.273-8.122-0.858-11.229,3.69c-0.173,0.253-0.345,0.521-0.52,0.814   c-1.412,2.317-2.273,4.831-3.105,7.272c-0.36,1.059-0.733,2.153-1.145,3.208c-0.64,1.642-1.238,2.961-2.512,3.608   c-1.134-0.283-2.345-3.231-2.814-4.375l-0.121-0.295c-3.392-8.187-4.729-17.385-6.023-26.279c-0.183-1.255-0.364-2.503-0.55-3.741   c-1.01-6.71,1.05-14.57,7.928-17.008c1.119-0.396,2.388-0.557,3.716-0.557c1.226,0,2.502,0.139,3.76,0.352   c0.124,0.331,0.408,0.593,0.783,0.646c0.048,0.007,0.095,0.01,0.142,0.01c0.287,0,0.548-0.129,0.733-0.332   c1.286,0.281,2.515,0.613,3.607,0.933c2.854,1.624,4.444,2.887,5.292,4.208c0.191,0.298,0.514,0.46,0.843,0.46   c0.185,0,0.372-0.051,0.539-0.158c0.465-0.299,0.6-0.917,0.302-1.382c-0.679-1.057-1.652-2.024-3.117-3.066   c0.271-0.104,0.6-0.232,1.03-0.381c0.14-0.049,0.276-0.107,0.416-0.167l0.162-0.07c0,0,0.002,0,0.003,0   c0.006-0.003,0.013-0.005,0.019-0.007c3.055-1.259,6.292-1.641,9.217-1.177c0.001,0,0.002,0.001,0.003,0.001   c0.11,0.017,0.218,0.042,0.328,0.062c1.688,0.307,3.268,0.89,4.633,1.768c3.1,1.993,5.187,4.523,5.883,7.125   c0.004,0.014,0.008,0.026,0.012,0.041c0.384,1.458,0.62,2.966,0.736,4.509c0.002,0.024,0.004,0.048,0.006,0.072   c0.342,4.673-0.404,9.66-1.43,14.506l-0.018,0.084c-0.297,1.396-0.616,2.778-0.939,4.14c-0.375,0.116-0.664,0.444-0.702,0.86   c-0.028,0.311,0.1,0.59,0.307,0.793c-0.041,0.17-0.082,0.341-0.122,0.51C48.608,38.174,48.25,39.661,47.928,41.1z"
   id="path299"
   style="fill:#ffffff;fill-opacity:1" />
</g>
</svg>