<?xml version="1.0" encoding="UTF-8" standalone="no"?>
<!-- Uploaded to: SVG Repo, www.svgrepo.com, Generator: SVG Repo Mixer Tools -->

<svg
   xmlns:dc="http://purl.org/dc/elements/1.1/"
   xmlns:cc="http://creativecommons.org/ns#"
   xmlns:rdf="http://www.w3.org/1999/02/22-rdf-syntax-ns#"
   xmlns:svg="http://www.w3.org/2000/svg"
   xmlns="http://www.w3.org/2000/svg"
   xmlns:sodipodi="http://sodipodi.sourceforge.net/DTD/sodipodi-0.dtd"
   xmlns:inkscape="http://www.inkscape.org/namespaces/inkscape"
   version="1.1"
   id="Layer_1"
   width="800px"
   height="800px"
   viewBox="0 0 19 32"
   enable-background="new 0 0 19 32"
   xml:space="preserve"
   sodipodi:docname="hand-watch-svgrepo-com (copy).svg"
   inkscape:version="0.92.3 (2405546, 2018-03-11)"><metadata
   id="metadata17"><rdf:RDF><cc:Work
       rdf:about=""><dc:format>image/svg+xml</dc:format><dc:type
         rdf:resource="http://purl.org/dc/dcmitype/StillImage" /></cc:Work></rdf:RDF></metadata><defs
   id="defs15" /><sodipodi:namedview
   pagecolor="#ffffff"
   bordercolor="#666666"
   borderopacity="1"
   objecttolerance="10"
   gridtolerance="10"
   guidetolerance="10"
   inkscape:pageopacity="0"
   inkscape:pageshadow="2"
   inkscape:window-width="2560"
   inkscape:window-height="1387"
   id="namedview13"
   showgrid="false"
   inkscape:zoom="0.295"
   inkscape:cx="-223.72881"
   inkscape:cy="400"
   inkscape:window-x="1080"
   inkscape:window-y="222"
   inkscape:window-maximized="1"
   inkscape:current-layer="Layer_1" />
<g
   id="g10"
   style="fill:#ffffff;fill-opacity:1">
	<path
   fill="#808184"
   d="M0,16.02c0,5.238,4.262,9.5,9.5,9.5s9.5-4.262,9.5-9.5s-4.262-9.5-9.5-9.5S0,10.781,0,16.02z M9.5,7.52   c4.687,0,8.5,3.813,8.5,8.5s-3.813,8.5-8.5,8.5S1,20.707,1,16.02S4.813,7.52,9.5,7.52z"
   id="path2"
   style="fill:#ffffff;fill-opacity:1" />
	<path
   fill="#808184"
   d="M5,25.5c-0.276,0-0.5,0.224-0.5,0.5v0.973C4.5,29.745,6.743,32,9.5,32s5-2.255,5-5.027   c0-0.276-0.224-0.5-0.5-0.5s-0.5,0.224-0.5,0.5c0,2.22-1.794,4.027-4,4.027s-4-1.807-4-4.027V26C5.5,25.724,5.276,25.5,5,25.5z"
   id="path4"
   style="fill:#ffffff;fill-opacity:1" />
	<path
   fill="#808184"
   d="M13.98,6.25c0.262-0.014,0.504-0.215,0.509-0.491L14.5,5.127c0-2.793-2.243-5.065-5-5.065s-5,2.216-5,4.94   V6c0,0.276,0.224,0.5,0.5,0.5S5.5,6.276,5.5,6V5.002c0-2.209,1.757-3.94,4-3.94c2.206,0,4,1.824,4,4.056l-0.011,0.623   C13.484,6.018,13.705,6.245,13.98,6.25z"
   id="path6"
   style="fill:#ffffff;fill-opacity:1" />
	<path
   fill="#808184"
   d="M9.322,16.743l3.452,1.75c0.072,0.037,0.149,0.054,0.226,0.054c0.183,0,0.358-0.1,0.446-0.274   c0.125-0.247,0.026-0.547-0.22-0.672l-3.452-1.75C9.605,15.765,9.5,15.594,9.5,15.405V11c0-0.276-0.224-0.5-0.5-0.5   S8.5,10.724,8.5,11v4.405C8.5,15.973,8.815,16.486,9.322,16.743z"
   id="path8"
   style="fill:#ffffff;fill-opacity:1" />
</g>
</svg>