<?xml version="1.0" encoding="UTF-8" standalone="no"?>
<!-- Uploaded to: SVG Repo, www.svgrepo.com, Generator: SVG Repo Mixer Tools -->

<svg
   xmlns:dc="http://purl.org/dc/elements/1.1/"
   xmlns:cc="http://creativecommons.org/ns#"
   xmlns:rdf="http://www.w3.org/1999/02/22-rdf-syntax-ns#"
   xmlns:svg="http://www.w3.org/2000/svg"
   xmlns="http://www.w3.org/2000/svg"
   xmlns:sodipodi="http://sodipodi.sourceforge.net/DTD/sodipodi-0.dtd"
   xmlns:inkscape="http://www.inkscape.org/namespaces/inkscape"
   version="1.1"
   id="Layer_1"
   width="800px"
   height="800px"
   viewBox="0 0 47 32"
   enable-background="new 0 0 47 32"
   xml:space="preserve"
   sodipodi:docname="envelop-svgrepo-com (copy).svg"
   inkscape:version="0.92.3 (2405546, 2018-03-11)"><metadata
   id="metadata15"><rdf:RDF><cc:Work
       rdf:about=""><dc:format>image/svg+xml</dc:format><dc:type
         rdf:resource="http://purl.org/dc/dcmitype/StillImage" /></cc:Work></rdf:RDF></metadata><defs
   id="defs13" /><sodipodi:namedview
   pagecolor="#ffffff"
   bordercolor="#666666"
   borderopacity="1"
   objecttolerance="10"
   gridtolerance="10"
   guidetolerance="10"
   inkscape:pageopacity="0"
   inkscape:pageshadow="2"
   inkscape:window-width="2560"
   inkscape:window-height="1387"
   id="namedview11"
   showgrid="false"
   inkscape:zoom="0.295"
   inkscape:cx="-223.72881"
   inkscape:cy="400"
   inkscape:window-x="1080"
   inkscape:window-y="222"
   inkscape:window-maximized="1"
   inkscape:current-layer="Layer_1" />
<g
   id="g8"
   style="fill:#ffffff;fill-opacity:1">
	<path
   fill="#808184"
   d="M45.5,0h-44C0.673,0,0,0.673,0,1.5v29C0,31.327,0.673,32,1.5,32h44c0.827,0,1.5-0.673,1.5-1.5v-29   C47,0.673,46.327,0,45.5,0z M1.5,1h44C45.775,1,46,1.225,46,1.5v2.119L26.947,22.162c-1.654,1.566-4.243,1.568-5.897-0.005L1,3.611   V1.5C1,1.225,1.225,1,1.5,1z M45.5,31h-44C1.225,31,1,30.775,1,30.5V4.974l19.366,17.913c1.019,0.967,2.325,1.45,3.633,1.45   c1.309,0,2.619-0.484,3.641-1.454L46,5.014V30.5C46,30.775,45.775,31,45.5,31z"
   id="path2"
   style="fill:#ffffff;fill-opacity:1" />
	<path
   fill="#808184"
   d="M12.394,18.058l-5.628,5.636c-0.195,0.195-0.195,0.512,0,0.707c0.098,0.098,0.226,0.146,0.354,0.146   s0.256-0.049,0.354-0.146l5.628-5.636c0.195-0.195,0.195-0.512,0-0.707S12.589,17.862,12.394,18.058z"
   id="path4"
   style="fill:#ffffff;fill-opacity:1" />
	<path
   fill="#808184"
   d="M35.93,17.2c-0.195-0.195-0.512-0.195-0.707,0s-0.195,0.512,0,0.707l6.274,6.276   c0.098,0.098,0.226,0.146,0.354,0.146s0.256-0.049,0.354-0.146c0.195-0.195,0.195-0.512,0-0.707L35.93,17.2z"
   id="path6"
   style="fill:#ffffff;fill-opacity:1" />
</g>
</svg>