<?xml version="1.0" encoding="UTF-8" standalone="no"?>
<!-- Uploaded to: SVG Repo, www.svgrepo.com, Generator: SVG Repo Mixer Tools -->

<svg
   xmlns:dc="http://purl.org/dc/elements/1.1/"
   xmlns:cc="http://creativecommons.org/ns#"
   xmlns:rdf="http://www.w3.org/1999/02/22-rdf-syntax-ns#"
   xmlns:svg="http://www.w3.org/2000/svg"
   xmlns="http://www.w3.org/2000/svg"
   xmlns:sodipodi="http://sodipodi.sourceforge.net/DTD/sodipodi-0.dtd"
   xmlns:inkscape="http://www.inkscape.org/namespaces/inkscape"
   fill="#000000"
   height="800px"
   width="800px"
   version="1.1"
   id="Layer_1"
   viewBox="0 0 496.007 496.007"
   xml:space="preserve"
   sodipodi:docname="dentist-teeth-svgrepo-com.svg"
   inkscape:version="0.92.3 (2405546, 2018-03-11)"><metadata
   id="metadata17"><rdf:RDF><cc:Work
       rdf:about=""><dc:format>image/svg+xml</dc:format><dc:type
         rdf:resource="http://purl.org/dc/dcmitype/StillImage" /></cc:Work></rdf:RDF></metadata><defs
   id="defs15" /><sodipodi:namedview
   pagecolor="#ffffff"
   bordercolor="#666666"
   borderopacity="1"
   objecttolerance="10"
   gridtolerance="10"
   guidetolerance="10"
   inkscape:pageopacity="0"
   inkscape:pageshadow="2"
   inkscape:window-width="2560"
   inkscape:window-height="1387"
   id="namedview13"
   showgrid="false"
   inkscape:zoom="0.295"
   inkscape:cx="400"
   inkscape:cy="400"
   inkscape:window-x="1080"
   inkscape:window-y="222"
   inkscape:window-maximized="1"
   inkscape:current-layer="Layer_1" />
<g
   id="g10"
   style="fill:#386c6a;fill-opacity:1">
	<g
   id="g8"
   style="fill:#386c6a;fill-opacity:1">
		<g
   id="g6"
   style="fill:#386c6a;fill-opacity:1">
			<path
   d="M495.416,190.224c-4.408-36.952-34.528-66.328-71.632-69.84c-25.216-2.416-49.536,6.88-66.632,25.464     c-7.328,7.952-18.976,7.936-26.288,0.016c-1.44-1.576-3.072-3.136-4.84-4.72c1.224-6.88,1.976-13.912,1.976-21.136     c0-66.168-53.832-120-120-120c-66.176,0-120,53.824-120,120c0,17.76,3.984,34.576,10.936,49.752L84,184.696l-14.344-14.344     l-11.312,11.312l14.344,14.344L12.28,256.416C4.36,264.336,0,274.864,0,286.072c0,23.12,18.816,41.936,41.936,41.936     c11.2,0,21.736-4.36,29.656-12.28L132,255.32l14.344,14.344l11.312-11.312l-14.344-14.344l14.936-14.936     c13.664,6.264,28.688,9.976,44.512,10.672c4.16,7.256,9.288,13.792,15.408,19.368c12.384,11.24,18.496,26.544,16.776,41.984     l-0.568,5.136c-1.576,14.144-2.376,28.544-2.376,42.8c0,18.28,1.312,36.72,3.888,54.816l10.512,73.576     c1.312,9.216,8.016,16.528,16.672,18.184c1.352,0.264,2.712,0.392,4.056,0.392c4.832,0,9.52-1.648,13.28-4.76     c4.824-3.976,7.592-9.84,7.592-16.08v-47.68c0-42.792,20.84-82.008,56-105.92c35.152,23.912,56,63.136,56,105.92v47.264     c0,9.264,5.904,17.592,14.36,20.256c5.976,1.872,12.392,1.08,17.6-2.184c5.184-3.272,8.672-8.632,9.536-14.704l10.608-74.264     c2.584-18.096,3.896-36.536,3.896-54.816c0-14.256-0.8-28.656-2.368-42.808l-0.568-5.136     c-1.72-15.448,4.392-30.744,16.768-41.984C489.208,241.488,498.536,216.384,495.416,190.224z M60.28,304.416     c-4.896,4.896-11.416,7.592-18.344,7.592C27.632,312.008,16,300.376,16,286.072c0-6.928,2.696-13.448,7.592-18.344L84,207.32     l36.688,36.688L60.28,304.416z M132,232.696l-36.688-36.688l11.6-11.6c9.424,14.736,21.944,27.264,36.688,36.688L132,232.696z      M208,224.008c-57.344,0-104-46.656-104-104s46.656-104,104-104s104,46.656,104,104S265.344,224.008,208,224.008z      M459.056,247.264c-16.208,14.736-24.192,34.992-21.904,55.592l0.568,5.136c1.512,13.56,2.28,27.376,2.28,41.04     c0,17.528-1.256,35.2-3.736,52.544l-10.608,74.264c-0.2,1.416-1.008,2.664-2.216,3.424c-0.88,0.552-2.352,1.08-4.264,0.472     c-1.84-0.576-3.176-2.68-3.176-4.992V427.48c0-50.032-25.328-95.736-67.76-122.248l-4.24-2.664l-4.24,2.656     C297.328,331.744,272,377.448,272,427.48v47.68c0,1.456-0.64,2.824-1.768,3.744c-0.664,0.544-2.048,1.392-4.136,1     c-1.888-0.36-3.512-2.352-3.848-4.736l-10.52-73.584c-2.472-17.352-3.728-35.032-3.728-52.552c0-13.664,0.768-27.472,2.272-41.04     l0.568-5.136c2.288-20.592-5.696-40.856-21.912-55.584c-2.696-2.456-5.12-5.192-7.36-8.088     c46.6-5.28,85.112-37.344,99.872-80.392c6.392,5.864,14.24,9.216,22.56,9.216c9.336,0,18.184-4.024,24.912-11.328     c13.688-14.864,33.192-22.264,53.352-20.376c29.184,2.768,53.8,26.768,57.256,55.816     C482.024,213.08,474.568,233.176,459.056,247.264z"
   id="path2"
   style="fill:#386c6a;fill-opacity:1" />
			<path
   d="M208,32.008c-48.52,0-88,39.48-88,88s39.48,88,88,88s88-39.48,88-88S256.52,32.008,208,32.008z M142.656,150.04     c-4.232-9.152-6.656-19.304-6.656-30.032c0-39.704,32.296-72,72-72v29.576l-9.408,14.112c-4.392-2.28-9.304-3.688-14.592-3.688     c-17.648,0-32,14.352-32,32c0,5.92,1.72,11.392,4.536,16.152L142.656,150.04z M200,120.008c0,8.824-7.184,16-16,16     c-8.824,0-16-7.176-16-16c0-8.824,7.176-16,16-16C192.816,104.008,200,111.192,200,120.008z M208,192.008     c-23.08,0-43.608-10.96-56.792-27.896l16.632-16.64c4.768,2.816,10.24,4.536,16.16,4.536c11.392,0,21.336-6.024,27.008-15     l23.832,5.968l19.328,32.216C241.664,185.672,225.568,192.008,208,192.008z M265.568,163.072l-12.664-21.104l24.768-4.128     C275.296,147.104,271.144,155.632,265.568,163.072z M240.336,127.84l-24.512-6.12c0.032-0.576,0.176-1.128,0.176-1.712     c0-6.504-1.976-12.544-5.32-17.6l8.848-13.272l26.528,6.632l3.872-15.512L224,73.768V49.864c32.016,7.296,56,35.944,56,70.144     c0,0.416-0.056,0.816-0.064,1.232L240.336,127.84z"
   id="path4"
   style="fill:#386c6a;fill-opacity:1" />
		</g>
	</g>
</g>
</svg>