<?xml version="1.0" encoding="UTF-8" standalone="no"?>
<svg
   xmlns:dc="http://purl.org/dc/elements/1.1/"
   xmlns:cc="http://creativecommons.org/ns#"
   xmlns:rdf="http://www.w3.org/1999/02/22-rdf-syntax-ns#"
   xmlns:svg="http://www.w3.org/2000/svg"
   xmlns="http://www.w3.org/2000/svg"
   xmlns:sodipodi="http://sodipodi.sourceforge.net/DTD/sodipodi-0.dtd"
   xmlns:inkscape="http://www.inkscape.org/namespaces/inkscape"
   id="visual"
   viewBox="0 0 900 228"
   width="900"
   height="228"
   version="1.1"
   sodipodi:docname="wave-haikei (3).svg"
   inkscape:version="0.92.3 (2405546, 2018-03-11)">
  <metadata
     id="metadata9">
    <rdf:RDF>
      <cc:Work
         rdf:about="">
        <dc:format>image/svg+xml</dc:format>
        <dc:type
           rdf:resource="http://purl.org/dc/dcmitype/StillImage" />
        <dc:title></dc:title>
      </cc:Work>
    </rdf:RDF>
  </metadata>
  <defs
     id="defs7" />
  <sodipodi:namedview
     pagecolor="#ffffff"
     bordercolor="#666666"
     borderopacity="1"
     objecttolerance="10"
     gridtolerance="10"
     guidetolerance="10"
     inkscape:pageopacity="0"
     inkscape:pageshadow="2"
     inkscape:window-width="2560"
     inkscape:window-height="1387"
     id="namedview5"
     showgrid="false"
     inkscape:zoom="0.87052701"
     inkscape:cx="537.8512"
     inkscape:cy="263.56221"
     inkscape:window-x="1080"
     inkscape:window-y="253"
     inkscape:window-maximized="1"
     inkscape:current-layer="visual" />
  <path
     d="M 0,117 13.7,104.5 C 27.3,92 54.7,67 82,62.8 c 27.3,-4.1 54.7,12.5 81.8,22 27.2,9.5 54.2,11.9 81.4,18.7 27.1,6.8 54.5,18.2 81.8,17.7 27.3,-0.5 54.7,-12.9 82,-22.4 27.3,-9.5 54.7,-16.1 82,-24.6 27.3,-8.5 54.7,-18.9 82,-22.4 27.3,-3.5 54.7,-0.1 81.8,0.7 27.2,0.8 54.2,-0.8 81.4,-0.7 27.1,0.2 54.5,2.2 81.8,-5.6 27.3,-7.9 54.7,-25.5 68.3,-34.4 L 900,3 v 226 h -13.7 c -13.6,0 -41,0 -68.3,0 -27.3,0 -54.7,0 -81.8,0 -27.2,0 -54.2,0 -81.4,0 -27.1,0 -54.5,0 -81.8,0 -27.3,0 -54.7,0 -82,0 -27.3,0 -54.7,0 -82,0 -27.3,0 -54.7,0 -82,0 -27.3,0 -54.7,0 -81.8,0 -27.2,0 -54.2,0 -81.4,0 -27.1,0 -54.5,0 -81.8,0 -27.3,0 -54.7,0 -68.3,0 H 0 Z"
     id="path2"
     inkscape:connector-curvature="0"
     style="fill:#ffffff;stroke-linecap:round;stroke-linejoin:miter" />
</svg>
