<svg id="visual" viewBox="0 0 900 600" width="900" height="600" xmlns="http://www.w3.org/2000/svg" xmlns:xlink="http://www.w3.org/1999/xlink" version="1.1"><g><g transform="translate(251 178)"><path d="M0 -42.9L33.6 -26.8L41.9 9.6L18.6 38.7L-18.6 38.7L-41.9 9.6L-33.6 -26.8Z" fill="none" stroke="#feebc3" stroke-width="2"></path></g><g transform="translate(441 224)"><path d="M0 -18L14.1 -11.2L17.5 4L7.8 16.2L-7.8 16.2L-17.5 4L-14.1 -11.2Z" fill="none" stroke="#feebc3" stroke-width="2"></path></g><g transform="translate(89 116)"><path d="M0 -11L8.6 -6.9L10.7 2.4L4.8 9.9L-4.8 9.9L-10.7 2.4L-8.6 -6.9Z" stroke="#feebc3" fill="none" stroke-width="2"></path></g><g transform="translate(700 3)"><path d="M0 -25L19.5 -15.6L24.4 5.6L10.8 22.5L-10.8 22.5L-24.4 5.6L-19.5 -15.6Z" stroke="#feebc3" fill="none" stroke-width="2"></path></g><g transform="translate(178 328)"><path d="M0 -23L18 -14.3L22.4 5.1L10 20.7L-10 20.7L-22.4 5.1L-18 -14.3Z" stroke="#feebc3" fill="none" stroke-width="2"></path></g><g transform="translate(437 133)"><path d="M0 -20L15.6 -12.5L19.5 4.5L8.7 18L-8.7 18L-19.5 4.5L-15.6 -12.5Z" stroke="#feebc3" fill="none" stroke-width="2"></path></g><g transform="translate(672 551)"><path d="M0 -29L22.7 -18.1L28.3 6.5L12.6 26.1L-12.6 26.1L-28.3 6.5L-22.7 -18.1Z" stroke="#feebc3" fill="none" stroke-width="2"></path></g><g transform="translate(519 534)"><path d="M0 -29L22.7 -18.1L28.3 6.5L12.6 26.1L-12.6 26.1L-28.3 6.5L-22.7 -18.1Z" stroke="#feebc3" fill="none" stroke-width="2"></path></g><g transform="translate(783 284)"><path d="M0 -29L22.7 -18.1L28.3 6.5L12.6 26.1L-12.6 26.1L-28.3 6.5L-22.7 -18.1Z" stroke="#feebc3" fill="none" stroke-width="2"></path></g><g transform="translate(628 352)"><path d="M0 -35L27.4 -21.8L34.1 7.8L15.2 31.5L-15.2 31.5L-34.1 7.8L-27.4 -21.8Z" stroke="#feebc3" fill="none" stroke-width="2"></path></g></g></svg>