<?xml version="1.0" encoding="UTF-8" standalone="no"?>
<svg
   xmlns:dc="http://purl.org/dc/elements/1.1/"
   xmlns:cc="http://creativecommons.org/ns#"
   xmlns:rdf="http://www.w3.org/1999/02/22-rdf-syntax-ns#"
   xmlns:svg="http://www.w3.org/2000/svg"
   xmlns="http://www.w3.org/2000/svg"
   xmlns:sodipodi="http://sodipodi.sourceforge.net/DTD/sodipodi-0.dtd"
   xmlns:inkscape="http://www.inkscape.org/namespaces/inkscape"
   data-name="Layer 1"
   width="1047.79529"
   height="450.30891"
   viewBox="0 0 1047.79529 450.30891"
   version="1.1"
   id="svg336"
   sodipodi:docname="undraw_city_life_gnpr.svg"
   inkscape:version="0.92.3 (2405546, 2018-03-11)">
  <metadata
     id="metadata342">
    <rdf:RDF>
      <cc:Work
         rdf:about="">
        <dc:format>image/svg+xml</dc:format>
        <dc:type
           rdf:resource="http://purl.org/dc/dcmitype/StillImage" />
      </cc:Work>
    </rdf:RDF>
  </metadata>
  <defs
     id="defs340" />
  <sodipodi:namedview
     pagecolor="#ffffff"
     bordercolor="#666666"
     borderopacity="1"
     objecttolerance="10"
     gridtolerance="10"
     guidetolerance="10"
     inkscape:pageopacity="0"
     inkscape:pageshadow="2"
     inkscape:window-width="2560"
     inkscape:window-height="1387"
     id="namedview338"
     showgrid="false"
     inkscape:zoom="1.4954721"
     inkscape:cx="494.23166"
     inkscape:cy="180.0291"
     inkscape:window-x="0"
     inkscape:window-y="0"
     inkscape:window-maximized="1"
     inkscape:current-layer="svg336" />
  <path
     d="M105.42222,619.66535a17.16536,17.16536,0,0,1,34.33071,0"
     transform="translate(-76.10236 -224.19109)"
     fill="#f2f2f2"
     id="path2"
     style="opacity:0.344" />
  <path
     d="M122.58758,619.66535a.464.464,0,0,1-.46393-.46392v-9.04661a.46393.46393,0,1,1,.92786,0v9.04661A.464.464,0,0,1,122.58758,619.66535Z"
     transform="translate(-76.10236 -224.19109)"
     fill="#ccc"
     id="path4"
     style="opacity:0.344" />
  <path
     d="M122.58735,616.55672a.4618.4618,0,0,1-.302-.11191l-5.56709-4.77814a.46392.46392,0,1,1,.60432-.704l5.56715,4.77814a.46394.46394,0,0,1-.30242.816Z"
     transform="translate(-76.10236 -224.19109)"
     fill="#ccc"
     id="path6"
     style="opacity:0.344" />
  <path
     d="M158.31007,619.66535a17.16536,17.16536,0,0,1,34.33071,0"
     transform="translate(-76.10236 -224.19109)"
     fill="#f2f2f2"
     id="path8"
     style="opacity:0.344" />
  <path
     d="M175.47543,619.66535a.46394.46394,0,0,1-.46393-.46392v-9.04661a.46393.46393,0,0,1,.92786,0v9.04661A.464.464,0,0,1,175.47543,619.66535Z"
     transform="translate(-76.10236 -224.19109)"
     fill="#ccc"
     id="path10"
     style="opacity:0.344" />
  <path
     d="M175.4752,616.55672a.4618.4618,0,0,1-.302-.11191l-5.56714-4.77814a.46394.46394,0,1,1,.60437-.704l5.56714,4.77814a.46393.46393,0,0,1-.30241.816Z"
     transform="translate(-76.10236 -224.19109)"
     fill="#ccc"
     id="path12"
     style="opacity:0.344" />
  <circle
     cx="784.79529"
     cy="34.30891"
     r="33"
     fill="#f2f2f2"
     id="circle14"
     style="opacity:0.344" />
  <ellipse
     cx="108.79529"
     cy="425.30891"
     rx="30"
     ry="7"
     fill="#f2f2f2"
     id="ellipse16"
     style="opacity:0.344" />
  <path
     d="M169.5834,362.15323c7.86794-24.56856,27.0799-43.62236,49.86392-54.95493,27.03309-13.446,58.097-14.96842,87.44924-9.73524,31.68593,5.64926,61.30021,18.67245,89.96562,32.88447,28.11677,13.94,55.78,28.65962,85.02063,40.1796A550.37542,550.37542,0,0,0,664.82936,408.4226c56.43083,1.88251,116.76658-4.30052,165.08463-36.018,44.27252-29.06184,72.44421-77.00553,87.11694-126.98162q2.81766-9.59714,5.00971-19.35932c.42636-1.87992-2.46532-2.68258-2.89284-.79752C907.312,277.45383,882.07353,329.03314,838.95,362.3001,792.3092,398.28036,731.09593,406.598,673.8132,405.6462A547.717,547.717,0,0,1,488.48144,369.882c-29.99274-11.41833-58.29583-26.24534-86.95951-40.55968-28.03408-13.99992-56.85571-27.10508-87.68288-33.56193-28.14937-5.896-58.28757-6.25529-85.42785,4.2364-22.34794,8.6391-42.72459,24.03773-54.64936,45.10247a86.49412,86.49412,0,0,0-7.07128,16.25645c-.59019,1.843,2.30536,2.632,2.89284.79752Z"
     transform="translate(-76.10236 -224.19109)"
     fill="#f2f2f2"
     id="path18"
     style="opacity:0.344" />
  <path
     d="M597.88583,591.87008a1,1,0,0,0,0-2h-9.5v-4h9.5a1,1,0,0,0,0-2h-81a1,1,0,0,0,0,2h9.5v4h-9.5a1,1,0,0,0,0,2h9.5v4h-9.5a1,1,0,0,0,0,2h9.5v4h-8.5a2,2,0,0,0,0,4h8.0918a1.49061,1.49061,0,0,0-.0918.5v14a1.5,1.5,0,0,0,3,0v-14a1.4906,1.4906,0,0,0-.09179-.5h57.18359a1.49061,1.49061,0,0,0-.0918.5v14a1.5,1.5,0,0,0,3,0v-14a1.4906,1.4906,0,0,0-.09179-.5h8.09179a2,2,0,0,0,0-4h-8.5v-4h9.5a1,1,0,0,0,0-2h-9.5v-4Zm-69.5-6h58v4h-58Zm58,16h-58v-4h58Zm0-6h-58v-4h58Z"
     transform="translate(-76.10236 -224.19109)"
     fill="#3f3d56"
     id="path20"
     style="opacity:0.344" />
  <path
     d="M292.89767,549.89841c0-17.66118-14.3269-59.57029-32-59.57029s-32,41.90911-32,59.57029a32,32,0,0,0,64.00007,0Z"
     transform="translate(-76.10236 -224.19109)"
     fill="#e6e6e6"
     id="path22"
     style="opacity:0.344" />
  <path
     d="M284.89767,549.89841c0-17.66118-14.3269-59.57029-32-59.57029s-32,41.90911-32,59.57029a32,32,0,0,0,64.00007,0Z"
     transform="translate(-76.10236 -224.19109)"
     fill="#f2f2f2"
     id="path24"
     style="opacity:0.344" />
  <path
     d="M253.89764,545.92158a1,1,0,0,1-.707-1.707l13.07764-13.07813a.99989.99989,0,0,1,1.41406,1.41406l-13.07763,13.07813A.99638.99638,0,0,1,253.89764,545.92158Z"
     transform="translate(-76.10236 -224.19109)"
     fill="#ccc"
     id="path28"
     style="opacity:0.344" />
  <path
     d="M728.89767,549.89841c0-17.66118-14.3269-59.57029-32-59.57029s-32,41.90911-32,59.57029a32,32,0,0,0,64.00007,0Z"
     transform="translate(-76.10236 -224.19109)"
     fill="#e6e6e6"
     id="path32"
     style="opacity:0.344" />
  <path
     d="M720.89767,549.89841c0-17.66118-14.3269-59.57029-32-59.57029s-32,41.90911-32,59.57029a32,32,0,0,0,64.00007,0Z"
     transform="translate(-76.10236 -224.19109)"
     fill="#f2f2f2"
     id="path34"
     style="opacity:0.344" />
  <path
     d="M689.89764,621.44892a1.00005,1.00005,0,0,1-1-1V531.3083a1,1,0,0,1,2,0v89.14062A1,1,0,0,1,689.89764,621.44892Z"
     transform="translate(-76.10236 -224.19109)"
     fill="#ccc"
     id="path36"
     style="opacity:0.344" />
  <path
     d="M689.89764,545.92158a1,1,0,0,1-.707-1.707l13.07764-13.07813a.99989.99989,0,0,1,1.41406,1.41406l-13.07763,13.07813A.99638.99638,0,0,1,689.89764,545.92158Z"
     transform="translate(-76.10236 -224.19109)"
     fill="#ccc"
     id="path38"
     style="opacity:0.344" />
  <path
     d="M359.89764,276h-16a4.505,4.505,0,0,1-4.5-4.5v-37a4.505,4.505,0,0,1,4.5-4.5h16a4.505,4.505,0,0,1,4.5,4.5v37A4.505,4.505,0,0,1,359.89764,276Z"
     transform="translate(-76.10236 -224.19109)"
     fill="#e6e6e6"
     id="path40"
     style="opacity:0.344" />
  <path
     d="M422.89764,621h-82a8.50958,8.50958,0,0,1-8.5-8.5v-331a8.50958,8.50958,0,0,1,8.5-8.5h82a8.5095,8.5095,0,0,1,8.5,8.5v331A8.5095,8.5095,0,0,1,422.89764,621Z"
     transform="translate(-76.10236 -224.19109)"
     fill="#e6e6e6"
     id="path42"
     style="opacity:0.344" />
  <path
     d="M373.89764,621h-82a8.50958,8.50958,0,0,1-8.5-8.5v-331a8.50958,8.50958,0,0,1,8.5-8.5h82a8.50958,8.50958,0,0,1,8.5,8.5v331A8.50958,8.50958,0,0,1,373.89764,621Z"
     transform="translate(-76.10236 -224.19109)"
     fill="#f2f2f2"
     id="path44"
     style="opacity:0.344" />
  <path
     d="M344.89764,276h-16a4.505,4.505,0,0,1-4.5-4.5v-37a4.505,4.505,0,0,1,4.5-4.5h16a4.505,4.505,0,0,1,4.5,4.5v37A4.505,4.505,0,0,1,344.89764,276Z"
     transform="translate(-76.10236 -224.19109)"
     fill="#f2f2f2"
     id="path46"
     style="opacity:0.344" />
  <path
     d="M323.89764,348h-19a2.50286,2.50286,0,0,1-2.5-2.5v-29a2.50286,2.50286,0,0,1,2.5-2.5h19a2.50286,2.50286,0,0,1,2.5,2.5v29A2.50286,2.50286,0,0,1,323.89764,348Z"
     transform="translate(-76.10236 -224.19109)"
     fill="#fff"
     id="path48"
     style="opacity:0.344" />
  <path
     d="M360.89764,348h-19a2.50286,2.50286,0,0,1-2.5-2.5v-29a2.50286,2.50286,0,0,1,2.5-2.5h19a2.50286,2.50286,0,0,1,2.5,2.5v29A2.50286,2.50286,0,0,1,360.89764,348Z"
     transform="translate(-76.10236 -224.19109)"
     fill="#fff"
     id="path50"
     style="opacity:0.344" />
  <path
     d="M323.89764,401h-19a2.50286,2.50286,0,0,1-2.5-2.5v-29a2.50286,2.50286,0,0,1,2.5-2.5h19a2.50286,2.50286,0,0,1,2.5,2.5v29A2.50286,2.50286,0,0,1,323.89764,401Z"
     transform="translate(-76.10236 -224.19109)"
     fill="#fff"
     id="path52"
     style="opacity:0.344" />
  <path
     d="M360.89764,401h-19a2.50286,2.50286,0,0,1-2.5-2.5v-29a2.50286,2.50286,0,0,1,2.5-2.5h19a2.50286,2.50286,0,0,1,2.5,2.5v29A2.50286,2.50286,0,0,1,360.89764,401Z"
     transform="translate(-76.10236 -224.19109)"
     fill="#fff"
     id="path54"
     style="opacity:0.344" />
  <path
     d="M323.89764,454h-19a2.50286,2.50286,0,0,1-2.5-2.5v-29a2.50286,2.50286,0,0,1,2.5-2.5h19a2.50286,2.50286,0,0,1,2.5,2.5v29A2.50286,2.50286,0,0,1,323.89764,454Z"
     transform="translate(-76.10236 -224.19109)"
     fill="#fff"
     id="path56"
     style="opacity:0.344" />
  <path
     d="M360.89764,454h-19a2.50286,2.50286,0,0,1-2.5-2.5v-29a2.50286,2.50286,0,0,1,2.5-2.5h19a2.50286,2.50286,0,0,1,2.5,2.5v29A2.50286,2.50286,0,0,1,360.89764,454Z"
     transform="translate(-76.10236 -224.19109)"
     fill="#fff"
     id="path58"
     style="opacity:0.344" />
  <path
     d="M323.89764,507h-19a2.50286,2.50286,0,0,1-2.5-2.5v-29a2.50286,2.50286,0,0,1,2.5-2.5h19a2.50286,2.50286,0,0,1,2.5,2.5v29A2.50286,2.50286,0,0,1,323.89764,507Z"
     transform="translate(-76.10236 -224.19109)"
     fill="#fff"
     id="path60"
     style="opacity:0.344" />
  <path
     d="M360.89764,507h-19a2.50286,2.50286,0,0,1-2.5-2.5v-29a2.50286,2.50286,0,0,1,2.5-2.5h19a2.50286,2.50286,0,0,1,2.5,2.5v29A2.50286,2.50286,0,0,1,360.89764,507Z"
     transform="translate(-76.10236 -224.19109)"
     fill="#fff"
     id="path62"
     style="opacity:0.344" />
  <path
     d="M323.89764,560h-19a2.50286,2.50286,0,0,1-2.5-2.5v-29a2.50286,2.50286,0,0,1,2.5-2.5h19a2.50286,2.50286,0,0,1,2.5,2.5v29A2.50286,2.50286,0,0,1,323.89764,560Z"
     transform="translate(-76.10236 -224.19109)"
     fill="#fff"
     id="path64"
     style="opacity:0.344" />
  <path
     d="M360.89764,560h-19a2.50286,2.50286,0,0,1-2.5-2.5v-29a2.50286,2.50286,0,0,1,2.5-2.5h19a2.50286,2.50286,0,0,1,2.5,2.5v29A2.50286,2.50286,0,0,1,360.89764,560Z"
     transform="translate(-76.10236 -224.19109)"
     fill="#fff"
     id="path66"
     style="opacity:0.344" />
  <path
     d="M772.89764,451h-16a4.50508,4.50508,0,0,1-4.5-4.5v-21a4.50508,4.50508,0,0,1,4.5-4.5h16a4.50507,4.50507,0,0,1,4.5,4.5v21A4.50507,4.50507,0,0,1,772.89764,451Z"
     transform="translate(-76.10236 -224.19109)"
     fill="#e6e6e6"
     id="path68"
     style="opacity:0.344" />
  <path
     d="M907.89764,622h-82a8.50951,8.50951,0,0,1-8.5-8.5v-159a8.50951,8.50951,0,0,1,8.5-8.5h82a8.5095,8.5095,0,0,1,8.5,8.5v159A8.5095,8.5095,0,0,1,907.89764,622Z"
     transform="translate(-76.10236 -224.19109)"
     fill="#e6e6e6"
     id="path70"
     style="opacity:0.344" />
  <path
     d="M858.89764,622h-142a8.50951,8.50951,0,0,1-8.5-8.5v-159a8.50951,8.50951,0,0,1,8.5-8.5h142a8.5095,8.5095,0,0,1,8.5,8.5v159A8.5095,8.5095,0,0,1,858.89764,622Z"
     transform="translate(-76.10236 -224.19109)"
     fill="#f2f2f2"
     id="path72"
     style="opacity:0.344" />
  <path
     d="M757.89764,451h-16a4.50508,4.50508,0,0,1-4.5-4.5v-21a4.50508,4.50508,0,0,1,4.5-4.5h16a4.50507,4.50507,0,0,1,4.5,4.5v21A4.50507,4.50507,0,0,1,757.89764,451Z"
     transform="translate(-76.10236 -224.19109)"
     fill="#f2f2f2"
     id="path74"
     style="opacity:0.344" />
  <path
     d="M778.89764,524.5h-19a2.50295,2.50295,0,0,1-2.5-2.5V493a2.50295,2.50295,0,0,1,2.5-2.5h19a2.50294,2.50294,0,0,1,2.5,2.5v29A2.50294,2.50294,0,0,1,778.89764,524.5Z"
     transform="translate(-76.10236 -224.19109)"
     fill="#fff"
     id="path76"
     style="opacity:0.344" />
  <path
     d="M815.89764,524.5h-19a2.50295,2.50295,0,0,1-2.5-2.5V493a2.50295,2.50295,0,0,1,2.5-2.5h19a2.50294,2.50294,0,0,1,2.5,2.5v29A2.50294,2.50294,0,0,1,815.89764,524.5Z"
     transform="translate(-76.10236 -224.19109)"
     fill="#fff"
     id="path78"
     style="opacity:0.344" />
  <path
     d="M778.89764,577.5h-19a2.50295,2.50295,0,0,1-2.5-2.5V546a2.50295,2.50295,0,0,1,2.5-2.5h19a2.50294,2.50294,0,0,1,2.5,2.5v29A2.50294,2.50294,0,0,1,778.89764,577.5Z"
     transform="translate(-76.10236 -224.19109)"
     fill="#fff"
     id="path80"
     style="opacity:0.344" />
  <path
     d="M815.89764,577.5h-19a2.50295,2.50295,0,0,1-2.5-2.5V546a2.50295,2.50295,0,0,1,2.5-2.5h19a2.50294,2.50294,0,0,1,2.5,2.5v29A2.50294,2.50294,0,0,1,815.89764,577.5Z"
     transform="translate(-76.10236 -224.19109)"
     fill="#fff"
     id="path82"
     style="opacity:0.344" />
  <path
     d="M1122.89764,622.5H77.10236a1,1,0,1,1,0-2H1122.89764a1,1,0,0,1,0,2Z"
     transform="translate(-76.10236 -224.19109)"
     fill="#e6e6e6"
     id="path84"
     style="opacity:0.344" />
  <path
     d="M438.89764,657.5h-93a1,1,0,0,1,0-2h93a1,1,0,1,1,0,2Z"
     transform="translate(-76.10236 -224.19109)"
     fill="#e6e6e6"
     id="path86"
     style="opacity:0.344" />
  <path
     d="M669.89764,657.5h-93a1,1,0,0,1,0-2h93a1,1,0,1,1,0,2Z"
     transform="translate(-76.10236 -224.19109)"
     fill="#e6e6e6"
     id="path88"
     style="opacity:0.344" />
  <path
     d="M900.89764,657.5h-93a1,1,0,0,1,0-2h93a1,1,0,1,1,0,2Z"
     transform="translate(-76.10236 -224.19109)"
     fill="#e6e6e6"
     id="path90"
     style="opacity:0.344" />
  <path
     d="M491.89767,549.89841c0-17.66118-14.3269-59.57029-32-59.57029s-32,41.90911-32,59.57029a32,32,0,0,0,64.00007,0Z"
     transform="translate(-76.10236 -224.19109)"
     fill="#e6e6e6"
     id="path92"
     style="opacity:0.344" />
  <path
     d="M483.89767,549.89841c0-17.66118-14.3269-59.57029-32-59.57029s-32,41.90911-32,59.57029a32,32,0,0,0,64.00007,0Z"
     transform="translate(-76.10236 -224.19109)"
     fill="#f2f2f2"
     id="path94"
     style="opacity:0.344" />
  <path
     d="M452.89764,621.44892a1.00005,1.00005,0,0,1-1-1V531.3083a1,1,0,0,1,2,0v89.14062A1,1,0,0,1,452.89764,621.44892Z"
     transform="translate(-76.10236 -224.19109)"
     fill="#ccc"
     id="path96"
     style="opacity:0.344" />
  <path
     d="M452.89764,545.92158a1,1,0,0,1-.707-1.707l13.07764-13.07813a.99989.99989,0,0,1,1.41406,1.41406l-13.07763,13.07813A.99638.99638,0,0,1,452.89764,545.92158Z"
     transform="translate(-76.10236 -224.19109)"
     fill="#ccc"
     id="path98"
     style="opacity:0.344" />
  <path
     d="M1002.89767,549.89841c0-17.66118-14.3269-59.57029-32-59.57029s-32,41.90911-32,59.57029a32,32,0,0,0,64.00007,0Z"
     transform="translate(-76.10236 -224.19109)"
     fill="#e6e6e6"
     id="path100"
     style="opacity:0.344" />
  <path
     d="M994.89767,549.89841c0-17.66118-14.3269-59.57029-32-59.57029s-32,41.90911-32,59.57029a32,32,0,0,0,64.00007,0Z"
     transform="translate(-76.10236 -224.19109)"
     fill="#f2f2f2"
     id="path102"
     style="opacity:0.344" />
  <path
     d="M963.89764,621.44892a1.00005,1.00005,0,0,1-1-1V531.3083a1,1,0,0,1,2,0v89.14062A1,1,0,0,1,963.89764,621.44892Z"
     transform="translate(-76.10236 -224.19109)"
     fill="#ccc"
     id="path104"
     style="opacity:0.344" />
  <path
     d="M963.89764,545.92158a1,1,0,0,1-.707-1.707l13.07764-13.07813a.99989.99989,0,0,1,1.41406,1.41406l-13.07763,13.07813A.99638.99638,0,0,1,963.89764,545.92158Z"
     transform="translate(-76.10236 -224.19109)"
     fill="#ccc"
     id="path106"
     style="opacity:0.344" />
  <path
     d="M989.42222,619.66535a17.16536,17.16536,0,0,1,34.33071,0"
     transform="translate(-76.10236 -224.19109)"
     fill="#f2f2f2"
     id="path324"
     style="opacity:0.344" />
  <path
     d="M1006.58758,619.66535a.464.464,0,0,1-.46393-.46392v-9.04661a.46393.46393,0,0,1,.92786,0v9.04661A.464.464,0,0,1,1006.58758,619.66535Z"
     transform="translate(-76.10236 -224.19109)"
     fill="#ccc"
     id="path326"
     style="opacity:0.344" />
  <path
     d="M1006.58735,616.55672a.4618.4618,0,0,1-.302-.11191l-5.56709-4.77814a.46392.46392,0,1,1,.60432-.704l5.56715,4.77814a.46394.46394,0,0,1-.30242.816Z"
     transform="translate(-76.10236 -224.19109)"
     fill="#ccc"
     id="path328"
     style="opacity:0.344" />
  <path
     d="M1042.31007,619.66535a17.16536,17.16536,0,0,1,34.33071,0"
     transform="translate(-76.10236 -224.19109)"
     fill="#f2f2f2"
     id="path330"
     style="opacity:0.344" />
  <path
     d="M1059.47543,619.66535a.46394.46394,0,0,1-.46393-.46392v-9.04661a.46393.46393,0,0,1,.92786,0v9.04661A.464.464,0,0,1,1059.47543,619.66535Z"
     transform="translate(-76.10236 -224.19109)"
     fill="#ccc"
     id="path332"
     style="opacity:0.344" />
  <path
     d="M1059.4752,616.55672a.4618.4618,0,0,1-.302-.11191l-5.56714-4.77814a.46394.46394,0,1,1,.60437-.704l5.56714,4.77814a.46393.46393,0,0,1-.30241.816Z"
     transform="translate(-76.10236 -224.19109)"
     fill="#ccc"
     id="path334"
     style="opacity:0.344" />
</svg>
