<?xml version="1.0" encoding="UTF-8" standalone="no"?>
<svg
   xmlns:dc="http://purl.org/dc/elements/1.1/"
   xmlns:cc="http://creativecommons.org/ns#"
   xmlns:rdf="http://www.w3.org/1999/02/22-rdf-syntax-ns#"
   xmlns:svg="http://www.w3.org/2000/svg"
   xmlns="http://www.w3.org/2000/svg"
   xmlns:sodipodi="http://sodipodi.sourceforge.net/DTD/sodipodi-0.dtd"
   xmlns:inkscape="http://www.inkscape.org/namespaces/inkscape"
   width="368.39301"
   height="194.39301"
   viewBox="0 -88.59 368.393 194.393"
   version="1.1"
   id="svg12"
   sodipodi:docname="skyline-line-buildings-svgrepo-com (2).svg"
   inkscape:version="0.92.3 (2405546, 2018-03-11)">
  <metadata
     id="metadata18">
    <rdf:RDF>
      <cc:Work
         rdf:about="">
        <dc:format>image/svg+xml</dc:format>
        <dc:type
           rdf:resource="http://purl.org/dc/dcmitype/StillImage" />
        <dc:title></dc:title>
      </cc:Work>
    </rdf:RDF>
  </metadata>
  <defs
     id="defs16" />
  <sodipodi:namedview
     pagecolor="#ffffff"
     bordercolor="#666666"
     borderopacity="1"
     objecttolerance="10"
     gridtolerance="10"
     guidetolerance="10"
     inkscape:pageopacity="0"
     inkscape:pageshadow="2"
     inkscape:window-width="2560"
     inkscape:window-height="1387"
     id="namedview14"
     showgrid="false"
     inkscape:zoom="2.5624808"
     inkscape:cx="133.49233"
     inkscape:cy="67.040885"
     inkscape:window-x="1080"
     inkscape:window-y="222"
     inkscape:window-maximized="1"
     inkscape:current-layer="svg12" />
  <g
     id="Group_39"
     data-name="Group 39"
     transform="translate(-1074.6323,-416.3017)"
     style="opacity:0.11799999">
    <path
       id="Path_214"
       data-name="Path 214"
       d="m 1201.546,405.514 h 43.2 a 1.5,1.5 0 0 1 1.5,1.5 v 114.422 a 1.5,1.5 0 0 1 -1.5,1.5 h -43.2 a 1.5,1.5 0 0 1 -1.5,-1.5 V 407.014 a 1.5,1.5 0 0 1 1.5,-1.5 z m 41.7,3 h -40.2 v 111.422 h 40.2 z"
       style="fill:#1a1818;fill-rule:evenodd"
       inkscape:connector-curvature="0" />
    <path
       id="Path_215"
       data-name="Path 215"
       d="m 1234.787,373.2 43.127,-41.072 a 1.5,1.5 0 0 1 2.528,1.085 v 0 188.223 a 1.5,1.5 0 0 1 -1.5,1.5 h -43.2 a 1.5,1.5 0 0 1 -1.5,-1.5 V 374.355 a 1.5,1.5 0 0 1 0.542,-1.154 z m 42.658,-36.492 -40.2,38.284 v 144.944 h 40.2 z"
       style="fill:#1a1818;fill-rule:evenodd"
       inkscape:connector-curvature="0" />
    <path
       id="Path_216"
       data-name="Path 216"
       d="m 1270.2,410.336 13.284,-16.424 13.371,-16.635 a 1.5,1.5 0 0 1 2.353,0.025 l 13.351,16.61 13.354,16.511 a 1.482,1.482 0 0 1 0.33,0.938 h 0.01 v 110.075 a 1.5,1.5 0 0 1 -1.5,1.5 H 1271.3 a 1.5,1.5 0 0 1 -1.5,-1.5 V 411.361 a 1.5,1.5 0 0 1 0.4,-1.025 z m 15.616,-14.549 -13.021,16.1 v 108.049 h 50.452 V 411.885 l -13.019,-16.1 -12.207,-15.185 z"
       style="fill:#1a1818;fill-rule:evenodd"
       inkscape:connector-curvature="0" />
    <path
       id="Path_217"
       data-name="Path 217"
       d="m 1315.065,458.159 h 27.3 v -9.75 a 1.5,1.5 0 0 1 1.5,-1.5 h 23.731 a 1.5,1.5 0 0 1 1.5,1.5 v 73.027 a 1.5,1.5 0 0 1 -1.5,1.5 h -52.53 a 1.5,1.5 0 0 1 -1.5,-1.5 v -61.777 a 1.5,1.5 0 0 1 1.5,-1.5 z m 28.8,3 h -27.3 v 58.777 h 49.53 v -70.027 h -20.731 v 9.75 a 1.5,1.5 0 0 1 -1.5,1.5 z"
       style="fill:#1a1818;fill-rule:evenodd"
       inkscape:connector-curvature="0" />
    <path
       id="Path_218"
       data-name="Path 218"
       d="m 1355.446,420.81 h 6.6 v -9.3 a 1.5,1.5 0 0 1 1.5,-1.5 h 31.171 a 1.5,1.5 0 0 1 1.5,1.5 v 9.3 h 6.6 a 1.5,1.5 0 0 1 1.5,1.5 v 99.126 a 1.5,1.5 0 0 1 -1.5,1.5 h -47.371 a 1.5,1.5 0 0 1 -1.5,-1.5 V 422.31 a 1.5,1.5 0 0 1 1.5,-1.5 z m 8.1,3 h -6.6 v 96.126 h 44.371 V 423.81 h -6.6 a 1.5,1.5 0 0 1 -1.5,-1.5 v -9.3 h -28.171 v 9.3 a 1.5,1.5 0 0 1 -1.5,1.5 z"
       style="fill:#1a1818;fill-rule:evenodd"
       inkscape:connector-curvature="0" />
    <path
       id="Path_219"
       data-name="Path 219"
       d="m 1157.445,445.11 h 56.373 a 1.5,1.5 0 0 1 1.5,1.5 v 9 a 1.5,1.5 0 0 1 -1.5,1.5 h -3.9 v 64.325 a 1.5,1.5 0 0 1 -1.5,1.5 h -50.973 a 1.5,1.5 0 0 1 -1.5,-1.5 v -64.324 h -3.9 a 1.5,1.5 0 0 1 -1.5,-1.5 v -9 a 1.5,1.5 0 0 1 1.5,-1.5 z m 50.973,3 h -54.873 v 6 h 3.9 a 1.5,1.5 0 0 1 1.5,1.5 v 64.325 h 47.973 v -64.324 a 1.5,1.5 0 0 1 1.5,-1.5 h 3.9 v -6 z"
       style="fill:#1a1818;fill-rule:evenodd"
       inkscape:connector-curvature="0" />
    <path
       id="Path_220"
       data-name="Path 220"
       d="m 1127.3,390.336 h 5.126 v -8.523 a 1.5,1.5 0 0 1 1.5,-1.5 h 4.8 v -5.25 a 1.5,1.5 0 0 1 1.5,-1.5 h 4.137 V 337.49 a 1.5,1.5 0 0 1 1.5,-1.5 h 6.074 a 1.5,1.5 0 0 1 1.5,1.5 v 36.072 h 4.137 a 1.5,1.5 0 0 1 1.5,1.5 v 5.25 h 4.8 a 1.5,1.5 0 0 1 1.5,1.5 v 8.523 h 5.126 a 1.5,1.5 0 0 1 1.5,1.5 v 129.6 a 1.5,1.5 0 0 1 -1.5,1.5 h -43.2 a 1.5,1.5 0 0 1 -1.5,-1.5 v -129.6 a 1.5,1.5 0 0 1 1.5,-1.5 z m 6.626,3 h -5.126 v 126.6 h 40.2 v -126.6 h -5.126 a 1.5,1.5 0 0 1 -1.5,-1.5 v -8.523 h -4.8 a 1.5,1.5 0 0 1 -1.5,-1.5 v -5.25 h -4.137 a 1.5,1.5 0 0 1 -1.5,-1.5 V 338.99 h -3.074 v 36.073 a 1.5,1.5 0 0 1 -1.5,1.5 h -4.137 v 5.25 a 1.5,1.5 0 0 1 -1.5,1.5 h -4.8 v 8.523 a 1.5,1.5 0 0 1 -1.504,1.5 z"
       style="fill:#1a1818;fill-rule:evenodd"
       inkscape:connector-curvature="0" />
    <path
       id="Path_221"
       data-name="Path 221"
       d="m 1077.3,459.525 h 14.7 v -8.86 a 1.5,1.5 0 0 1 1.5,-1.5 h 24.3 a 1.5,1.5 0 0 1 1.5,1.5 v 8.86 h 14.7 a 1.5,1.5 0 0 1 1.5,1.5 v 60.411 a 1.5,1.5 0 0 1 -1.5,1.5 h -56.7 a 1.5,1.5 0 0 1 -1.5,-1.5 v -60.411 a 1.5,1.5 0 0 1 1.5,-1.5 z m 16.2,3 h -14.7 v 57.411 h 53.7 v -57.411 h -14.7 a 1.5,1.5 0 0 1 -1.5,-1.5 v -8.86 H 1095 v 8.86 a 1.5,1.5 0 0 1 -1.5,1.5 z"
       style="fill:#1a1818;fill-rule:evenodd"
       inkscape:connector-curvature="0" />
    <path
       id="Path_222"
       data-name="Path 222"
       d="m 1394.97,477.176 20.979,-15.124 a 1.5,1.5 0 0 1 1.771,0.018 l 20.952,15.106 h 4.024 a 1.5,1.5 0 0 1 1.5,1.5 v 7.4 a 1.5,1.5 0 0 1 -1.5,1.5 h -2.148 v 33.858 a 1.5,1.5 0 0 1 -1.5,1.5 h -44.453 a 1.5,1.5 0 0 1 -1.5,-1.5 v -33.856 h -2.148 a 1.5,1.5 0 0 1 -1.5,-1.5 v -7.4 a 1.5,1.5 0 0 1 1.5,-1.5 z m 21.851,-12.069 -20.4,14.705 a 1.491,1.491 0 0 1 -0.979,0.364 h -3 v 4.4 h 2.148 a 1.5,1.5 0 0 1 1.5,1.5 v 33.858 h 41.453 v -33.856 a 1.5,1.5 0 0 1 1.5,-1.5 h 2.148 v -4.4 h -3 v -0.005 a 1.5,1.5 0 0 1 -0.873,-0.282 z"
       style="fill:#1a1818;fill-rule:evenodd"
       inkscape:connector-curvature="0" />
  </g>
</svg>
