<?xml version="1.0" encoding="UTF-8" standalone="no"?>
<svg
   xmlns:dc="http://purl.org/dc/elements/1.1/"
   xmlns:cc="http://creativecommons.org/ns#"
   xmlns:rdf="http://www.w3.org/1999/02/22-rdf-syntax-ns#"
   xmlns:svg="http://www.w3.org/2000/svg"
   xmlns="http://www.w3.org/2000/svg"
   xmlns:sodipodi="http://sodipodi.sourceforge.net/DTD/sodipodi-0.dtd"
   xmlns:inkscape="http://www.inkscape.org/namespaces/inkscape"
   width="101.672"
   height="37"
   viewBox="0 -71.99 101.672 37"
   version="1.1"
   id="svg17"
   sodipodi:docname="chimni1.svg"
   inkscape:version="0.92.3 (2405546, 2018-03-11)">
  <metadata
     id="metadata23">
    <rdf:RDF>
      <cc:Work
         rdf:about="">
        <dc:format>image/svg+xml</dc:format>
        <dc:type
           rdf:resource="http://purl.org/dc/dcmitype/StillImage" />
        <dc:title></dc:title>
      </cc:Work>
    </rdf:RDF>
  </metadata>
  <defs
     id="defs21" />
  <sodipodi:namedview
     pagecolor="#ffffff"
     bordercolor="#666666"
     borderopacity="1"
     objecttolerance="10"
     gridtolerance="10"
     guidetolerance="10"
     inkscape:pageopacity="0"
     inkscape:pageshadow="2"
     inkscape:window-width="2560"
     inkscape:window-height="1387"
     id="namedview19"
     showgrid="false"
     inkscape:zoom="3.6310016"
     inkscape:cx="107.9763"
     inkscape:cy="28.581262"
     inkscape:window-x="1080"
     inkscape:window-y="222"
     inkscape:window-maximized="1"
     inkscape:current-layer="svg17" />
  <path
     inkscape:connector-curvature="0"
     style="fill:#4c5270;fill-opacity:1;fill-rule:evenodd"
     d="m 72.73981,-66.96652 a 1.5,1.5 0 0 0 -1.5,1.5 v 9.00586 l -20.04102,-9.98242 v 0.004 a 1.494,1.494 0 0 0 -1.33398,0 l -45.62695,22.85547 -0.002,-0.002 a 1.5,1.5 0 0 0 -0.95507,1.40039 v 0.9375 h 3 v -0.0176 l 44.24804,-22.16407 21.54297,10.73242 a 1.5,1.5 0 0 0 2.16797,-1.34179 v -9.92774 h 6.62305 v 14.74805 a 1.5,1.5 0 0 0 0.92382,1.38477 l 13,6.5664 v 0.0195 h 2.99805 v -0.9375 a 1.5,1.5 0 0 0 -0.82226,-1.33593 l -13.09961,-6.61524 v -15.33008 a 1.5,1.5 0 0 0 -1.5,-1.5 z"
     id="Path_128" />
</svg>
