<?xml version="1.0" encoding="UTF-8" standalone="no"?>
<svg
   xmlns:dc="http://purl.org/dc/elements/1.1/"
   xmlns:cc="http://creativecommons.org/ns#"
   xmlns:rdf="http://www.w3.org/1999/02/22-rdf-syntax-ns#"
   xmlns:svg="http://www.w3.org/2000/svg"
   xmlns="http://www.w3.org/2000/svg"
   xmlns:sodipodi="http://sodipodi.sourceforge.net/DTD/sodipodi-0.dtd"
   xmlns:inkscape="http://www.inkscape.org/namespaces/inkscape"
   data-name="Layer 1"
   width="368.24908"
   height="328"
   viewBox="0 0 368.24908 328"
   version="1.1"
   id="svg64"
   sodipodi:docname="undraw_contact_us_re_4qqt.svg"
   inkscape:version="0.92.3 (2405546, 2018-03-11)">
  <metadata
     id="metadata70">
    <rdf:RDF>
      <cc:Work
         rdf:about="">
        <dc:format>image/svg+xml</dc:format>
        <dc:type
           rdf:resource="http://purl.org/dc/dcmitype/StillImage" />
        <dc:title></dc:title>
      </cc:Work>
    </rdf:RDF>
  </metadata>
  <defs
     id="defs68" />
  <sodipodi:namedview
     pagecolor="#ffffff"
     bordercolor="#666666"
     borderopacity="1"
     objecttolerance="10"
     gridtolerance="10"
     guidetolerance="10"
     inkscape:pageopacity="0"
     inkscape:pageshadow="2"
     inkscape:window-width="2560"
     inkscape:window-height="1387"
     id="namedview66"
     showgrid="false"
     inkscape:zoom="1.2390284"
     inkscape:cx="387.03478"
     inkscape:cy="243.96059"
     inkscape:window-x="1080"
     inkscape:window-y="222"
     inkscape:window-maximized="1"
     inkscape:current-layer="svg64" />
  <path
     d="m 86.215904,216.8745 q -16.44545,-10.029 -32.48182,-20.61831 C 38.458234,186.16886 22.661904,175.73847 12.740154,158.23786 5.7991138,145.99603 2.2106138,130.95798 2.3633038,114.74891 a 106.49369,106.75287 31.376268 0 1 5.49063,-32.192286 124.43797,124.74082 31.376268 0 1 31.1322502,-50.17939 104.62035,104.87497 31.376268 0 1 16.0244,-12.80254 C 79.816184,3.525944 109.0859,0.447984 135.3147,11.130474 a 3.2392686,3.2471521 31.376268 0 1 0.60219,0.34979 c 0.1037,0.0714 0.20706,0.14266 0.31874,0.20491 l 0.16771,0.0409 a 8.034017,8.0535696 31.376268 0 1 1.27891,0.38976 c 40.15945,16.9545 72.29428,51.79963 92.92815,100.765776 15.95246,37.86333 46.93404,71.90722 94.71539,104.07716 l 0.67514,0.46198 c 13.19603,9.12784 22.97822,22.84746 28.2901,39.67752 5.24316,16.61136 5.70151,34.78754 1.325,52.5641 -0.52876,2.1702 -1.15114,4.38537 -1.84966,6.58356 a 12.392022,12.422181 31.376268 0 1 -8.95298,8.33658 l -0.002,0.003 -0.19923,0.0515 c -0.47347,0.11397 -0.95517,0.20656 -1.43188,0.27544 l -0.56026,0.0807 c -4.72069,0.67789 -8.4494,1.2137 -12.38729,0.99442 a 30.925901,31.001166 31.376268 0 1 -7.71076,-1.44949 c -13.75641,-4.37511 -27.56854,-9.07668 -41.05309,-13.97356 -26.19008,-9.5064 -52.49132,-20.21233 -78.17296,-31.8211 A 1079.8978,1082.526 31.376268 0 1 86.215774,216.87471 Z M 135.14695,12.114894 a 1.668931,1.6729928 31.376268 0 0 -0.22828,-0.11872 C 108.93508,1.413584 79.945694,4.457054 55.385824,20.347054 a 103.56873,103.82079 31.376268 0 0 -15.86568,12.67561 123.34935,123.64955 31.376268 0 0 -30.8545502,49.73485 105.4712,105.72789 31.376268 0 0 -5.43945,31.883546 c -0.15105,16.05018 3.39958,30.93636 10.2681302,43.0494 9.83261,17.34366 25.55424,27.72521 40.75863,37.7646 A 1078.5524,1081.1773 31.376268 0 0 203.71451,277.8879 c 25.66515,11.60093 51.9492,22.30017 78.12222,31.79998 13.47524,4.89393 27.27771,9.59234 41.02506,13.96411 a 30.152544,30.225927 31.376268 0 0 7.52442,1.41552 c 3.85845,0.21504 7.55166,-0.31568 12.22716,-0.98731 l 0.56002,-0.0803 c 0.40994,-0.0594 0.82435,-0.13736 1.23302,-0.23192 l 0.12049,-0.0324 c 4.12987,-1.02347 7.20085,-3.82388 8.42536,-7.68267 l 2.5e-4,-4e-4 c 0.69116,-2.17485 1.30683,-4.36627 1.83006,-6.51421 8.94036,-36.31418 -2.83936,-73.01422 -29.31149,-91.32472 l -0.67134,-0.45966 C 302.97394,203.0589 285.04126,188.28681 269.98007,172.59421 252.0003,153.86122 238.48719,133.92655 229.81554,113.34424 209.25995,64.565254 177.26254,29.860684 137.27973,12.978164 a 7.3637271,7.3816485 31.376268 0 0 -1.1667,-0.35244 l -0.29643,-0.0833 a 4.4613429,4.4722006 31.376268 0 1 -0.42832,-0.26823 c -0.082,-0.0559 -0.16124,-0.11039 -0.24136,-0.15926 z"
     id="path2"
     inkscape:connector-curvature="0"
     style="fill:#f0f0f0;stroke-width:0.47648478" />
  <circle
     cx="160.49899"
     cy="270.81384"
     r="35.297363"
     id="circle24"
     style="fill:#f0f0f0;stroke-width:0.69210517" />
  <circle
     cx="89.717621"
     cy="103.08209"
     r="35.297363"
     id="circle26"
     style="fill:#f0f0f0;stroke-width:0.69210517" />
  <circle
     cx="285.11499"
     cy="191.81079"
     r="35.297363"
     id="circle28"
     style="fill:#f0f0f0;stroke-width:0.69210517" />
  <path
     d="M 227.59257,37.972174 V 153.61822 a 9.11863,9.11863 0 0 1 -9.02354,9.11927 0.80182,0.80182 0 0 1 -0.0999,0.004 h -13.45985 a 40.6065,40.6065 0 0 1 -40.6065,-40.6065 V 37.971994 a 9.12338,9.12338 0 0 1 9.12338,-9.12338 h 5.454 c -2.52672,7.37064 31.7654,10.47377 33.648,0 h 5.841 a 9.12341,9.12341 0 0 1 9.12337,9.1234 z"
     id="path30"
     inkscape:connector-curvature="0"
     style="fill:#f652a0" />
  <path
     d="m 187.64965,20.201164 a 1.19706,1.19706 0 0 1 1.19565,-1.19566 h 8.13043 a 1.19566,1.19566 0 0 1 0,2.39131 h -8.13043 a 1.19706,1.19706 0 0 1 -1.19565,-1.19565 z"
     id="path32"
     inkscape:connector-curvature="0"
     style="fill:#3f3d56" />
  <path
     d="m 221.26249,177.41039 h -51.416 A 15.06329,15.06329 0 0 1 154.8001,162.36449 V 81.523194 a 2.18651,2.18651 0 0 1 -0.91113,-1.77881 v -8.13037 a 2.18557,2.18557 0 0 1 0.91113,-1.77832 v -2.18213 a 2.1856,2.1856 0 0 1 -0.91113,-1.77832 v -8.13086 a 2.18557,2.18557 0 0 1 0.91113,-1.77832 v -3.94385 a 2.18353,2.18353 0 0 1 -1.15039,-1.92969 v -8.13037 a 2.1843,2.1843 0 0 1 1.15039,-1.93018 v -10.80664 a 15.06329,15.06329 0 0 1 15.04637,-15.04584 h 51.416 a 15.06288,15.06288 0 0 1 15.0459,15.04589 v 23.55611 a 1.8859,1.8859 0 0 1 0.88574,1.59814 v 15.50293 a 1.88674,1.88674 0 0 1 -0.88574,1.59863 v 90.883296 a 15.06288,15.06288 0 0 1 -15.04588,15.0459 z M 169.84647,16.179494 a 13.061,13.061 0 0 0 -13.04639,13.04589 v 12.50782 l -0.96191,0.0371 a 0.19547,0.19547 0 0 0 -0.18848,0.19189 v 8.13029 a 0.19617,0.19617 0 0 0 0.18848,0.1919 l 0.96191,0.0366 v 7.04931 l -0.76074,0.1875 a 0.19651,0.19651 0 0 0 -0.15039,0.18653 v 8.13086 a 0.19651,0.19651 0 0 0 0.15039,0.18652 l 0.76074,0.1875 v 4.99072 l -0.76074,0.1875 a 0.19651,0.19651 0 0 0 -0.15039,0.18653 v 8.13037 a 0.19664,0.19664 0 0 0 0.15039,0.187 l 0.76074,0.1875 v 82.245636 a 13.061,13.061 0 0 0 13.04639,13.0459 h 51.416 a 13.0609,13.0609 0 0 0 13.0459,-13.0459 V 69.768764 h 0.88574 v -15.2749 h -0.88574 v -25.26853 a 13.06089,13.06089 0 0 0 -13.0459,-13.04589 z"
     id="path34"
     inkscape:connector-curvature="0"
     style="fill:#3f3d56" />
  <circle
     cx="201.5192"
     cy="20.201157"
     r="1.19565"
     id="circle36"
     style="fill:#3f3d56" />
  <path
     d="M 185.97008,222.75819 H 52.182974 a 7.18838,7.18838 0 0 1 -7.16992,-7.16894 v -65.189 a 7.1884,7.1884 0 0 1 7.16894,-7.16992 H 185.9691 a 7.18841,7.18841 0 0 1 7.16993,7.16895 v 65.189 a 7.1884,7.1884 0 0 1 -7.16895,7.16991 z"
     id="path38"
     inkscape:connector-curvature="0"
     style="fill:#ffffff" />
  <path
     d="M 185.97008,222.75819 H 52.182974 a 7.18838,7.18838 0 0 1 -7.16992,-7.16894 v -65.189 a 7.1884,7.1884 0 0 1 7.16894,-7.16992 H 185.9691 a 7.18841,7.18841 0 0 1 7.16993,7.16895 v 65.189 a 7.1884,7.1884 0 0 1 -7.16895,7.16991 z M 52.182974,145.23036 a 5.18526,5.18526 0 0 0 -5.16992,5.1709 v 65.187 a 5.18494,5.18494 0 0 0 5.1709,5.16992 H 185.96813 a 5.18515,5.18515 0 0 0 5.1709,-5.17089 v -65.187 a 5.18527,5.18527 0 0 0 -5.1709,-5.16992 z"
     id="path40"
     inkscape:connector-curvature="0"
     style="fill:#3f3d56" />
  <path
     d="m 126.24684,213.1243 c -26.385736,0 -53.898816,-0.25214 -64.164266,-0.41561 a 5.17627,5.17627 0 0 1 -5.06954,-5.15521 v -53.96164 a 1.82954,1.82954 0 0 1 1.823,-1.82756 H 179.31177 a 1.82942,1.82942 0 0 1 1.82726,1.8227 v 36.612 a 22.84157,22.84157 0 0 1 -22.45691,22.75218 c -9.56736,0.12457 -20.89633,0.17314 -32.43528,0.17314 z"
     id="path42"
     inkscape:connector-curvature="0"
     style="fill:#f652a0" />
  <path
     d="M 172.16049,186.83534 H 63.301134 a 4.43849,4.43849 0 0 1 -4.16406,-2.93554 l -12.32129,-34.56641 a 4.4228,4.4228 0 0 1 4.15772,-5.90674 L 187.04576,143.2372 a 4.42312,4.42312 0 0 1 4.35938,5.19775 l 0.105,0.0444 -0.39063,0.91162 -0.004,0.009 -14.895,34.75538 a 4.40962,4.40962 0 0 1 -4.06012,2.67968 z m 14.8916,-41.59814 -136.074706,0.18945 a 2.42256,2.42256 0 0 0 -2.27783,3.23535 l 12.3208,34.56494 a 2.43347,2.43347 0 0 0 2.28223,1.6084 H 172.16049 a 2.4131,2.4131 0 0 0 2.22168,-1.46679 l 14.89551,-34.75635 0.73242,0.314 -0.73242,-0.314 a 2.42117,2.42117 0 0 0 -2.22559,-3.375 z"
     id="path44"
     inkscape:connector-curvature="0"
     style="fill:#3f3d56" />
  <circle
     cx="118.87305"
     cy="185.83557"
     r="8.5240202"
     id="circle46"
     style="fill:#ffffff" />
  <circle
     cx="196.3266"
     cy="140.89059"
     r="8.5240202"
     id="circle48"
     style="fill:#ffffff" />
  <path
     d="m 319.37282,283.09332 -22.77,-22.48 a 11.884,11.884 0 0 0 -8.43,-3.46 h -0.08 a 11.9143,11.9143 0 0 0 -8.46,3.56 27.99135,27.99135 0 0 0 -0.49,38.84 c 0.24,0.26 0.49,0.51 0.74,0.76 a 27.248,27.248 0 0 0 4.56,3.65 27.67639,27.67639 0 0 0 15.11,4.43 h 0.17 a 27.82649,27.82649 0 0 0 19.75,-8.32 12.023,12.023 0 0 0 -0.1,-16.98 z m -1.32,15.57 a 26.09171,26.09171 0 0 1 -32.76,3.48 26.78641,26.78641 0 0 1 -4.01,-3.25 26.00168,26.00168 0 0 1 -0.23,-36.77 9.91308,9.91308 0 0 1 7.06,-2.97 h 0.06 a 9.911,9.911 0 0 1 7.02,2.88 l 22.77,22.49 a 10.00707,10.00707 0 0 1 0.09,14.14 z"
     id="path50"
     inkscape:connector-curvature="0"
     style="fill:#3f3d56" />
  <path
     d="m 244.6628,209.31329 -22.77,-22.49 a 11.92636,11.92636 0 0 0 -8.43,-3.46 h -0.07 a 11.947,11.947 0 0 0 -8.47,3.56994 28.07691,28.07691 0 0 0 -4.72,33 l 0.01,0.01 a 27.562,27.562 0 0 0 4.33,5.93 c 0.19,0.22 0.41,0.44 0.63,0.66 a 27.83532,27.83532 0 0 0 19.67,8.08 h 0.18 a 27.854,27.854 0 0 0 19.75,-8.33 11.99892,11.99892 0 0 0 -0.11,-16.97 z m -1.32,15.57 a 25.85541,25.85541 0 0 1 -18.33,7.73 h -0.17 a 26.00049,26.00049 0 0 1 -18.49,-44.27 10.00761,10.00761 0 0 1 14.14,-0.09 l 22.77,22.48 a 10.01911,10.01911 0 0 1 0.08,14.15001 z"
     id="path52"
     inkscape:connector-curvature="0"
     style="fill:#3f3d56" />
  <path
     d="m 320.82822,290.16091 -25.1032,-24.79357 a 8.72678,8.72678 0 0 0 -12.32743,0.0765 22,22 0 1 0 31.30516,30.919 z"
     id="path54"
     inkscape:connector-curvature="0"
     style="fill:#f652a0" />
  <path
     d="m 246.12271,216.37685 -25.1032,-24.79356 a 8.72676,8.72676 0 0 0 -12.32743,0.0765 22,22 0 1 0 31.30516,30.919 z"
     id="path56"
     inkscape:connector-curvature="0"
     style="fill:#f652a0" />
  <path
     d="m 293.24282,305.60333 -0.6,1.57995 q -4.23,-1.60491 -8.2,-3.22 c -46.88,-19.13 -69.26,-41.52 -84.23,-84.02 l -0.01,-0.01 q -1.065,-3 -2.07,-6.13995 l 1.58,-0.51 a 25.54187,25.54187 0 0 0 2.3,5.78 q 1.23,3.495 2.53,6.81 c 14.07,35.87 34.82,56.37 74.6,73.68 q 3,1.30507 6.15,2.59 a 26.08663,26.08663 0 0 0 7.95,3.46 z"
     id="path58"
     inkscape:connector-curvature="0"
     style="fill:#3f3d56" />
  <rect
     x="-11.994733"
     y="321.16022"
     width="2.00052"
     height="73.000168"
     transform="rotate(-45.35527)"
     id="rect60"
     style="fill:#3f3d56" />
</svg>
