<?xml version="1.0" encoding="UTF-8" standalone="no"?>
<svg
   xmlns:dc="http://purl.org/dc/elements/1.1/"
   xmlns:cc="http://creativecommons.org/ns#"
   xmlns:rdf="http://www.w3.org/1999/02/22-rdf-syntax-ns#"
   xmlns:svg="http://www.w3.org/2000/svg"
   xmlns="http://www.w3.org/2000/svg"
   xmlns:sodipodi="http://sodipodi.sourceforge.net/DTD/sodipodi-0.dtd"
   xmlns:inkscape="http://www.inkscape.org/namespaces/inkscape"
   data-name="Layer 1"
   width="1176.60617"
   height="873.97852"
   viewBox="0 0 1176.60617 873.97852"
   version="1.1"
   id="svg68"
   sodipodi:docname="undraw_connected_world_wuay.svg"
   inkscape:version="0.92.3 (2405546, 2018-03-11)">
  <metadata
     id="metadata74">
    <rdf:RDF>
      <cc:Work
         rdf:about="">
        <dc:format>image/svg+xml</dc:format>
        <dc:type
           rdf:resource="http://purl.org/dc/dcmitype/StillImage" />
      </cc:Work>
    </rdf:RDF>
  </metadata>
  <defs
     id="defs72" />
  <sodipodi:namedview
     pagecolor="#ffffff"
     bordercolor="#666666"
     borderopacity="1"
     objecttolerance="10"
     gridtolerance="10"
     guidetolerance="10"
     inkscape:pageopacity="0"
     inkscape:pageshadow="2"
     inkscape:window-width="2560"
     inkscape:window-height="1387"
     id="namedview70"
     showgrid="false"
     inkscape:zoom="0.94169145"
     inkscape:cx="413.70853"
     inkscape:cy="373.91429"
     inkscape:window-x="0"
     inkscape:window-y="0"
     inkscape:window-maximized="1"
     inkscape:current-layer="svg68" />
  <title
     id="title2">connected world</title>
  <path
     d="m 286.93373,180.13704 a 37.336813,38.453998 0 0 0 -2.44051,-9.62267 4.2291675,4.3557119 0 0 0 -2.15005,-2.72733 4.430318,4.5628812 0 0 0 -2.13338,-0.0246 l -10.9531,1.72614 a 4.1987642,4.3243988 0 0 0 -2.49908,1.00008 c -1.42659,1.54517 -0.0219,4.0333 -0.0655,6.16503 -0.0491,2.39712 -2.11709,4.34287 -4.35962,4.98661 a 16.480024,16.973136 0 0 1 -6.92727,-0.0885 l -15.31567,-2.45132 a 25.252251,26.007845 0 0 0 11.58646,-7.96325 c 2.0155,-2.45908 3.08777,-7.05012 0.17492,-8.21464 a 7.1506337,7.3645937 0 0 0 -2.66018,-0.21998 c -6.93907,0.0555 -12.39954,-5.91146 -18.89567,-8.42457 a 20.892393,21.517531 0 0 0 -23.51332,7.2192 l 8.15884,0.40513 a 3.6214267,3.7297864 0 0 1 2.17326,0.59695 c 1.78805,1.51303 -0.43495,4.41924 -0.18306,6.78849 0.32727,3.07816 4.29563,3.73539 7.28703,4.04665 2.99141,0.31127 6.78634,2.81445 5.34743,5.53337 -15.03515,5.33373 -30.33503,-10.42629 -46.12511,-8.48628 -3.99637,0.49101 -7.77004,2.10796 -11.67181,3.1247 -23.83484,6.21096 -48.47583,-10.3606 -72.824449,-6.85104 a 92.472592,95.23954 0 0 0 -15.89703,4.31809 c -3.31389,1.12065 -6.77049,2.33171 -9.17833,4.93069 -2.40785,2.59898 -3.32425,7.04372 -1.04319,9.76133 a 53.342273,54.938371 0 0 1 -18.693457,-1.8301 10.472859,10.786226 0 0 1 5.384297,9.50608 110.91279,114.23151 0 0 0 -28.413269,8.92281 47.856373,49.288323 0 0 0 5.880867,8.06848 l -12.427727,8.22302 c 4.19868,1.08953 6.369499,6.98608 3.92782,10.6688 4.353544,-1.99471 7.051672,-7.1549 11.707067,-8.20109 3.049909,-0.6854 6.153263,0.59959 9.046562,1.80671 2.8933,1.20712 6.073325,2.37763 9.068515,1.47166 2.995185,-0.90596 5.204395,-4.9059 3.301165,-7.45434 a 154.96909,159.60604 0 0 1 39.364389,-6.33409 4.936794,5.0845118 0 0 1 2.98126,0.5827 c 1.73544,1.24003 1.27884,3.91839 1.18535,6.09164 -0.0935,2.17325 1.55113,5.02946 3.43704,4.04989 -2.21879,1.98156 -0.32201,5.712 1.80669,7.79576 2.1287,2.08376 4.6944,4.95902 3.39116,7.66958 -0.34014,0.70744 -0.91705,1.27347 -1.24432,1.98732 -0.96601,2.10709 0.56778,4.5636 2.37689,5.96289 1.80912,1.3993 4.0251,2.37724 5.2818,4.31491 1.2567,1.93766 0.68601,5.32934 -1.56118,5.59993 l -6.38726,-8.35242 a 16.627958,17.125497 0 0 0 -4.31471,8.42123 c 6.77316,5.70258 7.79194,17.30966 2.1215,24.17077 -2.89774,3.5062 -7.01854,5.63672 -10.615109,8.37155 -3.59655,2.73484 -6.92453,6.62924 -6.91548,11.23356 0.0156,7.95474 -0.61546,15.34503 2.27877,22.72017 a 339.82881,349.9971 0 0 0 18.448799,39.64167 c 1.82511,3.36186 4.18389,7.04663 7.88119,7.62548 q -7.00899,-17.57357 -12.61897,-35.69394 c 2.43596,0.0101 5.25097,0.20901 6.67896,2.24157 1.18248,1.68307 0.92847,3.9714 1.2959,6.01417 a 18.088978,18.630234 0 0 0 2.3068,5.58525 l 22.31333,40.93601 c 1.84974,3.39353 3.9715,7.03615 7.50671,8.41043 2.26025,0.87865 4.87525,0.71312 6.95563,1.97811 1.63066,0.99154 2.72895,2.75162 4.39131,3.68562 4.70041,2.64089 11.23681,-2.42394 15.62948,0.72915 1.256,0.90157 2.05503,2.33383 3.21233,3.36605 4.057,3.61846 10.71218,1.1978 15.39555,3.89709 3.01835,1.73965 4.58264,5.21884 6.19257,8.37176 4.03271,7.89771 10.55785,15.63508 19.20032,16.26396 2.71477,0.19754 5.4878,-0.33258 8.14147,0.2893 2.65366,0.62189 5.26591,3.0071 4.83994,5.77554 -0.73027,4.74616 1.54656,9.94314 0.93508,14.70706 -1.11384,8.67763 -13.06486,12.49099 -14.09141,21.18003 -0.22477,1.90246 0.12705,3.86617 -0.31278,5.72837 -0.53907,2.28233 -2.20334,4.14057 -2.79471,6.40911 -1.1207,4.29907 1.86988,8.57754 5.1552,11.46981 3.28532,2.89227 7.20411,5.38629 9.00023,9.43503 1.89846,4.27942 0.96594,9.26921 1.58336,13.93094 1.34789,10.17718 9.88279,17.72182 18.66636,22.58648 2.67617,1.48216 5.54963,2.91708 7.28176,5.4883 2.2608,3.35599 2.03558,7.78018 2.79051,11.79016 1.84885,9.82062 9.87594,17.91239 10.10385,27.91315 0.162,7.10821 -3.67446,13.55674 -5.96619,20.2637 a 45.883882,47.256811 0 0 0 3.74683,39.19231 c 1.71438,2.98145 3.76482,5.79242 4.97758,9.02458 2.16417,5.7678 1.46195,12.32444 3.45737,18.15643 2.63814,7.71039 9.88719,14.07895 9.19338,22.22277 3.29105,7.0388 10.5583,10.49731 17.8659,12.59232 l 13.09686,3.75477 c 2.50772,0.71895 5.12818,1.4436 7.68171,0.92303 2.55351,-0.52056 4.99048,-2.70436 4.92456,-5.38445 -6.42251,-1.49177 -13.05102,-3.0781 -18.34532,-7.10888 -5.29431,-4.03078 -8.921,-11.20863 -6.91225,-17.66615 0.93143,-2.99432 2.91305,-6.45208 1.02909,-8.92622 -1.0787,-1.4166 -3.05119,-1.78671 -4.26788,-3.07924 -1.89777,-2.01594 -1.24577,-5.40262 0.11855,-7.83363 1.36432,-2.43101 3.3363,-4.60347 3.8866,-7.35358 a 7.4497916,7.6727029 0 0 0 -3.49186,-7.9825 18.518165,19.072262 0 0 0 6.48242,-4.28383 c 1.70476,-2.00506 2.49221,-5.0962 1.15118,-7.37551 3.98233,0.52016 8.68387,0.77492 11.29804,-2.36257 2.08753,-2.50541 1.94414,-6.25109 1.1193,-9.44138 -0.82484,-3.19028 -2.21902,-6.28897 -2.26245,-9.59011 a 169.67942,174.75654 0 0 0 27.52912,-0.9614 17.850324,18.384438 0 0 0 -8.36975,-10.79578 c 4.13766,-0.72104 7.90716,-5.82285 9.21438,-9.92983 1.30722,-4.10699 0.97384,-8.58054 0.16586,-12.82172 a 6.679936,6.8798118 0 0 1 -0.12378,-3.35911 c 0.46594,-1.52932 1.92462,-2.46255 3.27415,-3.26074 l 20.53787,-12.14802 a 11.963078,12.321035 0 0 0 3.28422,-2.4971 c 2.15176,-2.60312 1.83302,-6.53267 0.73125,-9.75756 -1.10178,-3.22488 -2.86661,-6.25739 -3.291,-9.64803 -1.26933,-10.14047 9.27043,-17.41622 12.82743,-26.96178 1.3959,-3.74602 1.68039,-7.81788 1.95052,-11.82067 0.29014,-4.29915 0.3117,-9.29279 -2.89337,-12.06327 -3.07235,-2.65569 -7.87284,-2.0633 -11.08771,-4.53354 -2.94747,-2.2648 -3.96438,-6.66334 -7.18433,-8.49264 -2.9242,-1.66127 -6.59058,-0.60472 -9.84285,-1.38604 -5.72629,-1.37569 -9.32987,-8.17288 -15.17803,-8.80225 -3.29964,-0.3551 -7.0341,1.30628 -9.7385,-0.67288 -2.38298,-1.74394 -2.47848,-5.24915 -2.93209,-8.22347 a 22.298536,22.965749 0 0 0 -17.99734,-18.59554 c -3.40213,-0.56191 -7.10529,-0.34852 -9.99954,-2.27408 -2.93066,-1.94982 -4.2744,-5.60029 -6.57645,-8.30049 -3.71019,-4.35188 -9.55361,-5.89804 -15.02754,-7.2234 l -22.26556,-5.39094 c -3.95256,-0.95701 -9.04739,-1.46445 -11.16844,2.10142 a 16.003093,16.481935 0 0 0 -1.32113,4.27944 12.867621,13.252643 0 0 1 -12.10092,9.38073 14.31028,14.73847 0 0 0 -8.43859,-6.72478 c -2.25777,-0.64803 -4.67443,-0.72011 -6.82773,-1.67351 a 9.5908043,9.8777786 0 0 1 -4.16152,-13.7024 11.938397,12.295616 0 0 0 -2.04006,-14.78993 c -3.7865,-3.50111 -9.26379,-4.34704 -14.34098,-3.99672 -1.32976,-2.98832 0.89364,-6.35991 3.28959,-8.53156 2.39596,-2.17165 5.30538,-4.30666 5.82711,-7.54962 0.82076,-5.10118 -5.49897,-8.97566 -10.29736,-7.45464 -4.7984,1.52102 -7.86101,6.32122 -9.8855,11.05294 -1.16158,2.71487 -2.1491,5.57372 -3.98136,7.86292 -1.83226,2.28921 -4.78289,3.92829 -7.57376,3.19363 -3.95109,-1.04004 -5.47705,-5.87469 -6.3515,-9.97712 -1.17325,-5.50413 -2.35332,-11.08461 -2.10749,-16.71413 0.24584,-5.62952 2.08851,-11.40974 6.11905,-15.22071 6.56797,-6.21017 16.64365,-5.60139 25.50766,-4.61076 -2.0942,-2.43012 -1.57664,-6.52561 0.66404,-8.81295 a 9.7287707,10.019873 0 0 1 8.81788,-2.23113 12.151677,12.515277 0 0 1 6.8312,4.2066 c 2.51891,3.16293 3.2352,7.43349 5.13913,11.02367 1.90394,3.59018 6.18508,6.65233 9.68919,4.72622 3.02663,-1.66365 3.50702,-5.9861 2.75374,-9.43325 -0.75327,-3.44714 -2.35315,-6.79912 -2.08029,-10.32129 0.52065,-6.72071 7.28498,-10.7661 13.2541,-13.53394 5.96912,-2.76785 12.80413,-6.49025 13.7498,-13.16158 a 11.650901,11.999517 0 0 1 0.70833,-3.825 7.2851467,7.5031315 0 0 1 2.67264,-2.58853 c 17.42103,-11.85743 35.1318,-23.85961 55.04323,-30.33874 1.03589,-0.3371 1.1575,0.0376 2.21323,-0.22655 1.47753,-0.87951 0.49851,-3.31253 -0.9181,-4.29265 -1.41661,-0.98012 -3.31008,-1.73176 -3.66949,-3.44997 -0.26419,-1.26305 0.45837,-2.50325 0.64608,-3.78073 0.46121,-3.13913 -3.185,-6.03745 -6.01661,-4.78245 -1.59943,-2.18159 1.56538,-4.7165 4.12442,-5.44213 a 112.00384,115.3552 0 0 1 23.53041,-3.95886 4.238321,4.3651393 0 0 1 2.67754,0.46905 c 1.33658,0.95356 1.16582,3.14065 0.21857,4.5017 -0.94725,1.36106 -2.42071,2.21561 -3.60113,3.36727 a 9.8296226,10.123743 0 0 0 -2.54966,10.18233 c 4.1544,2.17645 8.67094,4.41696 13.27213,3.65021 4.6012,-0.76674 8.68512,-6.09123 6.52238,-10.34364 -2.01401,-3.95998 -8.06368,-4.85314 -9.10402,-9.19319 -1.21805,-5.08144 5.76622,-9.60081 4.19296,-14.57766 -0.68914,-2.18002 -2.79862,-3.46302 -4.41729,-5.03693 a 13.270226,13.667295 0 0 1 -2.90401,-15.15504 16.741927,17.242875 0 0 1 -14.68332,-4.73241 c -3.51211,-3.65049 -6.31401,-9.40904 -11.30127,-9.2457 -4.57662,0.14985 -8.5186,5.64898 -12.798,3.97129 -1.05279,-0.41274 -2.16282,-1.25281 -3.18291,-0.7606 a 2.6301589,2.7088581 0 0 0 -1.18727,2.02976 c -1.08751,5.35496 0.7833,11.45629 -2.05047,16.08362 -3.08369,5.03544 -10.21639,5.73355 -13.95478,10.27427 -2.02932,2.46486 -2.81556,5.78626 -4.68086,8.38492 -1.86529,2.59866 -5.82433,4.25087 -8.06284,1.98624 a 11.113153,11.445679 0 0 0 -3.01906,-13.91762 29.653328,30.540609 0 0 0 -6.66831,-3.34056 39.547851,40.731194 0 0 1 -7.44964,-4.27615 7.337853,7.5574149 0 0 1 -2.73482,-3.01381 6.6684913,6.8680247 0 0 1 0.18702,-4.76594 18.921258,19.487417 0 0 1 15.05741,-12.85365 c 2.98048,-0.41761 6.44935,-0.27046 8.42179,-2.60934 1.04366,-1.23755 1.59126,-3.1086 3.10615,-3.61121 a 4.5815963,4.718686 0 0 1 2.86777,0.36372 l 11.12471,4.03287 a 7.8079646,8.0415931 0 0 0 3.96302,0.67507 2.686872,2.7672681 0 0 0 2.32331,-2.90815 c -0.35545,-1.90273 -3.19816,-2.8158 -2.9395,-4.73498 a 3.0692916,3.1611303 0 0 1 0.93107,-1.6119 39.772868,40.962945 0 0 1 31.54487,-12.82967 c 1.40412,2.37509 -0.81655,5.18762 -2.6643,7.21517 -1.84775,2.02756 -3.33262,5.65029 -1.09805,7.21101 a 6.1268561,6.3101828 0 0 0 2.96205,0.68703 25.863,26.636868 0 0 1 7.88402,2.4629 q 5.76633,2.58451 11.31133,5.65564 c -0.32654,-2.51031 -0.63818,-5.1549 0.28567,-7.50212 0.92385,-2.34721 3.54951,-4.18828 5.84292,-3.27417 2.21024,0.88095 3.34377,3.89512 5.69853,4.17126 3.14111,0.36836 4.38035,-4.41093 3.06828,-7.37327 -1.31207,-2.96234 -3.90947,-5.4428 -4.12628,-8.69113 -0.14628,-2.19144 0.66344,-4.90931 -1.0362,-6.2363 a 4.6261806,4.7646043 0 0 0 -2.00535,-0.7242 l -42.43855,-8.04315 c -2.52009,-0.47763 -6.16118,-0.11161 -6.27293,2.52501 -0.0624,1.47171 1.21403,2.92768 0.6487,4.28081 -0.60339,1.4442 -2.58559,1.31216 -4.02933,1.82296 -2.24014,0.79258 -3.36424,3.53217 -3.14909,5.96159 a 16.10716,16.589115 0 0 0 2.65811,6.71834 c -2.76038,-1.18897 -6.94006,-1.40753 -9.70045,-2.59648 z"
     id="path6"
     inkscape:connector-curvature="0"
     style="fill:#3f3d56;stroke-width:1.10195827;opacity:0.053" />
  <path
     d="m 253.07196,143.03398 a 13.742574,14.153776 0 0 0 -15.09577,4.65616 c -0.69879,0.9476 -1.28563,2.25388 -0.70065,3.27995 0.83872,1.47102 2.97577,0.88999 4.55133,0.36379 a 11.454702,11.797447 0 0 1 7.18899,-0.17663 c 1.47946,0.52315 2.80304,1.44774 4.28896,1.95113 a 4.319183,4.4484208 0 0 0 4.40382,-0.6628 c 1.01979,-1.0712 1.08378,-2.73654 1.08558,-4.23677 a 3.3083485,3.4073403 0 0 0 -0.84304,-2.80046 4.3225165,4.4518541 0 0 0 -1.94965,-0.59392 6.7153667,6.9163027 0 0 1 -3.93016,-2.36508"
     id="path8"
     inkscape:connector-curvature="0"
     style="fill:#3f3d56;stroke-width:1.10195827;opacity:0.053" />
  <path
     d="m 268.3744,138.64591 a 3.4959045,3.6005083 0 0 0 -3.37887,5.0709 14.169751,14.593736 0 0 0 5.64959,0.37939 4.8288622,4.9733505 0 0 0 3.94881,-3.72876 9.090746,9.3627576 0 0 1 -6.4367,-1.26611"
     id="path10"
     inkscape:connector-curvature="0"
     style="fill:#3f3d56;stroke-width:1.10195827;opacity:0.053" />
  <path
     d="m 319.71599,131.31743 a 64.990666,66.935305 0 0 0 -14.48719,5.06857 10.884814,11.210507 0 0 1 6.95201,11.25977 5.6931092,5.8634574 0 0 0 0.0659,2.78391 c 0.53206,1.32849 2.07386,1.82697 3.42932,2.16796 a 22.609833,23.286361 0 0 0 7.52156,0.98876 7.6620611,7.8913239 0 0 0 6.22591,-3.9184 27.11578,27.927133 0 0 1 1.29471,-3.15211 c 3.24902,-5.09626 12.901,1.06586 16.38934,-3.85972 1.22881,-1.73511 1.11642,-4.34692 2.71831,-5.72183 a 6.1068116,6.2895385 0 0 1 2.79442,-1.09834 196.24374,202.11571 0 0 1 21.22632,-3.11354 c 3.3761,-0.30258 7.7766,-1.55111 7.80469,-5.04121 a 58.796488,60.555786 0 0 0 -37.50599,5.19655 c -4.18091,2.15674 -9.71061,6.69351 -13.73787,3.83419 -1.5079,-1.07058 -1.43324,-3.95338 -3.50861,-5.15722 -2.12183,-1.23078 -4.93052,-0.7302 -7.18289,-0.23734 z"
     id="path12"
     inkscape:connector-curvature="0"
     style="fill:#3f3d56;stroke-width:1.10195827;opacity:0.053" />
  <path
     d="m 361.3024,139.3269 5.96929,1.18131 a 7.7352243,7.9666763 0 0 0 -8.04968,8.63356 c 5.58999,1.9233 11.68435,0.0517 17.57277,0.30737 5.88843,0.25567 12.73966,4.58772 11.73447,10.5688 -0.30394,1.80847 -1.31831,3.61574 -0.79082,5.36884 0.36972,1.22876 1.4219,2.10064 2.01579,3.23231 1.23758,2.3582 0.24846,5.34097 -1.31422,7.48465 -1.56269,2.14368 -3.66315,3.8541 -5.03483,6.13223 -3.41154,5.66606 -1.47327,12.99116 0.55898,19.32117 a 16.538703,17.033571 0 0 0 3.18016,6.54088 c 3.01084,3.29706 7.91743,3.58381 12.31167,3.64986 3.19828,0.0481 6.86204,-0.11466 8.88459,-2.6668 2.64053,-3.33194 0.79412,-8.53048 2.5326,-12.44096 1.57887,-3.55152 5.60152,-5.07515 9.24609,-6.15577 6.67691,-1.9797 13.48133,-3.66276 19.79365,-6.65307 7.8383,-3.71319 15.16372,-9.4998 23.77892,-9.97777 2.41699,-0.13408 4.89386,0.1597 7.22202,-0.52234 2.32815,-0.68202 4.53973,-2.75512 4.36348,-5.2414 -0.15061,-2.12436 -1.8957,-3.68431 -3.25929,-5.28575 -1.36359,-1.60144 -2.43444,-4.06398 -1.18121,-5.75833 l 22.58158,-4.34404 c -1.60069,-4.4928 -2.84766,-10.40992 0.83054,-13.33434 1.32712,-1.05515 3.10401,-1.47688 4.23396,-2.7525 1.92587,-2.17413 0.95744,-5.91928 -1.26567,-7.76827 -2.22312,-1.84897 -5.22903,-2.2782 -8.0767,-2.52181 -9.90151,-0.84693 -19.85989,-0.28729 -29.78057,0.27278 q -29.08924,1.64221 -58.17848,3.28441 c -3.90395,0.2204 -8.41129,-0.1163 -11.99182,1.25542 -3.03118,1.1613 -5.1864,3.293 -8.65319,4.04194 -6.39986,1.38265 -13.44281,0.44703 -19.23408,4.14762 z"
     id="path14"
     inkscape:connector-curvature="0"
     style="fill:#3f3d56;stroke-width:1.10195827;opacity:0.053" />
  <path
     d="m 468.24016,187.92168 a 2.4019277,2.4737977 0 0 0 -1.73751,0.40585 2.1936324,2.2592698 0 0 0 -0.56561,1.37989 8.8479102,9.1126558 0 0 0 1.28519,6.52244 6.2013551,6.3869109 0 0 0 5.67674,2.80307 c 2.68782,-0.353 4.66863,-2.71468 7.13967,-3.86711 3.80848,-1.77456 19.98243,-4.54097 8.79416,-10.7664 -3.85572,-2.14542 -6.34717,-0.25152 -9.3861,1.16139 a 21.357108,21.996152 0 0 1 -11.20654,2.36087 z"
     id="path16"
     inkscape:connector-curvature="0"
     style="fill:#3f3d56;stroke-width:1.10195827;opacity:0.053" />
  <path
     d="m 566.23639,135.81246 a 6.3880858,6.5792289 0 0 0 -3.10812,2.78643 2.7297842,2.8114643 0 0 0 1.02376,3.72961 4.0742082,4.1961159 0 0 0 1.52402,0.24898 l 5.31206,0.16345 c 2.25668,0.0694 5.07552,0.56443 5.68193,2.8042 0.45028,1.66311 -0.55754,3.80021 0.65846,4.9887 a 3.4254774,3.5279739 0 0 0 1.80706,0.72589 12.314573,12.683048 0 0 0 5.35237,0.1779 c 3.86506,-1.06772 1.83417,-3.49728 3.05149,-5.66062 1.86256,-3.31006 1.54012,-1.30633 4.82202,-3.2034 2.4237,-1.401 5.55563,-3.94244 3.53267,-7.51321 -3.51789,-6.20949 -24.46658,-1.91551 -29.65772,0.75207 z"
     id="path18"
     inkscape:connector-curvature="0"
     style="fill:#3f3d56;stroke-width:1.10195827;opacity:0.053" />
  <path
     d="m 671.08321,132.69063 -3.08456,0.42393 c -6.95575,0.95599 -13.95093,1.92077 -20.65027,4.07207 a 34.369166,35.397554 0 0 0 9.04372,2.28555 27.780571,28.611816 0 0 1 5.0659,0.74167 c 2.95901,0.90722 5.94059,3.24998 8.79934,2.04988 1.7725,-0.74411 2.35092,-2.6449 3.8192,-3.65228 1.01386,-0.6956 4.85928,-1.82145 5.28916,-2.52354 3.47531,-5.67589 -5.6111,-3.76443 -8.28249,-3.39728 z"
     id="path20"
     inkscape:connector-curvature="0"
     style="fill:#3f3d56;stroke-width:1.10195827;opacity:0.053" />
  <path
     d="m 684.62787,147.1293 a 57.849577,59.580541 0 0 0 -11.383,8.58557 c -1.44927,1.40314 -2.92958,3.14826 -2.79813,5.19238 0.17467,2.71683 2.98464,4.29273 5.41911,5.35428 l 9.8607,4.29979 c 1.19623,-1.73649 0.10142,-4.13354 -1.13494,-5.84 -1.2363,-1.70646 -2.70546,-3.68079 -2.15924,-5.73427 0.62334,-2.3434 3.39758,-3.14195 5.72393,-3.54565 3.79039,-0.65776 14.01526,-0.60501 12.78668,-6.89635 -1.44762,-7.41311 -12.51025,-3.60613 -16.31511,-1.41575 z"
     id="path22"
     inkscape:connector-curvature="0"
     style="fill:#3f3d56;stroke-width:1.10195827;opacity:0.053" />
  <path
     d="m 682.64497,566.64269 c -0.93873,2.79902 -1.02779,6.09629 0.59603,8.54009 1.8221,2.74223 5.46868,3.76441 8.62357,3.06901 a 15.535012,15.999848 0 0 0 8.00648,-5.30177 27.571612,28.396605 0 0 0 4.60519,-7.27349 55.124722,56.774154 0 0 0 3.4134,-12.86331 l 3.06161,-16.55566 c 0.68416,-3.70008 0.65767,-15.04392 -5.94538,-11.34797 -1.80385,1.00967 -5.98037,8.98151 -7.87077,11.2421 -3.4071,4.07431 -3.85788,8.02759 -5.6515,12.96348 -2.24662,6.1825 -6.76183,11.33514 -8.83863,17.52752 z"
     id="path24"
     inkscape:connector-curvature="0"
     style="fill:#3f3d56;stroke-width:1.10195827;opacity:0.053" />
  <path
     d="m 1031.3951,651.36385 a 48.137474,49.577835 0 0 1 -6.2745,-3.07632 52.888069,54.470577 0 0 0 -3.1807,17.8539 l 14.7846,-8.61643 c 2.2241,-1.29614 4.7449,-3.09717 4.697,-5.72864 a 1.7596683,1.8123208 0 0 0 -0.8174,-1.64788 1.9931768,2.0528163 0 0 0 -1.0364,-0.12525 c -2.1923,0.18816 -4.1912,1.29918 -6.2592,2.07176 -2.0681,0.77258 -4.4864,1.18095 -6.3839,0.0344"
     id="path26"
     inkscape:connector-curvature="0"
     style="fill:#3f3d56;stroke-width:1.10195827;opacity:0.053" />
  <path
     d="m 1109.3868,656.47932 a 32.00167,32.959218 0 0 0 -4.7412,1.75241 c -3.3929,1.77792 -5.7009,5.15488 -8.7541,7.49659 -2.9216,2.24087 -6.4387,3.47121 -9.8914,4.66746 -1.0156,0.92463 -0.5489,2.78686 0.5536,3.59913 a 6.8574262,7.0626129 0 0 0 3.9048,0.90395 c 3.587,0.0815 7.366,0.11712 10.5078,-1.66721 a 33.137853,34.129398 0 0 0 4.9472,-4.04401 c 3.6734,-3.15674 8.0848,-5.23954 12.4517,-7.25233 a 14.291734,14.719369 0 0 0 4.3399,-2.67248 c 2.744,-2.78432 2.937,-7.07975 -1.0196,-8.0274 -3.1971,-0.76577 -9.2546,4.22962 -12.2987,5.24389 z"
     id="path28"
     inkscape:connector-curvature="0"
     style="fill:#3f3d56;stroke-width:1.10195827;opacity:0.053" />
  <path
     d="m 1143.847,633.29601 a 12.333466,12.702506 0 0 0 -3.7736,-10.40783 c -0.04,3.83322 -0.1535,7.91686 -2.2467,11.08663 -1.4915,2.25848 -3.83,3.78414 -5.464,5.93543 -1.6341,2.1513 -2.3595,5.5613 -0.4427,7.44902 a 7.1826549,7.397573 0 0 0 4.2568,1.50998 c 3.8153,0.46257 8.2314,0.72037 10.9074,-2.11854 1.4606,-1.54952 2.1711,-3.84448 3.9525,-4.98369 a 4.8086331,4.9525162 0 0 0 1.7341,-1.27806 c 0.7355,-1.20425 -0.4332,-2.79133 -1.7487,-3.22524 -1.3156,-0.43391 -2.7654,-0.22993 -4.0876,-0.64203 -1.3221,-0.4121 -2.5351,-1.9433 -1.8567,-3.18262"
     id="path30"
     inkscape:connector-curvature="0"
     style="fill:#3f3d56;stroke-width:1.10195827;opacity:0.053" />
  <path
     d="m 1082.6006,492.75508 a 17.150352,17.663522 0 0 1 -6.1197,0.37162 c -3.3966,-0.64314 -6.0402,-3.27961 -8.7824,-5.44175 a 38.739264,39.898413 0 0 0 -22.6349,-8.14509 c -7.4516,-0.14493 -14.9727,1.9347 -22.2912,0.48376 0.4781,2.73907 2.7538,4.79344 5.182,6.01451 2.4282,1.22108 5.108,1.83557 7.5478,3.03178 a 18.021288,18.560518 0 0 1 8.7292,9.35308 c 0.7858,1.88911 1.2802,3.94491 2.4706,5.59441 2.4329,3.37154 7.0445,4.11188 11.1142,3.83616 5.3062,-0.35948 10.8482,-1.93123 15.7847,0.10479 3.7764,1.55758 6.4792,4.9618 9.6324,7.6088 3.1532,2.64701 7.5945,4.61158 11.2151,2.70167 A 18.540121,19.094875 0 0 1 1081.62,499.89485 c 3.5512,0.33632 13.7795,0.20616 13.2285,-6.00835 -0.4668,-5.26673 -9.1986,-1.69991 -12.2479,-1.13146 z"
     id="path32"
     inkscape:connector-curvature="0"
     style="fill:#3f3d56;stroke-width:1.10195827;opacity:0.053" />
  <path
     d="m 1036.1452,535.606 c 0.6305,-3.5617 4.0792,-6.70695 3.0049,-10.15415 -0.7429,-2.38395 -3.4266,-3.56093 -5.857,-3.61971 -2.4303,-0.0588 -4.8179,0.68682 -7.2479,0.75703 a 35.322049,36.378949 0 0 0 -4.7459,0.0694 c -4.8238,0.81666 -7.7971,6.02396 -12.343,7.8755 -2.7641,1.12583 -5.8695,0.9106 -8.7442,1.6889 -6.52594,1.76672 -10.65494,8.11774 -15.21674,13.23827 a 54.303072,55.927919 0 0 1 -27.56281,16.55512 c -3.71034,0.88485 -7.69898,1.45096 -10.64827,3.93285 -3.90554,3.28663 -4.86693,8.92102 -5.73583,14.03773 a 225.12878,231.86504 0 0 1 -10.95931,41.43482 l 15.49528,2.03759 c 2.94602,0.3874 5.99869,0.76648 8.83752,-0.13224 a 25.655616,26.423279 0 0 0 5.81272,-3.1889 58.029608,59.76596 0 0 1 22.6716,-8.42851 c 4.0578,-0.57376 8.312,-0.67889 12.12,0.87452 3.8079,1.55342 7.07474,5.07621 7.39394,9.28171 a 9.519335,9.8041708 0 0 1 9.5142,2.38314 16.537855,17.032698 0 0 1 4.5423,9.33919 c 0.4082,2.18335 0.8166,4.79943 2.7837,5.71536 1.6049,0.74727 3.4459,-0.0576 5.2015,-0.20225 5.9575,-0.49095 10.9009,6.66335 16.7565,5.43137 6.2799,-1.32127 7.8217,-11.00777 13.9482,-12.94809 3.5187,-1.1144 8.4543,0.2407 10.1392,-3.13028 1.4852,-2.97121 -1.4778,-6.39996 -1.1723,-9.72693 0.3762,-4.09659 5.068,-5.83541 8.685,-7.58335 12.4697,-6.02614 18.3871,-23.31144 12.3445,-36.05984 -3.5802,-7.5534 -10.6246,-13.49928 -11.9255,-21.79716 -1.001,-6.38424 1.4425,-13.82893 -2.5096,-18.85415 -2.0105,-2.55636 -5.4145,-3.96742 -6.6109,-7.0177 -0.753,-1.92006 -0.4504,-4.09853 -0.8556,-6.1268 -0.4053,-2.02826 -2.1234,-4.14987 -4.0682,-3.62415 -5.6451,1.52607 -7.4464,19.48657 -10.4688,23.85048 -4.5943,6.63343 -14.026,2.26396 -12.5792,-5.90879 z"
     id="path34"
     inkscape:connector-curvature="0"
     style="fill:#3f3d56;stroke-width:1.10195827;opacity:0.053" />
  <path
     d="m 931.80285,499.54118 c -1.92913,-0.5571 -4.03563,-1.10591 -5.88405,-0.30978 -1.84842,0.79614 -2.92788,3.59119 -1.44436,4.97808 11.60593,-0.46564 23.28287,-0.92803 34.79012,0.69525 13.2582,1.87027 26.3793,6.50304 39.6957,5.1401 a 202.02314,208.06804 0 0 0 -23.1565,-5.5342 l -13.0365,-2.56483 a 100.79829,103.81435 0 0 0 -10.58593,-1.68467 c -7.43724,-0.63261 -13.06619,1.39175 -20.37848,-0.71995 z"
     id="path36"
     inkscape:connector-curvature="0"
     style="fill:#3f3d56;stroke-width:1.10195827;opacity:0.053" />
  <path
     d="m 943.42161,457.91058 c -0.96348,-0.0829 -2.15678,-0.15424 -2.65526,0.69895 -0.47619,0.81517 0.0686,1.8922 -0.18715,2.80632 -0.3499,1.2488 -1.93785,1.56782 -3.18895,1.3978 -1.25118,-0.17002 -2.60432,-0.5772 -3.71273,0.044 a 3.1468309,3.2409898 0 0 0 -1.21671,3.68139 9.2019673,9.4773069 0 0 0 2.14588,3.52313 34.947426,35.993117 0 0 0 5.56793,5.75192 c 3.98886,3.03248 9.39284,4.49383 11.90519,8.8959 a 5.7310265,5.9025093 0 0 0 1.59004,2.20403 c 1.20604,0.78682 2.77893,0.18823 4.07747,-0.42285 l 4.55174,-2.14205 a 5.1703566,5.3250631 0 0 0 2.128,-1.49048 c 1.0399,-1.45324 0.4011,-3.51948 -0.4718,-5.08502 -0.8727,-1.56554 -1.99,-3.18573 -1.8027,-4.98066 0.3339,-3.20032 4.3293,-4.42446 5.972,-7.16265 1.6559,-2.76002 0.578,-6.3162 0.7688,-9.55495 0.2234,-3.78747 2.5341,-8.71409 -1.1837,-11.54391 -3.1596,-2.405 -6.1797,-0.18279 -8.4482,2.47238 -4.7838,5.59918 -7.04582,11.66299 -15.83985,10.90664 z"
     id="path38"
     inkscape:connector-curvature="0"
     style="fill:#3f3d56;stroke-width:1.10195827;opacity:0.053" />
  <path
     d="m 971.05126,401.32013 c 1.554,3.06449 4.7936,4.89326 6.4883,7.87766 1.8367,3.23481 1.6274,7.41433 3.6201,10.54976 2.0444,3.21688 6.1586,4.92477 7.3052,8.58363 1.2516,3.99457 -1.5884,8.8497 0.6755,12.33998 a 5.0295133,5.1800055 0 0 0 7.3777,0.69813 5.4116939,5.5736216 0 0 0 -0.2234,-7.77638 c -1.3404,-1.25869 -3.2651,-1.8026 -4.3842,-3.27281 a 6.6681004,6.8676221 0 0 1 -1.1356,-2.84753 18.10026,18.641853 0 0 1 0.2848,-8.93447 3.8604077,3.9759181 0 0 0 0.2182,-2.33697 c -0.5039,-1.50832 -2.4869,-1.61533 -3.8786,-2.31506 -3.1611,-1.5892 -3.0843,-6.18379 -2.5321,-9.76173 -0.3677,2.38203 -8.6062,-1.66936 -9.4689,-3.01864 -1.7138,-2.68041 -0.781,-7.85092 -1.1203,-10.81291 -3.6999,1.83622 -5.1267,7.28046 -3.2267,11.02734 z"
     id="path40"
     inkscape:connector-curvature="0"
     style="fill:#3f3d56;stroke-width:1.10195827;opacity:0.053" />
  <path
     d="m 888.05363,448.47067 c -1.52059,-1.75318 -3.81096,-3.58725 -5.84951,-2.52992 -1.55535,0.80666 -1.9832,3.02302 -1.37357,4.70305 a 10.051372,10.352127 0 0 0 3.3171,4.07293 c 4.24835,3.60862 8.82312,6.86554 12.52943,11.06036 6.63263,7.50695 10.1462,17.63635 17.35944,24.55201 a 9.7365557,10.027891 0 0 0 5.46611,3.04675 c 2.10151,0.20136 4.46146,-1.18409 4.70299,-3.34356 0.199,-1.77885 -1.00503,-3.37103 -2.18169,-4.68923 -2.80205,-3.13903 -5.86958,-6.0284 -8.51506,-9.30835 a 7.5943705,7.8216079 0 0 1 -2.17654,-4.68162 c -0.0134,-1.76606 1.55028,-3.61452 3.2117,-3.17716 -2.02057,-0.53191 -3.51909,-3.99886 -6.48465,-4.65057 -2.47833,-0.54462 -3.07788,1.03557 -6.02733,-0.26728 -5.62544,-2.4849 -10.03894,-10.24532 -13.97842,-14.78741 z"
     id="path42"
     inkscape:connector-curvature="0"
     style="fill:#3f3d56;stroke-width:1.10195827;opacity:0.053" />
  <path
     d="m 1020.2344,277.76254 a 46.581464,47.975266 0 0 1 -4.7525,-1.74847 c -4.1767,-1.29125 -9.7031,1.87064 -9.1464,6.32523 0.37,2.95973 3.0445,4.95519 4.5215,7.52248 2.1904,3.80721 1.6064,8.63609 0.4554,12.89974 a 9.7913579,10.084333 0 0 1 -1.5803,3.67028 12.06988,12.431033 0 0 1 -3.7428,2.77291 50.060234,51.558127 0 0 0 -14.64774,12.81644 3.5863978,3.6937093 0 0 0 -0.8847,1.71738 c -0.1991,1.50403 1.2687,2.59963 2.0986,3.85406 1.8435,2.78653 0.5111,6.53615 0.6933,9.90282 a 2.7184914,2.7998337 0 0 0 1.1455,2.45648 c 1.1111,0.58131 2.4278,-0.40611 3.03,-1.52986 1.9986,-3.72925 0.4931,-9.71532 4.24234,-11.5134 0.7093,-0.34013 1.5691,-0.48351 2.0422,-1.12518 0.7507,-1.01791 0.026,-2.52509 0.4069,-3.74177 0.5711,-1.82676 2.997,-1.90876 4.8588,-1.82774 a 27.577497,28.402666 0 0 0 9.4729,-1.29889 6.3057036,6.4943817 0 0 0 3.1359,-1.87024 c 1.1208,-1.44062 1.0215,-3.48901 0.7975,-5.32058 a 70.027813,72.123172 0 0 0 -8.2735,-26.00062 c 3.2935,0.4333 6.8766,0.80855 9.7187,-0.95921 1.5914,-0.98988 3.4998,-3.95008 2.7105,-5.96492 -1.2482,-3.18623 -3.5031,-0.50431 -6.3021,-1.03694 z"
     id="path44"
     inkscape:connector-curvature="0"
     style="fill:#3f3d56;stroke-width:1.10195827;opacity:0.053" />
  <path
     d="m 598.00934,327.98256 c 0.39416,2.17716 0.7816,4.46961 0.0888,6.56621 -0.69277,2.09659 -2.87208,3.84842 -4.92996,3.206 -1.59708,-0.49856 -2.51963,-2.15245 -3.65369,-3.41338 -6.30667,-7.0122 -20.53551,-2.95237 -24.4315,-11.62763 -1.59004,-3.54061 -0.50946,-7.78241 -1.594,-11.51997 a 9.9558508,10.253748 0 0 0 -10.08225,-7.05419 20.71753,21.337437 0 0 0 -5.80186,1.78372 146.29052,150.6678 0 0 1 -38.43979,9.90197 31.583266,32.528295 0 0 0 -7.38603,1.38412 c -5.41592,2.02221 -9.11645,7.1935 -11.74996,12.47049 -2.63352,5.27698 -4.57771,10.98988 -8.10846,15.67814 -3.71068,4.92722 -8.91045,8.37753 -13.76083,12.10953 a 14.03994,14.460041 0 0 0 -4.53952,4.90017 c -1.05154,2.22338 -0.99222,4.80952 -0.91059,7.28121 l 0.99131,30.01992 c 0.1275,3.8613 0.28761,7.86062 1.96559,11.31611 2.09536,4.31497 6.23465,7.14108 9.10624,10.95286 a 20.829871,21.453138 0 0 1 4.32129,13.70008 c -0.0612,1.98733 -0.25286,4.3379 1.24993,5.58602 a 5.4962152,5.6606719 0 0 0 3.0733,0.91031 l 39.42839,3.32357 c 6.93574,0.58464 14.62214,1.54591 19.15036,6.98815 2.1371,2.56849 3.85387,6.26211 7.12726,6.53771 1.40409,0.1182 2.77029,-0.47542 4.17465,-0.58997 3.54313,-0.289 6.65573,2.48065 8.62009,5.53132 a 23.826922,24.539866 0 0 1 3.82702,15.74651 c -0.32208,3.47999 -1.36969,6.86315 -1.59555,10.3512 -0.85939,13.272 10.06474,24.80281 10.2765,38.10251 0.12455,7.82302 -3.48127,15.13237 -6.99675,22.06827 5.67382,8.85254 1.02781,20.64078 3.28668,30.98986 2.14306,9.81844 10.09173,17.5049 12.07242,27.35945 0.90673,4.51139 0.95919,10.06312 4.82176,12.38672 a 10.991214,11.320091 0 0 0 5.45604,1.12513 71.927629,74.079835 0 0 0 32.75423,-7.67999 c 4.77617,-2.44103 9.72604,-6.08511 10.56016,-11.50894 0.67267,-4.37398 -1.48101,-9.26648 0.71079,-13.07644 2.5832,-4.49042 9.20078,-4.13445 13.00155,-7.58687 6.16601,-5.60082 1.35785,-16.28242 3.85614,-24.3495 2.24565,-7.25132 9.97592,-11.10367 13.80776,-17.61182 a 30.38772,31.296976 0 0 0 3.20864,-8.95645 124.04936,127.76115 0 0 0 3.26462,-22.84326 132.94547,136.92344 0 0 1 1.00347,-13.99184 c 4.13133,-26.43464 29.50561,-44.13574 37.74385,-69.53063 0.78676,-2.42522 1.15624,-5.65559 -0.93863,-7.02791 a 5.9994879,6.1790035 0 0 0 -3.98956,-0.43004 l -18.1756,2.36003 c -2.25755,0.29313 -4.65052,0.56711 -6.72375,-0.39863 -2.07324,-0.96574 -3.55912,-3.66698 -2.45942,-5.71858 3.08702,-5.75904 -3.26308,-13.0366 -6.08419,-18.93852 a 271.34327,279.46235 0 0 0 -27.0205,-45.13181 4.4541521,4.5874284 0 0 1 -1.18464,-2.64904 l 5.15844,0.1769 c -1.7413,-6.43527 -4.61493,-13.47735 -10.68529,-15.83139 -3.42062,-1.3265 -7.20871,-0.86782 -10.85833,-0.66243 -10.45349,0.58816 -21.66045,-1.03735 -32.00666,-2.68496 z"
     id="path46"
     inkscape:connector-curvature="0"
     style="fill:#3f3d56;stroke-width:1.10195827;opacity:0.053" />
  <path
     d="m 630.0245,182.96317 c 2.73543,2.99182 5.80072,6.16387 9.75857,6.68533 6.99059,0.92114 12.01678,-6.52411 15.21686,-12.99111 a 6.1633835,6.3478032 0 0 0 6.4315,5.87255 12.696395,13.076294 0 0 0 4.83739,-1.9478 95.298642,98.15015 0 0 1 45.14776,-12.02028 4.8756941,5.0215838 0 0 1 3.72332,-5.52047 c 3.20909,-0.65525 6.0998,2.20227 7.64786,5.17061 1.54805,2.96834 2.51332,6.40889 4.97283,8.63073 2.45951,2.22184 7.2213,2.12505 8.19278,-1.09241 0.93267,-3.0889 -2.19181,-5.72309 -4.78763,-7.5442 -2.59582,-1.82112 -5.33192,-5.19172 -3.58384,-7.87921 13.26162,-3.0234 26.6055,-6.05825 40.1756,-6.65919 a 16.823723,17.327119 0 0 0 6.76273,-1.19985 c 2.06948,-1.04594 3.71435,-3.42017 3.15785,-5.72415 a 15.31436,15.772594 0 0 1 -15.9815,-6.20843 c 18.82944,-1.60033 38.85654,-2.96438 55.54374,6.16075 2.00247,4.42745 -8.20347,8.11105 -5.47281,12.10437 0.87089,1.27361 2.61599,1.42297 4.12822,1.45188 11.59614,0.22175 23.25919,0.43917 34.72443,-1.36394 4.18989,-0.65892 8.42192,-1.58914 12.6285,-1.05479 7.00657,0.88997 12.99929,5.70486 19.89247,7.27469 2.80555,0.63895 5.95139,0.6606 8.31635,-1.02006 2.36503,-1.68065 3.38162,-5.5075 1.44354,-7.69231 6.49024,-6.55127 17.26188,-4.92758 25.82401,-1.79116 8.56213,3.13643 16.67351,8.19444 25.73569,8.89356 6.49837,0.50133 13.08714,-1.29895 19.50834,-0.15467 4.0351,0.71909 7.7905,2.56791 11.7343,3.70378 7.4589,2.14829 15.3492,1.69481 23.0936,1.79819 a 161.81279,166.65452 0 0 1 57.66434,11.80113 17.14451,17.657505 0 0 1 6.4104,3.90071 c 1.7084,1.88421 2.5797,4.81215 1.4315,7.10294 l -18.9725,-2.85508 c 1.7876,3.62428 6.4121,4.24189 10.1677,5.49219 3.7556,1.2503 7.6496,5.52182 5.3926,8.85667 -4.0692,-1.33442 -7.7568,2.85572 -9.8123,6.71099 -2.0556,3.85527 -4.5605,8.47241 -8.8249,8.70726 -3.8187,0.21031 -8.437,-3.13853 -10.9261,-0.14848 a 74.519133,76.748881 0 0 1 8.7795,14.45614 c 2.4591,5.27638 4.2106,11.9248 0.8869,16.67206 a 4.1956587,4.3212004 0 0 1 -2.2432,1.79156 c -2.7145,0.70774 -4.4781,-2.71238 -6.4249,-4.78531 -2.453,-2.61221 -6.1627,-3.35209 -9.4846,-4.57718 -3.322,-1.2251 -6.8214,-3.63506 -7.0813,-7.25925 -0.1617,-2.25489 0.9942,-4.351 1.8456,-6.43504 a 24.07244,24.792731 0 0 0 1.8291,-11.12014 c -0.1864,-3.05889 -1.0192,-6.24081 -3.1522,-8.37806 -2.133,-2.13725 -5.8156,-2.81525 -8.1054,-0.85776 -1.0685,0.91337 -1.9248,2.37437 -3.3123,2.42901 -2.4516,0.0966 -4.334,-4.30555 -6.30644,-2.80285 a 6.7018589,6.9023907 0 0 1 -0.9107,4.61631 c -5.8858,5.27221 -14.928,3.04176 -22.5161,4.90418 a 42.262097,43.526656 0 0 0 -10.2726,4.62045 6.60965,6.8074227 0 0 0 -2.9363,2.5384 c -0.9472,1.89574 0.097,4.32367 1.7666,5.58416 a 14.025358,14.445022 0 0 0 5.8251,2.04772 c 9.2507,1.80445 18.6364,4.59778 25.9399,10.7174 7.30354,6.11962 12.09294,16.2357 9.78174,25.63595 l -18.24284,-17.95314 q 1.0393,11.3072 1.1796,22.67669 a 9.898931,10.195125 0 0 1 -0.5783,4.36179 c -1.3005,2.95847 -4.8254,3.95402 -7.9142,4.60712 a 6.1992485,6.3847413 0 0 0 -4.7589,8.18026 c 1.0974,3.6841 3.8337,6.55641 6.3392,9.41843 2.5055,2.86204 4.9711,6.11486 5.2991,9.95361 0.328,3.83874 -2.484,8.16561 -6.2166,7.89871 -2.8297,-0.20235 -4.9289,-2.81122 -6.1359,-5.45486 -1.2069,-2.64363 -1.925,-5.58857 -3.7385,-7.83484 -5.4888,-6.79891 -17.81744,-3.88597 -22.73457,-11.13415 a 11.120298,11.453037 0 0 0 -2.29954,10.89918 c 2.28753,-1.47489 5.41912,-0.10456 7.13783,2.03851 1.7187,2.14304 2.5295,4.89057 3.87921,7.29755 1.82126,3.24795 4.71987,6.12729 4.97407,9.86889 a 31.3212,32.258388 0 0 0 0.069,4.24437 c 0.4516,2.26707 2.3122,3.8949 3.6021,5.78984 3.0016,4.40923 2.8533,10.46647 0.9186,15.46927 -1.9346,5.00281 -5.4104,9.18314 -8.85301,13.23606 -6.01308,7.07899 -12.14887,14.11647 -19.27752,19.99519 -2.03415,1.67749 -4.20502,3.32692 -5.47186,5.67214 -1.26692,2.34521 -1.33188,5.63706 0.61492,7.42103 -1.39297,0.0719 -3.89115,0.77748 -5.28412,0.84934 a 122.85254,126.52851 0 0 1 -0.31857,-17.30851 c -5.49715,-2.7185 -11.41602,4.56179 -10.70667,10.79965 0.70935,6.23786 5.09003,11.24362 8.20887,16.64047 2.28082,3.94656 3.97588,8.54836 3.21439,13.07366 -0.76142,4.52531 -4.68359,8.69994 -9.12603,8.30082 -7.06623,-0.63482 -10.02194,-11.08264 -17.01931,-12.27835 a 2.8592263,2.9447795 0 0 0 -1.84164,0.1883 c -1.03866,0.58712 -1.21925,2.01857 -1.27758,3.2374 -0.28627,5.98207 -0.53414,12.20195 1.73326,17.71729 3.31695,8.06862 11.88594,14.84531 10.08846,23.40954 -9.68329,-4.63585 -14.7179,-15.81995 -17.00379,-26.56285 -2.28589,-10.74291 -2.6669,-22.02091 -6.76451,-32.17678 -3.11145,4.10736 -9.65137,0.71193 -12.49422,-3.59699 -2.69517,-4.08509 -4.35458,-8.81066 -6.96948,-12.95074 -2.61484,-4.14009 -6.6206,-7.84728 -11.41099,-8.07492 -5.02248,-0.23872 -9.37834,3.31103 -13.20897,6.66505 -3.14993,2.758 -6.38395,5.62455 -8.22519,9.43705 -2.67937,5.54786 -1.97848,12.0882 -2.1076,18.28304 -0.13962,6.69721 -1.51771,13.76331 -5.94964,18.66617 -4.43192,4.90286 -12.61228,6.61058 -17.50069,2.19186 -2.55209,-2.30689 -3.78777,-5.75352 -4.88842,-9.06188 a 430.73286,443.62118 0 0 1 -13.23421,-48.65937 c -0.8214,3.75811 -4.02553,8.60195 -7.08646,6.38821 a 6.3458251,6.5357038 0 0 1 -1.63259,-2.16644 c -5.70965,-9.96669 -16.28331,-15.94483 -26.96667,-19.52928 -10.68336,-3.58444 -21.92361,-5.25644 -32.48849,-9.19583 a 82.291745,84.754063 0 0 1 -16.8534,-8.64621 13.254839,13.651448 0 0 0 -0.81003,13.96424 c 2.34353,4.27374 7.64672,6.74647 12.1863,5.25263 2.34589,-0.77196 4.32698,-2.44922 6.65466,-3.27762 2.32768,-0.8284 5.45189,-0.42161 6.46973,1.88809 0.97427,2.21075 -0.49833,4.88516 0.23216,7.19345 1.11259,3.51566 6.26092,3.78652 8.06117,6.98575 1.33946,2.38032 0.23734,5.54119 -1.67516,7.46193 -1.9125,1.92075 -4.46418,2.97421 -6.79876,4.31126 -7.57501,4.3383 -12.96173,11.74409 -19.58183,17.50594 -6.6201,5.76186 -15.96029,9.96859 -23.84992,6.27268 1.88066,-9.80786 -9.46303,-17.00852 -11.54989,-26.77204 -0.68688,-3.21358 -0.3308,-6.62728 -1.31145,-9.75896 -1.41978,-4.53419 -5.32564,-7.65171 -8.52983,-11.08781 a 42.25151,43.515752 0 0 1 -11.58903,-31.65994 c 0.17315,-4.03513 0.89294,-8.13597 3.8e-4,-12.06904 -0.89256,-3.93306 -4.05428,-7.73983 -7.97218,-7.56158 -8.94843,0.40706 -20.22153,1.0926 -24.91638,-6.7638 -1.6756,-2.80398 -2.40478,-6.91074 0.0178,-9.05899 1.709,-1.51545 4.23169,-1.37269 6.47602,-1.14531 l 20.16209,2.04273 c 4.71562,0.47777 9.8131,0.87206 13.85968,-1.66697 4.04657,-2.53903 5.79998,-9.27872 2.05302,-12.26589 -2.73778,-2.18264 -7.64288,-2.06429 -8.43872,-5.53458 -0.6628,-2.8902 2.44331,-6.1695 0.76572,-8.58487 -1.20287,-1.73189 -3.9072,-1.25141 -5.54593,0.0469 -1.63872,1.2983 -2.8277,3.19698 -4.66171,4.17998 -3.21722,1.72445 -7.06134,0.0833 -10.5227,-1.03212 -3.46135,-1.1154 -8.10167,-1.21012 -9.78056,2.10091 -1.87763,3.70298 1.66544,8.55517 -0.19798,12.26571 -2.46365,4.90581 -10.80684,2.11306 -14.26682,6.33283 -3.9703,4.84215 2.70167,12.06248 1.36271,18.24839 a 11.029566,11.35959 0 0 1 -10.86635,-0.62877 10.554655,10.87047 0 0 1 -4.5612,-10.12143 c 0.33144,-2.78272 1.74007,-5.62328 0.79624,-8.25295 -0.7631,-2.12614 -2.83581,-3.39188 -4.76215,-4.48826 l -19.59302,-11.15089 c -1.81908,3.47546 0.48064,7.78409 3.35679,10.39449 2.87614,2.6104 6.47863,4.57646 8.36802,8.01189 a 10.210924,10.516453 0 0 1 -3.84226,13.8647 2.3571262,2.4276557 0 0 1 -1.94213,0.34892 2.7094791,2.7905516 0 0 1 -1.25957,-1.74445 c -3.45701,-9.11141 -8.64732,-18.09488 -16.94539,-22.85452 -8.29806,-4.75965 -20.22153,-3.78105 -25.66304,4.23682 -1.29248,1.90441 -2.15993,4.07517 -3.28585,6.08861 -5.98186,10.69713 -18.80595,15.76262 -30.78739,15.43174 a 6.1137066,6.2966398 0 0 1 -3.35863,-0.81285 c -1.93637,-1.37738 -1.84917,-4.30013 -1.55274,-6.70458 l 1.25768,-10.20389 c 0.25255,-2.04901 0.61851,-4.31384 2.19314,-5.59291 2.21963,-1.80301 5.42157,-0.66518 8.24823,-0.7071 a 10.453054,10.765828 0 0 0 9.48801,-7.54155 11.78056,12.133056 0 0 0 -3.27971,-12.06588 c -1.29556,-1.25326 -3.03449,-2.82753 -2.35019,-4.51702 a 3.625694,3.7341814 0 0 1 2.54258,-1.76339 c 5.07744,-1.5186 10.44246,-1.91663 15.43525,-3.70845 4.99279,-1.79182 9.83471,-5.45783 11.0171,-10.76531 0.36236,-1.6265 0.52733,-3.5968 1.94587,-4.4032 a 5.8349625,6.0095551 0 0 1 2.24876,-0.4732 10.942526,11.269946 0 0 0 9.38621,-11.74884 c 2.39279,-1.72199 5.74514,-0.45529 8.05999,1.37623 2.31485,1.83152 4.35853,4.25129 7.17519,5.04079 5.24906,1.47138 10.32171,-3.3152 15.76166,-3.33738 2.28767,-0.009 4.65586,0.82374 6.80806,0.025 2.18179,-0.80978 3.48472,-3.04664 5.15924,-4.69918 1.67451,-1.65255 4.61268,-2.6605 6.15891,-0.88028 l -1.3167,-10.04478 a 19.173487,19.747193 0 0 0 15.60403,-2.90552 l -17.01718,-5.92186 a 3.6998239,3.8105294 0 0 1 -1.5913,-0.8763 c -1.23719,-1.37207 -0.009,-3.51019 0.9977,-5.06988 2.40669,-3.7312 2.81069,-9.87738 -1.14704,-11.73497 -2.70144,-1.26793 -5.80225,0.25404 -8.39515,1.74305 l -12.42039,7.13261 c -0.3947,2.43154 2.49238,3.80959 4.28143,5.44744 a 7.1785179,7.3933122 0 0 1 -4.68124,12.91858 8.9447559,9.2123992 0 0 1 1.59745,7.81037 l -8.35676,0.619 a 3.6204495,3.72878 0 0 1 -2.71044,-0.54484 c -0.89377,-0.81756 -0.77256,-2.2502 -0.97972,-3.46273 -0.49998,-2.92656 -3.28237,-4.97772 -6.12199,-5.50366 -2.83963,-0.52594 -5.74464,0.1482 -8.5565,0.81386 a 5.1066725,5.2594735 0 0 1 -3.67802,-0.0875 3.6727215,3.782616 0 0 1 -1.45511,-1.89156 c -1.23276,-3.07847 -0.0805,-6.69694 1.89943,-9.32957 1.9799,-2.63264 4.69028,-4.55717 7.12447,-6.74885 a 41.525044,42.767549 0 0 0 12.34751,-19.72454 c 4.60041,-1.98517 9.36314,-4.68242 13.9635,-6.66763 a 42.728017,44.006517 0 0 1 22.96673,-4.58299 l 15.57962,0.30648 c 4.61262,0.0907 9.35001,0.20701 13.61519,2.01813 4.26519,1.81111 8.0129,5.7283 8.30736,10.47012 a 3.1206297,3.2140046 0 0 1 -0.99896,2.93833 3.6804526,3.7905785 0 0 1 -1.9697,0.45726 c -4.30182,0.1557 -6.13597,1.25964 -10.43769,1.41529 z"
     id="path48"
     inkscape:connector-curvature="0"
     style="fill:#3f3d56;stroke-width:1.10195827;opacity:0.053" />
  <path
     d="m 505.84487,233.25127 a 4.5588481,4.6952571 0 0 0 1.24314,-4.72224 8.5275679,8.7827283 0 0 0 -8.8299,1.71723 14.886488,15.331919 0 0 0 -2.36557,3.22088 c -2.04722,3.43997 -3.85796,7.54892 -2.67153,11.39418 a 3.1428242,3.2368632 0 0 0 1.43834,2.02614 3.7813591,3.8945042 0 0 0 1.67652,0.27047 56.204236,57.885969 0 0 0 6.74695,-0.42769 c 1.37476,-0.17312 2.97152,-0.57297 3.50282,-1.89027 0.6984,-1.73162 -0.992,-3.6913 -0.49921,-5.49637 a 5.8302608,6.0047128 0 0 1 1.43961,-2.12334 2.7255928,2.8071475 0 0 0 0.84902,-2.35665 c -0.19887,-0.84697 -1.45807,-1.32745 -1.91135,-0.59159"
     id="path50"
     inkscape:connector-curvature="0"
     style="fill:#3f3d56;stroke-width:1.10195827;opacity:0.053" />
  <path
     d="m 517.53949,217.63575 a 18.876946,19.441778 0 0 0 -6.11397,-0.39542 2.6662521,2.7460312 0 0 0 -1.30277,0.30492 2.1736096,2.238648 0 0 0 -0.80282,1.19737 5.7758932,5.9487184 0 0 0 3.36272,7.28993 7.2265009,7.4427309 0 0 1 2.08526,0.86306 c 1.72921,1.38179 0.62685,4.20617 0.9542,6.43494 0.36758,2.50272 2.71975,4.60348 2.28851,7.09539 -0.33976,1.96321 -2.37565,3.51774 -2.04789,5.48315 0.34331,2.05846 2.87951,2.677 4.90112,2.84184 a 6.163807,6.3482393 0 0 0 3.47239,-0.40987 5.3766975,5.537578 0 0 0 2.19077,-3.26762 20.336197,20.944693 0 0 0 1.02451,-7.88641 7.2609652,7.4782265 0 0 0 -0.86345,-3.48086 18.869996,19.434621 0 0 0 -2.01777,-2.37964 c -3.87321,-4.64016 0.20503,-11.56152 -7.13081,-13.69078 z"
     id="path52"
     inkscape:connector-curvature="0"
     style="fill:#3f3d56;stroke-width:1.10195827;opacity:0.053" />
</svg>
