<?xml version="1.0" encoding="UTF-8" standalone="no"?>
<svg
   xmlns:dc="http://purl.org/dc/elements/1.1/"
   xmlns:cc="http://creativecommons.org/ns#"
   xmlns:rdf="http://www.w3.org/1999/02/22-rdf-syntax-ns#"
   xmlns:svg="http://www.w3.org/2000/svg"
   xmlns="http://www.w3.org/2000/svg"
   xmlns:sodipodi="http://sodipodi.sourceforge.net/DTD/sodipodi-0.dtd"
   xmlns:inkscape="http://www.inkscape.org/namespaces/inkscape"
   data-name="Layer 1"
   width="1130"
   height="852.62"
   viewBox="0 0 1130 852.62"
   version="1.1"
   id="svg149"
   sodipodi:docname="undraw_stripe_payments_o-7-aw.svg"
   inkscape:version="0.92.3 (2405546, 2018-03-11)">
  <metadata
     id="metadata153">
    <rdf:RDF>
      <cc:Work
         rdf:about="">
        <dc:format>image/svg+xml</dc:format>
        <dc:type
           rdf:resource="http://purl.org/dc/dcmitype/StillImage" />
      </cc:Work>
    </rdf:RDF>
  </metadata>
  <sodipodi:namedview
     pagecolor="#ffffff"
     bordercolor="#666666"
     borderopacity="1"
     objecttolerance="10"
     gridtolerance="10"
     guidetolerance="10"
     inkscape:pageopacity="0"
     inkscape:pageshadow="2"
     inkscape:window-width="2560"
     inkscape:window-height="1387"
     id="namedview151"
     showgrid="false"
     inkscape:zoom="0.98053097"
     inkscape:cx="469.90678"
     inkscape:cy="551.56993"
     inkscape:window-x="0"
     inkscape:window-y="0"
     inkscape:window-maximized="1"
     inkscape:current-layer="svg149" />
  <defs
     id="defs9">
    <linearGradient
       id="e0268b55-f382-4d45-820e-0bb1dff069b1-57"
       x1="675.66"
       y1="876.2"
       x2="675.66"
       y2="479.07"
       gradientUnits="userSpaceOnUse">
      <stop
         offset="0"
         stop-color="gray"
         stop-opacity="0.25"
         id="stop2" />
      <stop
         offset="0.54"
         stop-color="gray"
         stop-opacity="0.12"
         id="stop4" />
      <stop
         offset="1"
         stop-color="gray"
         stop-opacity="0.1"
         id="stop6" />
    </linearGradient>
  </defs>
  <title
     id="title11">stripe payments</title>
  <path
     d="m 656.54,155.50115 c -72.44,-2.57 -141.44,-26.53 -207.32,-52.74 -65.88,-26.21 -131.15,-55.26 -201.85,-69.15 -45.48,-8.93 -97.49,-10.19 -134.13,14.78 -35.269999,24 -46.659999,65.54 -52.779999,104 -4.61,29 -7.32,59.45 5.3,86.57 8.77,18.83 24.34,34.65 35.109999,52.68 37.45,62.75 11,140.13 -29.619999,201.4 -19,28.74 -41.13,56.16 -55.82,86.75 -14.69000004,30.59 -21.49,65.65 -8.64,96.86 12.75,30.94 43.11,54.17 76,70.51 66.809999,33.2 145.539999,42.7 222.309999,48.08 169.94,11.91 340.79,6.75 511.18,1.59 63.06,-1.92 126.39,-3.85 188.43,-13.84 34.44,-5.55 70,-14.35 95,-35.61 31.75,-27 39.62,-72.67 18.34,-106.5 -35.65,-56.73 -134.32,-70.81 -159.26,-131.73 -13.73,-33.52 0.37,-70.86 20.32,-102 42.8,-66.69 114.54,-125.2 118.32,-201.44 2.6,-52.36 -31.89,-104.8 -85.21,-129.57 -55.9,-26 -133.4,-22.7 -174.64,20.28 -42.46,44.33 -117.08,61.36 -181.04,59.08 z"
     id="path13"
     inkscape:connector-curvature="0"
     style="opacity:0.028;fill:#000000" />
</svg>
