<svg id="visual" viewBox="0 0 900 450" width="900" height="450" xmlns="http://www.w3.org/2000/svg" xmlns:xlink="http://www.w3.org/1999/xlink" version="1.1"><path d="M0 100L25 99.3C50 98.7 100 97.3 150 101.2C200 105 250 114 300 114.7C350 115.3 400 107.7 450 103.8C500 100 550 100 600 94.8C650 89.7 700 79.3 750 82.3C800 85.3 850 101.7 875 109.8L900 118L900 0L875 0C850 0 800 0 750 0C700 0 650 0 600 0C550 0 500 0 450 0C400 0 350 0 300 0C250 0 200 0 150 0C100 0 50 0 25 0L0 0Z" fill="#bcece0"></path><path d="M0 222L25 219C50 216 100 210 150 218.2C200 226.3 250 248.7 300 261.3C350 274 400 277 450 277.8C500 278.7 550 277.3 600 266.8C650 256.3 700 236.7 750 227.7C800 218.7 850 220.3 875 221.2L900 222L900 116L875 107.8C850 99.7 800 83.3 750 80.3C700 77.3 650 87.7 600 92.8C550 98 500 98 450 101.8C400 105.7 350 113.3 300 112.7C250 112 200 103 150 99.2C100 95.3 50 96.7 25 97.3L0 98Z" fill="#9dedde"></path><path d="M0 366L25 369.7C50 373.3 100 380.7 150 386.7C200 392.7 250 397.3 300 398.8C350 400.3 400 398.7 450 393.3C500 388 550 379 600 373.8C650 368.7 700 367.3 750 371.8C800 376.3 850 386.7 875 391.8L900 397L900 220L875 219.2C850 218.3 800 216.7 750 225.7C700 234.7 650 254.3 600 264.8C550 275.3 500 276.7 450 275.8C400 275 350 272 300 259.3C250 246.7 200 224.3 150 216.2C100 208 50 214 25 217L0 220Z" fill="#76edde"></path><path d="M0 451L25 451C50 451 100 451 150 451C200 451 250 451 300 451C350 451 400 451 450 451C500 451 550 451 600 451C650 451 700 451 750 451C800 451 850 451 875 451L900 451L900 395L875 389.8C850 384.7 800 374.3 750 369.8C700 365.3 650 366.7 600 371.8C550 377 500 386 450 391.3C400 396.7 350 398.3 300 396.8C250 395.3 200 390.7 150 384.7C100 378.7 50 371.3 25 367.7L0 364Z" fill="#36eee0"></path></svg>