<?xml version="1.0" encoding="UTF-8" standalone="no"?>
<svg
   xmlns:dc="http://purl.org/dc/elements/1.1/"
   xmlns:cc="http://creativecommons.org/ns#"
   xmlns:rdf="http://www.w3.org/1999/02/22-rdf-syntax-ns#"
   xmlns:svg="http://www.w3.org/2000/svg"
   xmlns="http://www.w3.org/2000/svg"
   xmlns:sodipodi="http://sodipodi.sourceforge.net/DTD/sodipodi-0.dtd"
   xmlns:inkscape="http://www.inkscape.org/namespaces/inkscape"
   data-name="Layer 1"
   width="125"
   height="90"
   viewBox="0 0 125 90"
   version="1.1"
   id="svg50"
   sodipodi:docname="cloud2.svg"
   inkscape:version="0.92.3 (2405546, 2018-03-11)">
  <metadata
     id="metadata56">
    <rdf:RDF>
      <cc:Work
         rdf:about="">
        <dc:format>image/svg+xml</dc:format>
        <dc:type
           rdf:resource="http://purl.org/dc/dcmitype/StillImage" />
        <dc:title>aircraft</dc:title>
      </cc:Work>
    </rdf:RDF>
  </metadata>
  <defs
     id="defs54" />
  <sodipodi:namedview
     pagecolor="#ffffff"
     bordercolor="#666666"
     borderopacity="1"
     objecttolerance="10"
     gridtolerance="10"
     guidetolerance="10"
     inkscape:pageopacity="0"
     inkscape:pageshadow="2"
     inkscape:window-width="2560"
     inkscape:window-height="1387"
     id="namedview52"
     showgrid="false"
     inkscape:zoom="1.0422056"
     inkscape:cx="383.15066"
     inkscape:cy="286.38916"
     inkscape:window-x="1080"
     inkscape:window-y="222"
     inkscape:window-maximized="1"
     inkscape:current-layer="svg50" />
  <title
     id="title2">aircraft</title>
  <path
     d="m 118.52345,44.36324 -15.55,9.84 9.42,-17.13 a 15.35,15.35 0 0 0 -9.38,-3.35 h -0.25 a 17.21,17.21 0 0 1 -3.220005,-0.24 l -5.26,3.34 2.25,-4.1 a 18.78,18.78 0 0 1 -9.2,-7 l -9.41,6 5.94,-10.82 c -5.5,-6.61 -12.92,-10.66 -21.09,-10.66 -9.79,0 -18.51,5.82 -24.14,14.9 a 18.06,18.06 0 0 1 -16,8.6 h -0.52 c -10.81,0 -19.5699997,12.25 -19.5699997,27.37 0,15.12 8.7599997,27.37 19.5699997,27.37 a 14.6,14.6 0 0 0 6.81,-1.71 28.28,28.28 0 0 1 23.69,-0.46 24.71,24.71 0 0 0 20.14,0.05 28.27,28.27 0 0 1 23.47,0.45 14.72,14.72 0 0 0 6.750005,1.67 c 10.81,0 19.57,-12.25 19.57,-27.37 a 34.77,34.77 0 0 0 -4.02,-16.75 z"
     id="path42"
     inkscape:connector-curvature="0"
     style="fill:#f2f2f2" />
  <path
     d="m 89.273445,84.41324 a 29,29 0 0 0 -16.77,1.82 24.63,24.63 0 0 1 -20.13,0 28.21,28.21 0 0 0 -23.69,0.46 14.73,14.73 0 0 1 -6.82,1.71 c -9.6,0 -17.5899997,-9.68 -19.2499997,-22.44 a 18.26,18.26 0 0 0 4.8,-5.17 c 5.6299997,-9.07 14.3499997,-14.89 24.1399997,-14.89 9.79,0 18.42,5.7 24.04,14.7 a 18.5,18.5 0 0 0 16,8.77 h 0.25 c 7.59,-0.02 14.21,6.1 17.43,15.04 z"
     id="path44"
     inkscape:connector-curvature="0"
     style="opacity:0.02999998" />
</svg>
