<svg id="visual" viewBox="0 0 900 450" width="900" height="450" xmlns="http://www.w3.org/2000/svg" xmlns:xlink="http://www.w3.org/1999/xlink" version="1.1"><path d="M0 100L50 100L50 172L100 172L100 190L150 190L150 123L200 123L200 168L250 168L250 168L300 168L300 168L350 168L350 136L400 136L400 114L450 114L450 123L500 123L500 109L550 109L550 168L600 168L600 217L650 217L650 123L700 123L700 190L750 190L750 177L800 177L800 150L850 150L850 109L900 109L900 145L900 0L900 0L850 0L850 0L800 0L800 0L750 0L750 0L700 0L700 0L650 0L650 0L600 0L600 0L550 0L550 0L500 0L500 0L450 0L450 0L400 0L400 0L350 0L350 0L300 0L300 0L250 0L250 0L200 0L200 0L150 0L150 0L100 0L100 0L50 0L50 0L0 0Z" fill="#ffffff"></path><path d="M0 199L50 199L50 249L100 249L100 280L150 280L150 226L200 226L200 258L250 258L250 235L300 235L300 244L350 244L350 213L400 213L400 226L450 226L450 186L500 186L500 222L550 222L550 280L600 280L600 289L650 289L650 235L700 235L700 262L750 262L750 253L800 253L800 222L850 222L850 213L900 213L900 258L900 143L900 107L850 107L850 148L800 148L800 175L750 175L750 188L700 188L700 121L650 121L650 215L600 215L600 166L550 166L550 107L500 107L500 121L450 121L450 112L400 112L400 134L350 134L350 166L300 166L300 166L250 166L250 166L200 166L200 121L150 121L150 188L100 188L100 170L50 170L50 98L0 98Z" fill="#e9f9f4"></path><path d="M0 366L50 366L50 384L100 384L100 379L150 379L150 379L200 379L200 366L250 366L250 361L300 361L300 375L350 375L350 379L400 379L400 379L450 379L450 375L500 375L500 388L550 388L550 402L600 402L600 402L650 402L650 361L700 361L700 361L750 361L750 370L800 370L800 397L850 397L850 384L900 384L900 370L900 256L900 211L850 211L850 220L800 220L800 251L750 251L750 260L700 260L700 233L650 233L650 287L600 287L600 278L550 278L550 220L500 220L500 184L450 184L450 224L400 224L400 211L350 211L350 242L300 242L300 233L250 233L250 256L200 256L200 224L150 224L150 278L100 278L100 247L50 247L50 197L0 197Z" fill="#d3f3ea"></path><path d="M0 451L50 451L50 451L100 451L100 451L150 451L150 451L200 451L200 451L250 451L250 451L300 451L300 451L350 451L350 451L400 451L400 451L450 451L450 451L500 451L500 451L550 451L550 451L600 451L600 451L650 451L650 451L700 451L700 451L750 451L750 451L800 451L800 451L850 451L850 451L900 451L900 451L900 368L900 382L850 382L850 395L800 395L800 368L750 368L750 359L700 359L700 359L650 359L650 400L600 400L600 400L550 400L550 386L500 386L500 373L450 373L450 377L400 377L400 377L350 377L350 373L300 373L300 359L250 359L250 364L200 364L200 377L150 377L150 377L100 377L100 382L50 382L50 364L0 364Z" fill="#bcece0"></path></svg>