<svg xmlns="http://www.w3.org/2000/svg" version="1.1" xmlns:xlink="http://www.w3.org/1999/xlink" xmlns:svgjs="http://svgjs.dev/svgjs" width="1440" height="560" preserveAspectRatio="none" viewBox="0 0 1440 560"><g mask="url(&quot;#SvgjsMask1521&quot;)" fill="none"><path d="M165.39 253.15L245.93 299.65L245.93 392.65L165.39 439.15L84.84 392.65L84.84 299.65zM648.64 253.15L729.18 299.65L729.18 392.65L648.64 439.15L568.1 392.65L568.1 299.65zM890.27 392.65L970.81 439.15L970.81 532.15L890.27 578.65L809.73 532.15L809.73 439.15zM809.73 532.15L890.27 578.65L890.27 671.65L809.73 718.15L729.18 671.65L729.18 578.65zM970.81 253.15L1051.35 299.65L1051.35 392.65L970.81 439.15L890.27 392.65L890.27 299.65zM1131.9 -25.85L1212.44 20.65L1212.44 113.65L1131.9 160.15L1051.35 113.65L1051.35 20.65zM1212.44 113.65L1292.98 160.15L1292.98 253.15L1212.44 299.65L1131.9 253.15L1131.9 160.15zM1292.98 -25.85L1373.53 20.65L1373.53 113.65L1292.98 160.15L1212.44 113.65L1212.44 20.65zM1373.53 392.65L1454.07 439.15L1454.07 532.15L1373.53 578.65L1292.98 532.15L1292.98 439.15z" stroke="rgba(251, 37, 118, 0.24)" stroke-width="2"></path><path d="M156.09 253.15 a9.3 9.3 0 1 0 18.6 0 a9.3 9.3 0 1 0 -18.6 0zM236.63 299.65 a9.3 9.3 0 1 0 18.6 0 a9.3 9.3 0 1 0 -18.6 0zM236.63 392.65 a9.3 9.3 0 1 0 18.6 0 a9.3 9.3 0 1 0 -18.6 0zM156.09 439.15 a9.3 9.3 0 1 0 18.6 0 a9.3 9.3 0 1 0 -18.6 0zM75.54 392.65 a9.3 9.3 0 1 0 18.6 0 a9.3 9.3 0 1 0 -18.6 0zM75.54 299.65 a9.3 9.3 0 1 0 18.6 0 a9.3 9.3 0 1 0 -18.6 0zM639.34 253.15 a9.3 9.3 0 1 0 18.6 0 a9.3 9.3 0 1 0 -18.6 0zM719.88 299.65 a9.3 9.3 0 1 0 18.6 0 a9.3 9.3 0 1 0 -18.6 0zM719.88 392.65 a9.3 9.3 0 1 0 18.6 0 a9.3 9.3 0 1 0 -18.6 0zM639.34 439.15 a9.3 9.3 0 1 0 18.6 0 a9.3 9.3 0 1 0 -18.6 0zM558.8 392.65 a9.3 9.3 0 1 0 18.6 0 a9.3 9.3 0 1 0 -18.6 0zM558.8 299.65 a9.3 9.3 0 1 0 18.6 0 a9.3 9.3 0 1 0 -18.6 0zM880.97 392.65 a9.3 9.3 0 1 0 18.6 0 a9.3 9.3 0 1 0 -18.6 0zM961.51 439.15 a9.3 9.3 0 1 0 18.6 0 a9.3 9.3 0 1 0 -18.6 0zM961.51 532.15 a9.3 9.3 0 1 0 18.6 0 a9.3 9.3 0 1 0 -18.6 0zM880.97 578.65 a9.3 9.3 0 1 0 18.6 0 a9.3 9.3 0 1 0 -18.6 0zM800.43 532.15 a9.3 9.3 0 1 0 18.6 0 a9.3 9.3 0 1 0 -18.6 0zM800.43 439.15 a9.3 9.3 0 1 0 18.6 0 a9.3 9.3 0 1 0 -18.6 0zM880.97 671.65 a9.3 9.3 0 1 0 18.6 0 a9.3 9.3 0 1 0 -18.6 0zM800.43 718.15 a9.3 9.3 0 1 0 18.6 0 a9.3 9.3 0 1 0 -18.6 0zM719.88 671.65 a9.3 9.3 0 1 0 18.6 0 a9.3 9.3 0 1 0 -18.6 0zM719.88 578.65 a9.3 9.3 0 1 0 18.6 0 a9.3 9.3 0 1 0 -18.6 0zM961.51 253.15 a9.3 9.3 0 1 0 18.6 0 a9.3 9.3 0 1 0 -18.6 0zM1042.05 299.65 a9.3 9.3 0 1 0 18.6 0 a9.3 9.3 0 1 0 -18.6 0zM1042.05 392.65 a9.3 9.3 0 1 0 18.6 0 a9.3 9.3 0 1 0 -18.6 0zM880.97 299.65 a9.3 9.3 0 1 0 18.6 0 a9.3 9.3 0 1 0 -18.6 0zM1122.6 -25.85 a9.3 9.3 0 1 0 18.6 0 a9.3 9.3 0 1 0 -18.6 0zM1203.14 20.65 a9.3 9.3 0 1 0 18.6 0 a9.3 9.3 0 1 0 -18.6 0zM1203.14 113.65 a9.3 9.3 0 1 0 18.6 0 a9.3 9.3 0 1 0 -18.6 0zM1122.6 160.15 a9.3 9.3 0 1 0 18.6 0 a9.3 9.3 0 1 0 -18.6 0zM1042.05 113.65 a9.3 9.3 0 1 0 18.6 0 a9.3 9.3 0 1 0 -18.6 0zM1042.05 20.65 a9.3 9.3 0 1 0 18.6 0 a9.3 9.3 0 1 0 -18.6 0zM1283.68 160.15 a9.3 9.3 0 1 0 18.6 0 a9.3 9.3 0 1 0 -18.6 0zM1283.68 253.15 a9.3 9.3 0 1 0 18.6 0 a9.3 9.3 0 1 0 -18.6 0zM1203.14 299.65 a9.3 9.3 0 1 0 18.6 0 a9.3 9.3 0 1 0 -18.6 0zM1122.6 253.15 a9.3 9.3 0 1 0 18.6 0 a9.3 9.3 0 1 0 -18.6 0zM1283.68 -25.85 a9.3 9.3 0 1 0 18.6 0 a9.3 9.3 0 1 0 -18.6 0zM1364.23 20.65 a9.3 9.3 0 1 0 18.6 0 a9.3 9.3 0 1 0 -18.6 0zM1364.23 113.65 a9.3 9.3 0 1 0 18.6 0 a9.3 9.3 0 1 0 -18.6 0zM1364.23 392.65 a9.3 9.3 0 1 0 18.6 0 a9.3 9.3 0 1 0 -18.6 0zM1444.77 439.15 a9.3 9.3 0 1 0 18.6 0 a9.3 9.3 0 1 0 -18.6 0zM1444.77 532.15 a9.3 9.3 0 1 0 18.6 0 a9.3 9.3 0 1 0 -18.6 0zM1364.23 578.65 a9.3 9.3 0 1 0 18.6 0 a9.3 9.3 0 1 0 -18.6 0zM1283.68 532.15 a9.3 9.3 0 1 0 18.6 0 a9.3 9.3 0 1 0 -18.6 0zM1283.68 439.15 a9.3 9.3 0 1 0 18.6 0 a9.3 9.3 0 1 0 -18.6 0z" fill="rgba(251, 37, 118, 0.24)"></path><path d="M186.65 155.85L246.41 190.35L246.41 259.35L186.65 293.85L126.9 259.35L126.9 190.35zM246.41 259.35L306.17 293.85L306.17 362.85L246.41 397.35L186.65 362.85L186.65 293.85zM306.17 362.85L365.93 397.35L365.93 466.35L306.17 500.85L246.41 466.35L246.41 397.35zM365.93 466.35L425.68 500.85L425.68 569.85L365.93 604.35L306.17 569.85L306.17 500.85zM425.68 -51.15L485.44 -16.65L485.44 52.35L425.68 86.85L365.93 52.35L365.93 -16.65zM485.44 52.35L545.2 86.85L545.2 155.85L485.44 190.35L425.68 155.85L425.68 86.85zM425.68 155.85L485.44 190.35L485.44 259.35L425.68 293.85L365.93 259.35L365.93 190.35zM485.44 259.35L545.2 293.85L545.2 362.85L485.44 397.35L425.68 362.85L425.68 293.85zM425.68 362.85L485.44 397.35L485.44 466.35L425.68 500.85L365.93 466.35L365.93 397.35zM604.96 52.35L664.71 86.85L664.71 155.85L604.96 190.35L545.2 155.85L545.2 86.85zM724.47 52.35L784.23 86.85L784.23 155.85L724.47 190.35L664.71 155.85L664.71 86.85zM843.99 466.35L903.74 500.85L903.74 569.85L843.99 604.35L784.23 569.85L784.23 500.85zM1142.77 -51.15L1202.53 -16.65L1202.53 52.35L1142.77 86.85L1083.02 52.35L1083.02 -16.65zM1202.53 259.35L1262.29 293.85L1262.29 362.85L1202.53 397.35L1142.77 362.85L1142.77 293.85zM1142.77 362.85L1202.53 397.35L1202.53 466.35L1142.77 500.85L1083.02 466.35L1083.02 397.35z" stroke="rgba(255, 43, 119, 0.21)" stroke-width="2"></path></g><defs><mask id="SvgjsMask1521"><rect width="1440" height="560" fill="#ffffff"></rect></mask></defs></svg>