<?xml version="1.0" encoding="UTF-8" standalone="no"?>
<!-- Created with Inkscape (http://www.inkscape.org/) -->

<svg
   xmlns:osb="http://www.openswatchbook.org/uri/2009/osb"
   xmlns:dc="http://purl.org/dc/elements/1.1/"
   xmlns:cc="http://creativecommons.org/ns#"
   xmlns:rdf="http://www.w3.org/1999/02/22-rdf-syntax-ns#"
   xmlns:svg="http://www.w3.org/2000/svg"
   xmlns="http://www.w3.org/2000/svg"
   xmlns:sodipodi="http://sodipodi.sourceforge.net/DTD/sodipodi-0.dtd"
   xmlns:inkscape="http://www.inkscape.org/namespaces/inkscape"
   width="297mm"
   height="210mm"
   viewBox="0 0 1052.3622 744.09448"
   id="svg2"
   version="1.1"
   inkscape:version="0.91 r13725"
   sodipodi:docname="logo1.svg">
  <defs
     id="defs4">
    <linearGradient
       inkscape:collect="always"
       id="linearGradient4151"
       osb:paint="gradient">
      <stop
         style="stop-color:#ffffff;stop-opacity:1;"
         offset="0"
         id="stop4153" />
      <stop
         style="stop-color:#000000;stop-opacity:0;"
         offset="1"
         id="stop4155" />
    </linearGradient>
  </defs>
  <sodipodi:namedview
     id="base"
     pagecolor="#ffffff"
     bordercolor="#666666"
     borderopacity="1.0"
     inkscape:pageopacity="0.0"
     inkscape:pageshadow="2"
     inkscape:zoom="0.99010067"
     inkscape:cx="315.45462"
     inkscape:cy="353.30033"
     inkscape:document-units="mm"
     inkscape:current-layer="g3360"
     showgrid="false"
     showguides="true"
     inkscape:guide-bbox="true"
     inkscape:snap-grids="false"
     inkscape:snap-to-guides="true"
     inkscape:snap-bbox="false"
     inkscape:bbox-paths="false"
     inkscape:bbox-nodes="false"
     inkscape:window-width="1920"
     inkscape:window-height="1017"
     inkscape:window-x="0"
     inkscape:window-y="0"
     inkscape:window-maximized="1"
     inkscape:snap-text-baseline="false">
    <inkscape:grid
       type="xygrid"
       id="grid3365" />
  </sodipodi:namedview>
  <metadata
     id="metadata7">
    <rdf:RDF>
      <cc:Work
         rdf:about="">
        <dc:format>image/svg+xml</dc:format>
        <dc:type
           rdf:resource="http://purl.org/dc/dcmitype/StillImage" />
        <dc:title></dc:title>
      </cc:Work>
    </rdf:RDF>
  </metadata>
  <g
     inkscape:label="Layer 1"
     inkscape:groupmode="layer"
     id="layer1"
     transform="translate(0,-308.26772)" />
  <g
     transform="translate(0,-308.26772)"
     id="g4984"
     inkscape:groupmode="layer"
     inkscape:label="Layer 1 copy">
    <g
       id="g3360"
       transform="matrix(0.8460002,0,0,0.8460002,151.52442,78.258253)"
       style="fill:#ffffff;fill-opacity:1">
      <g
         transform="translate(6.0599898,7.06999)"
         id="g4864"
         style="fill:#ffffff;fill-opacity:1;stroke:#ffffff;stroke-opacity:1">
        <path
           style="fill:#ffffff;fill-rule:evenodd;stroke:#ffffff;stroke-width:1px;stroke-linecap:butt;stroke-linejoin:miter;stroke-opacity:1;fill-opacity:1"
           d="m 724.16879,364.55335 c -242.63466,95.25618 -314.6141,154.0163 -560.54906,510.04915 18.8533,-0.33666 -8.10266,3.30751 43.42992,0 C 449.8976,510.01025 595.23903,447.35172 781.73869,365.56336 Z"
           id="path4842"
           inkscape:connector-curvature="0"
           sodipodi:nodetypes="ccccc" />
        <path
           style="fill:#ffffff;fill-rule:evenodd;stroke:#ffffff;stroke-width:1px;stroke-linecap:butt;stroke-linejoin:miter;stroke-opacity:1;fill-opacity:1"
           d="M 625.18895,439.29323 C 654.13112,438.81306 503.22836,786.91729 481.7692,787.74264 l 52.5199,-2.01999 c 0,0 160.5682,-289.16073 144.42976,-368.64938 -1.70518,-8.39877 -53.52991,22.21996 -53.52991,22.21996 z"
           id="path4846"
           inkscape:connector-curvature="0"
           sodipodi:nodetypes="cscsc" />
        <path
           style="fill:#ffffff;fill-rule:evenodd;stroke:#ffffff;stroke-width:1px;stroke-linecap:butt;stroke-linejoin:miter;stroke-opacity:1;fill-opacity:1"
           d="m 429.24928,586.75298 c 9.08999,-1.01 -29.85775,30.86893 -29.28995,35.34994 0.81682,6.44635 176.27574,-15.21203 179.7797,-23.22996 2.17802,-4.98387 14.02534,-36.74087 11.10998,-30.29995 -3.18116,7.02814 -166.41888,38.79679 -161.59973,18.17997 z"
           id="path4848"
           inkscape:connector-curvature="0"
           sodipodi:nodetypes="csssc" />
      </g>
      <path
         inkscape:connector-curvature="0"
         id="path2436"
         d="m 910.85214,314.79672 c -2.519,0.072 -5.0284,0.18488 -7.52518,0.33584 -9.50652,0.57997 -18.84223,1.76282 -27.97362,3.51626 -2.27659,0.43673 -4.54596,0.89988 -6.79738,1.40705 -0.39772,10e-4 -0.95916,0.0388 -1.73633,0.13499 -0.08,0.12265 -0.13136,0.22318 -0.16491,0.31429 -10.5854,2.48732 -20.86416,5.74982 -30.78244,9.71136 0.18994,0.17323 0.37244,0.35231 0.55197,0.53213 11.69305,-4.32132 23.9114,-7.69192 36.57838,-10.00772 0.23479,0.1203 0.35287,0.30845 0.36839,0.55353 -3.763,0.83612 -5.70082,2.31124 -7.66757,3.84734 -0.88807,0.16066 -1.83049,0.26018 -2.43946,0.27147 0.0282,-0.024 0.0556,-0.0528 0.0795,-0.0773 0.0934,-0.091 0.18709,-0.18082 0.29312,-0.26594 0.11039,-0.0896 0.0604,-0.16 -0.11115,-0.16518 -0.17459,-0.002 -0.40242,0.0674 -0.51291,0.15544 -0.0871,0.0697 -0.16301,0.14447 -0.24131,0.21853 l -0.22701,0.0882 c -0.9594,0.78308 -3.40555,0.88639 -1.98979,1.13606 -1.41726,0.38168 -3.01791,0.91488 -3.77616,0.85689 -0.40527,0.49625 1.76776,0.16976 0.21867,0.75231 -1.5199,0.13985 -2.21576,-0.28697 -2.33939,-0.11874 -0.29896,1.03537 -1.37184,0.25752 -1.64458,0.2987 -0.62495,0.0901 -2.40384,1.05692 -3.28491,0.64231 -0.25862,0.8717 -2.29153,1.37259 -4.27619,1.84308 -1.98332,0.46309 -3.91697,0.89341 -3.95672,1.46346 -2.21759,0.99292 0.28005,-0.52215 -1.17364,0.0268 -1.4268,0.63173 0.16213,0.17454 -1.33917,1.1435 -0.20303,-0.21526 -0.41869,-0.30789 -0.64235,-0.32548 0.2699,0.40592 0.52476,0.83637 0.76881,1.28578 2.32145,-0.89605 4.12746,-1.47693 6.22432,-2.27831 -0.055,0.0974 -0.12742,0.19566 -0.25108,0.31033 -0.0984,0.094 -0.0529,0.16193 0.10495,0.15271 0.0678,-0.003 0.14633,-0.0233 0.22113,-0.0514 0.0967,-0.0347 0.18761,-0.0846 0.24425,-0.13454 0.0878,-0.0849 0.15556,-0.15594 0.20989,-0.22683 l 0.24911,-0.12393 c 1.56457,-0.407 1.09726,-0.24092 2.39237,-0.80636 -0.0554,0.0917 -0.12424,0.18298 -0.24432,0.28847 -0.10017,0.0909 -0.0527,0.1586 0.10361,0.15087 0.07,-0.002 0.1482,-0.0177 0.22306,-0.0429 0.0966,-0.0347 0.18855,-0.0799 0.24375,-0.13135 0.0903,-0.0801 0.15381,-0.15554 0.21121,-0.22498 l 0.25314,-0.11837 c 1.69068,-0.17457 1.63818,-1.07723 2.15003,-0.49954 1.82262,-1.14428 4.38986,-1.31376 6.77237,-2.26435 l -0.0404,0.0787 c -0.12501,0.0467 -0.25199,0.0867 -0.37794,0.14101 -0.28582,0.11981 -0.4104,0.2789 -0.28135,0.35624 0.10341,0.0599 0.33773,0.0498 0.57283,-0.0182 0.0588,-0.0174 0.12144,-0.0385 0.17878,-0.0631 0.18469,-0.0763 0.37503,-0.14133 0.56734,-0.20897 -0.15782,0.66563 1.44102,-0.2549 1.59993,-0.50073 l -0.0123,-0.005 c 0.1843,-0.0897 0.29335,-0.19851 0.2606,-0.27768 -0.0464,-0.10681 -0.33185,-0.12008 -0.64623,-0.0248 l -0.16959,0.0466 c 0.61123,-0.25239 0.70554,-0.53942 1.42504,-0.77928 0.71576,-0.12447 0.92435,0.10866 1.69436,-0.0467 -0.14463,-0.19662 0.0299,-0.36762 0.43453,-0.51519 0.0621,0.0653 0.13464,0.10684 0.21385,0.13739 -0.15471,0.10517 -0.30935,0.21116 -0.46824,0.31653 0.36497,0.20374 0.94879,0.26301 1.74725,0.19593 -1.21493,0.92896 -4.19112,1.07702 -6.33605,1.9427 -1.85342,0.73242 -4.48535,2.28944 -4.40756,2.61311 0.0828,0.35605 1.34138,0.28256 2.87782,0.1622 -0.0176,0.0224 -0.0366,0.0349 -0.0548,0.0566 -5.13013,1.0134 -10.93479,3.09871 -16.57823,5.31928 0.24922,0.67618 0.48913,1.39049 0.71687,2.16349 0.98307,3.33744 0.68938,8.84475 0.25834,12.58658 l 0.002,-0.007 c 1.83592,-0.67236 1.70523,-0.62874 2.92388,-0.80159 1.65482,-0.6839 -1.23917,-0.20664 0.25176,-0.73439 0.43119,-0.0267 1.0724,0.94078 1.62762,-0.008 -0.61903,0.23479 -0.79854,-0.26962 -0.2144,-0.54363 -0.22605,0.43053 1.24249,0.43008 1.08556,0.002 1.03195,-1.12766 6.23389,-1.56748 8.99015,-3.38195 0.45335,0.81989 1.49471,-0.29165 2.64025,-0.0215 -0.66329,-0.67798 3.10905,-1.61256 0.90611,-0.48395 1.10945,-0.40032 1.88851,-0.96687 2.90062,-0.86099 -0.19439,-0.44986 -1.09893,-0.31733 0.26988,-0.88871 0.13865,0.19955 0.0692,0.55666 0.64755,0.4262 0.22248,-1.02667 3.21213,-0.22506 3.79867,-1.43797 0.67594,0.64666 2.3418,-0.78956 3.08059,-0.17382 0.7353,-0.33186 0.58747,-0.77725 1.82801,-1.03584 -1.10429,0.92511 1.26035,-0.34999 2.1012,0.12317 0.77202,-0.9048 3.25401,-0.28108 3.33585,-1.30892 1.06269,0.19502 1.02049,-0.0169 0.1178,0.57405 1.40525,-0.5264 3.07016,-0.67722 4.64067,-0.87583 0.31064,-0.40296 0.40394,-0.7588 -0.13502,-1.00917 2.85184,-0.50354 3.91875,-0.59532 6.55351,-1.2954 -0.47617,-0.77361 1.09198,-1.30234 2.80937,-1.683 0.61658,-0.13867 1.24748,-0.25771 1.81137,-0.36866 0.48098,0.021 0.94812,0.0833 1.51054,0.18102 -0.26845,-0.67152 3.18863,-0.21372 1.4638,-0.74525 -0.15767,0.0993 -0.62973,0.0755 -1.19173,0.0682 0.0314,-0.0276 0.0566,-0.0569 0.0613,-0.0868 0.98171,-0.42281 2.50623,-0.36952 3.96404,-0.30111 -0.1112,0.0628 -0.20916,0.14147 -0.2689,0.26817 2.22242,-0.33807 -0.37745,0.42323 1.05404,0.30125 0.3346,-0.26133 0.75654,-0.30317 1.20078,-0.26815 0.008,0.006 0.009,0.0146 0.0179,0.0209 0.0745,0.0432 0.22784,0.0467 0.36036,0.0204 0.0696,0.0117 0.13952,0.0221 0.20785,0.0316 -0.14196,0.0726 -0.30171,0.14303 -0.29285,0.26434 l 1.54579,-0.0803 0.28919,0.0246 c 0.0216,0.009 0.0468,0.0193 0.0689,0.0306 0.0118,0.0589 0.0967,0.10973 0.24945,0.12997 0.0666,0.009 0.13747,0.01 0.20687,0.007 0.16537,-0.0105 0.32211,-0.0545 0.39909,-0.11959 0.0812,-0.0698 0.15361,-0.12506 0.22484,-0.17695 l 0.12321,-0.0228 c 1.92461,0.12224 1.62269,0.0638 1.97956,-0.26314 0.21085,-0.028 0.41158,-0.0593 0.60611,-0.093 0.86439,-0.0241 2.07654,0.0748 1.99553,-0.26059 l 0.008,10e-4 c 0.008,0.003 0.0178,0.004 0.0286,0.006 l 0.27804,0.074 c 0.0593,0.0155 0.13202,0.0245 0.20301,0.0207 0.0887,-0.003 0.17766,-0.0213 0.23762,-0.052 0.11106,-0.0542 0.0916,-0.12734 -0.0439,-0.16588 l -0.20269,-0.0537 -0.003,-0.0447 c 1.44182,0.43086 4.48732,0.0654 4.09967,-0.29907 -0.29849,0.36554 -0.73625,0.21707 -1.18918,0.0522 0.70771,-0.0244 1.08921,-0.16486 1.27979,-0.38324 l -1.33283,-0.002 c 0.0959,-0.0673 0.20587,-0.13561 0.34772,-0.20807 0.12899,-0.0646 0.0935,-0.15629 -0.0803,-0.20445 -0.17272,-0.0481 -0.41811,-0.0363 -0.54537,0.0307 -0.10805,0.0544 -0.20009,0.10834 -0.28769,0.16035 l -0.17796,0.0272 c -0.88566,-0.63349 -1.3485,-1.45754 -4.19153,-1.30753 -0.17393,-0.11139 -0.37242,-0.21134 -0.58134,-0.30752 0.25825,-0.16355 0.50026,-0.33398 0.4667,-0.59357 l 0.0441,-0.0601 c 0.16362,-0.0255 0.32361,-0.056 0.48667,-0.10395 0.22624,-0.0682 0.28305,-0.18553 0.12422,-0.2651 -0.10313,-0.0511 -0.27232,-0.0717 -0.44068,-0.0606 2.53119,-0.35778 3.7394,0.0595 6.5412,-0.2967 l 0.0669,0.0729 c 0,0 -0.0115,-0.002 -0.0172,0.006 -0.32281,0.0465 -0.48702,0.18108 -0.36918,0.30126 0.0935,0.0914 0.33166,0.14858 0.58586,0.14607 0.0697,-2.9e-4 0.1411,-0.007 0.20888,-0.0157 0.18137,-0.0277 0.40416,-0.0443 0.64783,-0.0569 0.15599,0.10156 0.44491,0.15601 0.44554,0.31693 -0.96592,0.18888 -1.74641,-0.56697 -2.08004,0.0211 1.60542,0.27247 2.85008,0.10469 4.08861,-0.1993 -0.0613,0.0646 -0.12207,0.13029 -0.19174,0.19534 -0.11323,0.10873 0.0298,0.23093 0.31791,0.27524 0.0673,0.0136 0.13708,0.0173 0.20512,0.0179 0.2232,9.7e-4 0.4353,-0.0478 0.52211,-0.13104 0.0567,-0.0546 0.10559,-0.10596 0.15477,-0.15868 l 0.10201,-0.0132 c 0.61339,-0.0824 1.98688,0.1457 2.44982,0.0119 0.0737,0.0633 0.23383,0.10302 0.40857,0.10783 0.0505,10e-4 0.10423,10e-4 0.15445,-0.003 0.1623,-0.0182 0.26551,-0.0703 0.29242,-0.12847 0.91469,-0.23507 3.36699,0.18899 3.46908,-0.37046 0.2075,0.0201 0.41534,0.0458 0.60956,0.0696 0.06,0.005 0.12014,0.0131 0.17765,0.016 0.36696,0.0158 0.70232,-0.0578 0.79262,-0.19422 0.10608,-0.15755 -0.16076,-0.33539 -0.59227,-0.3928 -0.12463,-0.0145 -0.26577,-0.0328 -0.40953,-0.0507 l -0.0228,-0.0314 c 0.82249,0.089 0.90803,-0.12682 1.53519,-0.1164 l -0.0157,0.29069 c -0.004,0.062 0.12987,0.12093 0.29568,0.12758 0.16684,0.009 0.30511,-0.0329 0.30673,-0.0951 l 0.0161,-0.29711 c 1.60467,-0.11662 1.21583,0.38725 2.02137,0.51985 -0.25785,-0.45297 1.0139,-0.20813 1.08432,-0.51279 -1.34738,0.11714 -1.77553,-0.96221 -2.60129,-0.36534 0.78077,0.14796 0.0573,0.20223 -0.49502,0.16649 l 0.0168,-0.29209 c 0.005,-0.0607 -0.12817,-0.12095 -0.29543,-0.1291 -0.16722,-0.008 -0.30419,0.036 -0.30724,0.0983 l -0.017,0.31011 c -0.6857,0.36924 -1.47118,-0.36668 -1.99938,0.0389 l 0.003,-0.0584 c 4e-4,-0.065 -0.13866,-0.1244 -0.31618,-0.13251 -0.0874,-0.003 -0.17012,0.008 -0.23034,0.0271 l -0.032,-0.0149 c -3.08218,-0.18355 -7.01199,0.0524 -8.73647,0.38284 -0.0125,-0.0282 -0.026,-0.055 -0.0354,-0.0859 -0.0278,-0.079 -0.22032,-0.13337 -0.43894,-0.12262 -0.1137,0.006 -0.20753,0.0298 -0.26891,0.0634 -1.6148,0.40811 -0.93013,-0.0301 -1.51624,-0.19654 -1.07658,0.55047 -5.82881,0.52743 -5.75833,0.15332 -1.91151,0.64202 -2.41414,0.3172 -5.94691,0.70786 -1.17638,-0.18232 -2.3736,-0.3447 -3.44984,-0.54846 -0.67089,-0.12679 -0.31764,-0.53143 -1.11383,-0.7055 -2.19166,-0.4834 -5.53468,-0.20042 -7.53706,-0.50109 -0.31155,-0.0466 0.37276,-0.30255 0.50991,-0.24927 -1.19263,-0.46729 -5.36321,-0.41571 -4.53385,-1.6145 l 0.82086,-0.10454 c 0.17967,-0.0229 0.32246,-0.0926 0.31509,-0.1576 -0.008,-0.0662 -0.16315,-0.10065 -0.34507,-0.0749 l -0.74675,0.0918 c 1.06188,-0.6211 3.01451,-0.60633 5.19872,-1.07809 1.24683,-0.11048 2.30334,-0.242 1.72303,-0.42045 0.0828,0.01 0.16766,0.0174 0.26675,0.0221 0.0406,7.4e-4 0.0815,-5e-4 0.12361,-0.005 0.12835,-0.0145 0.25087,-0.0552 0.29706,-0.10643 0.0613,-0.068 -0.0277,-0.1281 -0.19789,-0.13482 -0.0462,-0.002 -0.0825,-0.009 -0.12397,-0.0134 l -0.007,-0.0568 c -0.32039,-1.03264 0.9048,-0.32614 1.60449,-0.17083 -0.78281,-0.36805 1.31209,-0.87153 -0.0771,-0.77717 -0.10856,0.25487 -1.04823,0.30901 -1.07605,0.11286 0.60697,-0.1029 0.27761,-0.2279 -0.0215,-0.19342 -0.25577,0.49035 -1.1441,0.41396 -2.01358,0.54758 -1.16582,-1.15833 -6.02018,-1.36211 -10.03568,-0.86322 -0.29339,-0.38121 -0.34053,-0.60046 -0.8876,-0.95267 0.46346,-0.0392 0.86743,-0.0652 1.17746,-0.29643 l 0.0661,-0.0649 c 0.0211,-0.004 0.0414,-0.002 0.0623,-8e-4 0.0455,-0.003 0.0909,-0.01 0.13522,-0.016 0.18415,-0.0287 0.34735,-0.0968 0.39903,-0.17037 0.0593,-0.0946 -0.0763,-0.16176 -0.30968,-0.15271 -0.096,0.003 -0.2441,0.0112 -0.40376,0.0158 0.10802,-0.0571 0.3936,-0.16058 0.74483,-0.2641 0.61473,-0.0855 1.23076,-0.16585 1.84568,-0.24525 0.0518,0.0226 0.0943,0.0512 0.11308,0.0917 -0.96339,0.10004 -2.78293,1.26942 -1.57062,0.6348 l 1.08658,-0.16849 0.0743,0.0577 c -0.0671,0.0909 -0.0956,0.17589 -0.0673,0.24638 0.0234,0.0559 0.16796,0.0791 0.32552,0.0537 l 0.0286,-0.004 c 0.16935,-0.0285 0.28473,-0.10247 0.26136,-0.15965 -0.0249,-0.057 0.0343,-0.15268 0.1395,-0.25774 0.4207,0.0355 0.79759,0.0386 0.86692,-0.17742 l 0.19923,-0.0271 c 0.0265,0.0141 0.0514,0.0276 0.0786,0.0405 0.0881,0.0428 0.27839,0.035 0.42797,-0.0134 0.14679,-0.0487 0.19506,-0.12549 0.10719,-0.16795 -0.0591,-0.0281 -0.1053,-0.0583 -0.15612,-0.0888 0.75251,0.0641 3.36256,0.10122 2.06427,-0.11692 -0.7906,0.0214 -1.60316,-0.0187 -1.64462,-0.23356 1.13263,-0.13472 2.26616,-0.26745 3.40064,-0.38304 1.75828,-0.54712 -0.15148,-0.88476 0.95584,-1.66503 2.16249,-0.10021 2.68642,-0.59875 4.9983,-0.62374 -0.15916,-0.3293 -0.99416,-0.37436 -2.26371,-0.21294 0.44998,-0.32737 1.37358,-0.5365 2.76642,-0.60568 -0.58131,-0.21993 -0.58123,-0.6854 -1.74122,-0.65356 0.05,-0.012 0.10181,-0.0201 0.15133,-0.0347 5.63458,-0.43997 11.23899,-0.64994 16.81185,-0.65689 -0.56742,-0.8752 -1.04474,-1.64479 -1.46785,-2.35241 z m 21.43453,22.86702 c -0.0918,0.11083 -0.0568,0.18866 0.0383,0.25179 -0.0453,0.006 -0.0923,0.0144 -0.13943,0.0218 -0.12568,-0.067 -0.24233,-0.13208 -0.32769,-0.18343 -0.1347,-0.0818 -0.39553,-0.11838 -0.58542,-0.0773 -0.16777,0.0356 -0.21361,0.11828 -0.13062,0.19202 l -0.13733,0.019 c -1.73426,-0.28158 -2.15301,0.22327 -3.02822,-0.19443 l -0.28509,-0.0506 c -0.0646,-0.0461 -0.13146,-0.0926 -0.2051,-0.1409 -0.0934,-0.0592 -0.28273,-0.0816 -0.42707,-0.0536 -0.14423,0.0314 -0.18634,0.10324 -0.0932,0.16199 0.0837,0.0545 0.15899,0.10387 0.2278,0.15272 -0.0312,0.011 -0.0679,0.0192 -0.0904,0.033 -0.79371,-0.1312 -1.44915,-0.14298 -2.01924,-0.11341 -0.0927,-0.0512 -0.25586,-0.0753 -0.39893,-0.0555 -0.10929,0.0157 -0.16921,0.0541 -0.17298,0.0985 -0.98001,0.0842 -1.72256,0.19135 -2.59885,-0.27808 l -0.0137,0.5874 -1.51411,-0.0358 -0.0683,-0.0136 c 0.002,-0.009 0.0183,-0.0106 0.0242,-0.019 0.0713,-0.0709 0.0134,-0.15396 -0.12765,-0.20549 0.74046,-0.0851 0.9024,-0.6003 0.29942,-0.72512 0.13822,0.45686 -1.48585,0.15823 -1.55348,0.52782 0.23988,0.0882 0.45798,0.1426 0.65677,0.1738 -0.0825,0.021 -0.15328,0.048 -0.19085,0.0874 -0.0114,0.0139 -0.0315,0.025 -0.0468,0.0367 -0.19526,-0.28278 -1.79705,-0.28324 -0.50194,-0.077 -3.25122,-0.01 -2.67079,-0.0991 -5.80188,0.2004 0.0388,-0.0349 0.0763,-0.069 0.12026,-0.10688 0.10075,-0.0818 0.009,-0.17691 -0.20025,-0.21218 -0.21376,-0.0367 -0.46202,0.002 -0.5623,0.0853 -0.027,0.0231 -0.056,0.0506 -0.0871,0.0744 l -0.0377,4.5e-4 c -2.17216,0.13146 -2.99074,-0.12494 -4.44446,0.14075 -0.0179,-0.0234 -0.0265,-0.0487 -0.0208,-0.0754 0.0156,-0.0707 -0.12894,-0.12954 -0.31375,-0.12716 -0.10347,0.002 -0.19488,0.0238 -0.26073,0.0532 l -0.0183,-0.008 c -2.70115,-0.0659 -0.10335,0.41779 -1.48054,0.6656 -0.22571,-0.18599 -1.14626,-0.95747 -1.0181,-0.13676 l -0.17481,-0.0234 0.0154,-0.0351 c 0.0354,-0.0775 -0.0942,-0.14441 -0.28942,-0.14619 -0.1967,-0.003 -0.3789,0.0564 -0.41124,0.13403 l -0.0304,0.0672 c -0.011,0.0108 -0.0146,0.0274 -0.0196,0.0411 l -0.0976,0.027 c -1.41082,0.1229 -1.48648,-0.37554 -1.58256,-0.8673 -1.252,0.29544 -1.52116,1.00602 -2.50538,0.39687 -0.81215,0.332 -1.68922,0.65638 -1.92267,1.15662 -0.74876,-0.0982 -1.95581,0.0435 -1.58388,-0.62348 -1.4521,0.41494 -0.0579,0.90023 -1.98576,0.41446 -0.45276,0.19433 -0.72219,0.44138 -0.93556,0.69871 0.60833,-0.82463 -3.03198,-0.33579 -5.01683,0.47338 -0.63633,-0.16552 -0.23909,-0.27368 -0.0843,-0.57852 -0.43309,0.14807 -0.86679,0.30351 -0.94036,0.53418 -0.39135,-0.47223 -0.25919,0.005 -1.55471,-0.15083 -0.5415,0.26132 0.39347,0.48316 -1.92742,0.71532 -0.0156,-0.18595 0.57809,-0.26237 0.96196,-0.36203 -0.71029,0.1864 -1.49409,0.30152 -2.30513,0.40432 -0.21434,0.27519 -0.52965,0.57318 -0.8161,0.87341 -0.26253,0.0957 -0.52709,0.21235 -0.79357,0.33327 l 0.082,-0.1441 c -0.43794,-0.29241 -1.50176,0.14969 -0.60268,-0.48128 -0.57818,0.13781 -1.41111,0.23755 -1.44746,0.47926 l 0.0424,0.0312 c -1.00403,-0.004 -2.05777,0.46433 -2.78563,0.7975 l -0.36874,0.1654 -0.20626,0.0915 0.0248,0.0908 c 0.0375,0.13933 0.23036,0.26068 0.53363,0.32938 0,0 0.002,3e-4 0.002,3e-4 0.30411,0.0682 0.72043,0.0841 1.20979,0.0134 l 0.13945,-0.0218 0.11477,-0.0521 0.43397,-0.19428 c 0.1948,-0.0868 0.3962,-0.18023 0.59537,-0.27162 l -0.0381,0.0741 c 1.04493,0.26482 0.83097,0.0458 2.40586,-0.082 0.0282,0.28771 0.27903,0.55384 0.90772,0.77574 1.65797,-0.1104 2.3463,0.3373 4.1861,0.15365 4.95144,0.97666 10.95076,0.81373 15.20347,0.62371 l 0.0184,-0.003 c 0.33967,-0.0204 0.61444,-0.14358 0.61608,-0.27814 0.002,-0.14063 -0.27795,-0.23743 -0.62651,-0.21977 -4.05179,0.17987 -9.75538,0.32831 -14.4132,-0.60867 l 0.0456,-0.009 c -0.004,-0.0783 -0.034,-0.14196 -0.0747,-0.19865 0.34343,-0.121 0.6464,-0.25687 0.81862,-0.36695 -0.36385,0.0623 -0.72089,0.1224 -1.06288,0.17393 -0.0807,-0.0426 -0.16617,-0.0863 -0.25711,-0.12299 1.48663,-0.38906 3.9177,-0.21815 3.99597,-0.50072 -0.94004,0.0819 -1.09822,-0.24191 -1.11556,-0.64357 0.77642,-0.1272 1.56056,-0.28627 2.34704,-0.50242 1.08094,0.01 2.46253,0.0266 3.79745,-0.11977 0.82017,-0.0926 1.61911,-0.25447 2.32326,-0.5177 2.7815,-0.12062 5.55352,-0.0759 8.67656,0.0121 0.0121,-0.26785 -0.253,-0.41937 -0.52669,-0.56738 0.01,7.6e-4 0.022,-5.2e-4 0.0329,-7.8e-4 0.0535,0.0189 0.10862,0.0413 0.16365,0.0623 l 0.0727,0.0264 0.10109,0.003 c 0.13781,0.007 0.26284,0.007 0.37648,10e-4 0.24378,-0.0123 0.43553,-0.0495 0.57699,-0.0748 l 0.17898,-0.0337 0.0266,-0.0334 c 1.89674,-0.0827 3.54724,-0.2358 5.18388,-0.38114 0.20578,0.01 0.4189,0.0203 0.63768,0.0168 0.34733,-0.006 0.69941,-0.0478 1.01939,-0.15795 l 7.8e-4,-0.005 c 0.70674,-0.0563 1.4237,-0.10856 2.17547,-0.14664 l -0.003,0.0192 c -0.0229,0.0668 0.0994,0.12756 0.27263,0.1386 l 0.0426,-1.2e-4 c 0.15669,1.8e-4 0.29403,-0.044 0.31491,-0.10522 l 0.026,-0.081 c 0.0887,-0.003 0.17555,-0.008 0.26714,-0.0114 0.10469,0.12643 0.25108,0.24428 0.40013,0.36535 l 0.97952,-0.19544 c -0.0857,-0.0704 -0.16352,-0.13686 -0.22996,-0.20057 0.18325,-0.003 0.36521,-0.006 0.55298,-0.007 1.71499,-0.007 3.38845,0.1295 4.98493,0.2585 0.40659,0.0667 0.84293,0.10386 1.26858,0.0965 0.29476,0.0209 0.58464,0.0397 0.87034,0.0569 0.30814,0.097 0.60944,0.23826 0.79425,0.37926 -0.0729,0.17605 -0.22734,0.28729 -0.38899,0.40453 -0.10888,0.0807 -0.21347,0.16155 -0.29905,0.25188 -0.0805,0.0904 0.0455,0.19452 0.28311,0.23689 0.048,0.009 0.0924,0.0153 0.1397,0.0175 0.19236,0.011 0.37399,-0.0291 0.44043,-0.10151 0.0688,-0.0755 0.16003,-0.1386 0.25045,-0.20396 0.19635,-0.14334 0.41953,-0.30523 0.50273,-0.57306 l 0.0196,-0.051 -0.0564,-0.0466 c -0.0936,-0.0822 -0.23084,-0.17291 -0.39388,-0.26116 0.0654,-5.9e-4 0.13355,0.005 0.19865,0.007 0.0394,-0.002 0.78242,-0.28642 1.04366,-0.30965 0.58138,-0.0537 1.22514,-0.0313 1.88279,0.0244 0.0674,0.0327 0.11704,0.0747 0.17701,0.11181 l -0.37865,0.11467 c -0.2232,0.0698 -0.2305,0.2091 -0.0179,0.30829 0.10614,0.0509 0.24598,0.0832 0.38958,0.0934 0.14215,0.0102 0.28759,-0.002 0.40069,-0.0374 l 0.53546,-0.16329 c 0.0695,-3.1e-4 0.14023,0.006 0.20525,-0.003 0.0137,-10e-4 0.0217,-0.005 0.0337,-0.006 0.0678,0.008 0.14016,0.0241 0.20838,0.0284 0.18893,0.0136 0.36612,0.009 0.54562,0.009 -0.0733,-0.62736 -0.19055,-1.25741 -0.19415,-1.87844 -0.0274,-0.0144 -0.0425,-0.0185 -0.0739,-0.0298 z M 1132.415,500.46253 c -0.2478,0.11299 -0.5241,0.25153 -0.7628,0.35621 0.2503,0.0559 0.5907,0.13239 0.8476,0.18966 -0.027,-0.18249 -0.058,-0.36358 -0.085,-0.54584 z"
         style="fill:#ffffff;fill-opacity:1;fill-rule:nonzero;stroke:none" />
      <path
         sodipodi:nodetypes="csssc"
         inkscape:connector-curvature="0"
         id="path3347"
         d="m 212.84446,881.55521 c -25.55831,38.70093 -62.0078,118.51249 -66.85639,122.68849 -11.34668,9.7726 -42.13745,10.5721 -40.38507,5.7852 7.73455,-21.12811 18.65029,-53.48359 65.33922,-130.3764 2.621,-4.31657 41.90224,1.90271 41.90224,1.90271 z"
         style="fill:#ffffff;fill-rule:evenodd;stroke:#ffffff;stroke-width:1px;stroke-linecap:butt;stroke-linejoin:miter;stroke-opacity:1;fill-opacity:1" />
      <path
         sodipodi:nodetypes="ccsssc"
         inkscape:connector-curvature="0"
         id="path3351"
         d="m 728.23867,372.13752 c 5.23827,-2.19438 8.75787,-3.20437 8.75787,-3.20437 0,0 135.99644,-44.3913 137.24934,-40.28424 1.37435,4.50503 12.58507,12.43286 10.36295,10.75156 -4.364,-3.30189 -90.52954,30.1821 -97.03978,33.48597 -2.87502,1.45908 -59.33038,-0.74892 -59.33038,-0.74892 z"
         style="fill:#ffffff;fill-rule:evenodd;stroke:#ffffff;stroke-width:0.94241017px;stroke-linecap:butt;stroke-linejoin:miter;stroke-opacity:1;fill-opacity:1" />
      <path
         sodipodi:nodetypes="cccccccccccccccccccccccccccccccccccccccccccccccccccccccccccccccccccccccccccccccccccccccccccccccccccccccccccccccccccccccccccccccccccccccccccccccccccccccccccccccccccccccccccccccccccccccccccccccccccccccccccccccccccccccccccccccccccccccccccccccccccccccccccccccccccccccccccccccccccccccccccccccccccccccccccccccccccccccccccccccccccccccccccccccccccccccccccccccccccccccccccccccccccccccccccccccccccccccccccccccccccccccccc"
         inkscape:connector-curvature="0"
         style="fill:#ffffff;fill-opacity:1;fill-rule:nonzero;stroke:none"
         d="m 84.350336,1064.3133 c 0.933317,-3.7474 1.924668,-7.4669 2.968892,-11.1551 3.983722,-14.0412 8.813965,-27.6291 14.431432,-40.7241 1.39991,-3.265 2.83693,-6.5105 4.33402,-9.7145 0.13226,-0.595 0.47333,-1.3474 0.87201,-2.4793 0.20963,-0.08 0.27626,-0.1992 0.42361,-0.2196 7.19259,-15.03121 15.44512,-29.34929 24.62602,-42.89862 0.197,0.34111 0.40537,0.67297 0.61569,1.00068 -10.30108,16.08826 -19.35107,33.27451 -26.9691,51.47794 0.1025,0.3912 0.34608,0.6294 0.7079,0.7329 2.48489,-5.3592 5.32823,-7.7766 8.27232,-10.2174 0.53156,-1.27679 0.98937,-2.65499 1.20584,-3.56289 -0.0453,0.034 -0.0973,0.066 -0.14184,0.094 -0.16686,0.11 -0.332,0.2208 -0.49414,0.3516 -0.17047,0.1359 -0.25923,0.039 -0.21083,-0.2206 0.0539,-0.262 0.23278,-0.5803 0.40081,-0.7168 0.13293,-0.1077 0.26968,-0.1967 0.4062,-0.2896 l 0.20639,-0.311 c 1.48667,-1.17956 2.44301,-4.80758 2.35278,-2.60637 1.03584,-1.99657 2.35861,-4.21801 2.52028,-5.37211 0.87572,-0.44402 -0.32526,2.70197 1.05455,0.5739 0.70745,-2.22944 0.29666,-3.41101 0.58899,-3.54096 1.64793,-0.10818 0.83507,-1.96922 0.98612,-2.36403 0.33964,-0.90601 2.36998,-3.25216 2.03806,-4.70701 1.38968,-0.10148 2.80577,-2.98058 4.16052,-5.79744 1.34321,-2.81725 2.62109,-5.57091 3.48749,-5.44357 2.21314,-2.99434 -0.87342,0.24813 0.42477,-1.74816 1.41329,-1.9289 0.20815,0.2999 2.1507,-1.62996 -0.25568,-0.3745 -0.3237,-0.72768 -0.27662,-1.06829 0.51922,0.53705 1.08003,1.05965 1.67283,1.57226 -2.10217,3.18157 -3.56364,5.69477 -5.45046,8.57116 0.16395,-0.0499 0.33464,-0.12656 0.54682,-0.27422 0.1729,-0.11629 0.25967,-0.0266 0.1942,0.20715 -0.0279,0.10007 -0.0828,0.21144 -0.14946,0.31419 -0.0837,0.13345 -0.18811,0.25313 -0.28144,0.32157 -0.15576,0.10387 -0.28444,0.18174 -0.4084,0.23981 l -0.26713,0.33228 c -1.12205,2.20877 -0.72027,1.56364 -1.99117,3.31711 0.15527,-0.053 0.31441,-0.12663 0.5119,-0.27126 0.1689,-0.12027 0.25472,-0.027 0.19185,0.20456 -0.0266,0.10386 -0.0751,0.21606 -0.13732,0.31986 -0.0837,0.13331 -0.18146,0.25604 -0.27649,0.32184 -0.14943,0.10893 -0.28328,0.17927 -0.40599,0.24251 l -0.26016,0.34015 c -0.8154,2.47377 -2.14949,2.09933 -1.45245,3.05487 -2.31028,2.35346 -3.40537,6.14109 -5.60918,9.39617 l 0.13122,-0.0342 c 0.11094,-0.17188 0.21236,-0.34881 0.33491,-0.51958 0.27305,-0.38863 0.55205,-0.52298 0.62552,-0.30447 0.0559,0.17447 -0.0362,0.52192 -0.21486,0.85159 -0.0451,0.0825 -0.0975,0.16921 -0.15308,0.24695 -0.17468,0.2515 -0.33445,0.5151 -0.49873,0.78083 1.04816,-0.0181 -0.85383,2.07366 -1.27393,2.23099 l -0.004,-0.02 c -0.19462,0.24655 -0.39329,0.37406 -0.50111,0.29914 -0.14464,-0.10438 -0.0708,-0.53618 0.17468,-0.97556 l 0.12531,-0.23862 c -0.57816,0.8323 -1.03875,0.8794 -1.63362,1.87789 -0.42092,1.03067 -0.14022,1.41937 -0.62522,2.52117 -0.24692,-0.2809 -0.56009,-0.075 -0.91362,0.4816 0.0774,0.1143 0.11619,0.2364 0.13552,0.3652 0.20817,-0.1972 0.41751,-0.394 0.62732,-0.5972 0.18548,0.6131 0.0828,1.5064 -0.27929,2.67975 1.78883,-1.51425 2.98585,-5.92106 4.98468,-8.84836 1.70387,-2.53454 4.89728,-5.96425 5.3563,-5.74171 0.50588,0.24057 -0.0166,2.10061 -0.70026,4.36124 0.0395,-0.0183 0.0642,-0.0432 0.10304,-0.064 3.1983,-7.34766 8.22235,-15.35385 13.39602,-23.07432 0.93056,0.59468 1.92128,1.18793 3.00382,1.78216 4.67397,2.56543 13.01465,3.93064 18.75742,4.51165 l -0.009,0.001 c -1.60821,2.52803 -1.50006,2.34667 -2.1582,4.11434 -1.5661,2.25314 0.0968,-1.92273 -1.1819,0.13623 -0.18143,0.63672 1.0569,1.91368 -0.54573,2.43382 0.55433,-0.84971 -0.14194,-1.28376 -0.74358,-0.49909 0.71856,-0.19738 0.23663,2.00095 -0.35326,1.62563 -2.02631,1.17525 -4.38952,8.81841 -8.00905,12.34985 1.07879,0.94739 -0.92645,2.14203 -0.8975,3.94545 -0.79755,-1.2151 -3.43291,4.12571 -1.02146,1.1978 -0.96284,1.52971 -0.45025,2.46171 -0.62343,4.01161 -0.60973,-0.4385 2.24819,-3.52631 0.94424,-1.6644 3.03492,-0.1613 -0.95951,2.43 -1.3444,3.2531 -1.6098,0 -2.4912,3.0304 -6.07347,4.7828 0.74649,1.2238 -1.48249,3.3611 -0.80284,4.6689 -0.73773,0.9919 -1.35606,0.6246 -2.14971,2.3971 1.7468,-1.3501 -1.24523,5.9631 -0.81246,7.3769 -1.6075,0.8591 -1.17896,0.588 -2.74444,0.3734 -0.0564,1.6548 0.37157,2.23 1.55206,1.0724 -1.24856,1.9312 -2.7513,3.6662 -3.56331,5.9521 -0.70502,0.3331 -1.26829,0.3561 -1.46647,-0.5327 -1.68841,4.104 -2.17546,5.6712 -4.08695,9.3859 -1.00209,-0.9663 -2.30749,1.2079 -3.44014,3.6541 -0.40966,0.8776 -0.7946,1.7831 -1.14549,2.5908 -0.12618,0.727 -0.18588,1.4467 -0.22411,2.3206 -0.9173,-0.6219 -1.36494,4.7033 -1.59534,1.947 0.20034,-0.2033 0.31935,-0.9179 0.49255,-1.7616 -0.0518,0.037 -0.10369,0.066 -0.14998,0.063 -0.95468,1.3311 -1.37452,3.6307 -1.74986,5.8356 0.13058,-0.1459 0.28033,-0.2668 0.48958,-0.3147 -1.23442,3.2161 0.75727,-0.4262 0.10559,1.6765 -0.50084,0.4154 -0.70177,1.0333 -0.79492,1.7097 0.006,0.014 0.0199,0.017 0.0256,0.034 0.0395,0.1259 -0.005,0.3564 -0.0881,0.5461 -0.005,0.1078 -0.0133,0.2159 -0.0211,0.3215 0.15504,-0.1887 0.31299,-0.4048 0.49167,-0.3518 l -0.62678,2.2877 -0.0573,0.4411 c 0.007,0.036 0.0137,0.075 0.0231,0.113 0.0844,0.036 0.13253,0.1808 0.11227,0.4162 -0.008,0.1026 -0.0306,0.209 -0.0575,0.3119 -0.0701,0.2442 -0.18707,0.4644 -0.30981,0.5583 -0.13114,0.099 -0.23755,0.189 -0.33859,0.2786 l -0.0748,0.1769 c -0.44793,2.9212 -0.43636,2.45 -1.04265,2.8772 -0.11113,0.3064 -0.22381,0.5966 -0.3379,0.8769 -0.31937,1.2861 -0.56853,3.1331 -1.04409,2.9018 l 8.3e-4,0.013 c 0.002,0.013 0.003,0.028 0.001,0.044 l 0.0196,0.4405 c 0.004,0.093 -0.007,0.2056 -0.0351,0.3107 -0.0336,0.1318 -0.0901,0.2591 -0.15583,0.3386 -0.1176,0.1486 -0.22057,0.096 -0.23394,-0.12 l -0.014,-0.321 -0.0661,-0.019 c 0.17246,2.2995 -1.37264,6.7389 -1.79129,6.0392 0.64506,-0.327 0.56628,-1.031 0.46786,-1.7631 -0.26846,1.0514 -0.60375,1.5765 -0.99316,1.7902 l 0.43394,-1.9958 c -0.13215,0.1214 -0.27049,0.2637 -0.42544,0.4523 -0.13904,0.1719 -0.26459,0.089 -0.27975,-0.1872 -0.0156,-0.2744 0.0839,-0.6376 0.22467,-0.8063 0.11696,-0.1441 0.22776,-0.2641 0.33431,-0.3783 l 0.0991,-0.2574 c -0.6578,-1.5335 -1.74,-2.4964 -0.58371,-6.7032 -0.10963,-0.2969 -0.19439,-0.6267 -0.26984,-0.9711 -0.32945,0.333 -0.66392,0.6395 -1.04151,0.5042 l -0.10456,0.046 c -0.0917,0.2366 -0.18985,0.4662 -0.31509,0.6944 -0.17628,0.3164 -0.3705,0.363 -0.43727,0.1006 -0.0425,-0.1712 -0.0183,-0.4311 0.0536,-0.6795 -1.36509,3.6719 -1.13646,5.6173 -2.58785,9.6949 l 0.0871,0.124 c 0,0 10e-4,-0.017 0.0141,-0.025 0.17562,-0.468 0.4307,-0.6697 0.57198,-0.4539 0.10608,0.1701 0.11322,0.5452 0.0268,0.9249 -0.0242,0.1044 -0.0574,0.2087 -0.092,0.3076 -0.10088,0.2624 -0.19886,0.5905 -0.29747,0.9512 0.10085,0.2668 0.088,0.717 0.32854,0.7707 0.59933,-1.3841 -0.2765,-2.8002 0.71322,-3.107 -0.11824,2.4926 -0.7773,4.301 -1.63831,6.0554 0.11674,-0.071 0.23504,-0.1401 0.35529,-0.223 0.19985,-0.1341 0.33591,0.1203 0.30788,0.5661 -5.5e-4,0.1054 -0.0184,0.211 -0.0401,0.313 -0.0716,0.3344 -0.2143,0.6359 -0.36728,0.7386 -0.10024,0.066 -0.1932,0.1233 -0.28824,0.1797 l -0.053,0.1484 c -0.32444,0.8912 -0.43299,3.0221 -0.78505,3.6713 0.0707,0.1312 0.0777,0.3838 0.0277,0.647 -0.0145,0.076 -0.0335,0.1562 -0.0552,0.2301 -0.0805,0.237 -0.1923,0.3745 -0.28814,0.3957 -0.65168,1.2922 -0.82046,5.1023 -1.69148,5.0718 -0.0373,0.3172 -0.0682,0.6366 -0.0955,0.9353 -0.0126,0.092 -0.0193,0.1842 -0.0354,0.2711 -0.0963,0.5545 -0.31671,1.0325 -0.55051,1.1229 -0.27043,0.1075 -0.44939,-0.3505 -0.39392,-1.0154 0.0185,-0.1914 0.0374,-0.4087 0.0582,-0.6297 l -0.0397,-0.044 c -0.13611,1.2605 -0.48739,1.3177 -0.67732,2.26 l 0.44021,0.072 c 0.0941,0.016 0.13845,0.234 0.0941,0.4843 -0.0399,0.253 -0.14923,0.446 -0.24287,0.4281 l -0.45012,-0.073 c -0.70047,2.364 0.18133,1.947 0.11577,3.1963 -0.59362,-0.5345 -0.64387,1.4496 -1.12298,1.4552 0.61689,-1.9786 -0.85858,-2.9733 0.3057,-4.0138 -0.0343,1.2172 0.28392,0.1521 0.41143,-0.6865 l -0.44281,-0.07 c -0.0926,-0.013 -0.13923,-0.2315 -0.0967,-0.4846 0.0424,-0.253 0.15367,-0.4435 0.24778,-0.4277 l 0.46976,0.076 c 0.77746,-0.9055 -0.0668,-2.3225 0.71344,-2.9804 l -0.0885,-0.016 c -0.0976,-0.021 -0.14085,-0.2483 -0.0948,-0.5165 0.0246,-0.1319 0.0676,-0.2521 0.11598,-0.336 l -0.0125,-0.053 c 0.73532,-4.6741 2.37642,-10.4799 3.43625,-12.953 -0.038,-0.028 -0.0738,-0.057 -0.117,-0.081 -0.10903,-0.068 -0.12752,-0.3735 -0.0398,-0.6973 0.0461,-0.1684 0.11248,-0.3009 0.18312,-0.3818 1.14012,-2.2835 0.2598,-1.4022 0.20253,-2.3342 1.17686,-1.4312 2.69976,-8.5529 2.11665,-8.5699 1.58752,-2.6512 1.26599,-3.51 3.00858,-8.6706 0.11263,-1.8208 0.26186,-3.6663 0.30954,-5.3441 0.0302,-1.0459 -0.69145,-0.6497 -0.69115,-1.8986 -0.005,-3.4394 1.51381,-8.3512 1.71961,-11.4473 0.0326,-0.4817 -0.57509,0.4588 -0.54027,0.6817 -0.30868,-1.9385 1.13535,-8.165 -0.93096,-7.3163 l -0.42553,1.1946 c -0.0932,0.2614 -0.24432,0.4523 -0.33917,0.42 -0.0965,-0.035 -0.0971,-0.2773 0.001,-0.5412 l 0.38222,-1.0877 c -1.27778,1.386 -1.89559,4.3141 -3.31765,7.4292 -0.57399,1.8303 -1.11713,3.3687 -1.19407,2.4416 -0.0136,0.127 -0.0284,0.2567 -0.0554,0.4064 -0.0123,0.062 -0.0273,0.122 -0.0478,0.1834 -0.0638,0.1875 -0.16471,0.3575 -0.25669,0.4099 -0.1219,0.069 -0.18266,-0.083 -0.13669,-0.3406 0.0129,-0.07 0.0149,-0.126 0.0212,-0.19 l -0.0828,-0.03 c -1.44087,-0.8182 -0.78478,1.2475 -0.78156,2.3459 -0.29436,-1.2925 -1.73469,1.6786 -1.13815,-0.3703 0.41726,-0.079 0.80611,-1.4678 0.52161,-1.5738 -0.35294,0.8749 -0.43213,0.341 -0.28252,-0.096 0.81792,-0.2222 0.99467,-1.5771 1.47963,-2.8349 -1.35193,-2.1248 -0.0661,-9.4585 1.99657,-15.3062 -0.4745,-0.5642 -0.7873,-0.7067 -1.13528,-1.641 -0.21068,0.681 -0.38192,1.2771 -0.82963,1.6656 l -0.11872,0.077 c -0.0133,0.031 -0.0166,0.061 -0.0229,0.093 -0.0179,0.067 -0.0441,0.1328 -0.0683,0.1971 -0.10338,0.2663 -0.25883,0.4882 -0.38583,0.5415 -0.16127,0.057 -0.21711,-0.1672 -0.12716,-0.5136 0.0358,-0.1427 0.0968,-0.3617 0.15578,-0.5993 -0.12089,0.1429 -0.36936,0.5366 -0.63947,1.0285 -0.32938,0.8922 -0.65157,1.7881 -0.97198,2.6826 0.0171,0.085 0.0459,0.1578 0.1004,0.1992 0.46551,-1.4093 2.81237,-3.7499 1.46506,-2.143 l -0.60834,1.5714 0.0619,0.1302 c 0.15772,-0.072 0.29469,-0.086 0.39101,-0.017 0.0758,0.053 0.0638,0.2773 -0.0263,0.5049 l -0.0173,0.041 c -0.0982,0.2442 -0.24669,0.3927 -0.32463,0.3389 -0.0771,-0.056 -0.23983,10e-5 -0.43164,0.1237 -0.0851,0.6415 -0.20373,1.2067 -0.54969,1.2397 l -0.10584,0.2894 c 0.0124,0.044 0.0245,0.086 0.034,0.1311 0.0347,0.146 -0.0384,0.4283 -0.16043,0.6363 -0.12104,0.2038 -0.25175,0.2509 -0.28651,0.1052 -0.022,-0.098 -0.0517,-0.177 -0.0819,-0.2628 -0.15064,1.1476 -0.95046,5.0669 -0.85156,3.0519 0.29107,-1.1765 0.49737,-2.406 0.1894,-2.5385 -0.57288,1.6514 -1.14306,3.3047 -1.68789,4.9652 -1.395268,2.4528 -1.274808,-0.5167 -2.805776,0.8852 -0.858739,3.2044 -1.776742,3.8253 -2.57179,7.2781 -0.440836,-0.3462 -0.235131,-1.6108 0.422928,-3.4587 -0.637563,0.5664 -1.253318,1.8805 -1.813325,3.9428 -0.138463,-0.9423 -0.835561,-1.0946 -0.407438,-2.8207 -0.03435,0.071 -0.06339,0.1458 -0.101633,0.2151 -2.505202,8.2909 -4.656213,16.6118 -6.492963,24.952 -1.124246,-1.1361 -2.119852,-2.1029 -3.040491,-2.9682 z m 27.207284,39.5815 c 0.19592,-0.1014 0.30099,-0.024 0.3644,0.1397 0.0243,-0.066 0.0516,-0.1333 0.0785,-0.2014 -0.0584,-0.2104 -0.1182,-0.4061 -0.16705,-0.5507 -0.0784,-0.2285 -0.0478,-0.6309 0.0761,-0.9017 0.10833,-0.2395 0.24708,-0.281 0.33039,-0.1327 l 0.0733,-0.1992 c 0.14679,-2.6886 1.03978,-3.1501 0.70123,-4.5972 l 0.0176,-0.4432 c -0.048,-0.1118 -0.0956,-0.2272 -0.14346,-0.3534 -0.058,-0.1592 -0.0294,-0.4499 0.0598,-0.6569 0.0943,-0.2055 0.21561,-0.2451 0.27305,-0.086 0.0537,0.1434 0.10339,0.2721 0.15403,0.391 0.0267,-0.043 0.051,-0.095 0.079,-0.1246 0.0638,-1.2312 0.26078,-2.2162 0.49209,-3.0598 -0.0465,-0.1558 -0.029,-0.4078 0.0478,-0.6154 0.059,-0.1585 0.1366,-0.2355 0.2041,-0.2267 0.44724,-1.4394 0.85097,-2.5159 0.43536,-3.9816 l 0.88384,0.172 0.44255,-2.2784 0.004,-0.1063 c -0.0135,8e-4 -0.0217,0.024 -0.0363,0.03 -0.12979,0.083 -0.23489,-0.029 -0.26577,-0.2584 -0.37008,1.0806 -1.1944,1.1542 -1.18357,0.211 0.63864,0.3567 0.72382,-2.1724 1.29924,-2.1526 0.0529,0.3881 0.0633,0.7324 0.045,1.0402 0.0583,-0.1167 0.12226,-0.2136 0.19338,-0.2571 0.0242,-0.014 0.0475,-0.039 0.0702,-0.058 -0.35933,-0.3849 0.16493,-2.7829 0.0493,-0.7767 1.05086,-4.8703 0.72697,-4.0305 2.20141,-8.6197 -0.0651,0.047 -0.12819,0.091 -0.19936,0.1451 -0.1555,0.1238 -0.26792,-0.043 -0.25204,-0.3693 0.0151,-0.332 0.15464,-0.6909 0.31197,-0.8137 0.0435,-0.033 0.0941,-0.067 0.14,-0.1067 l 0.0134,-0.057 c 0.90866,-3.2086 0.79312,-4.5181 1.6672,-6.6073 -0.0293,-0.034 -0.064,-0.055 -0.10604,-0.056 -0.11062,0 -0.15159,-0.2355 -0.0874,-0.5114 0.0371,-0.1542 0.0995,-0.2839 0.1652,-0.3729 l -0.006,-0.031 c 0.78657,-4.0652 0.65931,-0.018 1.48163,-1.9982 -0.20444,-0.3988 -1.05767,-2.0298 0.12903,-1.569 l 0.0229,-0.2692 -0.0579,0.012 c -0.12739,0.028 -0.18537,-0.1885 -0.12427,-0.4812 0.06,-0.2954 0.20859,-0.5487 0.33541,-0.5717 l 0.11019,-0.026 c 0.02,-0.013 0.0453,-0.017 0.0675,-0.02 l 0.0724,-0.1373 c 0.64636,-2.0716 -0.075,-2.3482 -0.77968,-2.6533 0.85261,-1.7773 2.00452,-1.9474 1.41517,-3.6204 0.76317,-1.107 1.53622,-2.3138 2.36156,-2.4993 0.0984,-1.1531 0.706,-2.9136 -0.41442,-2.5754 1.09705,-2.0377 1.36666,0.2084 1.27122,-2.8368 0.43932,-0.6141 0.89746,-0.9364 1.3526,-1.1714 -1.43381,0.6404 0.49106,-4.649 2.35276,-7.3553 -0.0396,-1.0068 -0.33134,-0.4475 -0.8384,-0.3157 0.36359,-0.5998 0.73841,-1.1982 1.10784,-1.2327 -0.57869,-0.7405 0.0918,-0.3864 0.28435,-2.3767 0.56864,-0.725 0.59432,0.7473 1.70247,-2.6509 -0.27329,-0.084 -0.58221,0.7794 -0.85721,1.3214 0.51183,-1.0022 0.94103,-2.1379 1.36068,-3.3183 0.48226,-0.2306 1.03168,-0.605 1.57498,-0.9355 0.22936,-0.3616 0.4906,-0.7194 0.75898,-1.0787 l -0.24259,0.075 c -0.29424,-0.7514 0.71626,-2.1991 -0.52292,-1.0599 0.39578,-0.8204 0.81806,-2.0346 1.19183,-2.0099 l 0.033,0.073 c 0.3231,-1.5044 1.36944,-2.9283 2.10673,-3.9087 l 0.36842,-0.4979 0.2046,-0.2787 0.12761,0.067 c 0.19632,0.1017 0.31468,0.4302 0.31814,0.9068 l -1.00922,-0.7567 c 0.002,0.4776 0.89887,1.8648 0.63257,2.5742 l -0.0785,0.2016 -0.1156,0.1547 -0.43305,0.586 c -0.19389,0.2631 -0.39962,0.534 -0.60171,0.8022 l 0.12347,-0.032 c 0.054,1.651 -0.2037,1.259 -0.91111,3.5747 0.42146,0.1367 0.73764,0.5992 0.86377,1.6131 -0.70861,2.4458 -0.26398,3.623 -1.1418,6.3169 -0.16065,7.7324 -2.37066,16.6599 -4.04884,22.964 l -0.009,0.026 c -0.14183,0.5018 -0.41631,0.8728 -0.61828,0.831 -0.21146,-0.043 -0.26443,-0.4938 -0.12306,-1.01 1.59708,-6.0066 3.68854,-14.496 3.81235,-21.7759 l -0.0285,0.065 c -0.11613,-0.031 -0.20139,-0.097 -0.27291,-0.1768 -0.29369,0.4744 -0.5964,0.8833 -0.8176,1.1052 0.21255,-0.5243 0.41951,-1.0391 0.60868,-1.5342 -0.0371,-0.135 -0.0747,-0.2772 -0.0989,-0.4254 -1.06961,2.0979 -1.61046,5.7932 -2.05913,5.8178 0.43067,-1.3804 -0.002,-1.7232 -0.59783,-1.8809 -0.44486,1.1206 -0.93998,2.2424 -1.52131,3.3488 -0.3396,1.6214 -0.76716,3.6952 -1.42378,5.6457 -0.40736,1.1974 -0.9116,2.3404 -1.53636,3.3082 -1.09218,4.1243 -1.9337,8.2887 -2.82544,12.9927 -0.40498,-0.07 -0.54488,-0.5161 -0.67675,-0.9744 -0.001,0.015 -0.009,0.032 -0.0128,0.05 0.0117,0.087 0.0257,0.1762 0.0395,0.2654 l 0.015,0.1176 -0.0284,0.1524 c -0.0337,0.2086 -0.0754,0.3957 -0.12153,0.5639 -0.0982,0.3609 -0.21687,0.6358 -0.30101,0.8392 l -0.10892,0.2569 -0.0583,0.029 c -0.7454,2.8124 -1.51553,5.233 -2.26943,7.6354 -0.0518,0.3114 -0.10756,0.6336 -0.1838,0.9601 -0.12304,0.5179 -0.30075,1.0313 -0.57053,1.4742 l -0.006,8e-4 c -0.3158,1.0397 -0.62908,2.0958 -0.93244,3.2087 l 0.0303,0.01 c 0.10696,-0.016 0.15847,0.1906 0.11766,0.4536 l -0.0139,0.064 c -0.051,0.2345 -0.16237,0.4256 -0.2607,0.4369 l -0.13045,0.01 c -0.0336,0.1316 -0.0699,0.26 -0.10442,0.3961 0.155,0.1982 0.28337,0.456 0.41581,0.7187 l -0.61359,1.4024 c -0.0767,-0.1517 -0.15128,-0.2897 -0.22489,-0.4101 -0.0642,0.2736 -0.12878,0.5447 -0.19101,0.8257 -0.57179,2.5652 -0.91659,5.115 -1.24666,7.5472 -0.0334,0.6305 -0.12076,1.2958 -0.27138,1.9307 -0.0639,0.4483 -0.13218,0.8881 -0.19946,1.3216 0.0443,0.493 0.15698,0.9903 0.30758,1.3132 0.28751,-0.051 0.50455,-0.2463 0.7331,-0.4497 0.15653,-0.1365 0.31179,-0.2666 0.47506,-0.3651 0.16179,-0.091 0.2763,0.1319 0.26189,0.5015 -0.002,0.075 -0.008,0.1432 -0.0199,0.2147 -0.0471,0.2916 -0.16617,0.5504 -0.29631,0.6261 -0.13563,0.079 -0.25994,0.1941 -0.38742,0.308 -0.27891,0.247 -0.5944,0.5281 -1.0226,0.5648 l -0.0829,0.014 -0.0514,-0.1 c -0.0923,-0.167 -0.18277,-0.4024 -0.26185,-0.6752 -0.0219,0.097 -0.0362,0.2015 -0.0542,0.2997 -0.0164,0.058 -0.68522,1.0774 -0.80559,1.4608 -0.27085,0.8527 -0.44841,1.8238 -0.58056,2.8266 0.0274,0.1117 0.0727,0.2 0.10924,0.3016 l 0.29576,-0.5292 c 0.17761,-0.3112 0.38855,-0.2766 0.46742,0.073 0.0411,0.1757 0.0448,0.3955 0.0121,0.6139 -0.0314,0.2161 -0.0977,0.4297 -0.18737,0.5876 l -0.41996,0.748 c -0.0232,0.1043 -0.038,0.2119 -0.072,0.3063 -0.005,0.02 -0.0147,0.031 -0.0202,0.048 -0.011,0.1041 -0.01,0.2177 -0.026,0.3212 -0.0411,0.2873 -0.1064,0.551 -0.16579,0.8196 -0.91514,-0.3153 -1.81991,-0.6973 -2.74841,-0.9063 -0.0125,-0.045 -0.014,-0.069 -0.0211,-0.1201 z m 178.12283,352.9446 c 0.25035,-0.334 0.54822,-0.7023 0.78321,-1.0253 0.002,0.3932 0.004,0.9274 0.005,1.3308 -0.26439,-0.1003 -0.52543,-0.2055 -0.7893,-0.3057 z"
         id="path4994" />
      <path
         sodipodi:nodetypes="ccccccccccccccccccccccccccccccccccccccccccccccccccccccccccccccccccccccccccccccccccccccccccccccccccccccccccccccccccccccccccccccccccccccccccccccccccccccccccccccccccccccccccccccccccccccccccccccccccccccccccccccccccccccccccccccccccccccccccccccccccccccccccccccccccccccccccccccccccccccccccccccccccccccccccccccccccccccccccccccccccccccccccccccccccccccccccccccccccccccccccccccccccccccccccccccccccccccccccccccccccccccccac"
         id="path4996"
         d="m 488.38268,882.38516 c 3.35626,-3.91672 6.64713,-7.88491 9.87198,-11.89552 12.27197,-15.27876 23.53893,-31.27335 33.79625,-47.8808 2.55783,-4.13972 5.07203,-8.31123 7.50533,-12.52683 0.54278,-0.6021 1.26336,-1.50976 2.20422,-2.83754 -0.0468,-0.31873 -0.10558,-0.55853 -0.17622,-0.7562 11.30896,-19.98595 21.20649,-40.76078 29.71627,-62.12036 -0.4816,0.008 -0.96053,-0.008 -1.43635,-0.0262 -10.47912,24.618 -22.8936,48.49363 -37.27152,71.34316 -0.4751,0.16057 -0.87766,0.0349 -1.21241,-0.33782 4.08175,-7.02724 4.84746,-12.33241 5.57478,-17.77964 1.0102,-1.59921 2.17301,-3.18168 2.99223,-4.11868 -0.008,0.0814 -0.009,0.16911 -0.0104,0.2449 -0.0115,0.28789 -0.0249,0.57418 -0.0611,0.87154 -0.0363,0.31132 0.1215,0.3497 0.36346,0.0989 0.24173,-0.25992 0.46472,-0.71592 0.50332,-1.02481 0.0302,-0.24411 0.0383,-0.47916 0.0508,-0.71684 l 0.19801,-0.48486 c 0.3116,-2.71168 3.52806,-6.56904 1.2706,-4.83614 1.4519,-2.75444 2.96102,-6.03022 4.0732,-7.08054 -0.08,-1.41261 -2.6371,2.39301 -1.26174,-0.88468 1.90175,-2.51883 3.40029,-2.87971 3.35433,-3.33782 -0.91526,-2.12259 1.54855,-2.48541 1.86924,-2.96341 0.74029,-1.08826 1.93867,-5.33304 3.67522,-5.99295 -0.76116,-1.79748 1.38107,-5.67326 3.49612,-9.42712 2.12262,-3.73989 4.21922,-7.35192 3.54438,-8.33225 1.76559,-4.94869 0.28457,1.26552 1.57237,-1.81397 1.14506,-3.17254 -0.44522,-0.0371 0.3704,-3.86653 0.5533,0.0413 0.96704,-0.13454 1.29566,-0.4438 -0.88872,-0.24816 -1.78823,-0.55856 -2.69724,-0.91597 -2.03171,4.94906 -3.76092,8.61161 -5.60627,13.06891 -0.0501,-0.23993 -0.0758,-0.50809 -0.0533,-0.87981 0.0148,-0.30001 -0.1345,-0.34129 -0.33901,-0.0881 -0.0879,0.10843 -0.17051,0.25847 -0.23694,0.41667 -0.0881,0.20202 -0.1486,0.41959 -0.16228,0.58572 -0.0115,0.26951 -0.0133,0.48643 0.002,0.68285 l -0.18248,0.57588 c -1.62114,3.01761 -1.19391,2.04441 -2.24348,4.91122 -0.0411,-0.23154 -0.0632,-0.483 -0.0344,-0.83434 0.021,-0.29797 -0.13081,-0.33555 -0.33485,-0.0872 -0.0925,0.10945 -0.18021,0.25219 -0.25045,0.40578 -0.0878,0.2018 -0.15583,0.41354 -0.16565,0.57977 -0.0211,0.26547 -0.0115,0.48319 -0.001,0.68194 l -0.19511,0.573 c -2.09115,2.83255 -0.86453,4.21068 -2.30421,4.05025 -1.0313,4.59722 -4.32888,8.74407 -6.37438,13.87325 l -0.0462,-0.18777 c 0.11139,-0.26412 0.23405,-0.52016 0.33705,-0.79785 0.23798,-0.62466 0.20502,-1.06949 -0.0705,-0.99966 -0.21827,0.0592 -0.52605,0.42917 -0.76101,0.89348 -0.0583,0.11672 -0.11702,0.24544 -0.16399,0.37164 -0.1553,0.40179 -0.3326,0.79398 -0.50935,1.1933 -0.63551,-1.3127 -1.64661,2.58559 -1.54966,3.22225 l 0.0234,-0.0104 c -0.13761,0.4228 -0.14767,0.76301 -0.001,0.84147 0.2,0.10237 0.60788,-0.30682 0.91637,-0.93496 l 0.17257,-0.33105 c -0.51386,1.32964 -0.27577,1.93531 -0.95388,3.40809 -0.82061,1.28084 -1.40443,1.21909 -2.25975,2.63169 0.44954,0.0994 0.42938,0.63861 0.0643,1.48731 -0.16851,-0.0121 -0.32105,0.0301 -0.4685,0.10092 0.0772,-0.40321 0.15337,-0.80768 0.23611,-1.21749 -0.76029,0.22156 -1.63531,1.00685 -2.64261,2.31972 0.47481,-3.33276 4.35968,-8.062 6.18855,-12.69565 1.60028,-3.97879 3.21144,-10.46336 2.69088,-10.86854 -0.5688,-0.44995 -2.19772,1.56755 -4.14711,4.07982 -0.007,-0.0624 0.007,-0.11127 0.002,-0.17478 5.72649,-9.37595 11.00515,-21.50017 15.89004,-33.59947 -1.20617,-0.71573 -2.4484,-1.507 -3.749,-2.41143 -5.61522,-3.90506 -12.2584,-13.23965 -16.45506,-19.93107 l 0.003,0.0121 c -1.65318,3.85538 -1.53005,3.58774 -2.97719,5.7054 -1.39051,3.60076 1.96063,-1.536 0.59482,1.56549 -0.55599,0.69382 -2.67153,0.0989 -2.21755,2.4689 0.54705,-1.31298 1.43805,-0.76946 0.98895,0.55428 -0.24118,-1.0362 -2.25114,1.18008 -1.48823,1.63505 0.03,3.37752 -6.52867,11.93577 -7.9807,19.02357 -1.66947,-0.6397 -1.67306,2.72591 -3.5868,4.01808 1.77531,0.0939 -2.19326,7.29412 -0.62132,2.14844 -1.00667,2.3201 -1.34838,4.41018 -2.86935,5.7662 0.84158,0.43301 1.9103,-1.14559 0.76743,1.842 -0.44511,-0.11299 -0.80681,-0.79439 -1.43167,0.28888 1.00878,1.99321 -4.10934,5.20951 -3.3607,8.05263 -1.75253,-0.0242 -2.19575,4.80785 -3.9948,4.92833 -0.58202,1.6451 0.1901,2.14117 -1.17736,4.43029 0.32825,-3.15966 -1.27762,2.46654 -3.03399,2.97118 0.10071,2.62553 -4.09498,5.36312 -2.89218,7.14599 -1.7042,1.28857 -1.37539,1.56689 -0.89561,-0.749 -1.2503,2.96997 -3.33658,5.72528 -5.23243,8.41535 0.0903,1.11923 0.41768,1.8345 1.47583,1.42559 -3.25989,5.1155 -4.60303,6.87338 -7.31429,11.97871 1.6415,0.53062 0.17114,3.75017 -1.69289,6.95562 -0.6667,1.15416 -1.37808,2.29819 -2.00809,3.32811 -0.68531,0.69174 -1.40462,1.29569 -2.29939,1.98672 1.22653,0.67917 -4.09166,5.15568 -1.05051,3.41153 0.0887,-0.39803 0.76552,-1.0718 1.54422,-1.90784 -0.008,0.0925 -0.003,0.17713 0.0267,0.23262 -0.80305,2.16383 -2.95816,4.37774 -5.04138,6.46674 0.0718,-0.26927 0.10535,-0.54393 0.025,-0.83868 -2.60992,3.89873 -0.0248,-1.25275 -1.82827,1.10391 -0.12382,0.9266 -0.64791,1.63091 -1.30082,2.24445 -0.0173,0 -0.0304,-0.0176 -0.0515,0 -0.15693,0.0437 -0.37174,0.26805 -0.51893,0.51131 -0.11013,0.0855 -0.2187,0.17554 -0.32486,0.2628 0.10175,-0.33123 0.23007,-0.68598 0.0627,-0.86851 l -2.01338,2.46171 -0.42781,0.39595 c -0.0416,0.0174 -0.0887,0.0383 -0.13346,0.054 -0.0916,-0.0768 -0.27282,-0.0314 -0.50752,0.16753 -0.10268,0.0855 -0.20055,0.19177 -0.29207,0.30083 -0.21286,0.26681 -0.37128,0.57395 -0.39334,0.79522 -0.0218,0.23523 -0.0503,0.43363 -0.0814,0.62489 l -0.13937,0.22319 c -2.79094,2.70636 -2.30298,2.34514 -2.37331,3.41135 -0.25275,0.36332 -0.48747,0.71687 -0.71073,1.06465 -1.15247,1.34296 -2.9384,3.01192 -2.39843,3.43124 l -0.0133,0.0176 c -0.015,0 -0.0316,0.0176 -0.0474,0.0313 l -0.47526,0.30017 c -0.10113,0.0646 -0.21199,0.16054 -0.3047,0.27238 -0.11754,0.13787 -0.21596,0.30242 -0.2587,0.44255 -0.0827,0.25512 0.0375,0.34377 0.27232,0.20154 l 0.34618,-0.21916 0.0608,0.068 c -2.52497,1.47959 -6.22663,6.66426 -5.22963,6.66793 -0.0591,-1.04039 0.73017,-1.4613 1.56116,-1.87836 -0.93762,1.10705 -1.28017,1.90942 -1.26169,2.54967 l 1.82702,-2.00784 c -0.0452,0.25321 -0.10831,0.52962 -0.20985,0.86049 -0.0938,0.29908 0.0721,0.3935 0.37148,0.20905 0.2979,-0.18307 0.61789,-0.5736 0.70734,-0.87235 0.0782,-0.25111 0.13523,-0.47673 0.18871,-0.69294 l 0.20876,-0.31237 c 2.0228,-0.31394 3.71062,0.31865 7.41066,-4.21285 0.38058,-0.082 0.7802,-0.22055 1.18922,-0.38059 -0.14441,0.65369 -0.25758,1.29393 0.1205,1.66249 l 0.0169,0.16402 c -0.19138,0.28795 -0.37137,0.57866 -0.53323,0.90202 -0.22245,0.45161 -0.15016,0.72663 0.16767,0.616 0.20649,-0.0732 0.4646,-0.29491 0.68089,-0.5668 -3.00737,4.39626 -5.19512,5.54554 -8.57499,10.34768 l -0.18485,-0.0176 c 0,0 0.0179,-0.0174 0.0164,-0.0349 0.38227,-0.56224 0.43503,-1.02712 0.11997,-1.04336 -0.24495,0 -0.64393,0.26123 -0.989,0.64794 -0.094,0.10648 -0.18359,0.22492 -0.26581,0.34046 -0.21289,0.31847 -0.49655,0.68142 -0.81407,1.06935 -0.34348,0.0716 -0.80855,0.4195 -1.01537,0.16054 1.08069,-1.76213 3.11604,-1.71937 2.82053,-3.17212 -2.54628,1.98219 -4.03558,4.13084 -5.34214,6.49029 10e-4,-0.19684 4.6e-4,-0.39456 0.0115,-0.60465 0.016,-0.34639 -0.33624,-0.3279 -0.78731,0.0349 -0.11025,0.0785 -0.2103,0.178 -0.30385,0.28026 -0.30682,0.33523 -0.53469,0.73395 -0.54712,0.99937 -0.008,0.17277 -0.009,0.33016 -0.009,0.48966 l -0.12292,0.17502 c -0.73423,1.05854 -2.90634,2.76222 -3.36889,3.67678 -0.18193,0.0176 -0.45191,0.18637 -0.69735,0.44218 -0.0709,0.0733 -0.14323,0.15706 -0.20743,0.23804 -0.19891,0.27432 -0.27349,0.51408 -0.23599,0.64863 -0.95145,1.7595 -4.85103,4.77457 -4.27506,5.83187 -0.31018,0.27991 -0.62672,0.55335 -0.92357,0.80709 -0.0882,0.0838 -0.18154,0.15879 -0.26286,0.24342 -0.52282,0.52788 -0.8875,1.15295 -0.83661,1.50946 0.0558,0.41461 0.64912,0.29891 1.31327,-0.25949 0.18963,-0.16403 0.40616,-0.34744 0.62554,-0.53574 l 0.0715,0.0176 c -1.23997,1.09692 -1.0808,1.57471 -1.9527,2.50394 l -0.35081,-0.49245 c -0.0751,-0.10468 -0.33248,6.8e-4 -0.56794,0.24012 -0.24102,0.23557 -0.37563,0.51338 -0.2983,0.61615 l 0.35757,0.50451 c -2.04752,2.60916 -2.15979,1.20911 -3.43218,2.21024 0.93248,0.34238 -1.1217,1.86579 -0.8284,2.46381 1.69469,-2.22195 3.66154,-1.12519 4.02833,-3.33475 -1.25819,0.93883 -0.33718,-0.24011 0.46469,-1.01561 l 0.35006,0.49733 c 0.0712,0.10466 0.33027,0 0.56975,-0.23696 0.23952,-0.2389 0.37027,-0.51723 0.29487,-0.62212 l -0.37371,-0.52613 c 0.46635,-1.63054 2.48307,-1.62756 2.68734,-3.07927 l 0.0712,0.0977 c 0.0824,0.10649 0.34899,0 0.60225,-0.26316 0.1233,-0.12745 0.22276,-0.26943 0.28072,-0.39122 l 0.0628,-0.0245 c 4.45411,-4.35369 9.53198,-10.66354 11.46997,-13.79883 0.0532,0.0261 0.10592,0.0489 0.1582,0.0855 0.1391,0.0855 0.47226,-0.11687 0.75777,-0.46416 0.14817,-0.18114 0.24613,-0.36106 0.28697,-0.50817 1.68852,-3.09514 1.31179,-1.35465 2.32723,-1.97013 0.76957,-2.51284 7.30461,-9.64548 7.6867,-8.93507 1.79546,-3.92038 2.89909,-4.15438 7.23553,-10.11489 1.84358,-1.48048 3.69027,-3.02465 5.42424,-4.3193 1.08056,-0.8076 0.68286,2.9696 1.99551,2.04946 3.61865,-2.5261 8.26487,-10.61738 11.39094,-13.15273 0.48593,-0.39488 -0.12329,1.05087 -0.37916,1.1718 2.23041,-1.04477 7.87374,-7.4204 8.27189,-4.23362 l -0.98994,1.40718 c -0.21662,0.30802 -0.32297,0.63606 -0.22976,0.72978 0.0962,0.0942 0.35211,-0.0838 0.56808,-0.39978 l 0.9048,-1.27492 c -0.6591,2.60481 -3.35108,5.52684 -5.73761,9.58386 -1.56554,2.0595 -2.84359,3.86578 -1.82091,3.27839 -0.12508,0.10991 -0.25208,0.22424 -0.39261,0.36785 -0.0563,0.0594 -0.11127,0.12397 -0.16299,0.1944 -0.15712,0.21726 -0.27293,0.4675 -0.27055,0.6202 0.002,0.20225 0.20179,0.16576 0.44333,-0.082 0.0653,-0.068 0.12317,-0.11174 0.18654,-0.16579 l 0.0825,0.0804 c 1.75961,1.18383 -0.82141,1.89162 -1.97794,2.69642 1.54242,-0.58685 -3.1283,6.84115 -1.34722,4.59303 -0.17786,-0.57517 3.4867,-5.53501 3.77568,-5.26031 -0.69928,1.0819 -0.0884,0.78681 0.27683,0.27989 -0.27713,-1.17754 1.03666,-2.39454 2.05602,-3.92197 3.0777,0.11174 9.98378,-6.88359 14.8427,-13.74697 0.8893,0.17275 1.23429,0.45562 2.43377,0.19892 -0.58422,0.7626 -1.10402,1.41402 -1.23267,2.25494 l -0.008,0.20435 c -0.0237,0.0383 -0.0542,0.0663 -0.0834,0.096 -0.0595,0.0716 -0.11219,0.15182 -0.16458,0.22999 -0.21535,0.32423 -0.35158,0.6804 -0.32829,0.87706 0.0403,0.24221 0.31142,0.14662 0.61935,-0.22058 0.12752,-0.1501 0.31982,-0.38634 0.53265,-0.63448 -0.0748,0.25512 -0.33342,0.85314 -0.68178,1.55011 -0.73222,1.06551 -1.47271,2.12458 -2.21294,3.18065 -0.10008,0.0402 -0.19453,0.0594 -0.27218,0.0227 1.19081,-1.61503 2.18575,-6.24807 1.33799,-3.39443 l -1.27193,1.91133 -0.17556,0.0192 c -0.0237,-0.24815 -0.0942,-0.42824 -0.22312,-0.49924 -0.10352,-0.0541 -0.3313,0.12562 -0.51439,0.40431 l -0.0326,0.0523 c -0.19538,0.30155 -0.25874,0.59506 -0.15361,0.65211 0.10718,0.0541 0.14844,0.29825 0.13879,0.62649 -0.62104,0.57777 -1.14111,1.14106 -0.9598,1.59442 l -0.23807,0.34431 c -0.0542,0.0174 -0.10556,0.0331 -0.15918,0.054 -0.17515,0.0646 -0.42629,0.36298 -0.56866,0.66747 -0.13865,0.30015 -0.1065,0.49682 0.0684,0.43277 0.1169,-0.0437 0.21831,-0.0663 0.32736,-0.0925 -1.11213,1.03184 -4.73264,4.90963 -2.67626,3.30316 1.05496,-1.22728 2.21858,-2.38843 2.55016,-2.10415 -1.37816,1.92634 -2.76013,3.85075 -4.16533,5.74899 -1.70709,3.53596 1.3392,1.19988 0.82153,4.13013 -2.83212,3.42445 -2.91166,5.01976 -6.04453,8.54802 0.63917,0.29143 1.8399,-0.89537 3.37144,-3.07141 -0.1972,1.20756 -1.19406,2.93861 -3.01227,5.15166 1.07715,-0.52192 1.67251,0.22967 3.21973,-1.57174 -0.0532,0.0942 -0.11379,0.18585 -0.16272,0.28427 -7.15064,9.21131 -14.55418,18.00573 -22.17426,26.42463 1.8964,0.55702 3.5343,1.07931 5.01878,1.58343 z m -58.59549,-4.58018 c -0.0162,-0.31742 -0.16365,-0.39018 -0.37452,-0.34884 0.0542,-0.0786 0.10809,-0.16229 0.16288,-0.2457 0.25758,-0.082 0.50068,-0.1518 0.68318,-0.19839 0.28905,-0.0716 0.69301,-0.40538 0.90029,-0.7584 0.18408,-0.31061 0.14116,-0.51321 -0.0675,-0.50692 l 0.16371,-0.23786 c 2.73437,-2.16192 2.66179,-3.60872 4.39433,-4.25472 l 0.45497,-0.34831 c 0.14737,-0.0227 0.29836,-0.0489 0.461,-0.082 0.20361,-0.0455 0.49138,-0.2949 0.65317,-0.55787 0.15721,-0.26821 0.12304,-0.44779 -0.0799,-0.40189 -0.18433,0.0383 -0.35057,0.0716 -0.50718,0.0977 0.0286,-0.0646 0.0686,-0.13257 0.0816,-0.18968 1.25434,-0.98558 2.16683,-1.95529 2.90925,-2.86341 0.19263,-0.0575 0.44673,-0.26421 0.61705,-0.51234 0.12977,-0.18986 0.16232,-0.3429 0.11071,-0.41985 1.23388,-1.6145 2.11333,-2.90775 3.91349,-3.47192 l -0.73264,-0.96902 2.11856,-2.22646 0.10944,-0.082 c 0.008,0.0176 -0.0115,0.0437 -0.009,0.0663 -0.008,0.22233 0.17804,0.26944 0.43757,0.13968 -0.90473,1.25449 -0.46734,2.33065 0.51763,1.62234 -0.77365,-0.52909 1.83165,-2.49714 1.45146,-3.19584 -0.44112,0.21969 -0.80942,0.46085 -1.12146,0.7104 0.0863,-0.1588 0.14828,-0.30905 0.14947,-0.42912 -0.001,-0.0401 0.0115,-0.0872 0.0171,-0.12909 0.62908,0.16228 2.82241,-2.25388 0.78558,-0.63309 4.46328,-4.8894 3.78291,-3.86944 7.6861,-9.07676 -0.009,0.1152 -0.016,0.22632 -0.028,0.35386 -0.0332,0.28412 0.21275,0.30051 0.54555,0.0402 0.3396,-0.26315 0.62972,-0.70045 0.66064,-0.98594 0.008,-0.0786 0.0115,-0.16578 0.024,-0.25198 l 0.0508,-0.0575 c 2.80538,-3.48937 4.25397,-4.3104 5.90418,-6.93248 0.0543,0.0174 0.0986,0.0383 0.12482,0.0907 0.0693,0.13787 0.34221,0.0176 0.59212,-0.26838 0.13894,-0.16055 0.23627,-0.33242 0.28878,-0.47935 l 0.0355,-0.0176 c 3.78208,-3.96871 -0.39311,-0.83029 1.17533,-3.30824 0.54691,-0.0402 2.79403,-0.18355 1.56861,-1.31538 l 0.26868,-0.22668 0.024,0.0804 c 0.05,0.17869 0.31369,0.0907 0.58332,-0.20017 0.27303,-0.29194 0.4466,-0.66257 0.3915,-0.83674 l -0.0444,-0.15356 c 6.2e-4,-0.0331 -0.0158,-0.0663 -0.0265,-0.096 l 0.0989,-0.19072 c 1.77413,-2.32701 2.51529,-1.6365 3.27591,-0.98752 1.33598,-2.36591 0.79546,-3.91916 2.92207,-4.4205 0.68707,-1.76126 1.47272,-3.60838 1.15238,-4.76812 1.1507,-0.9711 2.62186,-3.02082 2.96591,-1.38294 1.457,-2.86063 -1.07238,-1.54085 2.18818,-3.66509 0.37122,-0.99675 0.42401,-1.80209 0.38686,-2.53953 0.22214,2.24916 4.5802,-4.0323 6.26226,-8.33315 1.08285,-0.69281 0.67741,0.081 0.85553,0.80678 0.40345,-0.89244 0.79831,-1.79773 0.60394,-2.28115 1.13984,0.17206 0.34897,-0.39838 2.32081,-2.1028 0.40696,-1.2388 -1.15669,-0.1864 1.72346,-4.06274 0.25933,0.27666 -0.45577,1.29576 -0.85375,2.03579 0.7339,-1.37255 1.65962,-2.74091 2.63837,-4.13048 -0.0587,-0.76769 -0.009,-1.72453 -1.2e-4,-2.64139 0.23697,-0.55063 0.44996,-1.13803 0.66004,-1.73532 l 0.0719,0.35643 c 0.97362,-0.1886 1.86439,-2.50744 1.44073,-0.13229 0.61519,-1.09477 1.62785,-2.51242 1.3684,-2.95755 l -0.0979,0.0135 c 1.37955,-1.5084 2.22303,-3.8542 2.79323,-5.49021 l 0.29322,-0.82334 0.1653,-0.4589 -0.15001,-0.109 c -0.22947,-0.1684 -0.64879,-0.0731 -1.15187,0.27337 l -0.002,10e-4 c -0.50356,0.34862 -1.09381,0.95105 -1.67323,1.80364 l -0.16282,0.2459 -0.0904,0.25723 -0.34556,0.96835 c -0.15553,0.43416 -0.31182,0.8887 -0.46757,1.33674 l -0.043,-0.17699 c -1.76922,1.14896 -1.19619,1.17969 -3.18869,3.76202 -0.40676,-0.42184 -0.37075,-0.0413 -1.51523,0.54899 -2.12845,2.67961 -4.36315,2.56344 -6.64687,5.63563 -8.02762,5.89344 -16.03198,15.20773 -21.61063,21.93045 l -0.0223,0.0315 c -0.43893,0.54532 -0.65748,1.15888 -0.48754,1.37858 0.17653,0.23087 0.68423,-0.0367 1.13852,-0.59105 5.31664,-6.40338 12.93463,-15.24805 20.50958,-20.76257 l -0.0509,0.0834 c 0.1049,0.12126 0.22812,0.17796 0.35633,0.20809 -0.31531,0.71347 -0.55629,1.38993 -0.65123,1.82747 0.41832,-0.64957 0.83027,-1.28526 1.23255,-1.88437 0.16505,-0.0534 0.33795,-0.11128 0.50896,-0.19069 -1.53743,2.87103 -5.0841,6.26281 -4.82975,6.83713 1.18211,-1.55045 1.81289,-1.26632 2.35043,-0.64402 -0.90016,1.37675 -1.77012,2.81662 -2.5702,4.35212 -1.49231,1.61504 -3.40518,3.67217 -5.04535,5.92256 -1.00436,1.38695 -1.89092,2.85365 -2.51815,4.34093 -3.65339,4.3912 -7.50536,8.50125 -11.89324,13.0708 0.32591,0.4509 0.88285,0.29543 1.44683,0.12215 -0.015,0.0176 -0.0282,0.0349 -0.0436,0.0524 -0.0974,0.0507 -0.2015,0.0977 -0.30349,0.14662 l -0.13302,0.068 -0.14234,0.14662 c -0.19839,0.19545 -0.36905,0.38495 -0.51699,0.56591 -0.31805,0.38757 -0.53289,0.7371 -0.69421,0.99135 l -0.20204,0.32422 0.007,0.0943 c -2.49073,2.99516 -4.55431,5.73241 -6.60888,8.43634 -0.29501,0.29351 -0.59889,0.59995 -0.89448,0.93481 -0.46759,0.53398 -0.89631,1.13235 -1.19342,1.79301 l 0.007,0 c -0.89555,1.15713 -1.81012,2.32316 -2.79055,3.51885 l -0.0193,-0.0367 c -0.0532,-0.14315 -0.29927,-0.0559 -0.55032,0.1883 l -0.0584,0.0646 c -0.21479,0.23612 -0.3461,0.51479 -0.29648,0.64497 l 0.0678,0.16927 c -0.11753,0.13787 -0.22978,0.27816 -0.35124,0.42125 -0.30509,-0.0453 -0.65623,-0.0176 -1.01516,0.0176 l -1.0909,1.79336 c 0.20736,-0.0174 0.39892,-0.0261 0.57137,-0.0227 -0.24737,0.28094 -0.49218,0.56086 -0.74861,0.84476 -2.33943,2.598 -4.80427,4.90319 -7.15484,7.1035 -0.64193,0.50569 -1.28683,1.10408 -1.85996,1.7583 -0.43134,0.4092 -0.85117,0.81788 -1.26473,1.22047 -0.54591,0.30833 -1.13913,0.53467 -1.57248,0.58579 -0.12573,-0.39403 -0.0562,-0.80688 0.015,-1.24001 0.0458,-0.29457 0.0856,-0.58283 0.0872,-0.85785 -0.007,-0.26752 -0.31117,-0.24536 -0.69058,0.0453 -0.0774,0.0575 -0.14576,0.11522 -0.21343,0.1829 -0.27704,0.27291 -0.47465,0.61128 -0.47304,0.82836 0.002,0.22598 -0.0417,0.46522 -0.082,0.70708 -0.0855,0.52771 -0.18388,1.1259 0.0448,1.68378 l 0.0388,0.11174 0.13687,-0.0176 c 0.23314,0 0.53715,-0.0698 0.87326,-0.17276 -0.089,0.0996 -0.18922,0.19334 -0.28113,0.28811 -0.0512,0.0628 -0.7047,1.64278 -1.03256,2.07431 -0.72727,0.96377 -1.63712,1.89913 -2.60866,2.80129 -0.1345,0.0489 -0.25558,0.0575 -0.38533,0.0872 l 0.37166,-0.75649 c 0.21626,-0.44936 0.0482,-0.68545 -0.36943,-0.52506 -0.21024,0.0785 -0.44341,0.23591 -0.65284,0.43677 -0.20762,0.19805 -0.39077,0.43765 -0.50062,0.66502 l -0.52411,1.07145 c -0.0946,0.10467 -0.19894,0.2033 -0.27688,0.3148 -0.0178,0.0227 -0.0233,0.0402 -0.0383,0.0611 -0.10258,0.0907 -0.22273,0.17277 -0.3215,0.26874 -0.27625,0.26263 -0.51279,0.53764 -0.75802,0.80899 0.90289,0.90236 1.86937,1.74259 2.66879,2.73988 0.0559,-0.0191 0.0819,-0.0332 0.13938,-0.0628 z M -52.43896,916.9027 c 0.194802,-0.55649 0.39576,-1.19674 0.588635,-1.726 -0.414344,0.28741 -0.977657,0.67759 -1.402434,0.9732 0.270426,0.25391 0.543988,0.50011 0.814312,0.75333 z"
         style="fill:#ffffff;fill-opacity:1;fill-rule:nonzero;stroke:none"
         inkscape:connector-curvature="0" />
      <path
         sodipodi:nodetypes="cccc"
         inkscape:connector-curvature="0"
         id="path4998"
         d="m 685.19189,427.79353 -1.39919,-8.64821 -9.07777,4.61809 z"
         style="fill:#ffffff;fill-rule:evenodd;stroke:#ffffff;stroke-width:1px;stroke-linecap:butt;stroke-linejoin:miter;stroke-opacity:1;fill-opacity:1" />
    </g>
    <g
       id="g3384"
       transform="matrix(0.5813898,-1.8521476,1.8521476,0.5813898,-1160.1822,1627.5496)"
       style="fill:#ffffff;fill-opacity:1">
      <path
         inkscape:connector-curvature="0"
         id="path166"
         style="fill:#ffffff;fill-opacity:1;fill-rule:nonzero;stroke:none"
         d="m 743.1771,531.13495 -0.1025,-0.004 c -3.29375,-0.27 -6.62625,-0.43125 -9.905,-0.48 -0.69,-0.0113 -1.2425,-0.57875 -1.2325,-1.26875 0.0125,-0.68375 0.56875,-1.23125 1.25,-1.23125 l 0.02,0 c 3.335,0.05 6.72375,0.21375 10.07,0.4875 0.68875,0.0562 1.20125,0.66 1.145,1.3475 -0.0538,0.65375 -0.6,1.14875 -1.245,1.14875 z m -29.94875,0.55375 c -0.625,0 -1.16375,-0.46625 -1.24,-1.1025 -0.0825,-0.68375 0.4075,-1.3075 1.09375,-1.38875 3.33,-0.3975 6.70875,-0.6875 10.04125,-0.86 0.66875,-0.0513 1.2775,0.4925 1.31375,1.18375 0.0337,0.69 -0.495,1.27625 -1.18375,1.31375 -3.27625,0.16875 -6.6,0.45375 -9.87625,0.845 l -0.14875,0.009 z m 49.7175,2.39 -0.26625,-0.0275 c -3.2175,-0.6975 -6.49875,-1.29625 -9.75625,-1.7825 -0.68125,-0.1025 -1.1525,-0.73875 -1.0525,-1.42125 0.1025,-0.6825 0.745,-1.1375 1.42125,-1.05125 3.31,0.4925 6.6475,1.1025 9.9175,1.81125 0.67375,0.14625 1.1025,0.81125 0.95625,1.48625 -0.12625,0.585 -0.64375,0.985 -1.22,0.985 z m -69.35625,1.2925 c -0.55625,0 -1.06375,-0.375 -1.21,-0.93875 -0.17125,-0.67 0.23125,-1.35125 0.9,-1.5225 3.2375,-0.83125 6.54875,-1.5675 9.83875,-2.18375 0.68625,-0.12375 1.33125,0.32125 1.4575,0.9975 0.13,0.67875 -0.3175,1.33125 -0.995,1.45875 -3.2375,0.6075 -6.495,1.33 -9.67875,2.14875 l -0.3125,0.04 z m 88.5675,4.215 c -0.14125,0 -0.28375,-0.0238 -0.4225,-0.0738 -3.09375,-1.11125 -6.27,-2.13375 -9.43875,-3.04375 -0.66125,-0.19 -1.0475,-0.8825 -0.85625,-1.545 0.1925,-0.66375 0.87625,-1.05125 1.5475,-0.85625 3.22,0.9225 6.4475,1.96375 9.5925,3.09125 0.64875,0.23375 0.98625,0.95 0.75375,1.59875 -0.1825,0.51125 -0.66375,0.82875 -1.17625,0.82875 z m -107.55375,2.015 c -0.49625,0 -0.965,-0.295 -1.16,-0.78375 -0.25875,-0.64125 0.0512,-1.36875 0.69375,-1.62625 3.1,-1.2475 6.28625,-2.41 9.4675,-3.455 0.65625,-0.21375 1.3625,0.1425 1.5775,0.79875 0.215,0.65625 -0.1425,1.36125 -0.79875,1.5775 -3.13,1.0275 -6.265,2.17125 -9.31375,3.39875 -0.15375,0.06 -0.31,0.09 -0.46625,0.09 z m 125.88375,5.94625 c -0.195,0 -0.39125,-0.0437 -0.57125,-0.13875 -2.93,-1.50625 -5.945,-2.935 -8.96,-4.24625 -0.635,-0.275 -0.925,-1.01125 -0.65,-1.645 0.27375,-0.6325 1.00875,-0.925 1.64375,-0.6475 3.06875,1.3325 6.1325,2.78375 9.10875,4.315 0.6125,0.31625 0.855,1.07125 0.54,1.68375 -0.2225,0.43 -0.66,0.67875 -1.11125,0.67875 z m -143.89625,2.705 c -0.4375,0 -0.8625,-0.22875 -1.09125,-0.63625 -0.34,-0.60125 -0.125,-1.365 0.47625,-1.7025 2.915,-1.64375 5.9225,-3.21125 8.9375,-4.66 0.625,-0.30125 1.37,-0.0362 1.6675,0.58625 0.3,0.62125 0.0362,1.36875 -0.58625,1.6675 -2.96625,1.42625 -5.9225,2.9675 -8.79125,4.58375 -0.195,0.11 -0.405,0.16125 -0.6125,0.16125 z m 161.0225,7.5875 c -0.24625,0 -0.495,-0.0725 -0.7125,-0.22375 -2.7,-1.875 -5.50125,-3.68625 -8.3225,-5.38125 -0.59125,-0.35625 -0.78375,-1.125 -0.43,-1.715 0.35375,-0.59375 1.1225,-0.785 1.71625,-0.42875 2.86875,1.725 5.715,3.565 8.46125,5.4725 0.56875,0.3925 0.70875,1.17125 0.315,1.73875 -0.24375,0.35 -0.6325,0.5375 -1.0275,0.5375 z m -177.75375,3.3475 c -0.38125,0 -0.755,-0.1725 -1.00125,-0.5 -0.415,-0.55125 -0.3025,-1.335 0.24875,-1.74875 2.67125,-2.01 5.45,-3.95875 8.2525,-5.79 0.57875,-0.37875 1.3525,-0.21625 1.72875,0.3625 0.3775,0.5775 0.2175,1.3525 -0.36125,1.73 -2.75625,1.80125 -5.48875,3.71875 -8.1175,5.695 -0.225,0.16875 -0.48875,0.25125 -0.75,0.25125 z m 193.36875,9.11875 c -0.3,0 -0.6025,-0.10875 -0.8425,-0.3275 -2.42125,-2.215 -4.9575,-4.3825 -7.53625,-6.44 -0.54,-0.43 -0.6275,-1.2175 -0.195,-1.7575 0.43,-0.5375 1.2175,-0.6275 1.755,-0.19625 2.6225,2.0925 5.2,4.29625 7.66375,6.5475 0.5075,0.4675 0.545,1.2575 0.0788,1.7675 -0.24755,0.26875 -0.5838,0.40625 -0.9238,0.40625 z m -208.515,3.92625 c -0.3225,0 -0.645,-0.12375 -0.88875,-0.37125 -0.48625,-0.4925 -0.48125,-1.285 0.0125,-1.76875 2.38,-2.34625 4.875,-4.64375 7.41375,-6.83125 0.5225,-0.45 1.31125,-0.3925 1.7625,0.13125 0.4525,0.5225 0.39375,1.3125 -0.12875,1.7625 -2.5,2.15125 -4.95125,4.4125 -7.2925,6.7175 -0.24375,0.24125 -0.56125,0.36 -0.87875,0.36 z m 222.34125,10.5075 c -0.35625,0 -0.71125,-0.15125 -0.9575,-0.4475 -2.12625,-2.53125 -4.3525,-5.01625 -6.61875,-7.38375 -0.47875,-0.4975 -0.46125,-1.29 0.0375,-1.7675 0.4975,-0.47625 1.28875,-0.46 1.7675,0.0387 2.30375,2.40625 4.5675,4.93125 6.7275,7.50625 0.445,0.52875 0.37625,1.3175 -0.15375,1.76 -0.23375,0.19625 -0.52,0.29375 -0.8025,0.29375 z m -235.60625,4.43875 c -0.2675,0 -0.53625,-0.085 -0.76375,-0.26125 -0.54625,-0.4225 -0.64625,-1.2075 -0.225,-1.75375 2.05125,-2.645 4.215,-5.255 6.43625,-7.7575 0.45625,-0.5175 1.2475,-0.56375 1.765,-0.105 0.515,0.45875 0.56125,1.24875 0.105,1.765 -2.185,2.46 -4.31375,5.0275 -6.32875,7.62875 -0.24625,0.31875 -0.615,0.48375 -0.98875,0.48375 z m 247.4175,11.6825 c -0.41,0 -0.8175,-0.20375 -1.055,-0.57875 -1.765,-2.77125 -3.6475,-5.525 -5.595,-8.18625 -0.4075,-0.55625 -0.28875,-1.33875 0.26875,-1.74625 0.55375,-0.41 1.3375,-0.28875 1.7475,0.27 1.9825,2.70375 3.89375,5.50375 5.68875,8.32 0.37125,0.5825 0.2,1.355 -0.38375,1.72625 -0.21,0.13125 -0.44125,0.195 -0.67125,0.195 z m -258.58375,4.88875 c -0.2125,0 -0.43,-0.055 -0.6275,-0.17 -0.59625,-0.34625 -0.79875,-1.11125 -0.45125,-1.70875 1.67625,-2.8825 3.47875,-5.755 5.35375,-8.53875 0.3825,-0.57375 1.16375,-0.72625 1.7325,-0.3375 0.57375,0.385 0.72625,1.16125 0.34,1.73375 -1.84375,2.73875 -3.61625,5.565 -5.26625,8.4 -0.23125,0.39875 -0.64875,0.62125 -1.08125,0.62125 z m 268.18875,12.63875 c -0.47125,0 -0.92375,-0.2675 -1.13625,-0.72375 -1.38375,-2.975 -2.8875,-5.95125 -4.475,-8.8475 -0.33125,-0.605 -0.11,-1.36375 0.49625,-1.69625 0.605,-0.335 1.365,-0.11 1.69625,0.495 1.61125,2.94375 3.145,5.97 4.55125,8.995 0.29,0.62625 0.0188,1.36875 -0.6075,1.66125 -0.17125,0.0775 -0.35,0.11625 -0.525,0.11625 z m -277.0875,5.255 c -0.16125,0 -0.3225,-0.0312 -0.48125,-0.0962 -0.6375,-0.2675 -0.9375,-1 -0.67125,-1.63625 1.29125,-3.08625 2.7025,-6.17 4.19125,-9.16625 0.305,-0.6175 1.0625,-0.87125 1.675,-0.5625 0.6175,0.3075 0.87125,1.0575 0.56375,1.67625 -1.46625,2.9475 -2.85375,5.9825 -4.1225,9.01625 -0.20375,0.48 -0.6675,0.76875 -1.155,0.76875 z m 284.28875,13.38625 c -0.53375,0 -1.0275,-0.34375 -1.19375,-0.87875 -0.97125,-3.13 -2.07,-6.28 -3.26125,-9.36125 -0.24875,-0.6425 0.0713,-1.36625 0.715,-1.61625 0.6425,-0.25125 1.3675,0.0725 1.61625,0.71625 1.21125,3.1325 2.32625,6.335 3.3175,9.51875 0.205,0.65875 -0.1625,1.36 -0.8225,1.565 -0.12375,0.0375 -0.24875,0.0562 -0.37125,0.0562 z m -290.77875,5.515 -0.32875,-0.0437 c -0.6675,-0.18125 -1.0575,-0.86875 -0.88,-1.53375 0.875,-3.2125 1.86875,-6.455 2.96,-9.63625 0.22375,-0.6525 0.935,-0.99625 1.58875,-0.7775 0.6525,0.225 1.00125,0.935 0.77625,1.58875 -1.07375,3.13 -2.0525,6.32 -2.9125,9.47875 -0.15125,0.5575 -0.65375,0.92375 -1.20375,0.92375 z m -3.9625,19.59125 -0.1675,-0.0113 c -0.68375,-0.0913 -1.1625,-0.72125 -1.0725,-1.405 0.4425,-3.30125 1.00625,-6.64625 1.67,-9.94125 0.13625,-0.67625 0.78625,-1.12125 1.475,-0.97875 0.67625,0.1375 1.1125,0.79625 0.97625,1.47375 -0.65375,3.2425 -1.20875,6.5325 -1.6425,9.7775 -0.0862,0.62875 -0.6225,1.085 -1.23875,1.085 z m -1.3375,19.9425 c -0.69125,0 -1.25,-0.56 -1.25,-1.25 0,-3.34875 0.1125,-6.74 0.3375,-10.0775 0.0488,-0.68875 0.62,-1.195 1.3325,-1.1625 0.68875,0.0462 1.20875,0.64125 1.1625,1.33125 -0.22,3.28125 -0.3325,6.615 -0.3325,9.90875 0,0.69 -0.55875,1.25 -1.25,1.25" />
      <path
         inkscape:connector-curvature="0"
         id="path168"
         style="fill:#ffffff;fill-opacity:1;fill-rule:nonzero;stroke:none"
         d="m 881.16335,663.8712 c -1.545,0 -2.88875,-1.1425 -3.09625,-2.715 -1.775,-13.4075 -5.38,-26.49625 -10.7225,-38.9025 -0.68125,-1.585 0.0512,-3.42375 1.63625,-4.10625 1.58375,-0.6775 3.4225,0.0488 4.10875,1.63625 5.56375,12.93125 9.32375,26.57625 11.17375,40.5525 0.225,1.71125 -0.97625,3.28125 -2.6875,3.50875 -0.13875,0.0175 -0.27875,0.0263 -0.4125,0.0263" />
      <path
         inkscape:connector-curvature="0"
         id="path182"
         style="fill:#ffffff;fill-opacity:1;fill-rule:nonzero;stroke:none"
         d="m 731.03835,836.68645 c -1.72625,0 -3.125,-1.399 -3.125,-3.125 0,-1.72662 1.39875,-3.125 3.125,-3.125 38.18375,0 74.45125,-14.47412 102.1225,-40.754 1.2525,-1.18987 3.23,-1.13762 4.41875,0.11388 1.18875,1.25087 1.1375,3.22987 -0.1125,4.41737 -28.84,27.38875 -66.63625,42.47275 -106.42875,42.47275" />
      <path
         inkscape:connector-curvature="0"
         id="path184"
         style="fill:#ffffff;fill-opacity:1;fill-rule:nonzero;stroke:none"
         d="m 719.19835,532.37495 c -0.6475,0 -1.19375,-0.4975 -1.245,-1.15375 -0.0538,-0.68875 0.46125,-1.28875 1.14875,-1.3425 3.32375,-0.25625 6.71,-0.4075 10.06625,-0.4475 l 0.0175,0 c 0.68125,0 1.24,0.54875 1.25,1.235 0.007,0.69 -0.5475,1.25625 -1.2375,1.265 -3.30125,0.0387 -6.63375,0.1875 -9.9025,0.44 l -0.0975,0.004 z m -19.77375,2.8475 c -0.57875,0 -1.09625,-0.4025 -1.2225,-0.99 -0.1425,-0.67625 0.2875,-1.33875 0.96375,-1.4825 3.26875,-0.69375 6.60625,-1.2875 9.92,-1.765 0.6925,-0.0975 1.31625,0.37625 1.41625,1.05875 0.0975,0.68375 -0.37625,1.3175 -1.0575,1.41625 -3.26125,0.46875 -6.545,1.0525 -9.75875,1.73625 l -0.26125,0.0263 z m -19.22375,5.4425 c -0.5125,0 -0.99375,-0.31875 -1.17625,-0.83 -0.2325,-0.65125 0.11,-1.36625 0.75625,-1.59875 3.155,-1.1225 6.385,-2.15375 9.6025,-3.06375 0.655,-0.19375 1.3575,0.1975 1.5425,0.8625 0.18875,0.665 -0.1975,1.355 -0.86125,1.5425 -3.16625,0.89625 -6.3425,1.91 -9.44375,3.015 -0.13625,0.0487 -0.28,0.0725 -0.42,0.0725 z m -18.3075,7.9275 c -0.45375,0 -0.89125,-0.24875 -1.11375,-0.67875 -0.315,-0.615 -0.0725,-1.3675 0.5425,-1.68375 2.97875,-1.5325 6.04,-2.98 9.10125,-4.3025 0.6325,-0.2725 1.3675,0.0175 1.64375,0.65125 0.2725,0.63375 -0.0175,1.36875 -0.6525,1.64375 -3.0075,1.30125 -6.02,2.72375 -8.95,4.23125 -0.18375,0.095 -0.37875,0.13875 -0.57125,0.13875 z m -17.115,10.27875 c -0.395,0 -0.785,-0.18625 -1.0275,-0.53625 -0.395,-0.5675 -0.25375,-1.3475 0.3125,-1.74 2.745,-1.90375 5.59125,-3.745 8.46,-5.47 0.58875,-0.355 1.36,-0.165 1.71625,0.42875 0.35375,0.59 0.16375,1.35875 -0.43,1.715 -2.8225,1.69625 -5.6225,3.5075 -8.32,5.38 -0.2175,0.15125 -0.46625,0.2225 -0.71125,0.2225 z m -15.62625,12.44625 c -0.34,0 -0.67625,-0.1375 -0.92375,-0.40875 -0.46625,-0.51 -0.4275,-1.30125 0.0838,-1.765 2.4775,-2.25625 5.05875,-4.4525 7.67,-6.5325 0.5425,-0.43375 1.32625,-0.34125 1.75625,0.19875 0.42875,0.54 0.34125,1.32625 -0.19875,1.75625 -2.57,2.04625 -5.10875,4.2075 -7.54625,6.42625 -0.23875,0.2175 -0.54125,0.325 -0.84125,0.325 z m -13.8675,14.3875 c -0.28375,0 -0.56875,-0.0962 -0.80625,-0.295 -0.5275,-0.445 -0.5925,-1.23375 -0.14625,-1.76125 2.15875,-2.55625 4.42875,-5.07375 6.7525,-7.485 0.48125,-0.495 1.2725,-0.51 1.7675,-0.0312 0.49875,0.47875 0.51125,1.27 0.0325,1.7675 -2.285,2.37 -4.51875,4.8475 -6.64375,7.3625 -0.24625,0.29125 -0.5975,0.4425 -0.95625,0.4425 z m -11.865,16.0875 c -0.23,0 -0.46375,-0.0638 -0.6725,-0.1975 -0.5825,-0.3725 -0.74875,-1.145 -0.3775,-1.72625 1.80375,-2.81875 3.7275,-5.6125 5.715,-8.3075 0.4075,-0.55625 1.19125,-0.67375 1.7475,-0.26375 0.555,0.41 0.675,1.1925 0.26375,1.7475 -1.955,2.65 -3.8475,5.4 -5.6225,8.17125 -0.23625,0.3725 -0.64125,0.57625 -1.05375,0.57625 z m -9.64875,17.51625 c -0.17875,0 -0.35625,-0.0375 -0.53,-0.1175 -0.625,-0.2925 -0.89375,-1.03625 -0.6025,-1.6625 1.41125,-3.01625 2.95125,-6.0425 4.5725,-8.9925 0.33375,-0.605 1.09375,-0.8225 1.69875,-0.4925 0.60375,0.3325 0.825,1.0925 0.49125,1.69875 -1.5975,2.90125 -3.11125,5.8775 -4.4975,8.84625 -0.2125,0.45375 -0.66125,0.72 -1.1325,0.72 z m -7.24875,18.6475 c -0.125,0 -0.25125,-0.0188 -0.37625,-0.0575 -0.65625,-0.20625 -1.0225,-0.90875 -0.815,-1.5675 1.00375,-3.19875 2.12625,-6.40375 3.34,-9.525 0.25125,-0.64375 0.97625,-0.96375 1.61875,-0.71125 0.64125,0.24875 0.96125,0.97375 0.71,1.6175 -1.19125,3.07 -2.2975,6.22125 -3.28625,9.36875 -0.16625,0.5325 -0.65875,0.875 -1.19125,0.875 z m -4.7025,19.4175 -0.215,-0.0187 c -0.68,-0.11625 -1.135,-0.76375 -1.0175,-1.445 0.57125,-3.29625 1.2575,-6.61625 2.04625,-9.86625 0.16125,-0.6725 0.8375,-1.08125 1.50875,-0.92125 0.66875,0.1625 1.08375,0.8375 0.92,1.50875 -0.77375,3.1975 -1.45,6.46375 -2.01125,9.70625 -0.105,0.6075 -0.635,1.03625 -1.23125,1.03625 z m -2.10125,19.86625 -0.0512,-10e-4 c -0.68875,-0.0275 -1.22625,-0.61 -1.19875,-1.29875 0.13375,-3.36 0.3775,-6.74125 0.73,-10.04875 0.07,-0.6875 0.67625,-1.19625 1.37375,-1.11125 0.68625,0.0712 1.185,0.68875 1.11375,1.37375 -0.34625,3.25375 -0.58875,6.58 -0.72,9.88625 -0.0275,0.6725 -0.58125,1.2 -1.2475,1.2 z m 0.5,19.97125 c -0.64,0 -1.18375,-0.4875 -1.2425,-1.13625 -0.3025,-3.32625 -0.49875,-6.71 -0.58125,-10.06 -0.0175,-0.69 0.53,-1.26375 1.22125,-1.28 l 0.0287,0 c 0.67625,0 1.2325,0.53875 1.25,1.21875 0.0813,3.29375 0.27375,6.6225 0.57125,9.89375 0.0637,0.68875 -0.44375,1.29625 -1.1325,1.35875 l -0.115,0.005 z m 3.1125,19.735 c -0.57125,0 -1.08625,-0.3925 -1.2175,-0.97375 -0.74,-3.25875 -1.3775,-6.58875 -1.9,-9.89375 -0.1075,-0.68125 0.35875,-1.3225 1.0425,-1.43 0.68375,-0.1075 1.32125,0.35875 1.43125,1.04125 0.51,3.25 1.1375,6.52375 1.865,9.73125 0.15375,0.6725 -0.27125,1.3425 -0.9425,1.495 l -0.27875,0.03 z m 5.69875,19.14375 c -0.51,0 -0.98625,-0.31125 -1.175,-0.81625 -1.16625,-3.14125 -2.24125,-6.3575 -3.1925,-9.55625 -0.19625,-0.66125 0.18,-1.3575 0.8425,-1.555 0.66375,-0.19125 1.35875,0.18 1.555,0.8425 0.935,3.14625 1.99125,6.3075 3.13875,9.4 0.2425,0.6475 -0.0875,1.36625 -0.73625,1.60625 -0.1425,0.0537 -0.29125,0.0787 -0.4325,0.0787 z m 8.18125,18.22625 c -0.45,0 -0.88125,-0.24125 -1.10625,-0.66375 -1.575,-2.9625 -3.06375,-6.0075 -4.42875,-9.0525 -0.2825,-0.63 -0.002,-1.36875 0.6275,-1.65125 0.6325,-0.285 1.37,-0.003 1.6525,0.62875 1.34375,2.99375 2.8075,5.98875 4.35625,8.90125 0.32375,0.61 0.0925,1.3675 -0.515,1.69125 -0.18875,0.1 -0.38875,0.14625 -0.58625,0.14625 z m 10.5175,16.9875 c -0.39125,0 -0.77375,-0.1825 -1.01875,-0.52375 -1.9475,-2.7275 -3.8275,-5.55 -5.585,-8.38875 -0.36375,-0.5875 -0.18375,-1.3575 0.405,-1.72125 0.58875,-0.36375 1.3575,-0.1825 1.72125,0.405 1.72875,2.7925 3.57625,5.56875 5.4925,8.2525 0.40125,0.56125 0.27125,1.3425 -0.29,1.7425 -0.22,0.1575 -0.47375,0.23375 -0.725,0.23375 z m 12.65625,15.46138 c -0.3325,0 -0.66625,-0.13388 -0.91375,-0.3975 -2.29,-2.45025 -4.52375,-5.0025 -6.6375,-7.58513 -0.4375,-0.535 -0.35875,-1.3225 0.175,-1.75875 0.535,-0.44 1.32125,-0.35875 1.75875,0.17375 2.08,2.54263 4.2775,5.0525 6.53,7.46363 0.47125,0.50387 0.445,1.29537 -0.0588,1.7665 -0.24125,0.22612 -0.54625,0.3375 -0.85375,0.3375 z m 14.575,13.67237 c -0.27875,0 -0.55875,-0.0924 -0.79375,-0.28375 -2.5775,-2.11862 -5.12625,-4.3565 -7.5725,-6.65237 -0.50375,-0.47263 -0.53,-1.26263 -0.0562,-1.7675 0.47125,-0.5025 1.2625,-0.52888 1.7675,-0.0562 2.4075,2.25887 4.91125,4.461 7.44875,6.545 0.535,0.4375 0.61,1.22512 0.1725,1.75875 -0.24625,0.29987 -0.605,0.45612 -0.96625,0.45612" />
    </g>
  </g>
</svg>
