<?xml version="1.0" encoding="UTF-8" standalone="no"?>
<!-- Uploaded to: SVG Repo, www.svgrepo.com, Generator: SVG Repo Mixer Tools -->

<svg
   xmlns:dc="http://purl.org/dc/elements/1.1/"
   xmlns:cc="http://creativecommons.org/ns#"
   xmlns:rdf="http://www.w3.org/1999/02/22-rdf-syntax-ns#"
   xmlns:svg="http://www.w3.org/2000/svg"
   xmlns="http://www.w3.org/2000/svg"
   xmlns:sodipodi="http://sodipodi.sourceforge.net/DTD/sodipodi-0.dtd"
   xmlns:inkscape="http://www.inkscape.org/namespaces/inkscape"
   width="800px"
   height="800px"
   viewBox="0 0 24 24"
   fill="none"
   version="1.1"
   id="svg10"
   sodipodi:docname="cup-svgrepo-com.svg"
   inkscape:version="0.92.5 (2060ec1f9f, 2020-04-08)">
  <metadata
     id="metadata16">
    <rdf:RDF>
      <cc:Work
         rdf:about="">
        <dc:format>image/svg+xml</dc:format>
        <dc:type
           rdf:resource="http://purl.org/dc/dcmitype/StillImage" />
      </cc:Work>
    </rdf:RDF>
  </metadata>
  <defs
     id="defs14" />
  <sodipodi:namedview
     pagecolor="#ffffff"
     bordercolor="#666666"
     borderopacity="1"
     objecttolerance="10"
     gridtolerance="10"
     guidetolerance="10"
     inkscape:pageopacity="0"
     inkscape:pageshadow="2"
     inkscape:window-width="2560"
     inkscape:window-height="1375"
     id="namedview12"
     showgrid="false"
     inkscape:zoom="0.295"
     inkscape:cx="-181.35593"
     inkscape:cy="400"
     inkscape:window-x="1080"
     inkscape:window-y="211"
     inkscape:window-maximized="1"
     inkscape:current-layer="svg10" />
  <path
     d="M3 7C3 5.11438 3 4.17157 3.58579 3.58579C4.17157 3 5.11438 3 7 3H13C14.8856 3 15.8284 3 16.4142 3.58579C17 4.17157 17 5.11438 17 7V12C17 14.8284 17 16.2426 16.1213 17.1213C15.2426 18 13.8284 18 11 18H9C6.17157 18 4.75736 18 3.87868 17.1213C3 16.2426 3 14.8284 3 12V7Z"
     stroke="#1C274C"
     stroke-width="1.5"
     id="path2"
     style="fill:none;fill-opacity:1;stroke:#ffffff;stroke-opacity:1" />
  <path
     d="M17 13H18C20.2091 13 22 11.2091 22 9C22 6.79086 20.2091 5 18 5H17"
     stroke="#1C274C"
     stroke-width="1.5"
     id="path4"
     style="fill:none;fill-opacity:1;stroke:#ffffff;stroke-opacity:1" />
  <path
     d="M17 13H3"
     stroke="#1C274C"
     stroke-width="1.5"
     id="path6"
     style="fill:none;fill-opacity:1;stroke:#ffffff;stroke-opacity:1" />
  <path
     d="M22 21L2 21"
     stroke="#1C274C"
     stroke-width="1.5"
     stroke-linecap="round"
     id="path8"
     style="stroke:#16213e;stroke-opacity:1" />
</svg>
