<?xml version="1.0" encoding="UTF-8" standalone="no"?>
<!-- Uploaded to: SVG Repo, www.svgrepo.com, Generator: SVG Repo Mixer Tools -->

<svg
   xmlns:dc="http://purl.org/dc/elements/1.1/"
   xmlns:cc="http://creativecommons.org/ns#"
   xmlns:rdf="http://www.w3.org/1999/02/22-rdf-syntax-ns#"
   xmlns:svg="http://www.w3.org/2000/svg"
   xmlns="http://www.w3.org/2000/svg"
   xmlns:sodipodi="http://sodipodi.sourceforge.net/DTD/sodipodi-0.dtd"
   xmlns:inkscape="http://www.inkscape.org/namespaces/inkscape"
   width="800px"
   height="800px"
   viewBox="0 0 48 48"
   id="b"
   version="1.1"
   sodipodi:docname="ad-free-svgrepo-com.svg"
   inkscape:version="0.92.5 (2060ec1f9f, 2020-04-08)">
  <metadata
     id="metadata21">
    <rdf:RDF>
      <cc:Work
         rdf:about="">
        <dc:format>image/svg+xml</dc:format>
        <dc:type
           rdf:resource="http://purl.org/dc/dcmitype/StillImage" />
      </cc:Work>
    </rdf:RDF>
  </metadata>
  <sodipodi:namedview
     pagecolor="#ffffff"
     bordercolor="#666666"
     borderopacity="1"
     objecttolerance="10"
     gridtolerance="10"
     guidetolerance="10"
     inkscape:pageopacity="0"
     inkscape:pageshadow="2"
     inkscape:window-width="2560"
     inkscape:window-height="1375"
     id="namedview19"
     showgrid="false"
     inkscape:zoom="0.295"
     inkscape:cx="400"
     inkscape:cy="400"
     inkscape:window-x="1080"
     inkscape:window-y="211"
     inkscape:window-maximized="1"
     inkscape:current-layer="b" />
  <defs
     id="defs4">
    <style
       id="style2">.c{fill:none;stroke:#000000;stroke-linecap:round;stroke-linejoin:round;}</style>
  </defs>
  <ellipse
     class="c"
     cx="33.1644"
     cy="22.6163"
     rx="8.8792"
     ry="17.0828"
     transform="translate(-5.9418 13.5565) rotate(-21.2481)"
     id="ellipse6"
     style="stroke:#ffffff;stroke-opacity:1" />
  <path
     class="c"
     d="m37.0255,38.8314l-26.9276-1.4477c-3.0885,0-5.5979-2.5094-5.5979-5.5979,0-1.5442.7721-3.0885,1.7373-4.1501L25.4437,7.6571"
     id="path8"
     style="stroke:#ffffff;stroke-opacity:1" />
  <path
     class="c"
     d="m19.4598,37.8662c-1.9303-.193-4.5362-3.185-6.1769-7.4316-1.6408-4.1501-1.7373-8.0107-.5791-9.555"
     id="path10"
     style="stroke:#ffffff;stroke-opacity:1" />
  <path
     class="c"
     d="m39.0523,20.8796l-9.555,8.3003c2.7989,4.9223,6.37,7.8177,8.8794,6.8526,3.0885-1.2547,3.378-8.0107.6756-15.1528Z"
     id="path12"
     style="stroke:#ffffff;stroke-opacity:1" />
  <path
     class="c"
     d="m37.4116,17.1155l-9.6515,8.3968c-.0965-.193-.193-.4826-.2895-.7721-2.8954-7.4316-2.6059-14.3807.4826-15.6354,2.7024-.9651,6.563,2.5094,9.4585,8.0107Z"
     id="path14"
     style="stroke:#ffffff;stroke-opacity:1" />
  <path
     class="c"
     d="m19.9424,38.0592h0c0,2.0268-1.6408,3.571-3.7641,3.571s-3.7641-1.5442-3.7641-3.4745v-.4826"
     id="path16"
     style="stroke:#ffffff;stroke-opacity:1" />
</svg>
