<svg xmlns="http://www.w3.org/2000/svg" version="1.1" xmlns:xlink="http://www.w3.org/1999/xlink" xmlns:svgjs="http://svgjs.dev/svgjs" width="1440" height="560" preserveAspectRatio="none" viewBox="0 0 1440 560"><g mask="url(&quot;#SvgjsMask1058&quot;)" fill="none"><path d="M53.29 443.67L118.24 481.17L118.24 556.17L53.29 593.67L-11.66 556.17L-11.66 481.17zM118.24 556.17L183.2 593.67L183.2 668.67L118.24 706.17L53.29 668.67L53.29 593.67zM183.2 218.67L248.15 256.17L248.15 331.17L183.2 368.67L118.24 331.17L118.24 256.17zM378.06 106.17L443.01 143.67L443.01 218.67L378.06 256.17L313.11 218.67L313.11 143.67zM443.01 218.67L507.97 256.17L507.97 331.17L443.01 368.67L378.06 331.17L378.06 256.17zM443.01 443.67L507.97 481.17L507.97 556.17L443.01 593.67L378.06 556.17L378.06 481.17zM507.97 556.17L572.92 593.67L572.92 668.67L507.97 706.17L443.01 668.67L443.01 593.67zM572.92 443.67L637.87 481.17L637.87 556.17L572.92 593.67L507.97 556.17L507.97 481.17zM897.69 556.17L962.64 593.67L962.64 668.67L897.69 706.17L832.73 668.67L832.73 593.67zM962.64 -6.33L1027.6 31.17L1027.6 106.17L962.64 143.67L897.69 106.17L897.69 31.17zM1027.6 556.17L1092.55 593.67L1092.55 668.67L1027.6 706.17L962.64 668.67L962.64 593.67zM1092.55 -6.33L1157.5 31.17L1157.5 106.17L1092.55 143.67L1027.6 106.17L1027.6 31.17zM1157.5 556.17L1222.46 593.67L1222.46 668.67L1157.5 706.17L1092.55 668.67L1092.55 593.67zM1287.41 331.17L1352.36 368.67L1352.36 443.67L1287.41 481.17L1222.46 443.67L1222.46 368.67z" stroke="rgba(251, 37, 118, 0.45)" stroke-width="2"></path><path d="M45.79 443.67 a7.5 7.5 0 1 0 15 0 a7.5 7.5 0 1 0 -15 0zM110.74 481.17 a7.5 7.5 0 1 0 15 0 a7.5 7.5 0 1 0 -15 0zM110.74 556.17 a7.5 7.5 0 1 0 15 0 a7.5 7.5 0 1 0 -15 0zM45.79 593.67 a7.5 7.5 0 1 0 15 0 a7.5 7.5 0 1 0 -15 0zM-19.16 556.17 a7.5 7.5 0 1 0 15 0 a7.5 7.5 0 1 0 -15 0zM-19.16 481.17 a7.5 7.5 0 1 0 15 0 a7.5 7.5 0 1 0 -15 0zM175.7 593.67 a7.5 7.5 0 1 0 15 0 a7.5 7.5 0 1 0 -15 0zM175.7 668.67 a7.5 7.5 0 1 0 15 0 a7.5 7.5 0 1 0 -15 0zM110.74 706.17 a7.5 7.5 0 1 0 15 0 a7.5 7.5 0 1 0 -15 0zM45.79 668.67 a7.5 7.5 0 1 0 15 0 a7.5 7.5 0 1 0 -15 0zM175.7 218.67 a7.5 7.5 0 1 0 15 0 a7.5 7.5 0 1 0 -15 0zM240.65 256.17 a7.5 7.5 0 1 0 15 0 a7.5 7.5 0 1 0 -15 0zM240.65 331.17 a7.5 7.5 0 1 0 15 0 a7.5 7.5 0 1 0 -15 0zM175.7 368.67 a7.5 7.5 0 1 0 15 0 a7.5 7.5 0 1 0 -15 0zM110.74 331.17 a7.5 7.5 0 1 0 15 0 a7.5 7.5 0 1 0 -15 0zM110.74 256.17 a7.5 7.5 0 1 0 15 0 a7.5 7.5 0 1 0 -15 0zM370.56 106.17 a7.5 7.5 0 1 0 15 0 a7.5 7.5 0 1 0 -15 0zM435.51 143.67 a7.5 7.5 0 1 0 15 0 a7.5 7.5 0 1 0 -15 0zM435.51 218.67 a7.5 7.5 0 1 0 15 0 a7.5 7.5 0 1 0 -15 0zM370.56 256.17 a7.5 7.5 0 1 0 15 0 a7.5 7.5 0 1 0 -15 0zM305.61 218.67 a7.5 7.5 0 1 0 15 0 a7.5 7.5 0 1 0 -15 0zM305.61 143.67 a7.5 7.5 0 1 0 15 0 a7.5 7.5 0 1 0 -15 0zM500.47 256.17 a7.5 7.5 0 1 0 15 0 a7.5 7.5 0 1 0 -15 0zM500.47 331.17 a7.5 7.5 0 1 0 15 0 a7.5 7.5 0 1 0 -15 0zM435.51 368.67 a7.5 7.5 0 1 0 15 0 a7.5 7.5 0 1 0 -15 0zM370.56 331.17 a7.5 7.5 0 1 0 15 0 a7.5 7.5 0 1 0 -15 0zM435.51 443.67 a7.5 7.5 0 1 0 15 0 a7.5 7.5 0 1 0 -15 0zM500.47 481.17 a7.5 7.5 0 1 0 15 0 a7.5 7.5 0 1 0 -15 0zM500.47 556.17 a7.5 7.5 0 1 0 15 0 a7.5 7.5 0 1 0 -15 0zM435.51 593.67 a7.5 7.5 0 1 0 15 0 a7.5 7.5 0 1 0 -15 0zM370.56 556.17 a7.5 7.5 0 1 0 15 0 a7.5 7.5 0 1 0 -15 0zM370.56 481.17 a7.5 7.5 0 1 0 15 0 a7.5 7.5 0 1 0 -15 0zM565.42 593.67 a7.5 7.5 0 1 0 15 0 a7.5 7.5 0 1 0 -15 0zM565.42 668.67 a7.5 7.5 0 1 0 15 0 a7.5 7.5 0 1 0 -15 0zM500.47 706.17 a7.5 7.5 0 1 0 15 0 a7.5 7.5 0 1 0 -15 0zM435.51 668.67 a7.5 7.5 0 1 0 15 0 a7.5 7.5 0 1 0 -15 0zM565.42 443.67 a7.5 7.5 0 1 0 15 0 a7.5 7.5 0 1 0 -15 0zM630.37 481.17 a7.5 7.5 0 1 0 15 0 a7.5 7.5 0 1 0 -15 0zM630.37 556.17 a7.5 7.5 0 1 0 15 0 a7.5 7.5 0 1 0 -15 0zM890.19 556.17 a7.5 7.5 0 1 0 15 0 a7.5 7.5 0 1 0 -15 0zM955.14 593.67 a7.5 7.5 0 1 0 15 0 a7.5 7.5 0 1 0 -15 0zM955.14 668.67 a7.5 7.5 0 1 0 15 0 a7.5 7.5 0 1 0 -15 0zM890.19 706.17 a7.5 7.5 0 1 0 15 0 a7.5 7.5 0 1 0 -15 0zM825.23 668.67 a7.5 7.5 0 1 0 15 0 a7.5 7.5 0 1 0 -15 0zM825.23 593.67 a7.5 7.5 0 1 0 15 0 a7.5 7.5 0 1 0 -15 0zM955.14 -6.33 a7.5 7.5 0 1 0 15 0 a7.5 7.5 0 1 0 -15 0zM1020.1 31.17 a7.5 7.5 0 1 0 15 0 a7.5 7.5 0 1 0 -15 0zM1020.1 106.17 a7.5 7.5 0 1 0 15 0 a7.5 7.5 0 1 0 -15 0zM955.14 143.67 a7.5 7.5 0 1 0 15 0 a7.5 7.5 0 1 0 -15 0zM890.19 106.17 a7.5 7.5 0 1 0 15 0 a7.5 7.5 0 1 0 -15 0zM890.19 31.17 a7.5 7.5 0 1 0 15 0 a7.5 7.5 0 1 0 -15 0zM1020.1 556.17 a7.5 7.5 0 1 0 15 0 a7.5 7.5 0 1 0 -15 0zM1085.05 593.67 a7.5 7.5 0 1 0 15 0 a7.5 7.5 0 1 0 -15 0zM1085.05 668.67 a7.5 7.5 0 1 0 15 0 a7.5 7.5 0 1 0 -15 0zM1020.1 706.17 a7.5 7.5 0 1 0 15 0 a7.5 7.5 0 1 0 -15 0zM1085.05 -6.33 a7.5 7.5 0 1 0 15 0 a7.5 7.5 0 1 0 -15 0zM1150 31.17 a7.5 7.5 0 1 0 15 0 a7.5 7.5 0 1 0 -15 0zM1150 106.17 a7.5 7.5 0 1 0 15 0 a7.5 7.5 0 1 0 -15 0zM1085.05 143.67 a7.5 7.5 0 1 0 15 0 a7.5 7.5 0 1 0 -15 0zM1150 556.17 a7.5 7.5 0 1 0 15 0 a7.5 7.5 0 1 0 -15 0zM1214.96 593.67 a7.5 7.5 0 1 0 15 0 a7.5 7.5 0 1 0 -15 0zM1214.96 668.67 a7.5 7.5 0 1 0 15 0 a7.5 7.5 0 1 0 -15 0zM1150 706.17 a7.5 7.5 0 1 0 15 0 a7.5 7.5 0 1 0 -15 0zM1279.91 331.17 a7.5 7.5 0 1 0 15 0 a7.5 7.5 0 1 0 -15 0zM1344.86 368.67 a7.5 7.5 0 1 0 15 0 a7.5 7.5 0 1 0 -15 0zM1344.86 443.67 a7.5 7.5 0 1 0 15 0 a7.5 7.5 0 1 0 -15 0zM1279.91 481.17 a7.5 7.5 0 1 0 15 0 a7.5 7.5 0 1 0 -15 0zM1214.96 443.67 a7.5 7.5 0 1 0 15 0 a7.5 7.5 0 1 0 -15 0zM1214.96 368.67 a7.5 7.5 0 1 0 15 0 a7.5 7.5 0 1 0 -15 0z" fill="rgba(251, 37, 118, 0.45)"></path><path d="M47.46 32.8L90.77 57.8L90.77 107.8L47.46 132.8L4.16 107.8L4.16 57.8zM4.16 107.8L47.46 132.8L47.46 182.8L4.16 207.8L-39.14 182.8L-39.14 132.8zM4.16 407.8L47.46 432.8L47.46 482.8L4.16 507.8L-39.14 482.8L-39.14 432.8zM47.46 482.8L90.77 507.8L90.77 557.8L47.46 582.8L4.16 557.8L4.16 507.8zM90.77 107.8L134.07 132.8L134.07 182.8L90.77 207.8L47.46 182.8L47.46 132.8zM134.07 182.8L177.37 207.8L177.37 257.8L134.07 282.8L90.77 257.8L90.77 207.8zM90.77 257.8L134.07 282.8L134.07 332.8L90.77 357.8L47.46 332.8L47.46 282.8zM134.07 482.8L177.37 507.8L177.37 557.8L134.07 582.8L90.77 557.8L90.77 507.8zM220.67 32.8L263.98 57.8L263.98 107.8L220.67 132.8L177.37 107.8L177.37 57.8zM177.37 257.8L220.67 282.8L220.67 332.8L177.37 357.8L134.07 332.8L134.07 282.8zM220.67 332.8L263.98 357.8L263.98 407.8L220.67 432.8L177.37 407.8L177.37 357.8zM307.28 182.8L350.58 207.8L350.58 257.8L307.28 282.8L263.98 257.8L263.98 207.8zM307.28 332.8L350.58 357.8L350.58 407.8L307.28 432.8L263.98 407.8L263.98 357.8zM393.88 32.8L437.19 57.8L437.19 107.8L393.88 132.8L350.58 107.8L350.58 57.8zM393.88 182.8L437.19 207.8L437.19 257.8L393.88 282.8L350.58 257.8L350.58 207.8zM350.58 257.8L393.88 282.8L393.88 332.8L350.58 357.8L307.28 332.8L307.28 282.8zM393.88 332.8L437.19 357.8L437.19 407.8L393.88 432.8L350.58 407.8L350.58 357.8zM350.58 407.8L393.88 432.8L393.88 482.8L350.58 507.8L307.28 482.8L307.28 432.8zM437.19 -42.2L480.49 -17.2L480.49 32.8L437.19 57.8L393.88 32.8L393.88 -17.2zM480.49 182.8L523.79 207.8L523.79 257.8L480.49 282.8L437.19 257.8L437.19 207.8zM437.19 407.8L480.49 432.8L480.49 482.8L437.19 507.8L393.88 482.8L393.88 432.8zM480.49 482.8L523.79 507.8L523.79 557.8L480.49 582.8L437.19 557.8L437.19 507.8zM567.09 32.8L610.39 57.8L610.39 107.8L567.09 132.8L523.79 107.8L523.79 57.8zM523.79 107.8L567.09 132.8L567.09 182.8L523.79 207.8L480.49 182.8L480.49 132.8zM523.79 407.8L567.09 432.8L567.09 482.8L523.79 507.8L480.49 482.8L480.49 432.8zM610.39 -42.2L653.7 -17.2L653.7 32.8L610.39 57.8L567.09 32.8L567.09 -17.2zM610.39 107.8L653.7 132.8L653.7 182.8L610.39 207.8L567.09 182.8L567.09 132.8zM653.7 182.8L697 207.8L697 257.8L653.7 282.8L610.39 257.8L610.39 207.8zM653.7 332.8L697 357.8L697 407.8L653.7 432.8L610.39 407.8L610.39 357.8zM653.7 482.8L697 507.8L697 557.8L653.7 582.8L610.39 557.8L610.39 507.8zM697 257.8L740.3 282.8L740.3 332.8L697 357.8L653.7 332.8L653.7 282.8zM697 407.8L740.3 432.8L740.3 482.8L697 507.8L653.7 482.8L653.7 432.8zM740.3 482.8L783.61 507.8L783.61 557.8L740.3 582.8L697 557.8L697 507.8zM826.91 32.8L870.21 57.8L870.21 107.8L826.91 132.8L783.61 107.8L783.61 57.8zM826.91 182.8L870.21 207.8L870.21 257.8L826.91 282.8L783.61 257.8L783.61 207.8zM826.91 332.8L870.21 357.8L870.21 407.8L826.91 432.8L783.61 407.8L783.61 357.8zM783.61 407.8L826.91 432.8L826.91 482.8L783.61 507.8L740.3 482.8L740.3 432.8zM913.51 182.8L956.82 207.8L956.82 257.8L913.51 282.8L870.21 257.8L870.21 207.8zM913.51 332.8L956.82 357.8L956.82 407.8L913.51 432.8L870.21 407.8L870.21 357.8zM913.51 482.8L956.82 507.8L956.82 557.8L913.51 582.8L870.21 557.8L870.21 507.8zM1000.12 32.8L1043.42 57.8L1043.42 107.8L1000.12 132.8L956.82 107.8L956.82 57.8zM1000.12 182.8L1043.42 207.8L1043.42 257.8L1000.12 282.8L956.82 257.8L956.82 207.8zM956.82 257.8L1000.12 282.8L1000.12 332.8L956.82 357.8L913.51 332.8L913.51 282.8zM1086.72 32.8L1130.03 57.8L1130.03 107.8L1086.72 132.8L1043.42 107.8L1043.42 57.8zM1086.72 332.8L1130.03 357.8L1130.03 407.8L1086.72 432.8L1043.42 407.8L1043.42 357.8zM1173.33 182.8L1216.63 207.8L1216.63 257.8L1173.33 282.8L1130.03 257.8L1130.03 207.8zM1130.03 257.8L1173.33 282.8L1173.33 332.8L1130.03 357.8L1086.72 332.8L1086.72 282.8zM1173.33 482.8L1216.63 507.8L1216.63 557.8L1173.33 582.8L1130.03 557.8L1130.03 507.8zM1216.63 -42.2L1259.93 -17.2L1259.93 32.8L1216.63 57.8L1173.33 32.8L1173.33 -17.2zM1216.63 257.8L1259.93 282.8L1259.93 332.8L1216.63 357.8L1173.33 332.8L1173.33 282.8zM1346.54 182.8L1389.84 207.8L1389.84 257.8L1346.54 282.8L1303.24 257.8L1303.24 207.8zM1303.24 257.8L1346.54 282.8L1346.54 332.8L1303.24 357.8L1259.93 332.8L1259.93 282.8zM1346.54 332.8L1389.84 357.8L1389.84 407.8L1346.54 432.8L1303.24 407.8L1303.24 357.8zM1389.84 107.8L1433.14 132.8L1433.14 182.8L1389.84 207.8L1346.54 182.8L1346.54 132.8zM1433.14 182.8L1476.45 207.8L1476.45 257.8L1433.14 282.8L1389.84 257.8L1389.84 207.8zM1389.84 257.8L1433.14 282.8L1433.14 332.8L1389.84 357.8L1346.54 332.8L1346.54 282.8zM1433.14 332.8L1476.45 357.8L1476.45 407.8L1433.14 432.8L1389.84 407.8L1389.84 357.8z" stroke="rgba(21, 0, 80, 0.33)" stroke-width="2"></path></g><defs><mask id="SvgjsMask1058"><rect width="1440" height="560" fill="#ffffff"></rect></mask></defs></svg>