<?xml version="1.0" encoding="UTF-8" standalone="no"?>
<svg
   xmlns:osb="http://www.openswatchbook.org/uri/2009/osb"
   xmlns:dc="http://purl.org/dc/elements/1.1/"
   xmlns:cc="http://creativecommons.org/ns#"
   xmlns:rdf="http://www.w3.org/1999/02/22-rdf-syntax-ns#"
   xmlns:svg="http://www.w3.org/2000/svg"
   xmlns="http://www.w3.org/2000/svg"
   xmlns:sodipodi="http://sodipodi.sourceforge.net/DTD/sodipodi-0.dtd"
   xmlns:inkscape="http://www.inkscape.org/namespaces/inkscape"
   version="1.0"
   viewBox="0 0 469 452"
   id="svg2"
   inkscape:version="0.91 r13725"
   sodipodi:docname="newlogo-white.svg">
  <defs
     id="defs12">
    <inkscape:path-effect
       effect="skeletal"
       id="path-effect5720"
       is_visible="true"
       pattern="m -124.49153,49.529661 c 0,-2.76 2.24,-5 5,-5 2.76,0 5,2.24 5,5 0,2.76 -2.24,5 -5,5 -2.76,0 -5,-2.24 -5,-5 z"
       copytype="single_stretched"
       prop_scale="1"
       scale_y_rel="false"
       spacing="0"
       normal_offset="0"
       tang_offset="0"
       prop_units="false"
       vertical_pattern="false"
       fuse_tolerance="0" />
    <inkscape:path-effect
       effect="spiro"
       id="path-effect5718"
       is_visible="true" />
    <linearGradient
       id="linearGradient5638"
       osb:paint="solid">
      <stop
         style="stop-color:#000000;stop-opacity:1;"
         offset="0"
         id="stop5640" />
    </linearGradient>
    <inkscape:path-effect
       effect="skeletal"
       id="path-effect4184"
       is_visible="true"
       pattern="M 0,5 C 0,2.24 2.24,0 5,0 7.76,0 10,2.24 10,5 10,7.76 7.76,10 5,10 2.24,10 0,7.76 0,5 Z"
       copytype="single_stretched"
       prop_scale="1"
       scale_y_rel="false"
       spacing="0"
       normal_offset="0"
       tang_offset="0"
       prop_units="false"
       vertical_pattern="false"
       fuse_tolerance="0" />
    <inkscape:path-effect
       effect="spiro"
       id="path-effect4182"
       is_visible="true" />
    <linearGradient
       id="linearGradient4168"
       osb:paint="solid">
      <stop
         style="stop-color:#000000;stop-opacity:1;"
         offset="0"
         id="stop4170" />
    </linearGradient>
  </defs>
  <sodipodi:namedview
     pagecolor="#ffffff"
     bordercolor="#666666"
     borderopacity="1"
     objecttolerance="10"
     gridtolerance="10"
     guidetolerance="10"
     inkscape:pageopacity="0"
     inkscape:pageshadow="2"
     inkscape:window-width="1920"
     inkscape:window-height="1017"
     id="namedview10"
     showgrid="false"
     inkscape:zoom="1.4767894"
     inkscape:cx="191.61921"
     inkscape:cy="227.04662"
     inkscape:window-x="0"
     inkscape:window-y="0"
     inkscape:window-maximized="1"
     inkscape:current-layer="svg2" />
  <metadata
     id="metadata8">
    <rdf:RDF>
      <cc:Work>
        <dc:format>image/svg+xml</dc:format>
        <dc:type
           rdf:resource="http://purl.org/dc/dcmitype/StillImage" />
        <cc:license
           rdf:resource="http://creativecommons.org/licenses/publicdomain/" />
        <dc:publisher>
          <cc:Agent
             rdf:about="http://openclipart.org/">
            <dc:title>Openclipart</dc:title>
          </cc:Agent>
        </dc:publisher>
        <dc:title></dc:title>
        <dc:date>2010-09-27T20:24:35</dc:date>
        <dc:description>Cyrillic letter A</dc:description>
        <dc:source>https://openclipart.org/detail/87397/cyrillic-letter-a-by-mireille</dc:source>
        <dc:creator>
          <cc:Agent>
            <dc:title>mireille</dc:title>
          </cc:Agent>
        </dc:creator>
        <dc:subject>
          <rdf:Bag>
            <rdf:li>Cyrillic</rdf:li>
            <rdf:li>alphabet</rdf:li>
            <rdf:li>black</rdf:li>
            <rdf:li>letter</rdf:li>
          </rdf:Bag>
        </dc:subject>
      </cc:Work>
      <cc:License
         rdf:about="http://creativecommons.org/licenses/publicdomain/">
        <cc:permits
           rdf:resource="http://creativecommons.org/ns#Reproduction" />
        <cc:permits
           rdf:resource="http://creativecommons.org/ns#Distribution" />
        <cc:permits
           rdf:resource="http://creativecommons.org/ns#DerivativeWorks" />
      </cc:License>
    </rdf:RDF>
  </metadata>
  <path
     style="fill:#ffffff;fill-opacity:1;fill-rule:evenodd;stroke:#ffffff;stroke-width:16;stroke-linecap:butt;stroke-linejoin:miter;stroke-miterlimit:4;stroke-dasharray:none;stroke-opacity:1"
     d="m 312.88481,309.13829 c -3.51916,1.31961 -36.74108,-89.28508 -75.96259,-200.66429 -0.20312,-0.5768 -0.40606,-1.15312 -0.60878,-1.72883 -40.78711,106.5866 -74.01391,192.11088 -77.37613,197.88558 0.009,-0.0619 0.0556,-0.004 0.0556,0.058 0,0.061 -0.0472,0.12099 -0.22491,0.058 0.30619,-3.67001 33.85277,-90.3177 77.56555,-201.56512 0.22906,0.57578 0.45838,1.1522 0.6879,1.72915 44.60059,112.11578 79.36838,202.91325 75.86339,204.22755 z"
     id="path4180"
     inkscape:original-d="m 312.88481,309.13829 -76.56133,-204.17491 -77.47084,199.72535 0.14024,0"
     inkscape:connector-curvature="0"
     inkscape:path-effect="#path-effect4182;#path-effect4184"
     sodipodi:nodetypes="cccc" />
  <path
     inkscape:connector-curvature="0"
     id="path16"
     style="fill:#ffffff;fill-opacity:1;fill-rule:evenodd;stroke:none"
     d="m 271.78764,242.99101 c 0.22267,0.26699 0.33107,0.41066 0.44707,0.50767 l 0.17126,-0.0232 -0.26208,-0.4921 c -0.0514,-0.0566 -0.15828,-0.0108 -0.35638,0.005 m 32.75452,31.46929 0.23917,0.51563 0.18131,-0.0498 -0.16928,-0.46166 -0.25127,-0.003 m -149.03438,21.99705 0.0824,0.1411 0.1637,-0.46771 -0.0453,-0.0821 -0.20087,0.40868 m -17.39273,40.59775 -0.0676,-0.62909 -0.19869,0.18912 -0.0106,0.63123 0.27732,-0.19134 m 138.38813,-90.64206 0.10509,0.40165 0.42536,-0.0991 -0.088,-0.28812 -0.44241,-0.0143 m -21.31606,-8.13671 -0.0537,-0.31936 c -0.18928,-0.022 -0.37649,-0.0411 -0.56494,-0.0566 l 0.0559,0.33547 c 0.18506,0.0162 0.37612,0.0255 0.55937,0.0411 m 59.66935,53.22697 -0.004,0.34211 c 0.21792,0.19259 0.42761,0.39037 0.64179,0.58172 l 8.2e-4,-0.16461 c -0.21434,-0.25678 -0.4288,-0.50139 -0.63984,-0.75921 m -185.4758,91.83935 -0.0443,0.50772 0.0905,0.55036 0.24151,-0.21475 -0.0207,-0.64082 -0.26647,-0.20263 m 14.06424,-32.3691 0.091,0.19414 c 0.13611,-0.38257 0.27514,-0.75176 0.41143,-1.13067 l -0.10076,-0.18351 c -0.13323,0.36973 -0.26948,0.73813 -0.40188,1.12015 m 171.26555,-61.9349 0.007,0.31993 c 0.29474,0.29685 0.59124,0.5815 0.88496,0.85833 l 0.007,-0.18212 c -0.29772,-0.33225 -0.59388,-0.66515 -0.89847,-0.99621 m -37.34866,-39.43204 0.0223,-0.33431 c -0.3301,-0.22424 -0.65955,-0.44366 -0.98631,-0.66905 l -0.0106,0.21422 c 0.32356,0.25305 0.64617,0.5245 0.97483,0.78928 m 27.48316,22.10229 -0.19423,0.12063 c 0.24438,0.4638 0.48624,0.92288 0.72689,1.38545 l 0.1011,-0.10161 c -0.2108,-0.47327 -0.42444,-0.9423 -0.63371,-1.40461 m -77.23562,-32.26016 0.0526,-0.34135 c -0.26473,-0.0254 -0.5329,-0.0639 -0.80152,-0.0926 l -0.005,0.14164 c 0.25114,0.0921 0.50542,0.19463 0.75387,0.29248 m -96.66802,122.79079 0.15505,0.26358 c 0.11537,-0.39392 0.23165,-0.79715 0.3486,-1.19136 -0.18059,-0.12243 -0.29653,-0.0752 -0.35384,0.0986 l -0.14964,0.82873 m 69.22045,-111.93554 0.0881,-0.081 -0.18029,0.0309 c -0.3294,0.0939 -0.65753,0.20607 -0.98654,0.31305 l 0.029,0.20474 c 0.36481,-0.16784 0.72583,-0.33392 1.04842,-0.46761 m -54.83177,63.74016 c -0.21587,0.3087 -0.44012,0.50988 -0.37151,1.1388 l 0.19325,0.15832 c 0.23387,-0.32077 0.32047,-0.72818 0.1783,-1.29728 m 163.39031,-15.58409 -0.0446,0.17179 c 0.49424,0.50885 0.99311,1.02582 1.49483,1.55115 l 0.005,-0.0844 c -0.48625,-0.55231 -0.96708,-1.09058 -1.4545,-1.63846 m -113.1004,-45.49083 c -0.68086,-0.45823 -0.98725,0.10359 -1.31989,0.53799 0.38513,-0.15905 0.76432,-0.31695 1.31989,-0.53799 m 72.00353,-9.4624 c 0.28271,0.17036 0.56154,0.3254 0.92163,0.53946 -0.36812,-0.8865 -0.36812,-0.8865 -0.92163,-0.53946 M 127.62577,364.45864 c 0.32614,-0.98677 0.65634,-1.96323 0.98971,-2.94022 -0.5319,0.54368 -0.7241,1.82872 -0.98971,2.94022 m 20.70005,-55.10714 -0.005,0.009 -0.15288,0.18133 c -0.32937,0.70402 -0.65637,1.40992 -0.98398,2.13048 l 0.0738,0.13122 c 0.33778,-0.76755 0.67281,-1.55341 1.06593,-2.45287 m 153.53955,-38.80344 c 1.40268,1.67999 1.39925,1.68059 1.84368,1.72138 -0.6518,-0.61695 -1.24838,-1.17373 -1.84368,-1.72138 m 11.32447,20.30522 -0.0264,0.17611 c 0.58762,0.6957 1.17907,1.40664 1.76541,2.11843 -0.50101,-0.85257 -1.03435,-1.54584 -1.56871,-2.22123 l -0.17018,-0.0734 m -117.10605,-38.7728 c 1.28879,-0.0672 1.77485,-0.3037 2.01126,-0.99039 -0.62204,0.29787 -1.21119,0.58152 -2.01126,0.99039 m 111.94596,23.38505 c 0.027,-0.92651 -0.19401,-1.55648 -0.74335,-2.05592 -0.37053,-0.32911 -0.82586,-0.71847 -0.67175,0.33588 0.46797,0.5587 0.93862,1.12439 1.4151,1.71997 m -35.23412,-30.78765 c 0.80247,1.14769 1.57791,1.47108 2.18411,1.05011 -0.6557,-0.74763 -0.65694,-0.75675 -2.18411,-1.05011 m -66.87993,2.50915 c -1.19873,0.484 -2.24333,0.57565 -3.19129,1.66661 1.03776,0.0322 2.50989,-0.66684 3.19129,-1.66661 m -23.74019,12.34533 c -1.12804,0.99627 -2.24455,2.0289 -3.35529,3.09322 l 0.0967,0.3558 c 1.14051,-0.95076 2.35941,-1.57191 3.25853,-3.44911 m -50.28528,120.551 c -0.37567,0.7871 -0.63917,1.67909 -0.93797,1.92189 -0.51522,0.42387 -0.77263,1.28035 -0.93642,2.52405 l 0.0328,0.28817 c 0.19626,-0.25261 0.38569,-0.50406 0.58027,-0.7491 0.17109,1.33057 -0.38577,1.54267 -0.47838,2.54605 l 0.35444,-0.15959 c 0.64807,-1.79386 1.0419,-3.90196 1.38354,-6.37162 m 184.25964,-86.75859 c -1.23913,-1.78328 0.37687,-1.78328 -0.7951,-2.49858 m 9.43177,31.02508 c 0.46456,0.11183 0.92868,0.23362 1.46238,0.37966 -0.26861,-0.60406 -0.41502,-0.92384 -0.5558,-1.24132 l 0.0364,-0.23053 c 0.5404,0.6173 -2.55906,1.2459 -2.02494,1.86853 l -1.97074,-0.046 2.31402,-0.90963 c -0.50275,-0.54575 1.90943,-1.23615 1.46885,-1.42757 -1.16932,-0.49149 -2.37319,-1.93922 -3.56538,-3.02021 -0.82218,-0.74292 -1.64101,-1.30747 -2.46094,-2.44285 -0.31371,-0.42294 -0.62941,-0.82314 -0.92673,-1.45871 0.92695,0.77036 1.8607,1.57782 2.79571,2.39446 l -1.2056,-2.28793 c -0.71589,-0.80648 0.60172,0.14053 -0.10258,-0.58051 -0.61724,-0.63177 -2.22873,-0.72049 -2.90231,-2.44351 3.88775,3.69917 -0.56058,7.68703 3.08926,9.90822 -0.1004,-0.60522 1.28207,-0.31839 1.01031,-0.613 -0.36666,-0.39007 0.34424,-0.86646 -9.6e-4,-1.07373 -1.0631,-0.59378 3.16471,-2.24344 2.07387,-3.20678 -0.35612,-0.31289 -0.0522,-1.38676 -0.41536,-1.85403 -1.38982,-1.79018 0.13789,-2.90242 -1.20748,-5.01794 -0.48933,-0.76673 -4.6585,-1.06282 -5.16069,-1.92407 -0.37736,-0.64759 -0.93938,-1.07894 -1.39229,-1.3608 -0.53993,-0.33284 -1.02544,-0.72639 -1.56414,-1.53607 -0.34547,-0.51562 -0.76333,-0.80904 -1.37406,-1.41855 0.80294,1.96908 1.73847,2.34217 2.59734,3.92932 -0.36776,-0.28362 -0.56768,-0.37015 -0.75267,-0.57776 -1.17735,-1.32982 -2.34938,-2.67176 -3.52748,-3.95611 -0.83724,-0.91702 -1.68597,-1.77785 -2.52294,-2.68037 -0.57082,-0.62339 -1.14016,-1.28715 -1.69028,-2.0014 -1.22989,-1.58762 -2.45464,-2.83084 -3.72904,-3.5053 -0.4519,-0.23667 -0.94935,-0.7688 -1.41513,-1.22183 -1.00719,-0.97577 -2.01073,-2.00166 -3.01622,-2.91371 -0.30558,-0.27442 -0.62338,-0.33165 -0.93744,-0.4896 l -0.005,0.31472 c 0.24573,0.2574 0.49427,0.50888 0.7366,0.76647 1.26268,1.38111 2.54313,2.5601 3.78472,4.20789 0.83965,1.12686 1.80455,1.81779 2.71794,2.73113 l 0.40667,0.3136 c 1.14213,1.36529 2.28345,2.776 3.41905,4.19569 l -0.0433,0.28253 c -0.57492,-0.39787 -1.15983,-0.65198 -1.7207,-1.20224 -1.83863,-1.8246 -3.6714,-3.61933 -5.50442,-5.44115 -1.84689,-1.84704 -3.67721,-3.77724 -5.5321,-5.52947 -1.46815,-1.3936 -2.94866,-2.54585 -4.41735,-3.34215 -0.22816,-0.12889 -0.42788,0.0802 -0.72277,0.16551 -0.6039,-0.3677 -1.33535,-0.73877 -2.07181,-1.24826 -0.66704,-0.46062 -1.34213,-1.12077 -2.01457,-1.60801 -0.32165,-0.23877 -0.65426,-0.32825 -0.97758,-0.4645 l -0.47015,-0.17538 c -1.1404,-1.07168 -2.28935,-1.32411 -3.43246,-2.38971 -0.76597,-0.71379 -1.52114,-1.10511 -2.42742,-0.99533 0.8115,0.71533 1.44935,1.29401 2.09018,1.8563 l 0.0256,0.18742 c -0.27368,-0.0787 -0.54334,-0.14074 -0.85478,-0.22808 0.0804,0.28195 0.13251,0.47407 0.24709,0.89229 -1.87655,-1.89847 -3.70446,-3.1081 -5.54141,-3.5274 0.43686,0.45842 0.87397,0.89295 1.31127,1.35458 l -0.018,0.15259 c -0.63595,-0.57716 -1.27365,-1.14186 -1.91224,-1.70035 l -0.24615,-0.28498 c -0.84072,0.29713 -1.69902,-0.97935 -2.55265,-1.39029 -1.03031,-0.50637 -2.06572,-1.02451 -3.09401,-1.50369 l -0.30419,-0.14899 c -1.04829,-1.07293 -2.05771,-1.01701 -3.08337,-1.42561 -1.39669,-0.53671 -2.79606,-1.15704 -4.18858,-1.63794 -0.75851,-0.26273 -1.50563,-0.36478 -2.25852,-0.59901 -1.79711,-0.56163 -3.59294,-1.10103 -5.38178,-1.55058 -1.52626,-0.38879 -3.06644,-0.89208 -4.55838,-0.97792 -3.79916,-0.22416 -7.62866,-0.77352 -11.41567,-0.88302 -1.4188,-0.0474 -2.8447,-0.13373 -4.24847,-0.058 -0.53386,0.0312 -1.05678,0.13015 -1.58088,0.23303 -0.32459,0.059 -0.65021,0.12297 -0.97686,0.16713 -1.10294,0.13607 -2.2063,0.26948 -3.30978,0.40184 -0.5668,0.0709 -1.14555,0.0804 -1.72321,0.12189 -0.18978,0.0143 -0.4157,-0.0729 -0.56569,0.0404 -1.00168,0.84145 -2.15745,1.07566 -3.28093,1.0488 -0.79835,-0.0185 -1.47834,0.20576 -2.21551,0.4957 -1.57299,0.62315 -3.19588,1.03234 -4.78413,1.60365 -0.20735,0.0807 -0.4325,0.10017 -0.68864,-0.0374 0.29349,-0.16695 0.58898,-0.31983 0.88258,-0.48708 l -0.0292,-0.20472 c -1.36746,0.37796 -2.73024,0.76622 -4.07705,1.28174 -1.28487,0.4804 -2.55654,1.058 -3.80232,1.7347 -1.24732,0.67182 -2.44308,1.56613 -3.68189,2.27484 -1.35462,0.77759 -2.73948,1.41779 -4.09309,2.21343 -1.35642,0.78863 -2.69485,1.64942 -4.02234,2.56627 -1.76002,1.21747 -3.51266,2.50335 -5.22545,3.93706 -0.86993,0.72411 -1.68021,1.6473 -2.53123,2.44666 -1.86728,1.7634 -3.72205,3.57746 -5.54256,5.52446 -0.21523,0.21701 -0.42897,0.44574 -0.6409,0.68253 -1.70358,1.98027 -3.48062,3.66237 -5.24263,5.4442 -1.43683,1.45612 -2.80693,3.16343 -4.18102,4.84618 -0.44049,0.54267 -0.88528,1.07671 -1.30434,1.67596 -2.30831,3.3538 -4.70474,6.51986 -6.74717,10.6277 -0.38406,0.77038 -0.87484,1.32726 -1.2591,2.11773 -1.7013,3.42516 -3.31985,7.05347 -4.93545,10.68823 -1.0032,2.25248 -2.05962,4.40469 -3.05014,6.69146 -0.40419,0.94717 -0.76995,1.96813 -1.15834,2.93645 -0.2085,0.52117 -0.22152,0.49584 -0.70567,0.15815 0.94658,-2.33437 1.8847,-4.55559 2.83786,-6.73733 l -0.12367,-0.26892 c -0.31717,0.63836 -0.63143,1.26687 -0.94211,1.9224 l -0.14027,-0.23169 c 0.22991,-0.71831 0.4129,-1.56738 0.70616,-2.11194 1.5098,-2.74802 2.72919,-6.05099 4.07513,-9.1032 -1.63885,2.55516 -3.21946,5.27885 -4.5827,8.54943 -1.21816,2.93686 -2.61946,5.4439 -3.88237,8.2866 -0.20616,0.46424 -0.44466,0.86111 -0.68068,1.2557 -0.59097,1.04455 -1.23667,1.86715 -1.69402,3.3837 -0.30954,1.03849 -0.90914,1.66489 -1.24507,2.68963 -0.57885,1.76774 -1.34605,3.06721 -1.92405,4.81044 -0.1871,0.55961 -0.39122,1.10387 -0.63027,1.7854 0.17613,-0.056 0.24765,-0.0804 0.35037,-0.12531 -0.42359,1.18044 -0.82607,2.31517 -1.2255,3.45316 l -0.0366,-0.0596 0.14639,-0.6274 c -0.22597,-1.66784 0.34342,-2.58674 0.77263,-3.64566 0.15179,-0.37291 0.26838,-0.82162 0.4511,-1.38232 -0.28432,-0.0355 -0.47891,-0.10968 -0.67701,-0.0556 -0.3406,0.0652 -0.36469,0.25415 -0.49648,1.35872 -0.0617,0.52548 -0.24854,1.02103 -0.37522,1.5189 -0.42143,-0.67602 -0.66343,0.62283 -1.0534,0.78254 l 0.0968,-1.00202 c -0.22755,-0.28777 -0.4862,-0.26335 -0.70957,0.23817 -0.3742,0.84905 -0.74288,1.74246 -1.06281,2.70981 -0.49973,1.52033 -0.98262,3.08872 -1.39967,4.72988 -0.37071,1.4689 -0.64713,3.04953 -0.9864,4.73394 -0.31008,0.005 -0.54489,0.35416 -0.79687,1.22059 -0.45286,1.54866 -1.00804,2.94693 -1.55384,4.32719 -0.42973,1.10482 -0.90925,2.07945 -1.36616,3.13418 l -0.2293,0.61422 c -0.39383,2.58084 -1.36121,4.16822 -1.82713,6.70488 -0.26348,1.44694 -0.81858,2.71009 -1.30523,3.83559 -1.08533,2.54952 -2.09034,5.41382 -3.3101,7.44971 -0.44265,1.87914 -0.96533,3.45068 -1.68382,4.50273 -0.15451,0.22717 -0.25313,0.90307 -0.39555,1.4659 -0.65672,-1.29496 0.17163,-2.94986 0.11917,-4.43768 -0.55906,0.67979 -0.80734,1.93242 -0.95628,3.35612 -0.49442,-0.13446 -0.75921,-1.23907 -0.5639,-2.88061 0.10273,-0.85354 0.0454,-1.32925 -0.0738,-1.88386 -0.34608,-1.59996 -0.28329,-2.98885 0.3204,-4.38268 0.27168,-0.61232 0.37798,-1.24562 0.31472,-1.80977 -0.22056,-1.96278 0.23672,-3.34064 0.70163,-4.7509 l 0.26218,-0.97572 c -0.13936,-0.85414 -0.27599,-1.68683 -0.43951,-2.71023 -0.62256,1.39698 -1.15342,2.63779 -1.66007,3.82701 -0.2888,-0.44161 0.33867,-1.49814 -0.12604,-1.63767 0.018,-1.5728 -0.055,-3.13014 0.42037,-4.66447 0.43929,-1.3985 0.84455,-2.8733 1.25388,-4.33246 0.14801,-0.52545 0.24649,-1.13548 0.4272,-1.95134 -0.29889,0.0584 -0.50006,0.1043 -0.71925,0.15295 0.0276,-0.36992 0.0506,-0.69674 0.0873,-1.2032 -0.17792,0.42291 -0.32225,0.75606 -0.43066,1.01374 -0.23715,1.2745 0.51589,1.78452 -0.005,3.25728 -0.0934,-0.67584 -0.18099,-1.28145 -0.26755,-1.90731 -0.17433,0.34384 -0.34266,0.82532 -0.51182,0.94733 l -0.40496,-0.79083 c -0.50864,1.5583 -1.031,3.1718 -1.54257,4.81992 l -0.11476,-0.18103 c 0.18746,-1.12544 0.37549,-2.25647 0.59878,-3.52312 -0.347,-0.52472 -0.35827,-1.42997 -0.045,-2.4783 0.34581,-1.17083 0.54884,-2.41208 0.75876,-3.74218 0.19006,-1.1715 0.46362,-2.29893 0.56645,-3.53577 l 0.10743,-1.02236 c -0.0163,-2.67125 0.7226,-5.0174 1.05393,-7.51239 l 0.18321,-0.48415 c 0.10004,2.05248 -0.32091,4.02121 -0.56204,6.01569 -0.0954,0.79198 -0.12997,1.61197 -0.22124,2.80489 0.80659,-2.06373 1.00763,-4.75202 1.95742,-6.19393 0.29034,1.51052 -0.60839,3.03345 -0.18558,4.45973 -0.30707,-0.0222 -0.42372,-0.0209 -0.56424,-0.0331 -0.10097,0.75468 -0.20002,1.478 -0.295,2.21345 0.50419,-1.07197 1.02065,-1.74445 1.17673,-3.71516 0.23078,-2.9689 0.72028,-5.9367 1.12874,-8.87051 l 0.16261,0.0108 c -0.13556,1.2881 -0.2667,2.58624 -0.41091,4.08424 0.62416,-0.76567 0.70981,-1.93032 0.86498,-2.9629 l 0.37493,-0.24434 c 0.45722,-1.44735 0.90756,-2.90433 1.34908,-4.37278 0.39367,-1.29915 0.76283,-2.64408 1.16789,-3.91431 0.083,-0.26057 0.25103,-0.38423 0.46681,-0.67282 -0.55194,2.08923 -1.02535,3.952 -1.54707,6.06877 0.88136,-0.44611 1.19053,-1.96674 1.5306,-3.46882 0.21226,-0.90876 0.40442,-1.90002 0.68935,-2.66419 1.12271,-2.95373 2.29068,-5.77504 3.1271,-9.22181 0.0905,-0.36015 0.20969,-0.71857 0.34044,-1.01663 0.77327,-1.80424 1.56903,-3.55206 2.31804,-5.18067 -0.62938,1.75252 -1.29066,3.6834 -1.96186,5.59263 -0.94923,2.69975 -1.9229,5.38872 -2.80215,8.22229 -0.59233,1.92329 -1.12688,3.91656 -1.81902,5.67611 -0.18533,0.45129 -0.28456,1.12715 -0.41907,1.69783 l 0.15559,0.26161 c 0.33133,-0.80294 0.66646,-1.60887 1.0024,-2.40373 -0.36227,2.97363 -1.39301,4.92941 -2.01894,7.70889 0.1673,0.009 0.31022,0.031 0.47214,0.036 -0.0381,1.13266 -0.81999,1.73001 -0.50125,2.70675 -0.38691,1.18907 -0.70739,2.17287 -1.08111,3.35382 0.36242,-0.14576 0.7454,-1.30484 0.79378,0.16355 l 0.14496,-0.1237 c 0.29561,-0.97591 0.82975,-1.14582 1.0285,-2.58725 0.16189,-1.14825 0.54587,-2.19991 0.82923,-3.29044 l 0.20291,-0.92722 c 0.85846,-2.59684 1.74498,-5.12652 2.75949,-7.51082 -0.1736,0.72173 -0.3058,1.54015 -0.51934,2.17902 -0.64593,1.88992 -1.3177,3.73005 -1.9597,5.63756 -0.25355,0.75553 -0.49053,1.54278 -0.73071,2.32637 l 0.12367,0.26893 c 0.44796,-1.07106 1.00047,-1.98892 1.31958,-3.21172 0.44175,-1.70548 1.07885,-2.88594 1.56667,-4.39883 0.52385,-1.63217 1.02564,-3.30582 1.58064,-5.05451 -0.219,-0.18344 -0.33366,-0.2808 -0.56656,-0.47827 0.5054,-0.76917 0.93991,-1.26502 1.274,-2.01749 0.35839,-0.78982 0.82352,-1.5007 0.92989,-2.91188 -0.70381,0.14271 -0.6943,2.47345 -1.36554,2.59952 0.0186,-0.60742 0.59494,-1.07465 0.29369,-1.95257 -0.56542,0.71731 -0.71832,2.63083 -1.3887,3.24224 0.37149,-1.81587 0.72316,-3.49329 1.11421,-5.32182 l -0.0944,-0.75019 0.13033,-0.44238 c 0.66104,-1.08927 1.38612,-1.99835 1.99071,-3.23357 0.47574,-0.99213 0.8194,-2.38364 1.21885,-3.59074 0.12133,-0.39123 0.17218,-0.96399 0.31936,-1.20089 0.79115,-1.31293 1.1802,-3.27615 1.78534,-4.86522 0.62426,-1.64929 1.2904,-3.21606 1.97699,-4.7321 0.48606,-1.08128 0.792,-2.19622 0.73293,-3.7375 -0.40691,0.77244 -0.62551,2.0986 -1.28198,2.18335 0.2332,-1.57306 0.8901,-2.41909 1.21927,-3.66748 l -0.029,0.0126 c 0.27195,-0.0465 0.54141,-0.0854 0.8675,-0.13356 0.34277,-1.18855 0.7235,-2.48402 1.10902,-3.77288 l 0.11643,0.1332 c -0.2775,1.17922 -0.55045,2.3558 -0.81757,3.54589 l 0.10028,0.14703 c 0.49219,-1.13557 0.98563,-2.26767 1.48566,-3.37518 0.52492,-1.17951 1.0236,-2.36762 1.75483,-2.99275 0.35063,-0.29736 0.6657,-1.01014 0.97351,-1.59222 l 0.18471,-0.96055 c 0.1004,-0.39148 0.23074,-0.77313 0.4154,-1.37995 0.0756,0.60953 0.11327,0.90634 0.14674,1.15242 0.59688,-0.95675 1.162,-1.85624 1.73152,-2.74952 l 0.0516,0.1463 c -1.10734,2.21705 -2.19259,4.4821 -3.25973,6.79085 l 0.087,0.19517 c 0.40213,-0.74263 0.8013,-1.4787 1.19491,-2.19414 0.70848,0.24175 0.70644,0.2421 1.25505,-1.29886 -0.24905,0.0305 -0.46062,0.0601 -0.71212,0.0919 l 0.14225,-0.50427 c 0.75699,-1.50937 1.52713,-2.98649 2.30886,-4.42347 0.61684,-1.12981 1.24596,-2.21408 1.87318,-3.31254 0.083,-0.14342 0.13827,-0.36311 0.33817,-0.91764 -0.47886,0.47445 -0.75931,0.75233 -1.04002,1.02889 l -0.0821,-0.2144 c 0.1121,-0.32382 0.22417,-0.65142 0.42728,-1.22259 -0.37705,-0.0853 -0.7101,-0.15403 -1.14953,-0.2234 0.1948,-1.44078 0.98597,-1.78595 1.45501,-2.73115 l -0.0316,-0.002 c -0.17703,0.50318 -0.35038,1.01838 -0.55149,1.60931 0.16531,0.0883 0.36922,0.19812 0.64575,0.36052 0.16461,-1.23842 0.53674,-1.51189 1.09868,-1.8562 0.66703,-0.40235 1.30391,-1.54458 1.92483,-2.45405 0.43045,-0.63066 0.78278,-1.64889 1.34926,-1.02668 0.42646,-0.54958 0.87636,-1.04247 1.282,-1.65436 0.43224,-0.63801 0.83311,-1.3706 1.24563,-2.0622 0.81739,-1.35524 1.63673,-2.69122 2.47216,-3.99304 0.7018,-1.11485 1.43014,-2.17031 2.12866,-3.28469 0.53908,-0.88615 1.02999,-1.87199 1.55772,-2.7763 0.38291,-0.6496 0.77567,-1.29204 1.17693,-1.90649 0.51634,-0.80937 1.00657,-1.70538 1.57825,-2.32701 0.64415,-0.69436 1.36479,-1.11717 2.05192,-1.64552 0.69067,-0.53779 1.3791,-1.07705 2.20214,-1.70714 -0.95248,-0.24964 -1.5603,0.92587 -2.297,1.26546 2.85966,-3.02663 5.7499,-5.87023 8.49346,-9.1345 -0.21633,0.0298 -0.45448,0.0593 -0.7881,0.0968 0.54176,-0.82075 1.66534,-1.32701 2.80421,-1.29197 -0.30226,0.3276 -0.52908,0.58538 -0.82608,0.89693 0.17614,0.0743 0.26375,0.15797 0.33984,0.1332 0.47851,-0.2074 0.97683,-0.32938 1.42712,-0.65446 1.97927,-1.45035 3.97516,-2.84886 5.985,-4.16938 0.80527,-0.53032 1.58517,-1.16749 2.38452,-1.70564 0.95203,-0.62646 1.92073,-1.16653 2.8786,-1.75049 0.93373,-0.57053 1.85614,-1.19565 2.80495,-1.69536 0.32294,-0.17197 0.69317,-0.12566 1.04301,-0.17844 l 0.27611,-0.0659 c 0.64874,-1.48016 1.76687,-1.25186 2.66736,-1.70315 2.19563,-1.10974 4.45472,-1.89959 6.7145,-2.65867 0.58118,-0.18876 1.16983,-0.33701 1.8327,-0.51397 l -0.0659,-0.65318 c 0.82597,-0.1788 1.64696,-0.32921 2.46467,-0.51524 0.0471,-0.0126 0.0951,-0.0162 0.14296,-0.0246 0.23692,-0.037 0.47745,-0.0745 0.5906,-0.57345 0.045,-0.21744 0.46335,-0.28038 0.71913,-0.28193 0.91971,0.002 1.84669,0.17144 2.52527,-0.99613 0.12025,-0.20337 0.50532,-0.0488 0.76699,-0.0587 0.36321,-0.005 0.88855,0.19447 1.0496,-0.0807 0.71872,-1.24352 1.75097,-0.79962 2.67064,-0.81096 0.58082,-0.007 1.16696,0.33343 1.47314,-0.69181 0.0677,-0.2183 0.40641,-0.27628 0.63786,-0.31586 1.54867,-0.26501 3.1131,-0.4523 4.8949,-0.60396 -0.22877,0.31503 -0.31993,0.43838 -0.52442,0.73974 0.86088,-0.0213 1.59319,-0.0143 2.32807,-0.0161 l 0.0106,-0.14575 c -0.40882,-0.15098 -0.81695,-0.30929 -1.38951,-0.51086 0.23533,-0.18977 0.30701,-0.28991 0.38825,-0.29449 1.2657,0.0354 2.54151,0.15815 3.814,0.23103 0.57376,0.0312 1.13824,-0.0563 1.70538,-0.11165 0.67638,-0.0593 1.35568,-0.10987 2.02573,-0.2147 1.09506,-0.16875 2.19534,-0.33757 3.29129,-0.52508 0.62956,-0.096 1.23646,-0.26856 1.91698,-0.41211 -0.29285,-1.01249 -0.77579,-0.70884 -1.16499,-0.77913 -0.43736,-0.0785 -0.87746,-0.0872 -1.47741,-0.11955 0.18319,-0.47103 0.28226,-0.72723 0.42304,-1.08732 -1.18414,-0.40855 -2.29716,0.16497 -3.47239,-0.91886 0.21865,-0.0193 0.43239,-0.0472 0.6545,-0.0664 0.57666,-0.036 1.15001,-0.0987 1.73263,-0.0903 0.62388,0.0161 1.24263,-0.0443 1.7526,1.07808 0.16784,0.36382 0.62625,0.65966 0.94153,0.737 1.41128,0.28609 2.81165,0.50487 4.29196,1.10575 -0.13413,0.0885 -0.27059,0.18674 -0.44201,0.29619 l 0.23994,0.25278 c 1.71058,-0.21419 3.49699,0.1025 5.27754,0.36373 0.26815,0.0384 0.70137,0.0989 0.75129,-0.10987 0.21807,-0.92981 0.84456,-0.57536 1.35026,-0.55779 0.68389,0.009 1.38993,0.11651 2.08889,0.19772 0.35644,0.034 0.65366,0.18345 0.70692,1.27714 0.36305,-2.12843 1.55034,-0.45706 2.32877,-0.52111 -0.53505,-1.03833 -1.42147,-1.2044 -1.88964,-2.30135 -0.0575,-0.1271 -0.34207,-0.1332 -0.51002,-0.15204 -0.58908,-0.0542 -1.16696,-0.0903 -1.85524,-0.13159 l 0.0403,-0.68961 c 0.88847,-0.25363 1.79576,-0.43277 2.73537,-0.63027 l 0.31569,1.00064 c 1.46969,0.15223 2.92175,0.34163 4.38435,0.58248 l 0.0743,0.30132 c -0.28916,0.037 -0.57769,0.0802 -0.8743,0.10195 0.65686,1.33151 0.84142,1.40788 1.97458,0.86681 0.23843,0.26795 0.49208,0.55689 0.97701,1.09961 -0.93479,-0.0224 -1.65266,-0.0257 -2.46587,-0.0126 0.47524,0.82942 0.94858,1.0059 1.19365,0.67002 0.24899,-0.33269 0.46554,-0.18762 0.79834,-0.0716 1.0831,0.36982 2.17885,1.02391 3.24586,0.93055 0.7339,-0.0711 1.6266,0.43522 2.45688,0.73895 0.37098,0.128 0.62868,0.44706 0.6646,1.08159 l 0.24028,0.98316 c -0.22236,-0.17432 -0.55843,-0.35354 -0.58318,-0.48433 -0.24894,-1.25362 -0.74295,-1.0046 -1.24651,-1.18529 -0.14331,-0.0542 -0.27758,-0.0179 -0.41249,0.0143 -0.25912,0.067 -0.51956,0.13625 -0.8336,-0.43024 -0.32946,0.2661 -0.66859,0.52512 -1.00879,0.80201 0.097,0.48013 0.20109,0.98987 0.34643,1.71127 1.10667,-0.58141 2.25198,-1.07131 3.76777,0.88888 -0.30644,0.0275 -0.5904,0.0635 -0.92945,0.0933 0.57642,1.00931 1.09305,0.51948 1.61621,0.83139 0.56478,0.32343 1.13487,0.41746 1.71709,0.62624 -0.38721,-1.21878 -0.38846,-1.2279 -1.69222,-2.28421 l 0.31803,-0.17107 c 0.0877,-0.0224 0.18903,-0.005 0.46484,-6.4e-4 -0.43246,-0.57924 -0.75118,-1.00135 -1.18609,-1.57314 0.44099,0.32266 0.7721,0.57999 1.1025,0.83187 0.16731,-0.65106 0.45097,-0.69073 1.03347,-0.0831 0.70893,0.74222 1.47522,1.47091 2.2123,1.88307 0.39353,0.21714 0.76999,-0.26673 1.20925,-0.45514 0.24912,1.20035 0.81196,1.46008 1.55981,1.68258 1.04288,0.29211 2.11915,0.93129 3.18221,2.16384 0.37641,0.43602 0.85236,0.59341 1.28073,0.91261 0.41698,0.31229 0.82738,0.65281 1.2399,0.9836 l -0.007,0.33919 c -1.53041,-0.91753 -3.06446,-1.78491 -4.59938,-2.62086 l -0.0163,0.251 c 0.39848,0.38086 0.79011,0.7629 1.20512,1.1629 l -0.23736,0.59714 c -0.7288,-0.53044 -1.52086,-1.4738 -2.13794,-0.92854 0.53438,1.59545 1.04444,1.61938 2.69397,1.41752 1.66334,1.80364 3.39451,2.75038 5.19353,4.19487 -0.026,-0.32228 -0.0501,-0.55731 -0.0837,-0.99879 0.70405,0.94915 1.33951,1.81702 2.16754,2.96035 -2.65457,-1.53731 -5.06229,-3.46172 -7.4516,-4.63741 l -0.0163,0.35018 c 0.50592,0.44101 1.01087,0.97704 1.5182,1.3519 1.60013,1.16075 3.20365,2.32092 4.80604,3.52378 0.47014,0.35739 0.66533,0.90811 0.81309,1.62204 0.19572,0.0691 0.39607,0.13302 0.58376,0.19395 l -0.32757,-0.98599 0.22031,-0.0833 c 0.35501,0.21514 0.71696,0.44322 1.07455,0.70302 0.21164,0.14648 0.53271,0.33083 0.61774,0.55876 0.50857,1.29104 1.19559,1.56596 1.85877,2.0366 0.34792,0.25261 0.62381,0.55211 0.40541,1.14649 1.15256,0.67515 2.25188,1.35577 3.35316,2.05092 0.92772,0.58423 1.8569,1.08971 2.80642,2.71599 -0.11433,-0.61031 -0.17523,-0.92838 -0.24621,-1.30875 1.65408,2.20847 1.65552,2.24468 3.51609,3.41229 1.81114,1.16295 3.61698,2.31278 5.42569,3.53456 0.85087,0.56982 1.61496,1.16754 2.35403,2.71863 0.57711,1.21899 1.34965,2.2877 2.0298,3.43255 l 0.26247,0.45549 -0.11478,0.23123 c -0.51928,-0.53919 -1.0337,-1.11936 -1.54885,-1.577 -0.34128,-0.30646 -0.67584,-0.42263 -1.01664,-0.64891 -0.2281,-0.15277 -0.48625,-0.27116 -0.69771,-0.5577 -0.80716,-1.00299 -1.5863,-1.57058 -2.3788,-1.92938 0.23981,0.71085 0.4155,1.39994 0.70076,2.02447 0.21032,0.46961 0.54699,0.92136 0.84672,1.24246 1.30115,1.39465 2.60907,2.74977 3.90725,4.18696 1.09194,1.2019 2.16312,2.48072 3.25076,3.71469 0.65906,0.747 -0.70296,1.71615 -0.0373,2.43447 -2.36533,1.42272 -0.33413,1.51067 -0.15449,1.80662 1.14696,1.92469 0.003,3.63916 1.22722,5.00857 0.85623,0.967 -1.76459,3.60965 -0.88596,4.06348"
     sodipodi:nodetypes="ccccccccccccccccccccccccccccccccccccccccccccccccccccccccccccccccccccccccccccccccccccccccccccccccccccccccccccccccccccccccccccccccccccccccccccccccccccccccccccccccccccccccccccccccccccccccccccccccccccccccccccccccccccccccccccccccccccccccccccccccccccccccccccccccccccccccccccccccccccccccccccccccccccccccccccccccccccccccccccccccccccccccccccccccccccccccccccccccccccccccccccccccccccccccccccccccccccccccccccccccccccccccccccccccccccccccccccccccccccccccccccccccccccccccccccccccccccccccccccccccccccccccccccccccccccccccccccccccccccccccccccccccccccccccccccccccc" />
  <path
     inkscape:connector-curvature="0"
     style="fill:#ffffff;fill-opacity:1;fill-rule:nonzero;stroke:none"
     d="m 250.21194,53.524764 c -1.27483,2.042025 -2.51694,4.104446 -3.7266,6.182935 -4.60236,7.917381 -8.7068,16.112488 -12.31757,24.536543 -0.90051,2.099919 -1.77933,4.212216 -2.61895,6.340505 -0.20809,0.315494 -0.47769,0.785341 -0.82091,1.465984 0.0407,0.147294 0.082,0.256731 0.12604,0.345623 -3.87787,10.076706 -7.0698,20.441526 -9.59901,30.999756 0.21699,-0.0324 0.4343,-0.0528 0.6503,-0.0724 3.21816,-12.20849 7.35602,-24.181692 12.44374,-35.787668 0.2047,-0.103573 0.39421,-0.06825 0.56833,0.0875 -1.41109,3.549288 -1.43056,6.092131 -1.42394,8.699609 -0.35784,0.812518 -0.78565,1.626152 -1.09798,2.115641 -9.9e-4,-0.03884 -0.007,-0.08021 -0.0111,-0.115816 -0.0128,-0.136197 -0.0241,-0.271795 -0.0261,-0.413935 -0.003,-0.148712 -0.0763,-0.157462 -0.17024,-0.02522 -0.0932,0.136631 -0.16583,0.364474 -0.16426,0.512174 9.7e-4,0.116695 0.0121,0.22786 0.0212,0.340484 l -0.0596,0.239954 c 0.0261,1.295057 -1.18924,3.300897 -0.27632,2.351827 -0.48627,1.38247 -0.9663,3.01376 -1.40397,3.57388 0.12309,0.66032 1.04376,-1.28225 0.62424,0.34206 -0.70393,1.29808 -1.35848,1.5564 -1.30955,1.76936 0.54392,0.94531 -0.54646,1.26152 -0.66189,1.5055 -0.26737,0.55602 -0.54746,2.62517 -1.29111,3.03832 0.45431,0.80135 -0.27472,2.75248 -0.99901,4.6446 -0.72855,1.88599 -1.4532,3.71024 -1.08814,4.13197 -0.49295,2.43403 -0.20637,-0.57903 -0.59852,0.94679 -0.32197,1.5612 0.20336,-0.009 0.0706,1.84222 -0.2524,0.0132 -0.42843,0.12042 -0.55783,0.28539 0.41664,0.0644 0.84196,0.15746 1.27448,0.27209 0.61311,-2.44991 1.16874,-4.27627 1.72795,-6.48367 0.0374,0.11002 0.0654,0.23475 0.0783,0.41108 0.0125,0.14202 0.0817,0.15275 0.15852,0.0214 0.0331,-0.0563 0.0611,-0.13176 0.0814,-0.21016 0.0273,-0.10029 0.0413,-0.2063 0.0373,-0.28534 -0.0116,-0.12753 -0.025,-0.22966 -0.0429,-0.32136 l 0.047,-0.2819 c 0.54651,-1.51636 0.41342,-1.03295 0.71109,-2.44459 0.0327,0.10659 0.0582,0.22368 0.0669,0.39077 0.009,0.14145 0.0797,0.15026 0.15659,0.0214 0.035,-0.057 0.0658,-0.12937 0.0882,-0.20583 0.0272,-0.10017 0.045,-0.2039 0.0392,-0.28273 -0.007,-0.12615 -0.0248,-0.22814 -0.0415,-0.32113 l 0.0529,-0.28127 c 0.77015,-1.45698 0.13145,-2.03341 0.79145,-2.04283 0.18296,-2.22522 1.41711,-4.37214 2.02536,-6.90766 l 0.0325,0.0857 c -0.034,0.13092 -0.0737,0.2587 -0.10309,0.39553 -0.069,0.30813 -0.0269,0.5156 0.0933,0.46648 0.095,-0.0409 0.21116,-0.2331 0.28872,-0.46557 0.0191,-0.0583 0.0378,-0.12245 0.0511,-0.18463 0.0454,-0.19833 0.10133,-0.39342 0.15662,-0.59186 0.36778,0.58052 0.58461,-1.31446 0.50165,-1.60848 l -0.0102,0.006 c 0.0362,-0.20718 0.0197,-0.36795 -0.0513,-0.39622 -0.0966,-0.0364 -0.25565,0.18031 -0.35633,0.49425 l -0.0575,0.16605 c 0.15027,-0.65633 0.005,-0.92743 0.22114,-1.66082 0.29182,-0.65146 0.55927,-0.65683 0.85866,-1.372346 -0.20915,-0.02023 -0.2332,-0.275327 -0.12044,-0.696446 0.0768,-0.005 0.14313,-0.0331 0.20538,-0.0752 -0.0101,0.194405 -0.0201,0.389309 -0.0317,0.587125 0.32973,-0.149164 0.67659,-0.570515 1.05076,-1.248055 -0.009,1.597074 -1.47298,4.052852 -2.0139,6.342292 -0.47795,1.96763 -0.80666,5.11564 -0.54665,5.27567 0.28455,0.17828 0.89611,-0.86767 1.62193,-2.16549 0.008,0.0288 0.003,0.0529 0.01,0.0824 -2.00941,4.75211 -3.6475,10.77167 -5.10933,16.75626 0.58876,0.26578 1.19846,0.56501 1.84147,0.91408 2.77614,1.50715 6.35054,5.50985 8.65745,8.41252 l -0.003,-0.005 c 0.50944,-1.91266 0.47029,-1.7794 0.99357,-2.86178 0.40648,-1.77729 -0.79095,0.83885 -0.36491,-0.70194 0.20841,-0.35946 1.2004,-0.20424 0.84959,-1.29321 -0.16628,0.65044 -0.6021,0.44711 -0.48072,-0.2026 0.17266,0.47362 0.94405,-0.68841 0.57154,-0.8576 -0.22135,-1.58835 2.21421,-6.0046 2.43398,-9.42721 0.79331,0.20266 0.58788,-1.38209 1.37268,-2.10336 -0.80752,0.0606 0.54182,-3.56349 0.14843,-1.04816 0.31191,-1.1517 0.33766,-2.15587 0.94113,-2.88403 -0.4067,-0.1542 -0.79223,0.65206 -0.45989,-0.82193 0.20797,0.027 0.41324,0.32638 0.62881,-0.22048 -0.57823,-0.87888 1.53538,-2.69513 1.02237,-3.98948 0.79297,-0.092 0.69589,-2.39311 1.50095,-2.55601 0.16166,-0.80884 -0.21748,-0.99684 0.25918,-2.15523 0.0462,1.50692 0.42528,-1.23664 1.18746,-1.57786 -0.20703,-1.23016 1.51944,-2.766599 0.86656,-3.534999 0.69038,-0.707213 0.52476,-0.818864 0.45054,0.299778 0.38197,-1.472044 1.15466,-2.892333 1.84538,-4.270703 -0.1096,-0.521606 -0.30148,-0.839036 -0.7542,-0.584075 1.15755,-2.600743 1.65598,-3.507606 2.56637,-6.071184 -0.77396,-0.152952 -0.30794,-1.755482 0.33666,-3.374589 0.2301,-0.582721 0.481,-1.163307 0.70217,-1.685368 0.26694,-0.366114 0.55464,-0.692897 0.91624,-1.071038 -0.59572,-0.247381 1.5307,-2.668745 0.26456,-1.668141 -0.0155,0.192617 -0.27979,0.549772 -0.58003,0.989342 -0.002,-0.04412 -0.009,-0.08363 -0.0263,-0.107945 0.22955,-1.066136 1.06666,-2.235612 1.87896,-3.342038 -0.0158,0.13099 -0.0138,0.262316 0.0403,0.396327 0.93885,-1.989519 0.0882,0.588345 0.75778,-0.627604 -0.001,-0.443561 0.19227,-0.806057 0.44939,-1.133449 0.007,-9.18e-4 0.0147,0.0063 0.0233,-0.003 0.0682,-0.02982 0.1514,-0.148127 0.20291,-0.271352 0.0445,-0.04672 0.0879,-0.09556 0.13055,-0.142893 -0.0255,0.161949 -0.0617,0.336537 0.0251,0.412586 l 0.75785,-1.277777 0.16884,-0.211652 c 0.0178,-0.01049 0.0376,-0.02328 0.057,-0.03323 0.0461,0.03073 0.12515,-0.0014 0.2189,-0.108869 0.0411,-0.04628 0.0789,-0.102123 0.1134,-0.158861 0.0798,-0.138185 0.13235,-0.292122 0.12872,-0.397602 -0.005,-0.111905 -0.004,-0.207109 -0.001,-0.298991 l 0.0493,-0.113309 c 1.09395,-1.438842 0.8958,-1.239985 0.86197,-1.746102 0.0919,-0.185976 0.17606,-0.366268 0.25549,-0.543179 0.43786,-0.700272 1.14175,-1.591403 0.8721,-1.756954 l 0.004,-0.0087 c 0.006,-7.75e-4 0.0134,-0.0099 0.0194,-0.01747 l 0.19617,-0.169377 c 0.0418,-0.0364 0.0858,-0.08804 0.12084,-0.146214 0.0446,-0.0718 0.0788,-0.155109 0.0896,-0.223616 0.0217,-0.125009 -0.038,-0.159647 -0.13539,-0.07882 l -0.14286,0.123614 -0.0317,-0.02844 c 1.04931,-0.845595 2.4021,-3.50496 1.9516,-3.447852 0.0907,0.486328 -0.23986,0.731062 -0.58948,0.976445 0.35534,-0.576524 0.46068,-0.974493 0.41295,-1.274832 l -0.70155,1.053567 c 0.005,-0.121882 0.0166,-0.255745 0.0418,-0.41752 0.0238,-0.146319 -0.0567,-0.181002 -0.18062,-0.0765 -0.12329,0.103799 -0.24379,0.30651 -0.26581,0.452437 -0.0199,0.122836 -0.0316,0.232424 -0.0426,0.337387 l -0.0751,0.159385 c -0.89422,0.267164 -1.69537,0.06893 -3.08762,2.420698 -0.16683,0.06107 -0.33878,0.149875 -0.51367,0.24936 0.0249,-0.316269 0.0368,-0.624387 -0.15671,-0.77558 l -0.017,-0.07633 c 0.0686,-0.146851 0.13211,-0.294353 0.18531,-0.456136 0.0727,-0.225752 0.0231,-0.350955 -0.11365,-0.280115 -0.0887,0.04662 -0.19169,0.166267 -0.27263,0.307031 1.08774,-2.247216 2.00504,-2.917393 3.23606,-5.377681 l 0.0845,-0.0029 c 0,0 -0.006,0.0089 -0.004,0.01738 -0.13806,0.287257 -0.13331,0.509249 0.0101,0.498294 0.11062,-0.01446 0.27473,-0.16099 0.40678,-0.36341 0.0358,-0.05571 0.0691,-0.116724 0.0991,-0.175971 0.0764,-0.1625 0.18231,-0.350118 0.30185,-0.55149 0.15073,-0.05399 0.33935,-0.245208 0.44869,-0.135455 -0.37966,0.89338 -1.30149,0.99336 -1.07866,1.659874 1.02802,-1.08348 1.56843,-2.182939 2.01335,-3.370862 0.0117,0.09273 0.0241,0.185788 0.0322,0.285313 0.0154,0.163856 0.17202,0.134535 0.35341,-0.06292 0.045,-0.04345 0.084,-0.09624 0.11999,-0.149876 0.11795,-0.175934 0.19634,-0.377097 0.18561,-0.502789 -0.007,-0.08185 -0.0164,-0.155962 -0.0261,-0.23105 l 0.0446,-0.08963 c 0.26648,-0.541692 1.14264,-1.471956 1.29529,-1.929832 0.0809,-0.01875 0.19262,-0.1144 0.28773,-0.249323 0.0276,-0.03864 0.055,-0.08239 0.079,-0.124308 0.073,-0.140889 0.0919,-0.258163 0.0667,-0.319295 0.32145,-0.884518 1.89709,-2.534115 1.57193,-2.997906 0.12287,-0.150088 0.24899,-0.297506 0.36747,-0.434488 0.0346,-0.0447 0.0721,-0.08545 0.10372,-0.130103 0.20365,-0.279376 0.32989,-0.595181 0.28498,-0.760024 -0.0507,-0.191902 -0.31153,-0.102419 -0.57713,0.19967 -0.0755,0.08841 -0.16205,0.187543 -0.24956,0.289129 l -0.0334,-0.0038 c 0.49251,-0.589596 0.39124,-0.805148 0.72784,-1.294074 l 0.18872,0.21114 c 0.0403,0.04486 0.1501,-0.01994 0.24173,-0.14656 0.0944,-0.125133 0.13806,-0.263875 0.0968,-0.307689 l -0.19252,-0.216416 c 0.7642,-1.349223 0.90102,-0.69671 1.41407,-1.243116 -0.4422,-0.106167 0.39179,-0.944604 0.22255,-1.208849 -0.62865,1.146103 -1.58439,0.745811 -1.61412,1.80771 0.51047,-0.51625 0.16704,0.09315 -0.1474,0.505571 l -0.18868,-0.21348 c -0.0386,-0.04508 -0.14914,0.01949 -0.24274,0.145174 -0.0934,0.126617 -0.1354,0.265361 -0.0949,0.310304 l 0.20114,0.225644 c -0.11035,0.795172 -1.02127,0.912771 -1.02422,1.608289 l -0.0381,-0.0418 c -0.0437,-0.04533 -0.15761,0.02059 -0.2558,0.159432 -0.0478,0.06732 -0.084,0.139997 -0.10273,0.200757 l -0.0267,0.01517 c -1.74372,2.312538 -3.64884,5.582861 -4.33119,7.173304 -0.0256,-0.0092 -0.0509,-0.01678 -0.0767,-0.03088 -0.068,-0.03201 -0.20611,0.08286 -0.31366,0.263234 -0.0557,0.09407 -0.0889,0.184519 -0.0984,0.256188 -0.57217,1.556824 -0.50909,0.715171 -0.92983,1.064868 -0.19297,1.228449 -2.70553,4.972119 -2.9218,4.660209 -0.5697,1.951658 -1.05372,2.126952 -2.64546,5.189046 -0.74152,0.805796 -1.48053,1.641751 -2.18399,2.353605 -0.4383,0.44398 -0.49106,-1.357796 -1.02726,-0.847131 -1.47886,1.40282 -3.07943,5.486353 -4.33526,6.864465 -0.19516,0.214576 -0.009,-0.502018 0.0991,-0.574064 -0.94303,0.623494 -3.09945,3.958154 -3.47531,2.481318 l 0.36051,-0.720926 c 0.0788,-0.157791 0.10669,-0.318513 0.0589,-0.357137 -0.0492,-0.03864 -0.15386,0.06028 -0.23198,0.221737 l -0.33019,0.653636 c 0.13743,-1.265237 1.17343,-2.799783 2.00165,-4.850657 0.58034,-1.061999 1.04643,-1.987802 0.62068,-1.65091 0.0496,-0.05915 0.10006,-0.120457 0.15469,-0.196355 0.0216,-0.03133 0.0426,-0.06484 0.0617,-0.101147 0.0576,-0.111576 0.0945,-0.236211 0.084,-0.307954 -0.0133,-0.0951 -0.10123,-0.06624 -0.19516,0.06477 -0.0253,0.03589 -0.0487,0.05984 -0.074,0.08903 l -0.0423,-0.03304 c -0.86751,-0.453514 0.25458,-0.939047 0.7274,-1.386197 -0.66049,0.367303 0.99195,-3.405403 0.32587,-2.241895 0.1158,0.260287 -1.23415,2.811627 -1.38156,2.699349 0.24925,-0.550615 -0.009,-0.37564 -0.14223,-0.11544 0.19759,0.538031 -0.32088,1.188528 -0.68729,1.967791 -1.39679,0.129027 -4.08539,3.829923 -5.85755,7.347931 -0.41226,-0.02886 -0.58546,-0.141675 -1.11138,0.04996 0.21691,-0.393498 0.41162,-0.730862 0.41798,-1.134367 l -0.009,-0.09673 c 0.008,-0.01947 0.0204,-0.03443 0.0317,-0.05011 0.0225,-0.03724 0.0414,-0.07808 0.0601,-0.117974 0.0773,-0.165369 0.11693,-0.341084 0.0943,-0.432291 -0.0331,-0.111649 -0.14968,-0.05067 -0.26614,0.140394 -0.0484,0.07819 -0.12068,0.200751 -0.20153,0.330139 0.0182,-0.124541 0.0981,-0.42133 0.21254,-0.770026 0.26515,-0.544848 0.53442,-1.087146 0.80375,-1.628025 0.0429,-0.02487 0.0842,-0.03951 0.12153,-0.02674 -0.43845,0.830628 -0.60278,3.070582 -0.39545,1.677046 l 0.45685,-0.974905 0.078,-0.01937 c 0.0261,0.115425 0.0688,0.196064 0.13151,0.221881 0.0501,0.01933 0.14189,-0.07872 0.20745,-0.220713 l 0.0115,-0.02648 c 0.0697,-0.153503 0.0803,-0.295424 0.0294,-0.316099 -0.0518,-0.01911 -0.0854,-0.131658 -0.10121,-0.286755 0.24492,-0.308667 0.44514,-0.604556 0.33537,-0.807296 l 0.0863,-0.176149 c 0.0234,-0.01122 0.0457,-0.02189 0.0686,-0.03474 0.0752,-0.04077 0.17019,-0.196045 0.21576,-0.347798 0.0441,-0.14949 0.0175,-0.240189 -0.0574,-0.199734 -0.0501,0.02746 -0.0946,0.04412 -0.14214,0.06292 0.43879,-0.551409 1.83532,-2.590714 1.00545,-1.71305 -0.40095,0.640066 -0.85503,1.255391 -1.02227,1.141126 0.50392,-0.988248 1.00966,-1.975812 1.52749,-2.952422 0.55344,-1.765463 -0.67862,-0.485876 -0.62507,-1.895989 1.06836,-1.77934 1.00614,-2.535113 2.20396,-4.381077 -0.30659,-0.0995 -0.77585,0.530111 -1.33366,1.644957 0.0148,-0.580148 0.35849,-1.453957 1.0435,-2.603151 -0.45436,0.309284 -0.76948,-0.0094 -1.35741,0.929977 0.0182,-0.04745 0.0399,-0.09418 0.056,-0.143438 2.66271,-4.758639 5.4653,-9.335924 8.38876,-13.749195 -0.89071,-0.150329 -1.66255,-0.299577 -2.36398,-0.449316 z m 26.74448,-1.301341 c 0.0265,0.14854 0.098,0.174029 0.1906,0.142134 -0.0196,0.04012 -0.0388,0.08273 -0.0585,0.125284 -0.11129,0.05381 -0.21678,0.100998 -0.29634,0.133721 -0.12613,0.05078 -0.28804,0.231743 -0.35993,0.410166 -0.064,0.157101 -0.0323,0.249971 0.0617,0.234674 l -0.0594,0.121652 c -1.1019,1.179177 -0.98011,1.856054 -1.72283,2.262426 l -0.18403,0.19083 c -0.0651,0.01937 -0.13175,0.04065 -0.20317,0.06583 -0.0891,0.03346 -0.20377,0.167828 -0.26067,0.30118 -0.0545,0.135561 -0.028,0.218079 0.0608,0.184504 0.081,-0.02895 0.15392,-0.05441 0.22307,-0.07584 -0.009,0.03213 -0.0227,0.0664 -0.0251,0.09412 -0.50585,0.538017 -0.85829,1.048408 -1.13773,1.519756 -0.0835,0.03852 -0.18549,0.150752 -0.24716,0.277621 -0.0469,0.09705 -0.0523,0.17103 -0.0242,0.204208 -0.45792,0.83292 -0.77554,1.493672 -1.55383,1.865515 l 0.3905,0.41298 -0.81982,1.173234 -0.0444,0.04507 c -0.005,-0.0075 0.003,-0.02128 -1.1e-4,-0.03175 -0.01,-0.105182 -0.0969,-0.116352 -0.20621,-0.03993 0.33141,-0.643994 0.0677,-1.124841 -0.33358,-0.733256 0.38196,0.203448 -0.67358,1.283745 -0.4589,1.59025 0.18571,-0.129457 0.33719,-0.264725 0.46278,-0.400625 -0.0292,0.07984 -0.0479,0.154242 -0.0412,0.210854 0.003,0.01879 -8e-5,0.04174 10e-4,0.06169 -0.2941,-0.03922 -1.13603,1.227681 -0.31586,0.344417 -1.71491,2.565306 -1.4704,2.044956 -2.91282,4.726882 -0.004,-0.05481 -0.008,-0.10733 -0.009,-0.168263 -0.002,-0.135716 -0.11457,-0.128929 -0.24887,0.01324 -0.13717,0.143932 -0.24131,0.366939 -0.23768,0.50316 10e-4,0.03754 0.005,0.07868 0.005,0.120082 l -0.0194,0.03005 c -1.05232,1.808339 -1.65602,2.280366 -2.23997,3.612217 -0.0256,-0.0049 -0.047,-0.01223 -0.0619,-0.03535 -0.0397,-0.06079 -0.1556,0.01216 -0.25089,0.161288 -0.0528,0.08373 -0.0863,0.170454 -0.10093,0.242723 l -0.015,0.01011 c -1.46392,2.091639 0.22861,0.3677 -0.32729,1.626867 -0.2445,0.05122 -1.25054,0.251269 -0.6275,0.711846 l -0.10738,0.122582 -0.0159,-0.03648 c -0.0337,-0.08121 -0.14725,-0.0242 -0.25112,0.128659 -0.10534,0.153556 -0.16092,0.338292 -0.12535,0.417045 l 0.0296,0.0697 c 0.002,0.0156 0.01,0.03046 0.0178,0.04366 l -0.0329,0.09563 c -0.65808,1.200245 -1.03529,0.918893 -1.4187,0.658225 -0.45783,1.192714 -0.11818,1.892079 -1.04774,2.253609 -0.20196,0.869737 -0.44315,1.785729 -0.22713,2.312836 -0.45994,0.525088 -0.99825,1.576907 -1.25439,0.826094 -0.48202,1.432759 0.5791,0.662162 -0.76276,1.854648 -0.10637,0.491177 -0.0807,0.873434 -0.0185,1.218436 -0.23864,-1.045798 -1.82045,2.168683 -2.31552,4.292778 -0.44641,0.390072 -0.3109,0.0018 -0.436,-0.329354 -0.12732,0.443971 -0.24994,0.893474 -0.13243,1.109609 -0.52536,-0.01371 -0.13309,0.208147 -0.91876,1.126942 -0.10758,0.607233 0.53384,0.01944 -0.52843,2.014438 -0.13414,-0.114955 0.12614,-0.636944 0.26034,-1.008833 -0.24701,0.689511 -0.5809,1.388362 -0.93743,2.10031 0.0737,0.357982 0.11005,0.811395 0.16254,1.243561 -0.0732,0.273224 -0.13321,0.562336 -0.19133,0.855938 l -0.0544,-0.163574 c -0.4281,0.146263 -0.68775,1.290527 -0.64252,0.147305 -0.21049,0.55171 -0.58062,1.278891 -0.43606,1.473153 l 0.0433,-0.01198 c -0.53023,0.791552 -0.76686,1.945727 -0.92374,2.749603 l -0.0817,0.40494 -0.0464,0.22578 0.0744,0.0425 c 0.11399,0.0657 0.29749,-0.004 0.5034,-0.19668 l 8.7e-4,-5.8e-4 c 0.20596,-0.19386 0.43548,-0.512309 0.6447,-0.947895 l 0.0585,-0.125387 0.0251,-0.126462 0.0965,-0.47628 c 0.0435,-0.213583 0.0862,-0.436803 0.12893,-0.656928 l 0.0302,0.08071 c 0.72834,-0.645329 0.46765,-0.625979 1.20864,-1.959321 0.20966,0.174593 0.16997,-0.0026 0.65054,-0.347865 0.79642,-1.387173 1.81277,-1.464346 2.65515,-3.045483 3.26288,-3.248343 6.30482,-8.105832 8.41067,-11.60007 l 0.008,-0.01621 c 0.16469,-0.282637 0.22564,-0.58439 0.13537,-0.677808 -0.0939,-0.09827 -0.30674,0.05773 -0.4778,0.345451 -2.00718,3.328433 -4.90353,7.942022 -7.98526,10.985257 l 0.0178,-0.04232 c -0.0549,-0.05093 -0.11392,-0.07037 -0.17373,-0.07694 0.0985,-0.354506 0.16574,-0.687203 0.1817,-0.898799 -0.14896,0.3305 -0.29591,0.654095 -0.44072,0.959892 -0.0711,0.03492 -0.14581,0.07226 -0.21812,0.119811 0.5177,-1.4424 1.9108,-3.248534 1.76059,-3.503918 -0.43849,0.799703 -0.74082,0.703154 -1.02188,0.441907 0.32185,-0.701295 0.62616,-1.430524 0.89303,-2.200645 0.5746,-0.848417 1.31194,-1.92979 1.91423,-3.086057 0.36828,-0.712236 0.67846,-1.455072 0.87021,-2.192302 1.37981,-2.282962 2.86659,-4.445278 4.56714,-6.855541 -0.17492,-0.193052 -0.41689,-0.087 -0.66092,0.0279 0.005,-0.0088 0.0107,-0.01813 0.0165,-0.02723 0.0408,-0.02959 0.0849,-0.05788 0.12806,-0.08695 l 0.056,-0.03981 0.0552,-0.07736 c 0.0776,-0.10373 0.14299,-0.203018 0.19867,-0.296943 0.1198,-0.201234 0.1953,-0.378475 0.25253,-0.507687 l 0.0713,-0.16457 -0.01,-0.04389 c 0.94062,-1.557096 1.7042,-2.967566 2.46572,-4.361806 0.11518,-0.155592 0.23357,-0.3178 0.34647,-0.492895 0.1783,-0.278986 0.33512,-0.585999 0.42866,-0.914571 l -0.004,5.17e-4 c 0.33327,-0.597629 0.67457,-1.200563 1.0438,-1.821342 l 0.0102,0.01623 c 0.0327,0.06422 0.1386,0.0087 0.23696,-0.121101 l 0.0223,-0.03377 c 0.0825,-0.123854 0.12464,-0.262791 0.0943,-0.321157 l -0.041,-0.07574 c 0.0446,-0.0718 0.0867,-0.144516 0.13271,-0.219048 0.14058,0.0033 0.29741,-0.03069 0.45741,-0.06794 l 0.38235,-0.908683 c -0.0925,0.02026 -0.17854,0.03581 -0.25665,0.04439 0.0944,-0.146857 0.18779,-0.293095 0.28612,-0.441888 0.89672,-1.361181 1.86809,-2.591907 2.7943,-3.766528 0.25877,-0.275954 0.51323,-0.595733 0.73182,-0.937556 0.16963,-0.2181 0.33409,-0.43528 0.49609,-0.649232 0.22759,-0.177365 0.48156,-0.318936 0.67412,-0.368577 0.0811,0.178072 0.075,0.37658 0.0704,0.58457 -0.003,0.14138 -0.003,0.279441 0.0134,0.409023 0.0204,0.125439 0.15563,0.09716 0.3091,-0.06202 0.0315,-0.03163 0.0588,-0.0629 0.0851,-0.09872 0.10832,-0.144832 0.17676,-0.315799 0.16267,-0.417902 -0.0149,-0.106271 -0.01,-0.221502 -0.006,-0.337739 0.006,-0.253492 0.0137,-0.54092 -0.12381,-0.790076 l -0.0243,-0.05031 -0.0608,0.01612 c -0.10528,0.01376 -0.23829,0.06462 -0.38374,0.132857 0.0341,-0.05213 0.0736,-0.102194 0.10921,-0.152232 0.0192,-0.03256 0.21721,-0.815006 0.33874,-1.037517 0.26917,-0.496658 0.62252,-0.990714 1.0058,-1.47278 0.0578,-0.03098 0.11188,-0.04212 0.16865,-0.06385 l -0.12133,0.378094 c -0.07,0.224315 0.0204,0.325555 0.19915,0.225396 0.0901,-0.04943 0.18574,-0.137237 0.26797,-0.24416 0.0816,-0.105506 0.14955,-0.229105 0.18517,-0.342627 l 0.17079,-0.535377 c 0.0363,-0.05488 0.0773,-0.107445 0.10569,-0.16454 0.005,-0.0116 0.008,-0.02033 0.0135,-0.03108 0.0408,-0.04876 0.09,-0.09447 0.12867,-0.1455 0.1086,-0.139943 0.19852,-0.283374 0.29256,-0.425597 -0.46326,-0.371545 -0.95143,-0.7101 -1.3738,-1.132453 -0.024,0.01231 -0.0349,0.0204 -0.0591,0.03776 z M 492.33309,5.3603948 c -0.0537,0.2734874 -0.10514,0.5867774 -0.15966,0.8473419 0.16944,-0.1597684 0.39983,-0.3767112 0.57349,-0.5409474 -0.13775,-0.1035843 -0.27644,-0.2033423 -0.41409,-0.3066136 z"
     id="path4996"
     sodipodi:nodetypes="ccccccccccccccccccccccccccccccccccccccccccccccccccccccccccccccccccccccccccccccccccccccccccccccccccccccccccccccccccccccccccccccccccccccccccccccccccccccccccccccccccccccccccccccccccccccccccccccccccccccccccccccccccccccccccccccccccccccccccccccccccccccccccccccccccccccccccccccccccccccccccccccccccccccccccccccccccccccccccccccccccccccccccccccccccccccccccccccccccccccccccccccccccccccccccccccccccccccccccccccccccccccccac" />
  <path
     id="path4994"
     d="m 332.25803,357.04364 c -0.32028,-2.73167 -0.67449,-5.44573 -1.05991,-8.13948 -1.47198,-10.25565 -3.44126,-20.22091 -5.87683,-29.86486 -0.60686,-2.40452 -1.23551,-4.79657 -1.89996,-7.1613 -0.0419,-0.43307 -0.19212,-0.98795 -0.3541,-1.81792 -0.11283,-0.0663 -0.14366,-0.15467 -0.22489,-0.17548 -3.21166,-11.10097 -7.05382,-21.73376 -11.45594,-31.85291 -0.12837,0.23688 -0.26262,0.46665 -0.39771,0.69335 4.89167,11.99026 9.02541,24.71728 12.30447,38.11542 -0.0782,0.27681 0.15375,-0.62023 -0.054,-0.56096 -1.10065,-3.9546 -2.94037,-4.75228 -4.45424,-6.62902 -0.22845,-0.93963 -0.41025,-1.94905 -0.48246,-2.61046 0.0235,0.0263 0.0508,0.0514 0.0743,0.0735 0.0873,0.0861 0.17364,0.17251 0.2572,0.27326 0.088,0.10475 0.14275,0.0389 0.12963,-0.14971 -0.0161,-0.19051 -0.0989,-0.42669 -0.18545,-0.53179 -0.0685,-0.0829 -0.14012,-0.15259 -0.2114,-0.22505 l -0.0986,-0.23207 c -0.76728,-0.90965 -1.10684,-3.55649 -1.1746,-1.97103 -0.47156,-1.4779 -1.09135,-3.12933 -1.11972,-3.96536 -0.46544,-0.3556 0.0366,1.95508 -0.62,0.36836 -0.27558,-1.6315 0.0174,-2.46338 -0.13901,-2.56896 -0.91492,-0.14647 -0.36086,-1.44984 -0.42406,-1.73984 -0.14112,-0.66519 -1.14954,-2.43577 -0.886,-3.46732 -0.77099,-0.1309 -1.4076,-2.25882 -2.01331,-4.33943 -0.59923,-2.08043 -1.16537,-4.11242 -1.65628,-4.05708 -1.07576,-2.24398 0.47469,0.21475 -0.14349,-1.27388 -0.68608,-1.44501 -0.13239,0.20681 -1.11412,-1.261 0.16295,-0.25841 0.21992,-0.50935 0.2119,-0.75607 -0.31892,0.36424 -0.66031,0.71633 -1.01904,1.05993 1.00372,2.37388 1.68533,4.24075 2.58511,6.38637 -0.0888,-0.0426 -0.18016,-0.10492 -0.2908,-0.21989 -0.0904,-0.0908 -0.14365,-0.03 -0.11962,0.14076 0.0105,0.0731 0.0349,0.15538 0.0666,0.23199 0.0396,0.0994 0.0915,0.18974 0.13998,0.24282 0.0814,0.0812 0.14916,0.14246 0.21531,0.18935 l 0.1314,0.24992 c 0.50833,1.63397 0.31849,1.15362 0.93441,2.46663 -0.0839,-0.0445 -0.16886,-0.10407 -0.27144,-0.21627 -0.0878,-0.0935 -0.14086,-0.0299 -0.11816,0.13897 0.01,0.0758 0.0303,0.15839 0.0596,0.23557 0.0396,0.0993 0.0876,0.19156 0.1372,0.2428 0.0776,0.0845 0.14864,0.14063 0.21381,0.19121 l 0.1271,0.25527 c 0.32277,1.81157 1.08825,1.59821 0.64751,2.25571 1.16444,1.78752 1.57295,4.55486 2.62949,6.9858 l -0.0715,-0.03 c -0.0528,-0.12814 -0.0999,-0.25951 -0.15923,-0.38733 -0.13169,-0.29065 -0.28037,-0.39883 -0.33314,-0.24488 -0.0406,0.12303 -0.008,0.37653 0.0744,0.62087 0.0208,0.0611 0.0453,0.12565 0.0723,0.18384 0.0841,0.18801 0.15921,0.3841 0.23673,0.58188 -0.58465,-0.0567 0.36572,1.52568 0.59199,1.65627 l 0.003,-0.0142 c 0.0955,0.18528 0.19965,0.28521 0.26392,0.23587 0.0864,-0.069 0.0684,-0.38231 -0.0453,-0.70828 l -0.0572,-0.17669 c 0.27834,0.62217 0.53315,0.67525 0.81191,1.41754 0.17984,0.75817 0.002,1.02576 0.21397,1.8377 0.15304,-0.19153 0.31696,-0.0305 0.4846,0.38419 -0.0494,0.0789 -0.0777,0.16502 -0.0953,0.25677 -0.10566,-0.1504 -0.21212,-0.30054 -0.31842,-0.45532 -0.13654,0.43282 -0.12714,1.07898 0.0122,1.93721 -0.91816,-1.16274 -1.35038,-4.37922 -2.31,-6.56609 -0.81591,-1.89232 -2.41599,-4.49007 -2.68441,-4.34931 -0.29554,0.15174 -0.10379,1.51007 0.15746,3.163 -0.021,-0.0148 -0.0335,-0.0337 -0.0542,-0.0503 -1.39248,-5.41319 -3.76969,-11.37579 -6.24582,-17.13933 -0.55184,0.38847 -1.13722,0.7734 -1.77396,1.1552 -2.74912,1.6483 -7.48245,2.28113 -10.72221,2.45889 l 0.005,7.6e-4 c 0.7628,1.88366 0.71211,1.74883 0.98493,3.04646 0.75405,1.68438 0.0492,-1.38562 0.65303,0.14726 0.0672,0.46509 -0.69324,1.33097 0.17426,1.77161 -0.26409,-0.6337 0.1482,-0.91652 0.44225,-0.32759 -0.39088,-0.17181 -0.23963,1.42792 0.11012,1.18285 1.06903,0.92906 1.97907,6.51973 3.81177,9.20834 -0.65358,0.63572 0.40263,1.57785 0.28964,2.87249 0.51084,-0.83982 1.69653,3.10785 0.5064,0.90333 0.45584,1.13937 0.11947,1.78766 0.13334,2.90857 0.3642,-0.28965 -1.0668,-2.6277 -0.43821,-1.23539 -1.68699,-0.24258 0.40564,1.78615 0.57649,2.39364 0.89941,0.0672 1.22919,2.28151 3.13657,3.69023 -0.48278,0.84821 0.64786,2.47702 0.19791,3.38838 0.35894,0.74351 0.72413,0.5054 1.0724,1.81216 -0.90349,-1.04303 0.37561,4.3368 0.0579,5.33462 0.85201,0.68442 0.62714,0.47173 1.51331,0.38288 -0.0573,1.19141 -0.3273,1.58686 -0.92472,0.70578 0.59392,1.43978 1.34037,2.74921 1.67133,4.42565 0.37604,0.26877 0.6895,0.30882 0.84795,-0.32157 0.72301,3.01943 0.91101,4.16588 1.77955,6.91488 0.61177,-0.65251 1.22439,0.96426 1.72589,2.76927 0.18178,0.64771 0.34823,1.31442 0.50092,1.90944 0.0311,0.52767 0.0262,1.04729 6.6e-4,1.67683 0.54589,-0.40859 0.51011,3.43655 0.78681,1.46561 -0.10105,-0.15444 -0.12911,-0.67289 -0.18061,-1.28636 0.0269,0.0288 0.0544,0.0517 0.0803,0.0515 0.46194,0.99632 0.57307,2.66623 0.66441,4.26625 -0.0651,-0.11031 -0.14231,-0.20342 -0.25665,-0.24657 0.51704,2.36246 -0.40021,-0.33787 -0.14893,1.20025 0.25752,0.3194 0.33663,0.77177 0.35234,1.2617 -0.004,0.0102 -0.012,0.0115 -0.0162,0.0234 -0.0288,0.0888 -0.0161,0.25632 0.0198,0.39608 -0.002,0.0777 -0.005,0.15565 -0.005,0.23189 -0.0765,-0.14206 -0.15314,-0.30393 -0.25581,-0.2733 l 0.22737,1.67 0.008,0.31935 c -0.006,0.0256 -0.012,0.0532 -0.019,0.0802 -0.0491,0.0224 -0.0838,0.12439 -0.0851,0.29439 -4.8e-4,0.0741 0.006,0.15144 0.0158,0.2265 0.0261,0.1784 0.0796,0.34151 0.14313,0.41409 0.068,0.0767 0.12257,0.14574 0.17422,0.21433 l 0.0323,0.13024 c 0.0937,2.11771 0.11223,1.77867 0.42808,2.11094 0.0456,0.22481 0.093,0.43803 0.14171,0.64421 0.10937,0.93746 0.14946,2.27504 0.42757,2.12868 l -0.002,0.009 c -0.002,0.009 -0.003,0.02 -0.002,0.0315 l -0.0346,0.31572 c -0.007,0.0667 -0.007,0.14803 0.003,0.22473 0.0116,0.0962 0.0365,0.18994 0.0688,0.24981 0.0578,0.11167 0.11809,0.0782 0.13715,-0.0765 l 0.0252,-0.23005 0.0379,-0.0108 c -0.21978,1.64513 0.40514,4.89956 0.67661,4.41426 -0.34285,-0.26189 -0.26103,-0.76446 -0.16675,-1.28642 0.0935,0.76671 0.25269,1.15801 0.45879,1.32783 l -0.13535,-1.45221 c 0.0673,0.0928 0.13697,0.20078 0.21342,0.34276 0.0684,0.12932 0.14306,0.075 0.16635,-0.12284 0.0237,-0.19649 -0.0129,-0.46163 -0.0823,-0.58874 -0.0576,-0.10843 -0.11307,-0.19929 -0.16647,-0.28579 l -0.0415,-0.18909 c 0.44985,-1.07443 1.10617,-1.72117 0.68598,-4.79224 0.0773,-0.20876 0.14225,-0.44221 0.2029,-0.68653 0.16618,0.25303 0.33661,0.48723 0.55483,0.40577 l 0.0558,0.0374 c 0.0386,0.17383 0.0811,0.34291 0.13877,0.51212 0.0815,0.23471 0.18751,0.2763 0.23891,0.0906 0.0329,-0.12125 0.0335,-0.309 0.007,-0.4905 0.56558,2.69544 0.3334,4.08377 0.92542,7.07433 l -0.0553,0.0855 c 0,0 3.5e-4,-0.0123 -0.007,-0.0186 -0.073,-0.3436 -0.20469,-0.49919 -0.29521,-0.35003 -0.0685,0.1178 -0.0925,0.38704 -0.0646,0.66349 0.008,0.076 0.0209,0.15236 0.0348,0.22486 0.0423,0.19276 0.0794,0.43261 0.11509,0.6959 -0.0707,0.18751 -0.0877,0.51154 -0.22492,0.54009 -0.26056,-1.01957 0.3048,-2.00055 -0.2317,-2.26232 -0.0678,1.796 0.2034,3.12294 0.59028,4.41952 -0.0614,-0.0559 -0.12381,-0.11049 -0.18654,-0.17507 -0.10449,-0.10467 -0.19414,0.0724 -0.20241,0.39392 -0.005,0.0758 -7.6e-4,0.15237 0.006,0.22655 0.022,0.24328 0.0856,0.46589 0.16555,0.54607 0.0525,0.0516 0.1013,0.0966 0.1514,0.14116 l 0.0217,0.10883 c 0.13342,0.65393 0.0796,2.18963 0.24153,2.6708 -0.0465,0.0913 -0.064,0.27254 -0.0502,0.46376 0.004,0.0553 0.0104,0.11362 0.0185,0.16764 0.0323,0.17365 0.0874,0.27712 0.13975,0.29636 0.29473,0.95572 0.18402,3.70056 0.67277,3.71498 0.004,0.22944 0.004,0.46031 0.003,0.67608 0.002,0.0668 0.001,0.13311 0.005,0.19623 0.0242,0.40244 0.12152,0.75514 0.24731,0.82986 0.14531,0.0886 0.26989,-0.23307 0.27459,-0.71316 4.2e-4,-0.13837 0.001,-0.29525 0.001,-0.45495 l 0.0245,-0.0298 c 0.008,0.91144 0.20157,0.9672 0.2571,1.65223 l -0.24982,0.0335 c -0.0534,0.008 -0.09,0.16231 -0.0785,0.34405 0.009,0.18343 0.0594,0.32668 0.11272,0.31777 l 0.25542,-0.0339 c 0.26446,1.72794 -0.20583,1.39148 -0.23621,2.29191 0.36035,-0.35931 0.28193,1.06843 0.5493,1.0925 -0.23845,-1.44747 0.63932,-2.10062 0.0447,-2.89691 -0.0462,0.87609 -0.16681,0.0974 -0.19303,-0.51048 l 0.25115,-0.0317 c 0.0524,-0.005 0.0902,-0.1605 0.08,-0.34421 -0.01,-0.18355 -0.062,-0.32508 -0.11548,-0.31763 l -0.26652,0.0347 c -0.38577,-0.68314 0.16197,-1.66602 -0.23861,-2.17134 l 0.0504,-0.008 c 0.0557,-0.0117 0.092,-0.1725 0.0806,-0.36713 -0.007,-0.0959 -0.0243,-0.18399 -0.0468,-0.24633 l 0.01,-0.0377 c -0.16021,-3.38929 -0.76513,-7.62959 -1.22451,-9.45088 0.0228,-0.0185 0.0443,-0.0379 0.0697,-0.0533 0.0646,-0.0443 0.0913,-0.26305 0.0596,-0.49937 -0.0167,-0.12294 -0.0466,-0.22093 -0.0818,-0.28201 -0.51441,-1.6884 -0.0699,-1.01839 0.0121,-1.68568 -0.58069,-1.07753 -1.04923,-6.25842 -0.72253,-6.2463 -0.74464,-1.9713 -0.51889,-2.57497 -1.21546,-6.35588 0.0349,-1.31305 0.0505,-2.64537 0.11395,-3.85295 0.0392,-0.7528 0.42119,-0.43797 0.48807,-1.33539 0.18763,-2.47118 -0.39747,-6.06399 -0.3462,-8.29728 0.008,-0.3475 0.29668,0.35366 0.26526,0.51238 0.27653,-1.38003 -0.19602,-5.91437 0.9129,-5.21829 l 0.17362,0.87615 c 0.038,0.19171 0.11225,0.33518 0.16695,0.31594 0.0559,-0.0211 0.0691,-0.1952 0.0284,-0.38893 l -0.15516,-0.79752 c 0.63951,1.04925 0.8275,3.17905 1.45479,5.47677 0.22245,1.33913 0.44331,2.46722 0.53607,1.80427 10e-4,0.0918 0.002,0.18565 0.009,0.29434 0.004,0.0451 0.008,0.0888 0.0168,0.13378 0.0257,0.13738 0.0728,0.26376 0.12142,0.30523 0.0644,0.0547 0.10651,-0.052 0.0947,-0.23901 -0.003,-0.0508 -10e-4,-0.0911 -0.002,-0.13742 l 0.0479,-0.0181 c 0.84896,-0.52778 0.3715,0.92915 0.31074,1.71826 0.23384,-0.91643 0.87908,1.27857 0.65578,-0.21856 -0.22889,-0.0741 -0.37159,-1.08835 -0.20695,-1.15263 0.15023,0.64339 0.22312,0.26305 0.163,-0.0572 -0.44505,-0.1938 -0.47107,-1.17475 -0.6745,-2.09878 0.86942,-1.47036 0.54466,-6.7937 -0.29382,-11.08169 0.29539,-0.38561 0.47782,-0.47493 0.7224,-1.13176 0.0812,0.49813 0.14483,0.93362 0.3741,1.23146 l 0.0621,0.0603 c 0.005,0.0228 0.006,0.0445 0.008,0.0678 0.006,0.049 0.0175,0.0973 0.0276,0.14449 0.0434,0.19566 0.1184,0.36159 0.18649,0.4052 0.0871,0.0477 0.13028,-0.11108 0.0986,-0.36374 -0.012,-0.10405 -0.0346,-0.26395 -0.0548,-0.43715 0.0598,0.10774 0.17755,0.40101 0.30207,0.76573 0.13612,0.65485 0.26804,1.31205 0.39903,1.96817 -0.0145,0.0603 -0.0341,0.11147 -0.0668,0.13895 -0.18444,-1.03209 -1.37001,-2.8119 -0.70351,-1.60101 l 0.25554,1.15453 -0.0416,0.091 c -0.0843,-0.0584 -0.16002,-0.0741 -0.21753,-0.0286 -0.0451,0.035 -0.0506,0.19659 -0.0124,0.36389 l 0.007,0.0303 c 0.0418,0.17956 0.11675,0.29247 0.16318,0.25707 0.0461,-0.037 0.13399,0.01 0.23453,0.10687 0.0131,0.4645 0.0487,0.87559 0.24056,0.91373 l 0.0436,0.21236 c -0.009,0.0311 -0.0182,0.0608 -0.0261,0.0928 -0.0273,0.10346 -0.002,0.30936 0.0555,0.46392 0.0567,0.15149 0.1272,0.19078 0.15443,0.0876 0.0175,-0.0695 0.0383,-0.12504 0.0599,-0.18541 0.0226,0.83089 0.25906,3.6805 0.31195,2.22848 -0.0994,-0.85752 -0.14869,-1.7496 0.0305,-1.83194 0.23142,1.21053 0.46123,2.42231 0.67649,3.63821 0.64788,1.82072 0.73999,-0.31805 1.52011,0.75319 0.30775,2.33838 0.78732,2.82284 1.04616,5.33706 0.2649,-0.23036 0.21787,-1.14764 -0.0506,-2.50293 0.32581,0.4336 0.5993,1.40355 0.80147,2.90881 0.12797,-0.67131 0.52561,-0.75164 0.37907,-2.00981 0.0154,0.0525 0.0275,0.1074 0.0452,0.1588 0.95461,6.06202 1.70971,12.13084 2.2882,18.20039 0.68913,-0.76942 1.29728,-1.42256 1.85811,-2.0059 z m -17.32595,27.30579 c -0.10402,-0.0811 -0.16689,-0.0295 -0.2111,0.0851 -0.0103,-0.0486 -0.0217,-0.098 -0.0331,-0.14801 0.0439,-0.14874 0.0878,-0.2869 0.12291,-0.38874 0.056,-0.16091 0.0605,-0.45139 0.006,-0.65115 -0.0476,-0.1766 -0.12296,-0.21219 -0.17747,-0.10913 l -0.0303,-0.14617 c 0.0624,-1.93807 -0.41183,-2.30693 -0.145,-3.33267 l 0.0138,-0.31917 c 0.0329,-0.0786 0.0656,-0.15925 0.0992,-0.24796 0.0409,-0.11199 0.0407,-0.32204 0.002,-0.47448 -0.0417,-0.15164 -0.10732,-0.18516 -0.14793,-0.0735 -0.0377,0.10081 -0.0725,0.19121 -0.10705,0.27454 -0.0126,-0.0317 -0.0233,-0.0701 -0.0373,-0.0928 0.0304,-0.88737 -0.0267,-1.60335 -0.11056,-2.21919 0.0343,-0.11002 0.0381,-0.29182 0.006,-0.44418 -0.0244,-0.11635 -0.0637,-0.17497 -0.10186,-0.17142 -0.17262,-1.05301 -0.34039,-1.84337 -0.0295,-2.87919 l -0.50305,0.0867 -0.125,-1.65561 0.003,-0.0765 c 0.008,0.002 0.0109,0.0182 0.0186,0.023 0.0681,0.065 0.13278,-0.0113 0.16235,-0.17457 0.14877,0.79191 0.60538,0.8792 0.64996,0.20102 -0.37597,0.22964 -0.28779,-1.59122 -0.61034,-1.60099 -0.0504,0.27665 -0.0747,0.52362 -0.081,0.74555 -0.0262,-0.0863 -0.0568,-0.15858 -0.0943,-0.19281 -0.0128,-0.0111 -0.0245,-0.03 -0.0361,-0.0446 0.22143,-0.26157 0.0572,-2.00654 0.0142,-0.56017 -0.32569,-3.54342 -0.18985,-2.92647 -0.76723,-6.2856 0.0339,0.0365 0.0667,0.0708 0.10357,0.11258 0.0802,0.0954 0.152,-0.0197 0.16065,-0.25484 0.01,-0.23915 -0.0494,-0.50291 -0.13063,-0.59771 -0.0225,-0.0256 -0.0489,-0.0521 -0.0724,-0.0825 l -0.004,-0.0416 c -0.33543,-2.34349 -0.20054,-3.2796 -0.57678,-4.81729 0.0182,-0.0232 0.0386,-0.0368 0.0623,-0.0359 0.0618,0.005 0.0973,-0.1629 0.0762,-0.36382 -0.0124,-0.11236 -0.0404,-0.20816 -0.0723,-0.27486 l 0.005,-0.0221 c -0.22119,-2.95389 -0.36739,-0.0405 -0.72053,-1.49765 0.13563,-0.27802 0.69989,-1.41438 0.0121,-1.1328 l 0.002,-0.19439 0.0317,0.0114 c 0.0697,0.0255 0.11369,-0.12771 0.0952,-0.34059 -0.0172,-0.21477 -0.0871,-0.40297 -0.15671,-0.42478 l -0.0602,-0.0233 c -0.0105,-0.01 -0.0244,-0.0141 -0.0366,-0.0172 l -0.0332,-0.10164 c -0.24991,-1.51554 0.16794,-1.68418 0.57807,-1.87399 -0.38097,-1.31268 -1.01541,-1.48299 -0.59633,-2.66054 -0.36696,-0.82729 -0.73409,-1.72671 -1.18525,-1.89446 0.007,-0.83267 -0.23804,-2.12304 0.36979,-1.83325 -0.50355,-1.50999 -0.77477,0.0927 -0.55795,-2.09147 -0.2125,-0.45961 -0.45116,-0.71031 -0.69284,-0.89817 0.76671,0.52002 -0.0248,-3.36106 -0.91966,-5.38339 0.0762,-0.72179 0.20914,-0.30772 0.48538,-0.19185 -0.17094,-0.44617 -0.34824,-0.8918 -0.5528,-0.93201 0.36308,-0.50794 -0.0305,-0.28148 -0.0312,-1.71965 -0.27879,-0.54469 -0.37218,0.51216 -0.80888,-1.97588 0.15721,-0.049 0.28344,0.58434 0.40799,0.98527 -0.23216,-0.74149 -0.411,-1.57547 -0.58209,-2.44117 -0.25706,-0.18582 -0.54393,-0.47779 -0.82975,-0.73796 -0.10872,-0.2694 -0.23548,-0.5374 -0.36614,-0.80678 l 0.13152,0.064 c 0.20473,-0.52763 -0.28213,-1.61007 0.34906,-0.73976 -0.17709,-0.60603 -0.34784,-1.49612 -0.55798,-1.49399 l -0.0224,0.051 c -0.0997,-1.09447 -0.60793,-2.1613 -0.96723,-2.89655 l -0.17911,-0.37314 -0.0993,-0.20881 -0.075,0.0428 c -0.11515,0.0648 -0.19891,0.29598 -0.22643,0.6383 l 0.60448,-0.50161 c -0.0266,0.3431 -0.60232,1.30245 -0.49162,1.82331 l 0.0331,0.14813 0.0563,0.11599 0.2105,0.43915 c 0.0942,0.19715 0.1946,0.4004 0.29312,0.60154 l -0.0673,-0.0282 c -0.11885,1.18407 0.0464,0.91316 0.31714,2.60665 -0.2428,0.0806 -0.44429,0.39976 -0.5692,1.12304 0.26463,1.78703 -0.047,2.61434 0.29886,4.58669 -0.32535,5.56285 0.43016,12.07001 1.02936,16.66989 l 0.004,0.019 c 0.0524,0.36649 0.18575,0.64453 0.30083,0.62292 0.12046,-0.022 0.17426,-0.34377 0.12303,-0.7206 -0.56985,-4.38272 -1.28264,-10.57012 -0.961,-15.8063 l 0.0125,0.0479 c 0.0665,-0.0174 0.11772,-0.0613 0.16196,-0.11565 0.13862,0.35315 0.28581,0.65959 0.39748,0.82829 -0.0906,-0.38562 -0.17861,-0.76417 -0.25771,-1.12782 0.028,-0.0954 0.0566,-0.19607 0.0781,-0.30154 0.485,1.5521 0.58878,4.22995 0.83814,4.26634 -0.16651,-1.00987 0.0935,-1.23814 0.435,-1.32656 0.18839,0.82378 0.40479,1.65051 0.67019,2.46979 0.10275,1.17924 0.23026,2.68722 0.4924,4.11618 0.16333,0.87739 0.38368,1.71975 0.6808,2.44123 0.38881,3.00914 0.63542,6.03661 0.88111,9.45392 0.23003,-0.0334 0.33214,-0.34811 0.43042,-0.67191 -2.4e-4,0.0108 0.003,0.0234 0.005,0.0364 -0.0117,0.062 -0.0239,0.12554 -0.0363,0.18907 l -0.0143,0.0839 0.007,0.11071 c 0.008,0.15128 0.0207,0.28748 0.0376,0.41026 0.0355,0.26342 0.087,0.46591 0.12309,0.61558 l 0.0471,0.18914 0.0309,0.0233 c 0.26548,2.05197 0.56581,3.82345 0.85805,5.58117 0.0118,0.22595 0.0259,0.45979 0.0512,0.69756 0.0409,0.37728 0.11263,0.7536 0.23962,1.08311 l 0.003,7.9e-4 c 0.12066,0.76026 0.23896,1.5322 0.34871,2.34454 l -0.0174,0.006 c -0.0588,-0.0159 -0.0988,0.13033 -0.0901,0.32102 l 0.004,0.0466 c 0.0161,0.1706 0.0679,0.31259 0.1222,0.32482 l 0.0724,0.0125 c 0.0116,0.096 0.025,0.18974 0.0371,0.28898 -0.0973,0.13594 -0.18281,0.31583 -0.2709,0.49907 l 0.26752,1.03332 c 0.051,-0.10581 0.10013,-0.20186 0.14769,-0.2853 0.0212,0.19928 0.0428,0.39677 0.0623,0.60129 0.18172,1.86709 0.23751,3.71364 0.29136,5.47512 -0.0152,0.45444 -0.002,0.93611 0.048,1.39865 0.0114,0.32476 0.0266,0.64362 0.0406,0.95791 -0.0512,0.35242 -0.14092,0.70503 -0.24235,0.93079 -0.15791,-0.0485 -0.26867,-0.19806 -0.38546,-0.35369 -0.0802,-0.10466 -0.15988,-0.20463 -0.24581,-0.28219 -0.0854,-0.0721 -0.16146,0.0833 -0.17326,0.34943 -0.003,0.0536 -0.003,0.10327 -6.3e-4,0.15509 0.0107,0.2115 0.0633,0.4024 0.13194,0.46227 0.0716,0.0626 0.13481,0.15031 0.19993,0.23743 0.14256,0.18916 0.30375,0.4043 0.54101,0.44859 l 0.0455,0.0136 0.0341,-0.0701 c 0.0605,-0.11616 0.12372,-0.28149 0.18255,-0.47422 0.007,0.0706 0.009,0.14635 0.0144,0.21756 0.006,0.0423 0.325,0.80279 0.37167,1.08334 0.10556,0.62403 0.15262,1.32919 0.17264,2.0553 -0.0213,0.0795 -0.0514,0.14068 -0.0772,0.21211 l -0.13685,-0.39261 c -0.0826,-0.23095 -0.20223,-0.21496 -0.26508,0.0331 -0.0324,0.12449 -0.0462,0.28231 -0.0399,0.44054 0.005,0.15668 0.0316,0.31291 0.0731,0.43012 l 0.19449,0.55501 c 0.008,0.0757 0.0103,0.15376 0.0237,0.22306 0.002,0.0147 0.006,0.0227 0.009,0.0356 5.7e-4,0.0753 -0.007,0.15682 -0.003,0.23185 0.008,0.20819 0.0299,0.40042 0.0487,0.59587 0.52822,-0.18833 1.05424,-0.42507 1.58422,-0.53648 0.009,-0.0318 0.0117,-0.0487 0.0182,-0.0854 z m -118.4669,246.17466 c -0.12194,-0.25047 -0.26859,-0.52757 -0.38254,-0.76942 -0.0221,0.28241 -0.0518,0.66625 -0.0744,0.95598 0.15312,-0.0611 0.3046,-0.12569 0.4574,-0.18671 z"
     style="fill:#ffffff;fill-opacity:1;fill-rule:nonzero;stroke:none"
     inkscape:connector-curvature="0"
     sodipodi:nodetypes="cccccccccccccccccccccccccccccccccccccccccccccccccccccccccccccccccccccccccccccccccccccccccccccccccccccccccccccccccccccccccccccccccccccccccccccccccccccccccccccccccccccccccccccccccccccccccccccccccccccccccccccccccccccccccccccccccccccccccccccccccccccccccccccccccccccccccccccccccccccccccccccccccccccccccccccccccccccccccccccccccccccccccccccccccccccccccccccccccccccccccccccccccccccccccccccccccccccccccccccccccccccccccc" />
  <path
     style="color:#000000;clip-rule:nonzero;display:inline;overflow:visible;visibility:visible;opacity:1;isolation:auto;mix-blend-mode:normal;color-interpolation:sRGB;color-interpolation-filters:linearRGB;solid-color:#000000;solid-opacity:1;fill:#ffffff;fill-opacity:1;fill-rule:evenodd;stroke:#ffffff;stroke-width:0;stroke-linecap:butt;stroke-linejoin:miter;stroke-miterlimit:4;stroke-dasharray:none;stroke-dashoffset:0;stroke-opacity:1;color-rendering:auto;image-rendering:auto;shape-rendering:auto;text-rendering:auto;enable-background:accumulate"
     d=""
     id="path5730"
     inkscape:connector-curvature="0" />
  <path
     style="color:#000000;clip-rule:nonzero;display:inline;overflow:visible;visibility:visible;opacity:1;isolation:auto;mix-blend-mode:normal;color-interpolation:sRGB;color-interpolation-filters:linearRGB;solid-color:#000000;solid-opacity:1;fill:#ffffff;fill-opacity:1;fill-rule:evenodd;stroke:#ffffff;stroke-width:0;stroke-linecap:butt;stroke-linejoin:miter;stroke-miterlimit:4;stroke-dasharray:none;stroke-dashoffset:0;stroke-opacity:1;color-rendering:auto;image-rendering:auto;shape-rendering:auto;text-rendering:auto;enable-background:accumulate"
     d=""
     id="path5738"
     inkscape:connector-curvature="0" />
</svg>
