<?xml version="1.0" encoding="UTF-8" standalone="no"?>
<!-- Uploaded to: SVG Repo, www.svgrepo.com, Generator: SVG Repo Mixer Tools -->

<svg
   xmlns:dc="http://purl.org/dc/elements/1.1/"
   xmlns:cc="http://creativecommons.org/ns#"
   xmlns:rdf="http://www.w3.org/1999/02/22-rdf-syntax-ns#"
   xmlns:svg="http://www.w3.org/2000/svg"
   xmlns="http://www.w3.org/2000/svg"
   xmlns:sodipodi="http://sodipodi.sourceforge.net/DTD/sodipodi-0.dtd"
   xmlns:inkscape="http://www.inkscape.org/namespaces/inkscape"
   width="800px"
   height="800px"
   viewBox="0 0 48 48"
   id="Layer_2"
   data-name="Layer 2"
   version="1.1"
   sodipodi:docname="keyboard-svgrepo-com.svg"
   inkscape:version="0.92.5 (2060ec1f9f, 2020-04-08)">
  <metadata
     id="metadata13">
    <rdf:RDF>
      <cc:Work
         rdf:about="">
        <dc:format>image/svg+xml</dc:format>
        <dc:type
           rdf:resource="http://purl.org/dc/dcmitype/StillImage" />
      </cc:Work>
    </rdf:RDF>
  </metadata>
  <sodipodi:namedview
     pagecolor="#ffffff"
     bordercolor="#666666"
     borderopacity="1"
     objecttolerance="10"
     gridtolerance="10"
     guidetolerance="10"
     inkscape:pageopacity="0"
     inkscape:pageshadow="2"
     inkscape:window-width="2560"
     inkscape:window-height="1375"
     id="namedview11"
     showgrid="false"
     inkscape:zoom="0.295"
     inkscape:cx="400"
     inkscape:cy="400"
     inkscape:window-x="1080"
     inkscape:window-y="211"
     inkscape:window-maximized="1"
     inkscape:current-layer="Layer_2" />
  <defs
     id="defs4">
    <style
       id="style2">.cls-1{fill:none;stroke:#000000;stroke-linecap:round;stroke-linejoin:round;}</style>
  </defs>
  <path
     class="cls-1"
     d="M8.14,14.94v4.53h4.53V14.94Zm6.8,0v4.53h4.53V14.94Zm6.79,0v4.53h4.54V14.94Zm6.8,0v4.53h4.53V14.94Zm6.8,0v4.53h4.53V14.94ZM8.14,21.73v4.54h4.53V21.73Zm6.8,0v4.54h4.53V21.73Zm6.79,0v4.54h4.54V21.73Zm6.8,0v4.54h4.53V21.73Zm6.8,0v4.54h4.53V21.73ZM8.14,28.53v4.53h4.53V28.53Zm6.8,0v4.53H33.06V28.53Zm20.39,0v4.53h4.53V28.53Z"
     id="path6"
     style="stroke:#ffffff;stroke-opacity:1" />
  <path
     class="cls-1"
     d="M43.5,35.5v-23a2,2,0,0,0-2-2H6.5a2,2,0,0,0-2,2v23a2,2,0,0,0,2,2h35A2,2,0,0,0,43.5,35.5Z"
     id="path8"
     style="stroke:#ffffff;stroke-opacity:1" />
</svg>
