<svg xmlns="http://www.w3.org/2000/svg" version="1.1" xmlns:xlink="http://www.w3.org/1999/xlink" xmlns:svgjs="http://svgjs.com/svgjs" width="1440" height="800" preserveAspectRatio="none" viewBox="0 0 1440 800"><g mask="url(&quot;#SvgjsMask1010&quot;)" fill="none"><path d="M1439.01 286.26L1494.63 286.26L1494.63 341.88L1439.01 341.88z" fill="rgba(255, 172, 6, 1)"></path><path d="M1263.24 348.15L1281.19 348.15L1281.19 366.1L1263.24 366.1z" stroke="rgba(255, 172, 6, 1)"></path><path d="M885.6 596.38 a43.51 43.51 0 1 0 87.02 0 a43.51 43.51 0 1 0 -87.02 0z" fill="rgba(70, 204, 113, 1)"></path><path d="M485.83 54.01L507.42 54.01L507.42 75.6L485.83 75.6z" stroke="rgba(126, 206, 72, 1)"></path><path d="M1277.53 405.6L1357.38 405.6L1357.38 415.51L1277.53 415.51z" stroke="rgba(70, 204, 113, 1)"></path><path d="M431.81 799.51L453.55 799.51L453.55 821.25L431.81 821.25z" stroke="rgba(255, 172, 6, 1)"></path><path d="M1000.95 594.23a40.21 40.21 0 1 0 11.86-79.54z" fill="rgba(255, 172, 6, 1)"></path><path d="M894.68 526.77L911.94 526.77L911.94 544.03L894.68 544.03z" stroke="rgba(70, 204, 113, 1)"></path><path d="M462.63 727.53a75.18 75.18 0 1 0-66.32 134.95z" fill="rgba(255, 172, 6, 1)"></path><path d="M912.85 313.74a48.79 48.79 0 1 0 59.16-77.6z" fill="rgba(255, 172, 6, 1)"></path><path d="M139.94 178.15L180.37 178.15L180.37 195.65L139.94 195.65z" fill="rgba(70, 204, 113, 1)"></path><path d="M111.38 466.05a54.9 54.9 0 1 0-109.79 0.89z" stroke="rgba(126, 206, 72, 1)"></path><path d="M902.58 245.62L951.71 245.62L951.71 322.11L902.58 322.11z" stroke="rgba(126, 206, 72, 1)"></path><path d="M1147.86 435.76L1178.52 435.76L1178.52 466.42L1147.86 466.42z" fill="rgba(126, 206, 72, 1)"></path><path d="M229.46 130.66a38.76 38.76 0 1 0-66.47-39.9z" stroke="rgba(70, 204, 113, 1)"></path><path d="M1164.89 627.01 a62.07 62.07 0 1 0 124.14 0 a62.07 62.07 0 1 0 -124.14 0z" stroke="rgba(126, 206, 72, 1)"></path><path d="M806.23 232.71L861.34 232.71L861.34 287.82L806.23 287.82z" stroke="rgba(126, 206, 72, 1)"></path><path d="M1193.33 195.19L1240.01 195.19L1240.01 241.87L1193.33 241.87z" stroke="rgba(74, 87, 100, 1)"></path><path d="M740.13 58.87L810.04 58.87L810.04 128.78L740.13 128.78z" stroke="rgba(74, 87, 100, 1)"></path><path d="M189.85 531.64L258.09 531.64L258.09 533.63L189.85 533.63z" fill="rgba(255, 172, 6, 1)"></path><path d="M610.25 246.77L629.02 246.77L629.02 295.81L610.25 295.81z" fill="rgba(74, 87, 100, 1)"></path><path d="M305.22 567a18.15 18.15 0 1 0-5.26 35.91z" fill="rgba(70, 204, 113, 1)"></path><path d="M978.81 589.59 a25.33 25.33 0 1 0 50.66 0 a25.33 25.33 0 1 0 -50.66 0z" stroke="rgba(74, 87, 100, 1)"></path></g><defs><mask id="SvgjsMask1010"><rect width="1440" height="800" fill="#ffffff"></rect></mask></defs></svg>