<svg xmlns="http://www.w3.org/2000/svg" version="1.1" xmlns:xlink="http://www.w3.org/1999/xlink" xmlns:svgjs="http://svgjs.com/svgjs" width="1440" height="400" preserveAspectRatio="none" viewBox="0 0 1440 400"><g mask="url(&quot;#SvgjsMask1018&quot;)" fill="none"><path d="M39 400L439 0L751 0L351 400z" fill="url(#SvgjsLinearGradient1019)"></path><path d="M262.6 400L662.6 0L886.1 0L486.1 400z" fill="url(#SvgjsLinearGradient1019)"></path><path d="M488.20000000000005 400L888.2 0L933.2 0L533.2 400z" fill="url(#SvgjsLinearGradient1019)"></path><path d="M735.8000000000001 400L1135.8000000000002 0L1471.8000000000002 0L1071.8000000000002 400z" fill="url(#SvgjsLinearGradient1019)"></path><path d="M1431 400L1031 0L815 0L1215 400z" fill="url(#SvgjsLinearGradient1020)"></path><path d="M1187.4 400L787.4000000000001 0L607.4000000000001 0L1007.4000000000001 400z" fill="url(#SvgjsLinearGradient1020)"></path><path d="M948.8 400L548.8 0L295.29999999999995 0L695.3 400z" fill="url(#SvgjsLinearGradient1020)"></path><path d="M725.1999999999999 400L325.19999999999993 0L68.69999999999993 0L468.69999999999993 400z" fill="url(#SvgjsLinearGradient1020)"></path><path d="M1239.1940568229545 400L1440 199.19405682295454L1440 400z" fill="url(#SvgjsLinearGradient1019)"></path><path d="M0 400L200.80594317704546 400L 0 199.19405682295454z" fill="url(#SvgjsLinearGradient1020)"></path></g><defs><mask id="SvgjsMask1018"><rect width="1440" height="400" fill="#ffffff"></rect></mask><linearGradient x1="0%" y1="100%" x2="100%" y2="0%" id="SvgjsLinearGradient1019"><stop stop-color="rgba(255, 255, 255, 1)" offset="0"></stop><stop stop-opacity="0" stop-color="rgba(255, 255, 255, 1)" offset="0.66"></stop></linearGradient><linearGradient x1="100%" y1="100%" x2="0%" y2="0%" id="SvgjsLinearGradient1020"><stop stop-color="rgba(255, 255, 255, 1)" offset="0"></stop><stop stop-opacity="0" stop-color="rgba(255, 255, 255, 1)" offset="0.66"></stop></linearGradient></defs></svg>