<?xml version="1.0" encoding="UTF-8" standalone="no"?>
<!-- Uploaded to: SVG Repo, www.svgrepo.com, Generator: SVG Repo Mixer Tools -->

<svg
   xmlns:dc="http://purl.org/dc/elements/1.1/"
   xmlns:cc="http://creativecommons.org/ns#"
   xmlns:rdf="http://www.w3.org/1999/02/22-rdf-syntax-ns#"
   xmlns:svg="http://www.w3.org/2000/svg"
   xmlns="http://www.w3.org/2000/svg"
   xmlns:sodipodi="http://sodipodi.sourceforge.net/DTD/sodipodi-0.dtd"
   xmlns:inkscape="http://www.inkscape.org/namespaces/inkscape"
   fill="#000000"
   width="800px"
   height="800px"
   viewBox="0 0 30 30"
   version="1.1"
   id="svg4"
   sodipodi:docname="database-svgrepo-com.svg"
   inkscape:version="0.92.3 (2405546, 2018-03-11)">
  <metadata
     id="metadata10">
    <rdf:RDF>
      <cc:Work
         rdf:about="">
        <dc:format>image/svg+xml</dc:format>
        <dc:type
           rdf:resource="http://purl.org/dc/dcmitype/StillImage" />
      </cc:Work>
    </rdf:RDF>
  </metadata>
  <defs
     id="defs8" />
  <sodipodi:namedview
     pagecolor="#ffffff"
     bordercolor="#666666"
     borderopacity="1"
     objecttolerance="10"
     gridtolerance="10"
     guidetolerance="10"
     inkscape:pageopacity="0"
     inkscape:pageshadow="2"
     inkscape:window-width="2560"
     inkscape:window-height="1387"
     id="namedview6"
     showgrid="false"
     inkscape:zoom="0.295"
     inkscape:cx="400"
     inkscape:cy="400"
     inkscape:window-x="1080"
     inkscape:window-y="222"
     inkscape:window-maximized="1"
     inkscape:current-layer="svg4" />
  <path
     d="M1.5 0C.678 0 0 .678 0 1.5v25c0 .822.678 1.5 1.5 1.5H3v.5c0 .822.678 1.5 1.5 1.5h2c.822 0 1.5-.678 1.5-1.5V28h14v.5c0 .822.678 1.5 1.5 1.5h2c.822 0 1.5-.678 1.5-1.5V28h1.5c.822 0 1.5-.678 1.5-1.5v-25c0-.822-.678-1.5-1.5-1.5h-27zm0 1h27c.286 0 .5.214.5.5v25c0 .286-.214.5-.5.5h-27c-.286 0-.5-.214-.5-.5v-25c0-.286.214-.5.5-.5zM5 4c-.552 0-1 .448-1 1s.448 1 1 1 1-.448 1-1-.448-1-1-1zm4 0c-.552 0-1 .448-1 1s.448 1 1 1 1-.448 1-1-.448-1-1-1zm4 0c-.552 0-1 .448-1 1s.448 1 1 1 1-.448 1-1-.448-1-1-1zM3.5 9c-.277 0-.5.223-.5.5s.223.5.5.5h23c.277 0 .5-.223.5-.5s-.223-.5-.5-.5h-23zM9 13c-.552 0-1 .448-1 1s.448 1 1 1 1-.448 1-1-.448-1-1-1zm4 0c-.552 0-1 .448-1 1s.448 1 1 1 1-.448 1-1-.448-1-1-1zm4 0c-.552 0-1 .448-1 1s.448 1 1 1 1-.448 1-1-.448-1-1-1zM3.5 18c-.277 0-.5.223-.5.5s.223.5.5.5h23c.277 0 .5-.223.5-.5s-.223-.5-.5-.5h-23zM5 22c-.552 0-1 .448-1 1s.448 1 1 1 1-.448 1-1-.448-1-1-1zm4 0c-.552 0-1 .448-1 1s.448 1 1 1 1-.448 1-1-.448-1-1-1zm4 0c-.552 0-1 .448-1 1s.448 1 1 1 1-.448 1-1-.448-1-1-1zm-9 6h3v.5c0 .286-.214.5-.5.5h-2c-.286 0-.5-.214-.5-.5V28zm19 0h3v.5c0 .286-.214.5-.5.5h-2c-.286 0-.5-.214-.5-.5V28z"
     id="path2"
     style="fill:#fc8c13;fill-opacity:1" />
</svg>
