<?xml version="1.0" encoding="UTF-8" standalone="no"?>
<!-- Uploaded to: SVG Repo, www.svgrepo.com, Generator: SVG Repo Mixer Tools -->

<svg
   xmlns:dc="http://purl.org/dc/elements/1.1/"
   xmlns:cc="http://creativecommons.org/ns#"
   xmlns:rdf="http://www.w3.org/1999/02/22-rdf-syntax-ns#"
   xmlns:svg="http://www.w3.org/2000/svg"
   xmlns="http://www.w3.org/2000/svg"
   xmlns:sodipodi="http://sodipodi.sourceforge.net/DTD/sodipodi-0.dtd"
   xmlns:inkscape="http://www.inkscape.org/namespaces/inkscape"
   fill="#000000"
   width="800px"
   height="800px"
   viewBox="0 0 30 30"
   version="1.1"
   id="svg4"
   sodipodi:docname="responsive-svgrepo-com.svg"
   inkscape:version="0.92.3 (2405546, 2018-03-11)">
  <metadata
     id="metadata10">
    <rdf:RDF>
      <cc:Work
         rdf:about="">
        <dc:format>image/svg+xml</dc:format>
        <dc:type
           rdf:resource="http://purl.org/dc/dcmitype/StillImage" />
      </cc:Work>
    </rdf:RDF>
  </metadata>
  <defs
     id="defs8" />
  <sodipodi:namedview
     pagecolor="#ffffff"
     bordercolor="#666666"
     borderopacity="1"
     objecttolerance="10"
     gridtolerance="10"
     guidetolerance="10"
     inkscape:pageopacity="0"
     inkscape:pageshadow="2"
     inkscape:window-width="2560"
     inkscape:window-height="1387"
     id="namedview6"
     showgrid="false"
     inkscape:zoom="0.295"
     inkscape:cx="400"
     inkscape:cy="400"
     inkscape:window-x="1080"
     inkscape:window-y="222"
     inkscape:window-maximized="1"
     inkscape:current-layer="svg4" />
  <path
     d="M25 24.5c0 .276-.224.5-.5.5s-.5-.224-.5-.5.224-.5.5-.5.5.224.5.5zM23.5 12h2c.277 0 .5.223.5.5s-.223.5-.5.5h-2c-.277 0-.5-.223-.5-.5s.223-.5.5-.5zm-3-2c-.822 0-1.5.678-1.5 1.5v14c0 .822.678 1.5 1.5 1.5h8c.822 0 1.5-.678 1.5-1.5v-14c0-.822-.678-1.5-1.5-1.5zm0 1h8c.286 0 .5.214.5.5v14c0 .286-.214.5-.5.5h-8c-.286 0-.5-.214-.5-.5v-14c0-.286.214-.5.5-.5zM14 19.5c0 .276-.224.5-.5.5s-.5-.224-.5-.5.224-.5.5-.5.5.224.5.5zM1.5 3C.678 3 0 3.678 0 4.5v16c0 .822.678 1.5 1.5 1.5H11v2H9.5c-.277 0-.5.223-.5.5s.223.5.5.5h8c.277 0 .5-.223.5-.5s-.223-.5-.5-.5H16v-2h1.5c.668 0 .656-1 0-1h-16c-.286 0-.5-.214-.5-.5V18h16.5c.277 0 .5-.223.5-.5s-.223-.5-.5-.5H1V4.5c0-.286.214-.5.5-.5h24c.286 0 .5.214.5.5v4c0 .665 1 .657 1 0v-4c0-.822-.678-1.5-1.5-1.5zM12 22h3v2h-3z"
     id="path2"
     style="fill:#fc8c13;fill-opacity:1" />
</svg>
