<?xml version="1.0" encoding="UTF-8" standalone="no"?>
<!-- Uploaded to: SVG Repo, www.svgrepo.com, Generator: SVG Repo Mixer Tools -->

<svg
   xmlns:dc="http://purl.org/dc/elements/1.1/"
   xmlns:cc="http://creativecommons.org/ns#"
   xmlns:rdf="http://www.w3.org/1999/02/22-rdf-syntax-ns#"
   xmlns:svg="http://www.w3.org/2000/svg"
   xmlns="http://www.w3.org/2000/svg"
   xmlns:sodipodi="http://sodipodi.sourceforge.net/DTD/sodipodi-0.dtd"
   xmlns:inkscape="http://www.inkscape.org/namespaces/inkscape"
   fill="#000000"
   width="800px"
   height="800px"
   viewBox="0 0 30 30"
   version="1.1"
   id="svg4"
   sodipodi:docname="windows-svgrepo-com.svg"
   inkscape:version="0.92.3 (2405546, 2018-03-11)">
  <metadata
     id="metadata10">
    <rdf:RDF>
      <cc:Work
         rdf:about="">
        <dc:format>image/svg+xml</dc:format>
        <dc:type
           rdf:resource="http://purl.org/dc/dcmitype/StillImage" />
      </cc:Work>
    </rdf:RDF>
  </metadata>
  <defs
     id="defs8" />
  <sodipodi:namedview
     pagecolor="#ffffff"
     bordercolor="#666666"
     borderopacity="1"
     objecttolerance="10"
     gridtolerance="10"
     guidetolerance="10"
     inkscape:pageopacity="0"
     inkscape:pageshadow="2"
     inkscape:window-width="2560"
     inkscape:window-height="1387"
     id="namedview6"
     showgrid="false"
     inkscape:zoom="0.295"
     inkscape:cx="400"
     inkscape:cy="400"
     inkscape:window-x="1080"
     inkscape:window-y="222"
     inkscape:window-maximized="1"
     inkscape:current-layer="svg4" />
  <path
     d="M29.484 0a.5.5 0 0 0-.05.004l-15 2A.5.5 0 0 0 14 2.5v11a.5.5 0 0 0 .5.5h15a.5.5 0 0 0 .5-.5V.5a.5.5 0 0 0-.516-.5zM29 1.072V13H15V2.937l14-1.865zM14.5 16a.5.5 0 0 0-.5.5v10.807a.5.5 0 0 0 .428.494l15 2.194A.5.5 0 0 0 30 29.5v-13a.5.5 0 0 0-.5-.5h-15zm.5 1h14v11.922l-14-2.047V17zM.5 16a.5.5 0 0 0-.5.5v8a.5.5 0 0 0 .41.492l11 2A.5.5 0 0 0 12 26.5v-10a.5.5 0 0 0-.5-.5H.5zm.5 1h10v8.9L1 24.082V17zM11.484 3a.5.5 0 0 0-.074.008l-11 2A.5.5 0 0 0 0 5.5v8a.5.5 0 0 0 .5.5h11a.5.5 0 0 0 .5-.5v-10a.5.5 0 0 0-.516-.5zM11 4.1V13H1V5.918L11 4.1z"
     id="path2"
     style="fill-opacity:1;fill:#fc8c13" />
</svg>
